<svg xmlns="http://www.w3.org/2000/svg" width="268" height="295"><defs><clipPath id="a"/><clipPath id="b"><path fill="none" d="M0 0h268v298H0z"/></clipPath></defs><g transform="translate(-376 -1160)" clip-path="url(#a)"><g data-name="リピートグリッド 6" transform="translate(376 1157)" clip-path="url(#b)" fill="rgba(81,140,3,0.6)"><circle data-name="楕円形 10" cx="4" cy="4" r="4"/><circle data-name="楕円形 10" cx="4" cy="4" r="4" transform="translate(16)"/><circle data-name="楕円形 10" cx="4" cy="4" r="4" transform="translate(32)"/><circle data-name="楕円形 10" cx="4" cy="4" r="4" transform="translate(48)"/><circle data-name="楕円形 10" cx="4" cy="4" r="4" transform="translate(64)"/><circle data-name="楕円形 10" cx="4" cy="4" r="4" transform="translate(80)"/><circle data-name="楕円形 10" cx="4" cy="4" r="4" transform="translate(96)"/><circle data-name="楕円形 10" cx="4" cy="4" r="4" transform="translate(112)"/><circle data-name="楕円形 10" cx="4" cy="4" r="4" transform="translate(128)"/><circle data-name="楕円形 10" cx="4" cy="4" r="4" transform="translate(144)"/><circle data-name="楕円形 10" cx="4" cy="4" r="4" transform="translate(160)"/><circle data-name="楕円形 10" cx="4" cy="4" r="4" transform="translate(176)"/><circle data-name="楕円形 10" cx="4" cy="4" r="4" transform="translate(192)"/><circle data-name="楕円形 10" cx="4" cy="4" r="4" transform="translate(208)"/><circle data-name="楕円形 10" cx="4" cy="4" r="4" transform="translate(224)"/><circle data-name="楕円形 10" cx="4" cy="4" r="4" transform="translate(240)"/><circle data-name="楕円形 10" cx="4" cy="4" r="4" transform="translate(256)"/><circle data-name="楕円形 10" cx="4" cy="4" r="4" transform="translate(0 16)"/><circle data-name="楕円形 10" cx="4" cy="4" r="4" transform="translate(16 16)"/><circle data-name="楕円形 10" cx="4" cy="4" r="4" transform="translate(32 16)"/><circle data-name="楕円形 10" cx="4" cy="4" r="4" transform="translate(48 16)"/><circle data-name="楕円形 10" cx="4" cy="4" r="4" transform="translate(64 16)"/><circle data-name="楕円形 10" cx="4" cy="4" r="4" transform="translate(80 16)"/><circle data-name="楕円形 10" cx="4" cy="4" r="4" transform="translate(96 16)"/><circle data-name="楕円形 10" cx="4" cy="4" r="4" transform="translate(112 16)"/><circle data-name="楕円形 10" cx="4" cy="4" r="4" transform="translate(128 16)"/><circle data-name="楕円形 10" cx="4" cy="4" r="4" transform="translate(144 16)"/><circle data-name="楕円形 10" cx="4" cy="4" r="4" transform="translate(160 16)"/><circle data-name="楕円形 10" cx="4" cy="4" r="4" transform="translate(176 16)"/><circle data-name="楕円形 10" cx="4" cy="4" r="4" transform="translate(192 16)"/><circle data-name="楕円形 10" cx="4" cy="4" r="4" transform="translate(208 16)"/><circle data-name="楕円形 10" cx="4" cy="4" r="4" transform="translate(224 16)"/><circle data-name="楕円形 10" cx="4" cy="4" r="4" transform="translate(240 16)"/><circle data-name="楕円形 10" cx="4" cy="4" r="4" transform="translate(256 16)"/><circle data-name="楕円形 10" cx="4" cy="4" r="4" transform="translate(0 32)"/><circle data-name="楕円形 10" cx="4" cy="4" r="4" transform="translate(16 32)"/><circle data-name="楕円形 10" cx="4" cy="4" r="4" transform="translate(32 32)"/><circle data-name="楕円形 10" cx="4" cy="4" r="4" transform="translate(48 32)"/><circle data-name="楕円形 10" cx="4" cy="4" r="4" transform="translate(64 32)"/><circle data-name="楕円形 10" cx="4" cy="4" r="4" transform="translate(80 32)"/><circle data-name="楕円形 10" cx="4" cy="4" r="4" transform="translate(96 32)"/><circle data-name="楕円形 10" cx="4" cy="4" r="4" transform="translate(112 32)"/><circle data-name="楕円形 10" cx="4" cy="4" r="4" transform="translate(128 32)"/><circle data-name="楕円形 10" cx="4" cy="4" r="4" transform="translate(144 32)"/><circle data-name="楕円形 10" cx="4" cy="4" r="4" transform="translate(160 32)"/><circle data-name="楕円形 10" cx="4" cy="4" r="4" transform="translate(176 32)"/><circle data-name="楕円形 10" cx="4" cy="4" r="4" transform="translate(192 32)"/><circle data-name="楕円形 10" cx="4" cy="4" r="4" transform="translate(208 32)"/><circle data-name="楕円形 10" cx="4" cy="4" r="4" transform="translate(224 32)"/><circle data-name="楕円形 10" cx="4" cy="4" r="4" transform="translate(240 32)"/><circle data-name="楕円形 10" cx="4" cy="4" r="4" transform="translate(256 32)"/><circle data-name="楕円形 10" cx="4" cy="4" r="4" transform="translate(0 48)"/><circle data-name="楕円形 10" cx="4" cy="4" r="4" transform="translate(16 48)"/><circle data-name="楕円形 10" cx="4" cy="4" r="4" transform="translate(32 48)"/><circle data-name="楕円形 10" cx="4" cy="4" r="4" transform="translate(48 48)"/><circle data-name="楕円形 10" cx="4" cy="4" r="4" transform="translate(64 48)"/><circle data-name="楕円形 10" cx="4" cy="4" r="4" transform="translate(80 48)"/><circle data-name="楕円形 10" cx="4" cy="4" r="4" transform="translate(96 48)"/><circle data-name="楕円形 10" cx="4" cy="4" r="4" transform="translate(112 48)"/><circle data-name="楕円形 10" cx="4" cy="4" r="4" transform="translate(128 48)"/><circle data-name="楕円形 10" cx="4" cy="4" r="4" transform="translate(144 48)"/><circle data-name="楕円形 10" cx="4" cy="4" r="4" transform="translate(160 48)"/><circle data-name="楕円形 10" cx="4" cy="4" r="4" transform="translate(176 48)"/><circle data-name="楕円形 10" cx="4" cy="4" r="4" transform="translate(192 48)"/><circle data-name="楕円形 10" cx="4" cy="4" r="4" transform="translate(208 48)"/><circle data-name="楕円形 10" cx="4" cy="4" r="4" transform="translate(224 48)"/><circle data-name="楕円形 10" cx="4" cy="4" r="4" transform="translate(240 48)"/><circle data-name="楕円形 10" cx="4" cy="4" r="4" transform="translate(256 48)"/><circle data-name="楕円形 10" cx="4" cy="4" r="4" transform="translate(0 64)"/><circle data-name="楕円形 10" cx="4" cy="4" r="4" transform="translate(16 64)"/><circle data-name="楕円形 10" cx="4" cy="4" r="4" transform="translate(32 64)"/><circle data-name="楕円形 10" cx="4" cy="4" r="4" transform="translate(48 64)"/><circle data-name="楕円形 10" cx="4" cy="4" r="4" transform="translate(64 64)"/><circle data-name="楕円形 10" cx="4" cy="4" r="4" transform="translate(80 64)"/><circle data-name="楕円形 10" cx="4" cy="4" r="4" transform="translate(96 64)"/><circle data-name="楕円形 10" cx="4" cy="4" r="4" transform="translate(112 64)"/><circle data-name="楕円形 10" cx="4" cy="4" r="4" transform="translate(128 64)"/><circle data-name="楕円形 10" cx="4" cy="4" r="4" transform="translate(144 64)"/><circle data-name="楕円形 10" cx="4" cy="4" r="4" transform="translate(160 64)"/><circle data-name="楕円形 10" cx="4" cy="4" r="4" transform="translate(176 64)"/><circle data-name="楕円形 10" cx="4" cy="4" r="4" transform="translate(192 64)"/><circle data-name="楕円形 10" cx="4" cy="4" r="4" transform="translate(208 64)"/><circle data-name="楕円形 10" cx="4" cy="4" r="4" transform="translate(224 64)"/><circle data-name="楕円形 10" cx="4" cy="4" r="4" transform="translate(240 64)"/><circle data-name="楕円形 10" cx="4" cy="4" r="4" transform="translate(256 64)"/><circle data-name="楕円形 10" cx="4" cy="4" r="4" transform="translate(0 80)"/><circle data-name="楕円形 10" cx="4" cy="4" r="4" transform="translate(16 80)"/><circle data-name="楕円形 10" cx="4" cy="4" r="4" transform="translate(32 80)"/><circle data-name="楕円形 10" cx="4" cy="4" r="4" transform="translate(48 80)"/><circle data-name="楕円形 10" cx="4" cy="4" r="4" transform="translate(64 80)"/><circle data-name="楕円形 10" cx="4" cy="4" r="4" transform="translate(80 80)"/><circle data-name="楕円形 10" cx="4" cy="4" r="4" transform="translate(96 80)"/><circle data-name="楕円形 10" cx="4" cy="4" r="4" transform="translate(112 80)"/><circle data-name="楕円形 10" cx="4" cy="4" r="4" transform="translate(128 80)"/><circle data-name="楕円形 10" cx="4" cy="4" r="4" transform="translate(144 80)"/><circle data-name="楕円形 10" cx="4" cy="4" r="4" transform="translate(160 80)"/><circle data-name="楕円形 10" cx="4" cy="4" r="4" transform="translate(176 80)"/><circle data-name="楕円形 10" cx="4" cy="4" r="4" transform="translate(192 80)"/><circle data-name="楕円形 10" cx="4" cy="4" r="4" transform="translate(208 80)"/><circle data-name="楕円形 10" cx="4" cy="4" r="4" transform="translate(224 80)"/><circle data-name="楕円形 10" cx="4" cy="4" r="4" transform="translate(240 80)"/><circle data-name="楕円形 10" cx="4" cy="4" r="4" transform="translate(256 80)"/><circle data-name="楕円形 10" cx="4" cy="4" r="4" transform="translate(0 96)"/><circle data-name="楕円形 10" cx="4" cy="4" r="4" transform="translate(16 96)"/><circle data-name="楕円形 10" cx="4" cy="4" r="4" transform="translate(32 96)"/><circle data-name="楕円形 10" cx="4" cy="4" r="4" transform="translate(48 96)"/><circle data-name="楕円形 10" cx="4" cy="4" r="4" transform="translate(64 96)"/><circle data-name="楕円形 10" cx="4" cy="4" r="4" transform="translate(80 96)"/><circle data-name="楕円形 10" cx="4" cy="4" r="4" transform="translate(96 96)"/><circle data-name="楕円形 10" cx="4" cy="4" r="4" transform="translate(112 96)"/><circle data-name="楕円形 10" cx="4" cy="4" r="4" transform="translate(128 96)"/><circle data-name="楕円形 10" cx="4" cy="4" r="4" transform="translate(144 96)"/><circle data-name="楕円形 10" cx="4" cy="4" r="4" transform="translate(160 96)"/><circle data-name="楕円形 10" cx="4" cy="4" r="4" transform="translate(176 96)"/><circle data-name="楕円形 10" cx="4" cy="4" r="4" transform="translate(192 96)"/><circle data-name="楕円形 10" cx="4" cy="4" r="4" transform="translate(208 96)"/><circle data-name="楕円形 10" cx="4" cy="4" r="4" transform="translate(224 96)"/><circle data-name="楕円形 10" cx="4" cy="4" r="4" transform="translate(240 96)"/><circle data-name="楕円形 10" cx="4" cy="4" r="4" transform="translate(256 96)"/><circle data-name="楕円形 10" cx="4" cy="4" r="4" transform="translate(0 112)"/><circle data-name="楕円形 10" cx="4" cy="4" r="4" transform="translate(16 112)"/><circle data-name="楕円形 10" cx="4" cy="4" r="4" transform="translate(32 112)"/><circle data-name="楕円形 10" cx="4" cy="4" r="4" transform="translate(48 112)"/><circle data-name="楕円形 10" cx="4" cy="4" r="4" transform="translate(64 112)"/><circle data-name="楕円形 10" cx="4" cy="4" r="4" transform="translate(80 112)"/><circle data-name="楕円形 10" cx="4" cy="4" r="4" transform="translate(96 112)"/><circle data-name="楕円形 10" cx="4" cy="4" r="4" transform="translate(112 112)"/><circle data-name="楕円形 10" cx="4" cy="4" r="4" transform="translate(128 112)"/><circle data-name="楕円形 10" cx="4" cy="4" r="4" transform="translate(144 112)"/><circle data-name="楕円形 10" cx="4" cy="4" r="4" transform="translate(160 112)"/><circle data-name="楕円形 10" cx="4" cy="4" r="4" transform="translate(176 112)"/><circle data-name="楕円形 10" cx="4" cy="4" r="4" transform="translate(192 112)"/><circle data-name="楕円形 10" cx="4" cy="4" r="4" transform="translate(208 112)"/><circle data-name="楕円形 10" cx="4" cy="4" r="4" transform="translate(224 112)"/><circle data-name="楕円形 10" cx="4" cy="4" r="4" transform="translate(240 112)"/><circle data-name="楕円形 10" cx="4" cy="4" r="4" transform="translate(256 112)"/><circle data-name="楕円形 10" cx="4" cy="4" r="4" transform="translate(0 128)"/><circle data-name="楕円形 10" cx="4" cy="4" r="4" transform="translate(16 128)"/><circle data-name="楕円形 10" cx="4" cy="4" r="4" transform="translate(32 128)"/><circle data-name="楕円形 10" cx="4" cy="4" r="4" transform="translate(48 128)"/><circle data-name="楕円形 10" cx="4" cy="4" r="4" transform="translate(64 128)"/><circle data-name="楕円形 10" cx="4" cy="4" r="4" transform="translate(80 128)"/><circle data-name="楕円形 10" cx="4" cy="4" r="4" transform="translate(96 128)"/><circle data-name="楕円形 10" cx="4" cy="4" r="4" transform="translate(112 128)"/><circle data-name="楕円形 10" cx="4" cy="4" r="4" transform="translate(128 128)"/><circle data-name="楕円形 10" cx="4" cy="4" r="4" transform="translate(144 128)"/><circle data-name="楕円形 10" cx="4" cy="4" r="4" transform="translate(160 128)"/><circle data-name="楕円形 10" cx="4" cy="4" r="4" transform="translate(176 128)"/><circle data-name="楕円形 10" cx="4" cy="4" r="4" transform="translate(192 128)"/><circle data-name="楕円形 10" cx="4" cy="4" r="4" transform="translate(208 128)"/><circle data-name="楕円形 10" cx="4" cy="4" r="4" transform="translate(224 128)"/><circle data-name="楕円形 10" cx="4" cy="4" r="4" transform="translate(240 128)"/><circle data-name="楕円形 10" cx="4" cy="4" r="4" transform="translate(256 128)"/><circle data-name="楕円形 10" cx="4" cy="4" r="4" transform="translate(0 144)"/><circle data-name="楕円形 10" cx="4" cy="4" r="4" transform="translate(16 144)"/><circle data-name="楕円形 10" cx="4" cy="4" r="4" transform="translate(32 144)"/><circle data-name="楕円形 10" cx="4" cy="4" r="4" transform="translate(48 144)"/><circle data-name="楕円形 10" cx="4" cy="4" r="4" transform="translate(64 144)"/><circle data-name="楕円形 10" cx="4" cy="4" r="4" transform="translate(80 144)"/><circle data-name="楕円形 10" cx="4" cy="4" r="4" transform="translate(96 144)"/><circle data-name="楕円形 10" cx="4" cy="4" r="4" transform="translate(112 144)"/><circle data-name="楕円形 10" cx="4" cy="4" r="4" transform="translate(128 144)"/><circle data-name="楕円形 10" cx="4" cy="4" r="4" transform="translate(144 144)"/><circle data-name="楕円形 10" cx="4" cy="4" r="4" transform="translate(160 144)"/><circle data-name="楕円形 10" cx="4" cy="4" r="4" transform="translate(176 144)"/><circle data-name="楕円形 10" cx="4" cy="4" r="4" transform="translate(192 144)"/><circle data-name="楕円形 10" cx="4" cy="4" r="4" transform="translate(208 144)"/><circle data-name="楕円形 10" cx="4" cy="4" r="4" transform="translate(224 144)"/><circle data-name="楕円形 10" cx="4" cy="4" r="4" transform="translate(240 144)"/><circle data-name="楕円形 10" cx="4" cy="4" r="4" transform="translate(256 144)"/><circle data-name="楕円形 10" cx="4" cy="4" r="4" transform="translate(0 160)"/><circle data-name="楕円形 10" cx="4" cy="4" r="4" transform="translate(16 160)"/><circle data-name="楕円形 10" cx="4" cy="4" r="4" transform="translate(32 160)"/><circle data-name="楕円形 10" cx="4" cy="4" r="4" transform="translate(48 160)"/><circle data-name="楕円形 10" cx="4" cy="4" r="4" transform="translate(64 160)"/><circle data-name="楕円形 10" cx="4" cy="4" r="4" transform="translate(80 160)"/><circle data-name="楕円形 10" cx="4" cy="4" r="4" transform="translate(96 160)"/><circle data-name="楕円形 10" cx="4" cy="4" r="4" transform="translate(112 160)"/><circle data-name="楕円形 10" cx="4" cy="4" r="4" transform="translate(128 160)"/><circle data-name="楕円形 10" cx="4" cy="4" r="4" transform="translate(144 160)"/><circle data-name="楕円形 10" cx="4" cy="4" r="4" transform="translate(160 160)"/><circle data-name="楕円形 10" cx="4" cy="4" r="4" transform="translate(176 160)"/><circle data-name="楕円形 10" cx="4" cy="4" r="4" transform="translate(192 160)"/><circle data-name="楕円形 10" cx="4" cy="4" r="4" transform="translate(208 160)"/><circle data-name="楕円形 10" cx="4" cy="4" r="4" transform="translate(224 160)"/><circle data-name="楕円形 10" cx="4" cy="4" r="4" transform="translate(240 160)"/><circle data-name="楕円形 10" cx="4" cy="4" r="4" transform="translate(256 160)"/><circle data-name="楕円形 10" cx="4" cy="4" r="4" transform="translate(0 176)"/><circle data-name="楕円形 10" cx="4" cy="4" r="4" transform="translate(16 176)"/><circle data-name="楕円形 10" cx="4" cy="4" r="4" transform="translate(32 176)"/><circle data-name="楕円形 10" cx="4" cy="4" r="4" transform="translate(48 176)"/><circle data-name="楕円形 10" cx="4" cy="4" r="4" transform="translate(64 176)"/><circle data-name="楕円形 10" cx="4" cy="4" r="4" transform="translate(80 176)"/><circle data-name="楕円形 10" cx="4" cy="4" r="4" transform="translate(96 176)"/><circle data-name="楕円形 10" cx="4" cy="4" r="4" transform="translate(112 176)"/><circle data-name="楕円形 10" cx="4" cy="4" r="4" transform="translate(128 176)"/><circle data-name="楕円形 10" cx="4" cy="4" r="4" transform="translate(144 176)"/><circle data-name="楕円形 10" cx="4" cy="4" r="4" transform="translate(160 176)"/><circle data-name="楕円形 10" cx="4" cy="4" r="4" transform="translate(176 176)"/><circle data-name="楕円形 10" cx="4" cy="4" r="4" transform="translate(192 176)"/><circle data-name="楕円形 10" cx="4" cy="4" r="4" transform="translate(208 176)"/><circle data-name="楕円形 10" cx="4" cy="4" r="4" transform="translate(224 176)"/><circle data-name="楕円形 10" cx="4" cy="4" r="4" transform="translate(240 176)"/><circle data-name="楕円形 10" cx="4" cy="4" r="4" transform="translate(256 176)"/><circle data-name="楕円形 10" cx="4" cy="4" r="4" transform="translate(0 192)"/><circle data-name="楕円形 10" cx="4" cy="4" r="4" transform="translate(16 192)"/><circle data-name="楕円形 10" cx="4" cy="4" r="4" transform="translate(32 192)"/><circle data-name="楕円形 10" cx="4" cy="4" r="4" transform="translate(48 192)"/><circle data-name="楕円形 10" cx="4" cy="4" r="4" transform="translate(64 192)"/><circle data-name="楕円形 10" cx="4" cy="4" r="4" transform="translate(80 192)"/><circle data-name="楕円形 10" cx="4" cy="4" r="4" transform="translate(96 192)"/><circle data-name="楕円形 10" cx="4" cy="4" r="4" transform="translate(112 192)"/><circle data-name="楕円形 10" cx="4" cy="4" r="4" transform="translate(128 192)"/><circle data-name="楕円形 10" cx="4" cy="4" r="4" transform="translate(144 192)"/><circle data-name="楕円形 10" cx="4" cy="4" r="4" transform="translate(160 192)"/><circle data-name="楕円形 10" cx="4" cy="4" r="4" transform="translate(176 192)"/><circle data-name="楕円形 10" cx="4" cy="4" r="4" transform="translate(192 192)"/><circle data-name="楕円形 10" cx="4" cy="4" r="4" transform="translate(208 192)"/><circle data-name="楕円形 10" cx="4" cy="4" r="4" transform="translate(224 192)"/><circle data-name="楕円形 10" cx="4" cy="4" r="4" transform="translate(240 192)"/><circle data-name="楕円形 10" cx="4" cy="4" r="4" transform="translate(256 192)"/><circle data-name="楕円形 10" cx="4" cy="4" r="4" transform="translate(0 208)"/><circle data-name="楕円形 10" cx="4" cy="4" r="4" transform="translate(16 208)"/><circle data-name="楕円形 10" cx="4" cy="4" r="4" transform="translate(32 208)"/><circle data-name="楕円形 10" cx="4" cy="4" r="4" transform="translate(48 208)"/><circle data-name="楕円形 10" cx="4" cy="4" r="4" transform="translate(64 208)"/><circle data-name="楕円形 10" cx="4" cy="4" r="4" transform="translate(80 208)"/><circle data-name="楕円形 10" cx="4" cy="4" r="4" transform="translate(96 208)"/><circle data-name="楕円形 10" cx="4" cy="4" r="4" transform="translate(112 208)"/><circle data-name="楕円形 10" cx="4" cy="4" r="4" transform="translate(128 208)"/><circle data-name="楕円形 10" cx="4" cy="4" r="4" transform="translate(144 208)"/><circle data-name="楕円形 10" cx="4" cy="4" r="4" transform="translate(160 208)"/><circle data-name="楕円形 10" cx="4" cy="4" r="4" transform="translate(176 208)"/><circle data-name="楕円形 10" cx="4" cy="4" r="4" transform="translate(192 208)"/><circle data-name="楕円形 10" cx="4" cy="4" r="4" transform="translate(208 208)"/><circle data-name="楕円形 10" cx="4" cy="4" r="4" transform="translate(224 208)"/><circle data-name="楕円形 10" cx="4" cy="4" r="4" transform="translate(240 208)"/><circle data-name="楕円形 10" cx="4" cy="4" r="4" transform="translate(256 208)"/><circle data-name="楕円形 10" cx="4" cy="4" r="4" transform="translate(0 224)"/><circle data-name="楕円形 10" cx="4" cy="4" r="4" transform="translate(16 224)"/><circle data-name="楕円形 10" cx="4" cy="4" r="4" transform="translate(32 224)"/><circle data-name="楕円形 10" cx="4" cy="4" r="4" transform="translate(48 224)"/><circle data-name="楕円形 10" cx="4" cy="4" r="4" transform="translate(64 224)"/><circle data-name="楕円形 10" cx="4" cy="4" r="4" transform="translate(80 224)"/><circle data-name="楕円形 10" cx="4" cy="4" r="4" transform="translate(96 224)"/><circle data-name="楕円形 10" cx="4" cy="4" r="4" transform="translate(112 224)"/><circle data-name="楕円形 10" cx="4" cy="4" r="4" transform="translate(128 224)"/><circle data-name="楕円形 10" cx="4" cy="4" r="4" transform="translate(144 224)"/><circle data-name="楕円形 10" cx="4" cy="4" r="4" transform="translate(160 224)"/><circle data-name="楕円形 10" cx="4" cy="4" r="4" transform="translate(176 224)"/><circle data-name="楕円形 10" cx="4" cy="4" r="4" transform="translate(192 224)"/><circle data-name="楕円形 10" cx="4" cy="4" r="4" transform="translate(208 224)"/><circle data-name="楕円形 10" cx="4" cy="4" r="4" transform="translate(224 224)"/><circle data-name="楕円形 10" cx="4" cy="4" r="4" transform="translate(240 224)"/><circle data-name="楕円形 10" cx="4" cy="4" r="4" transform="translate(256 224)"/><circle data-name="楕円形 10" cx="4" cy="4" r="4" transform="translate(0 240)"/><circle data-name="楕円形 10" cx="4" cy="4" r="4" transform="translate(16 240)"/><circle data-name="楕円形 10" cx="4" cy="4" r="4" transform="translate(32 240)"/><circle data-name="楕円形 10" cx="4" cy="4" r="4" transform="translate(48 240)"/><circle data-name="楕円形 10" cx="4" cy="4" r="4" transform="translate(64 240)"/><circle data-name="楕円形 10" cx="4" cy="4" r="4" transform="translate(80 240)"/><circle data-name="楕円形 10" cx="4" cy="4" r="4" transform="translate(96 240)"/><circle data-name="楕円形 10" cx="4" cy="4" r="4" transform="translate(112 240)"/><circle data-name="楕円形 10" cx="4" cy="4" r="4" transform="translate(128 240)"/><circle data-name="楕円形 10" cx="4" cy="4" r="4" transform="translate(144 240)"/><circle data-name="楕円形 10" cx="4" cy="4" r="4" transform="translate(160 240)"/><circle data-name="楕円形 10" cx="4" cy="4" r="4" transform="translate(176 240)"/><circle data-name="楕円形 10" cx="4" cy="4" r="4" transform="translate(192 240)"/><circle data-name="楕円形 10" cx="4" cy="4" r="4" transform="translate(208 240)"/><circle data-name="楕円形 10" cx="4" cy="4" r="4" transform="translate(224 240)"/><circle data-name="楕円形 10" cx="4" cy="4" r="4" transform="translate(240 240)"/><circle data-name="楕円形 10" cx="4" cy="4" r="4" transform="translate(256 240)"/><circle data-name="楕円形 10" cx="4" cy="4" r="4" transform="translate(0 256)"/><circle data-name="楕円形 10" cx="4" cy="4" r="4" transform="translate(16 256)"/><circle data-name="楕円形 10" cx="4" cy="4" r="4" transform="translate(32 256)"/><circle data-name="楕円形 10" cx="4" cy="4" r="4" transform="translate(48 256)"/><circle data-name="楕円形 10" cx="4" cy="4" r="4" transform="translate(64 256)"/><circle data-name="楕円形 10" cx="4" cy="4" r="4" transform="translate(80 256)"/><circle data-name="楕円形 10" cx="4" cy="4" r="4" transform="translate(96 256)"/><circle data-name="楕円形 10" cx="4" cy="4" r="4" transform="translate(112 256)"/><circle data-name="楕円形 10" cx="4" cy="4" r="4" transform="translate(128 256)"/><circle data-name="楕円形 10" cx="4" cy="4" r="4" transform="translate(144 256)"/><circle data-name="楕円形 10" cx="4" cy="4" r="4" transform="translate(160 256)"/><circle data-name="楕円形 10" cx="4" cy="4" r="4" transform="translate(176 256)"/><circle data-name="楕円形 10" cx="4" cy="4" r="4" transform="translate(192 256)"/><circle data-name="楕円形 10" cx="4" cy="4" r="4" transform="translate(208 256)"/><circle data-name="楕円形 10" cx="4" cy="4" r="4" transform="translate(224 256)"/><circle data-name="楕円形 10" cx="4" cy="4" r="4" transform="translate(240 256)"/><circle data-name="楕円形 10" cx="4" cy="4" r="4" transform="translate(256 256)"/><circle data-name="楕円形 10" cx="4" cy="4" r="4" transform="translate(0 272)"/><circle data-name="楕円形 10" cx="4" cy="4" r="4" transform="translate(16 272)"/><circle data-name="楕円形 10" cx="4" cy="4" r="4" transform="translate(32 272)"/><circle data-name="楕円形 10" cx="4" cy="4" r="4" transform="translate(48 272)"/><circle data-name="楕円形 10" cx="4" cy="4" r="4" transform="translate(64 272)"/><circle data-name="楕円形 10" cx="4" cy="4" r="4" transform="translate(80 272)"/><circle data-name="楕円形 10" cx="4" cy="4" r="4" transform="translate(96 272)"/><circle data-name="楕円形 10" cx="4" cy="4" r="4" transform="translate(112 272)"/><circle data-name="楕円形 10" cx="4" cy="4" r="4" transform="translate(128 272)"/><circle data-name="楕円形 10" cx="4" cy="4" r="4" transform="translate(144 272)"/><circle data-name="楕円形 10" cx="4" cy="4" r="4" transform="translate(160 272)"/><circle data-name="楕円形 10" cx="4" cy="4" r="4" transform="translate(176 272)"/><circle data-name="楕円形 10" cx="4" cy="4" r="4" transform="translate(192 272)"/><circle data-name="楕円形 10" cx="4" cy="4" r="4" transform="translate(208 272)"/><circle data-name="楕円形 10" cx="4" cy="4" r="4" transform="translate(224 272)"/><circle data-name="楕円形 10" cx="4" cy="4" r="4" transform="translate(240 272)"/><circle data-name="楕円形 10" cx="4" cy="4" r="4" transform="translate(256 272)"/><circle data-name="楕円形 10" cx="4" cy="4" r="4" transform="translate(0 288)"/><circle data-name="楕円形 10" cx="4" cy="4" r="4" transform="translate(16 288)"/><circle data-name="楕円形 10" cx="4" cy="4" r="4" transform="translate(32 288)"/><circle data-name="楕円形 10" cx="4" cy="4" r="4" transform="translate(48 288)"/><circle data-name="楕円形 10" cx="4" cy="4" r="4" transform="translate(64 288)"/><circle data-name="楕円形 10" cx="4" cy="4" r="4" transform="translate(80 288)"/><circle data-name="楕円形 10" cx="4" cy="4" r="4" transform="translate(96 288)"/><circle data-name="楕円形 10" cx="4" cy="4" r="4" transform="translate(112 288)"/><circle data-name="楕円形 10" cx="4" cy="4" r="4" transform="translate(128 288)"/><circle data-name="楕円形 10" cx="4" cy="4" r="4" transform="translate(144 288)"/><circle data-name="楕円形 10" cx="4" cy="4" r="4" transform="translate(160 288)"/><circle data-name="楕円形 10" cx="4" cy="4" r="4" transform="translate(176 288)"/><circle data-name="楕円形 10" cx="4" cy="4" r="4" transform="translate(192 288)"/><circle data-name="楕円形 10" cx="4" cy="4" r="4" transform="translate(208 288)"/><circle data-name="楕円形 10" cx="4" cy="4" r="4" transform="translate(224 288)"/><circle data-name="楕円形 10" cx="4" cy="4" r="4" transform="translate(240 288)"/><circle data-name="楕円形 10" cx="4" cy="4" r="4" transform="translate(256 288)"/></g></g></svg>