<svg xmlns="http://www.w3.org/2000/svg" width="80" height="80"><g fill="#d9382f"><path data-name="パス 74" d="M47.433 80a3.55 3.55 0 01-.647-.063c-3.677-.695-9.952-2.474-13.753-4.947a30.874 30.874 0 01-8.749-8.263c-.238.011-.488 0-.726.011-13 .684-23.557-8.895-23.557-20.316 0-4.347 1.793-9.684 4.777-12.4a26.079 26.079 0 01-.488-4.968C4.289 13.442 17.418 0 34.8 0c6.366 0 15.784 2.474 20.21 6.053 4.494 3.632 6.967 5.653 9.691 11.663a26.381 26.381 0 0110.519 6.642c3.3 3.442 4.777 8.726 4.777 13.105 0 7.874-4.641 14.674-13.311 18.453a15.762 15.762 0 01.011 3.189c-.556 5.558-4.789 9.211-6.094 10.189-2.054 1.558-3.813 2.158-8.567 2.716-.306.032-.613.032-.9.042-2.576.116-3.643.211-3.858.737-.465 1.137.306 3.253 1.611 4.432a1.81 1.81 0 01.148.147 1.491 1.491 0 01.193 1.705 1.977 1.977 0 01-1.8.926z"/><path data-name="パス 75" d="M64.039 52.315c5.811-3.1 9.7-8.747 9.7-15.227 0-7.089-4.662-13.2-11.406-16.036 0 0-.369 2.4-.911 2.217A28.223 28.223 0 0035.535 5.395c-15.049 0-27.257 10.894-27.257 24.324a48.852 48.852 0 001 7.149c-.4.469-1.583-.889-1.583-.889a16 16 0 00-2.843 9.057c0 9.626 8.75 17.424 19.527 17.424 0 0 .726-1.817 1.214-1.857 2.786 6.51 11.991 12.611 18.258 13.78.553.1.813-.07.618-.3-1.485-1.338-2.45-3.744-1.789-5.342.6-1.448 2.494-1.388 5.594-1.538a16.689 16.689 0 008.674-2.486c1.7-1.118 4.868-3.924 5.28-7.988a11.735 11.735 0 00-.163-5.122c.673-.27 1.345 1.038 1.974.708z"/></g><path data-name="パス 42203" d="M25.411 37.02c0-1.32-1.128-1.944-2.616-2.016a49.152 49.152 0 00-6.1.192l2.184-1.416A5.48 5.48 0 0020.611 32a2.444 2.444 0 00-2.136-1.056 28.6 28.6 0 01-2.88 4.368 2.974 2.974 0 00-.84.336 3.164 3.164 0 00-1.3-.432c-.6 1.56-.48 12.528.192 14.424a1.15 1.15 0 00.984.84 4.808 4.808 0 00.744-1.2 61.17 61.17 0 017.68-.192c.024.552.168 1.08.648 1.08a1.156 1.156 0 001.084-.788c.408-.84.624-8.568.624-12.36zm-13.632-3.072a1.994 1.994 0 00-.936-1.7 3.791 3.791 0 00-2.088-.672s.648 1.1 1.008 1.92c.384.888.768 1.344 1.32 1.344a2.874 2.874 0 00.576-.1 3.018 3.018 0 00.12-.792zm-2.448 4.32c.1-.648-.264-1.2-1.008-1.7a3.717 3.717 0 00-2.136-.7c.36.744 1.3 3 1.92 3.192a.966.966 0 001.224-.792zm13.752-1.656c0 2.616-.024 7.824-.168 11.088a24.974 24.974 0 00-7.416.192 74.511 74.511 0 01-.216-11.4c.264.168.456.288.576.384a36.582 36.582 0 017.224-.264zm-10.9 2.5a65.968 65.968 0 01-4.728 9.048c.168.552.432 1.9 1.632 2.04 2.068-3.6 3.652-9.8 3.1-11.092zm8.544 3.072c.408-.984-.792-1.176-1.488-1.176-1.032 0-2.064.336-2.136.792-.048.336.144.672.6.96.748-.052 2.452-.076 3.028-.58zm25.924-2.02c0-1.08-.7-1.224-1.056-1.128a23.7 23.7 0 01-4.008.672c0-.768.048-2.328.048-3.12a21.708 21.708 0 003.1-.336c.168-.408.312-1.416-.168-1.392a27.7 27.7 0 01-2.952.168c0-.456.024-2.712.048-3.384.024-.6-1.92-.528-1.92-.528-.072.936.024 2.784 0 3.984-.888.024-2.712-.048-3.672-.12a1.186 1.186 0 001.096 1.42 15.336 15.336 0 002.616.24 31.422 31.422 0 01.076 3.14 33.756 33.756 0 01-5.328-.552 1.612 1.612 0 00.48 1.608 27.608 27.608 0 004.92.384c0 1.008.048 2.64 0 3.6a12.417 12.417 0 00-3.6.144c-1.008.216-2.832 1.416-2.928 2.448-.144 1.536 1.752 2.28 2.928 2.472a5.028 5.028 0 004.872-1.8 5.139 5.139 0 00.432-1.56c1.656.24 3.144 1.56 4.224 2.5.432.376 1.008-1.424.308-2.024a11.332 11.332 0 00-4.532-1.988c.024-1.344-.068-2.736-.024-3.912a21.3 21.3 0 005.04-.936zm-6.768 6a3.539 3.539 0 01-.936 2.256c-1.056.84-3.816.672-3.672-.864.092-.936 1.536-1.512 2.692-1.536a18.63 18.63 0 011.916.144zm31.032-1.752a5.268 5.268 0 00-1.608-3.7c-1.848-1.484-4.968-1.124-7.128-.212a51.336 51.336 0 014.944-6.648 4.166 4.166 0 00-.888-1.488 56.15 56.15 0 01-6.48.24 2.4 2.4 0 00.576 1.8c1.392-.216 3-.456 4.416-.624-1.608 2.592-3.5 5.016-5.232 7.632a8.626 8.626 0 00-1.536 2.788c-.048.36.744 1.128 1.2.72.24-.216.96-1.2 1.392-1.656a6.971 6.971 0 016.36-2.28c1.392.264 2.3 2.04 2.28 3.6a3.283 3.283 0 01-.84 2.184c-1.944-1.272-5.424-2.136-7.032-.528a1.849 1.849 0 00.216 2.856c1.488 1.152 4.7.936 6.336.144a5.106 5.106 0 003.024-4.828zm-3.672 3.408a3.884 3.884 0 01-2.616.912 2.763 2.763 0 01-1.824-.576c-.288-.312-.312-.792.12-1.44a5.516 5.516 0 014.32 1.104z" fill="#fff"/></svg>