<svg xmlns="http://www.w3.org/2000/svg" width="80" height="80"><g fill="#d9382f"><path data-name="パス 74" d="M47.433 80a3.55 3.55 0 01-.647-.063c-3.677-.695-9.952-2.474-13.753-4.947a30.874 30.874 0 01-8.749-8.263c-.238.011-.488 0-.726.011-13 .684-23.557-8.895-23.557-20.316 0-4.347 1.793-9.684 4.777-12.4a26.079 26.079 0 01-.488-4.968C4.289 13.442 17.418 0 34.8 0c6.366 0 15.784 2.474 20.21 6.053 4.494 3.632 6.967 5.653 9.691 11.663a26.381 26.381 0 0110.519 6.642c3.3 3.442 4.777 8.726 4.777 13.105 0 7.874-4.641 14.674-13.311 18.453a15.762 15.762 0 01.011 3.189c-.556 5.558-4.789 9.211-6.094 10.189-2.054 1.558-3.813 2.158-8.567 2.716-.306.032-.613.032-.9.042-2.576.116-3.643.211-3.858.737-.465 1.137.306 3.253 1.611 4.432a1.81 1.81 0 01.148.147 1.491 1.491 0 01.193 1.705 1.977 1.977 0 01-1.8.926z"/><path data-name="パス 75" d="M64.039 52.315c5.811-3.1 9.7-8.747 9.7-15.227 0-7.089-4.662-13.2-11.406-16.036 0 0-.369 2.4-.911 2.217A28.223 28.223 0 0035.535 5.395c-15.049 0-27.257 10.894-27.257 24.324a48.852 48.852 0 001 7.149c-.4.469-1.583-.889-1.583-.889a16 16 0 00-2.843 9.057c0 9.626 8.75 17.424 19.527 17.424 0 0 .726-1.817 1.214-1.857 2.786 6.51 11.991 12.611 18.258 13.78.553.1.813-.07.618-.3-1.485-1.338-2.45-3.744-1.789-5.342.6-1.448 2.494-1.388 5.594-1.538a16.689 16.689 0 008.674-2.486c1.7-1.118 4.868-3.924 5.28-7.988a11.735 11.735 0 00-.163-5.122c.673-.27 1.345 1.038 1.974.708z"/></g><path data-name="パス 42203" d="M26.467 36.444c-4.584-1.536-7.536-2.952-9.216-5.544l.12-.264c-.48-.48-.984-1.2-1.656-.936a1.757 1.757 0 00-.264.6 35.239 35.239 0 01-9.144 7.416 4.176 4.176 0 001.2.192c2.016 0 5.352-2.088 6.7-3.552l2.376-2.568c2.112 3.072 5.3 6.12 7.008 6.12a7.953 7.953 0 002.876-1.464zm-3.024 12.744a17.011 17.011 0 01-5.928-2.588c.6-.1 1.224-.168 1.824-.264a1.807 1.807 0 001.368-.744c-.12-.456-.6-.768-1.392-.936-.648.432-1.464 1.272-2.064 1.752l-1.536-.936a5.648 5.648 0 001.32 2.328 11.321 11.321 0 01-3.192 1.08 55.555 55.555 0 01-.168-10.68 13.788 13.788 0 015.328-.144 20.3 20.3 0 01-.264 4.8 12.035 12.035 0 00-4.824.408 1.406 1.406 0 00.384 1.272c1.44-.264 3.624-.744 5.424-.144a2.06 2.06 0 00.984-1.612 30.567 30.567 0 00.46-4.58 1.755 1.755 0 00-1.44-1.3 16.014 16.014 0 00-2.4-.312c.024-.384.072-1.1.048-1.464a1.635 1.635 0 00-1.3-.648.834.834 0 00-.7.312c-.024.432 0 1.224 0 1.8a8.491 8.491 0 00-1.408.212.9.9 0 00-.792.72 1.266 1.266 0 00-1.32-.408 66.434 66.434 0 00-.052 11.088 8.221 8.221 0 00.7 3.12 7.694 7.694 0 004.748-3.38 13.058 13.058 0 003.192 3 6.779 6.779 0 003-1.752zm-6-8.472c.024-.7-.312-1.056-1.056-1.056-.384 0-.792.048-1.152.072a1.2 1.2 0 00-.264.648c0 .456.408.7 1.224.7a1.845 1.845 0 001.248-.364zM48.307 35.7a1.994 1.994 0 00-2.256-1.368c.408.72.912 2.064 1.7 2.208a.839.839 0 00.556-.84zm-2.616.48a2 2 0 00-1.944-1.128c.312.624.648 1.8.984 2.4 1.036-.024 1.248-.696.96-1.272zm3.384 10.68c.7-.984.1-1.248-.672-1.872-3.384-2.76-6.768-5.736-8.976-9.576a2.117 2.117 0 00-1.44 0c-1.656 2.112-3.24 4.536-5.808 5.976a3.37 3.37 0 00.84 2.212c.84.048 1.176-.792 1.608-1.32 1.368-1.7 2.64-3.6 4.056-5.136 2.664 3.38 5.616 7.172 9.264 9.908zm21.84-2.448a5.268 5.268 0 00-1.608-3.7c-1.848-1.484-4.968-1.124-7.128-.212a51.336 51.336 0 014.944-6.648 4.166 4.166 0 00-.888-1.488 56.15 56.15 0 01-6.48.24 2.4 2.4 0 00.576 1.8c1.392-.216 3-.456 4.416-.624-1.608 2.592-3.5 5.016-5.232 7.632a8.626 8.626 0 00-1.536 2.788c-.048.36.744 1.128 1.2.72.24-.216.96-1.2 1.392-1.656a6.971 6.971 0 016.36-2.28c1.392.264 2.3 2.04 2.28 3.6a3.283 3.283 0 01-.84 2.184c-1.944-1.272-5.424-2.136-7.032-.528a1.849 1.849 0 00.216 2.856c1.488 1.152 4.7.936 6.336.144a5.106 5.106 0 003.024-4.828zm-3.672 3.408a3.884 3.884 0 01-2.616.912 2.763 2.763 0 01-1.824-.576c-.288-.312-.312-.792.12-1.44a5.516 5.516 0 014.32 1.104z" fill="#fff"/></svg>