<svg xmlns="http://www.w3.org/2000/svg" width="80" height="80"><g fill="#d9382f"><path data-name="パス 74" d="M47.433 80a3.55 3.55 0 01-.647-.063c-3.677-.695-9.952-2.474-13.753-4.947a30.874 30.874 0 01-8.749-8.263c-.238.011-.488 0-.726.011-13 .684-23.557-8.895-23.557-20.316 0-4.347 1.793-9.684 4.777-12.4a26.079 26.079 0 01-.488-4.968C4.289 13.442 17.418 0 34.8 0c6.366 0 15.784 2.474 20.21 6.053 4.494 3.632 6.967 5.653 9.691 11.663a26.381 26.381 0 0110.519 6.642c3.3 3.442 4.777 8.726 4.777 13.105 0 7.874-4.641 14.674-13.311 18.453a15.762 15.762 0 01.011 3.189c-.556 5.558-4.789 9.211-6.094 10.189-2.054 1.558-3.813 2.158-8.567 2.716-.306.032-.613.032-.9.042-2.576.116-3.643.211-3.858.737-.465 1.137.306 3.253 1.611 4.432a1.81 1.81 0 01.148.147 1.491 1.491 0 01.193 1.705 1.977 1.977 0 01-1.8.926z"/><path data-name="パス 75" d="M64.039 52.315c5.811-3.1 9.7-8.747 9.7-15.227 0-7.089-4.662-13.2-11.406-16.036 0 0-.369 2.4-.911 2.217A28.223 28.223 0 0035.535 5.395c-15.049 0-27.257 10.894-27.257 24.324a48.852 48.852 0 001 7.149c-.4.469-1.583-.889-1.583-.889a16 16 0 00-2.843 9.057c0 9.626 8.75 17.424 19.527 17.424 0 0 .726-1.817 1.214-1.857 2.786 6.51 11.991 12.611 18.258 13.78.553.1.813-.07.618-.3-1.485-1.338-2.45-3.744-1.789-5.342.6-1.448 2.494-1.388 5.594-1.538a16.689 16.689 0 008.674-2.486c1.7-1.118 4.868-3.924 5.28-7.988a11.735 11.735 0 00-.163-5.122c.673-.27 1.345 1.038 1.974.708z"/></g><path data-name="パス 42203" d="M38.587 34.6c-.072-.72-.7-1.08-1.9-1.08a16.4 16.4 0 01-2.856.1 9.716 9.716 0 00.96-2.352c-.384-.36-.96-.96-1.632-.744a65.912 65.912 0 01-3.072 6.6 8.589 8.589 0 003.08-2.384 1.926 1.926 0 00.936.216c1.272 0 2.448-.072 3.72-.072.356 0 .644-.072.764-.284zm-7.584-.288a.967.967 0 00-.408-.816 23.831 23.831 0 00-2.64-.168 18.037 18.037 0 00.072-2.112 2.62 2.62 0 00-1.92-.528c-.1 1.272-.144 2.016-.144 2.688-.6.048-1.728.192-2.208.264-.936.144-1.44.384-1.488.744-.072.408.24.768.912 1.056a6.024 6.024 0 011.824-.6 50.8 50.8 0 01-1.7 12.36l.7-.576c1.764-2.524 2.364-5.716 2.704-8.424l.6.432a3.738 3.738 0 011.608-.168 30.462 30.462 0 01-1.056 7.584 6.81 6.81 0 01-1.92.336l.96.528c.1.576.648 1.2 1.128 1.2.456 0 1.032-.672 1.3-1.128.648-1.1 1.368-6.408 1.368-8.064a2.081 2.081 0 00-1.9-2.04c-.648 0-1.464.192-1.968.24.12-1.08.168-1.848.192-2.424a16.319 16.319 0 012.976.192c.6.044.936-.196 1.008-.58zm-9.912.744c0-1.656-1.008-2.544-3-2.688.192.72 1.44 3.48 2.28 3.48.596-.004.72-.292.72-.796zm17.064 8.732a.986.986 0 00-.1-1.272 8.353 8.353 0 00-2.588-.316c.024-1.08.024-1.848.024-2.352a4.039 4.039 0 002.52-2.28 2.1 2.1 0 00-2.064-1.244 21.057 21.057 0 00-4.008.192.888.888 0 00.628 1.484 7.7 7.7 0 013.384-.576 5.138 5.138 0 01-.792 1.992 2.729 2.729 0 00-1.464-.264c.048 1.008.024 2.448.024 3.144-1.032.1-2.4.264-2.928.384a1.132 1.132 0 00.36 1.44 16.724 16.724 0 012.568-.5 13.018 13.018 0 01-.152 2.98l-1.9.072a3.32 3.32 0 012.072 1.772c.84-.048 1.392-.624 1.584-1.752.1-.648.12-2.136.168-3.168a17.249 17.249 0 012.664.264zm.48 4.68a17.7 17.7 0 01-4.608.332c-3.528-.1-8.136-.48-10.7-.84a3.026 3.026 0 01-1.272.216 3.607 3.607 0 00.48-1.8c0-1.3-.576-1.944-1.728-1.92.5-1.2 2.088-3.192 2.16-3.96.048-.5-.48-.936-1.44-1.3-.744.048-2.9-.024-3.72.528a1.635 1.635 0 00.548 1.376 5.817 5.817 0 012.688-.552c-.312.552-2.256 4.152-2.208 4.652a1.081 1.081 0 00.792.744 1.309 1.309 0 00.6-.24c.264-.168.672-.408.984-.168a9.645 9.645 0 01-1.32 4.012q.324 1.044.792 1.08c.264.024.552-.216.864-.7a1.566 1.566 0 011.632-.908 18.811 18.811 0 015.588 1.104 29.694 29.694 0 008.376.408 3.481 3.481 0 001.492-2.064zm22.1-3.72c.168-1.512-.84-2.328-1.944-2.928a7.907 7.907 0 00-6.12-.5c-.768-.768-1.944-1.992-1.728-3.216.1-.552 1.008-1.152 1.656-1.608.7-.5 1.608-.816 1.944-1.392a1.588 1.588 0 00-.552-1.728 5.444 5.444 0 01-3.168-2.4s-.936.672-.96 1.128c-.1 1.776 1.7 2.208 2.928 2.808-.96 1.056-2.352 2.184-2.448 3.912a4.943 4.943 0 00.984 3.072 28.275 28.275 0 01-6.716 2.204c-.264.336-.888.7-.72 1.056a1.708 1.708 0 001.464.84c1.128-.024 2.4-1.08 3.384-1.7 1.08-.672 2.136-1.44 2.928-1.92 1.008 1.224 1.992 3.36 1.08 5.184a.587.587 0 01-.6.264l-2.808-1.012a7.792 7.792 0 012.064 3.336 2.958 2.958 0 003.336-1.992c1.128-2.376-.572-4.968-1.728-6.384a6.079 6.079 0 013.648.528 8.7 8.7 0 012.4 2.592c.308.384 1.368.216 1.68-.144zm.5-10.56a1.994 1.994 0 00-2.248-1.368c.408.72.912 2.064 1.7 2.208a.839.839 0 00.556-.84zm-2.712.336a2 2 0 00-1.936-1.124c.312.624.648 1.8.984 2.4 1.032-.028 1.248-.7.96-1.276z" fill="#fff"/></svg>