<svg xmlns="http://www.w3.org/2000/svg" width="1920" height="615"><path data-name="パス 77" d="M0 81.057h452.864s30.853-8.514 53.541-25.972a294.768 294.768 0 0039.461-37.052s4.487-2.065 5.487-.536c4.08 6.245 25.115 27.273 39.752 40.239a171.215 171.215 0 0033.249 23.321s50.213-3.714 97.786-19.474S806.611 0 806.611 0s32.652 17.848 60.6 33.6 59.223 47.454 59.223 47.454 35.671.856 67.852-7.353 33.085-19.553 49.913-26.571 31.623 8.149 63.309 14.791 61.322 19.132 61.322 19.132 31.5-7 54.456-15.485 37.361-18.438 37.361-18.438 13.473 9.958 36.092 18.438 54.384 15.485 54.384 15.485 15.977-1.61 28.755-7.057a82.972 82.972 0 0022.369-14.719 69.218 69.218 0 0115.3 8.918 64.4 64.4 0 0111.6 12.863H1920v495.3h-464.294s-28.2-9.737-34.643-19.032-19.776-17.058-19.776-17.058-12.249-1.478-34.962 8.711-61.8 37.023-61.8 37.023-27.856-3.73-55.34-15.174-55.987-40.245-55.987-40.245a165.587 165.587 0 00-29.487 18.119c-14.752 11.444-29.519 27.657-29.519 27.657s-51.547-17.328-96.328-34.422c-31.257-11.931-49.9-23.309-70.6-31.8s-27.936 0-27.936 0-13.693 14.7-63.849 31.8-121.036 34.422-121.036 34.422-53.541-9.192-92.577-20.636-63.566-25.14-63.566-25.14a298.84 298.84 0 00-39.683 19.62 302.048 302.048 0 00-35.891 26.156H0z" fill="#e0ebd1"/><path data-name="パス 78" d="M543.487 36.41a321.846 321.846 0 01-26.13 22.961 300.833 300.833 0 01-28.254 19.063l6.71 2.119s14.923-5.2 26.842-16.238 20.832-27.905 20.832-27.905z" fill="#abc94e"/><path data-name="パス 79" d="M556.45 40.123s10.1 13.22 19.694 23.149a162.288 162.288 0 0018.678 16.564l8.663 1.55a196.471 196.471 0 01-47.035-41.262z" fill="#abc94e"/><path data-name="パス 80" d="M803.214 19.075s-9.072 20.24-19.983 33.689a84.718 84.718 0 01-23.661 20.102l12.317 1.732s13.36-14.328 19.875-28.396 11.452-27.127 11.452-27.127z" fill="#abc94e"/><path data-name="パス 81" d="M889.972 62.026a44.155 44.155 0 016.389 10.41 63.5 63.5 0 013.563 13.167l6.115-8.384a14.54 14.54 0 00-5.503-8.664c-4.571-3.18-10.564-6.529-10.564-6.529z" fill="#abc94e"/><path data-name="パス 82" d="M1039.634 59.029l-9.087 10-19.937 6.137 20.192-2.457 7.985 16.281-4.868-17.8z" fill="#abc94e"/><path data-name="パス 86" d="M1403.087 60.699l-2.698 9.252-10.862 10.168 12.174-7.888 10.214 7.938-8.685-9.887z" fill="#abc94e"/><path data-name="パス 83" d="M1064.325 54.633l27.647 12.44 58.831 10.77-60.438-8.519z" fill="#abc94e"/><path data-name="パス 84" d="M1277.561 62.096l4.404 11.608 13.501 1.405-10.428-4.364z" fill="#abc94e"/><path data-name="パス 85" d="M1254.18 55.812l-11.741 14.928-22.1 4.462 21.424-9.245z" fill="#abc94e"/><path data-name="パス 87" d="M810.564 10.58s17.752 27.48 34.57 46.82a206.16 206.16 0 0032.705 30.542l-28.284-5.158z" fill="#abc94e"/><g data-name="グループ 41"><path data-name="パス 88" d="M1453.759 106.535s-16.219 2.116-15.749-8.932.94-23.976 4.7-32.908.94-29.382 7.287-28.677 12.693 4.231 14.809 19.04 5.172 38.079 4 44.191-12.117 7.124-15.047 7.286z" fill="#739703"/><path data-name="パス 89" d="M1454.579 101.219s-10.576 1.38-10.269-5.824.613-15.633 3.065-21.457.613-19.158 4.751-18.7 8.276 2.758 9.656 12.414 3.372 24.829 2.605 28.814-7.898 4.647-9.808 4.753z" fill="#547000"/><path data-name="パス 90" d="M1449.999 117.825s.7-13.163 2.115-21.625 1.881-33.614 2.821-29.617 2.35 17.864 3.056 28.912-1.175 21.156-.94 24.211-6.377 6.313-7.052-1.881z" fill="#32190e"/><path data-name="パス 91" d="M1491.226 106.535s-16.219 2.116-15.749-8.932.94-23.976 4.7-32.908.94-29.382 7.287-28.677 12.693 4.231 14.809 19.04 5.171 38.079 4 44.191-12.116 7.124-15.047 7.286z" fill="#739703"/><path data-name="パス 92" d="M1492.049 101.219s-10.575 1.38-10.269-5.824.613-15.633 3.065-21.457.613-19.158 4.751-18.7 8.276 2.758 9.656 12.414 3.372 24.829 2.605 28.814-7.898 4.647-9.808 4.753z" fill="#547000"/><path data-name="パス 93" d="M1487.467 117.825s.705-13.163 2.115-21.625 1.881-33.614 2.821-29.617 2.351 17.864 3.056 28.912-1.176 21.156-.94 24.211-6.376 6.313-7.052-1.881z" fill="#32190e"/><path data-name="パス 94" d="M1528.696 106.535s-16.219 2.116-15.749-8.932.94-23.976 4.7-32.908.94-29.382 7.286-28.677 12.693 4.231 14.809 19.04 5.171 38.079 4 44.191-12.117 7.124-15.046 7.286z" fill="#739703"/><path data-name="パス 95" d="M1529.514 101.219s-10.575 1.38-10.269-5.824.613-15.633 3.065-21.457.613-19.158 4.751-18.7 8.276 2.758 9.655 12.414 3.372 24.829 2.605 28.814-7.897 4.647-9.807 4.753z" fill="#547000"/><path data-name="パス 96" d="M1524.935 117.825s.705-13.163 2.116-21.625 1.88-33.614 2.821-29.617 2.351 17.864 3.055 28.912-1.175 21.156-.94 24.211-6.377 6.313-7.052-1.881z" fill="#32190e"/></g><g data-name="グループ 45"><g data-name="グループ 42"><path data-name="パス 97" d="M393.557 614.999s3.269-20.3 2.452-26.838-.817-18.39-.817-18.39h9.4s-.817 18.8-.817 21.25 1.226 13.895 1.226 13.895l.817 9.808z" fill="#a56d35"/><path data-name="パス 98" d="M382.932 593.563h34.326s-2.452-6.538-4.9-8.581l-2.452-2.044s-3.329-9.04-8.99-8.582-17.575 14.303-17.984 19.207z" fill="#526e00"/><path data-name="パス 99" d="M376 580.561h48.192s-3.442-9.179-6.885-12.048l-3.442-2.869s-4.673-12.69-12.622-12.048-24.669 20.081-25.243 26.965z" fill="#739703"/><path data-name="パス 100" d="M376 564.29h48.192s-3.442-9.179-6.885-12.048l-3.442-2.869s-4.673-12.69-12.622-12.048S376.574 557.406 376 564.29z" fill="#628200"/></g><g data-name="グループ 43"><path data-name="パス 101" d="M470.366 614.999s3.269-20.3 2.452-26.838-.817-18.39-.817-18.39h9.4s-.817 18.8-.817 21.25 1.226 13.895 1.226 13.895l.817 9.808z" fill="#a56d35"/><path data-name="パス 102" d="M459.741 593.563h34.327s-2.452-6.538-4.9-8.581l-2.452-2.044s-3.329-9.04-8.991-8.582-17.575 14.303-17.984 19.207z" fill="#526e00"/><path data-name="パス 103" d="M452.809 580.561H501s-3.442-9.179-6.884-12.048l-3.443-2.869s-4.673-12.69-12.622-12.048-24.668 20.081-25.242 26.965z" fill="#739703"/><path data-name="パス 104" d="M452.809 564.29H501s-3.442-9.179-6.884-12.048l-3.443-2.869s-4.673-12.69-12.622-12.048-24.668 20.081-25.242 26.965z" fill="#628200"/></g><g data-name="グループ 44"><path data-name="パス 105" d="M432.403 615s3.269-23.764 2.452-31.418-.817-21.528-.817-21.528h9.4s-.817 22.006-.817 24.877 1.226 16.266 1.226 16.266l.817 11.482z" fill="#a56d35"/><path data-name="パス 106" d="M421.778 589.888h34.327s-2.452-7.654-4.9-10.046l-2.452-2.392s-3.329-10.582-8.99-10.046-17.576 16.743-17.985 22.484z" fill="#739703"/><path data-name="パス 107" d="M414.846 574.654h48.192s-3.442-10.746-6.885-14.1l-3.442-3.358s-4.673-14.856-12.622-14.1-24.669 23.499-25.243 31.558z" fill="#81aa06"/><path data-name="パス 108" d="M414.846 555.595h48.192s-3.442-10.746-6.885-14.1l-3.442-3.358s-4.673-14.856-12.622-14.1-24.669 23.498-25.243 31.558z" fill="#8cb808"/></g></g></svg>