<svg xmlns="http://www.w3.org/2000/svg" width="211.487" height="21.125"><path d="M11.256 2.141A2.576 2.576 0 009.384.797c-.984 0-.5 1.056-.48 1.656.072 2.064.024 12.216-.144 15.6a20.713 20.713 0 01-3.336.072L7.2 19.133c.264.792.96 1.68 1.584 1.68a2.814 2.814 0 001.32-.408c.912-1.176.936-2.448.936-4.2-.024-4.464.072-11.428.216-14.064zM6.36 7.277a2.448 2.448 0 00-2.4-1.488c-.672 3.48-2.184 6.072-3.96 9.12a12.9 12.9 0 001.56-.816 14.128 14.128 0 004.8-6.816zm12.216 5.952c.048-2.928-2.376-6.672-5.424-7.1a4.264 4.264 0 00.48 1.248 23.453 23.453 0 012.592 5.76c.216.768.648 1.68 1.488 1.68.576-.004.84-.556.864-1.588zM41.832 2.977c0-.312-.528-.624-.984-.7a18.723 18.723 0 00-2.736-.216 5.873 5.873 0 00-.048-1.608 1.771 1.771 0 00-1.992-.24 16.112 16.112 0 01-.024 1.824 67.235 67.235 0 00-4.848.072 8.481 8.481 0 01.1-1.464 2.059 2.059 0 00-1.848-.408 4.369 4.369 0 00-.336 1.992 12.127 12.127 0 00-3.84.72 1.364 1.364 0 00.552 1.128 30.6 30.6 0 013.312-.5 6.542 6.542 0 00.432 1.68 1.138 1.138 0 001.3-.432 2.715 2.715 0 00.328-1.388 40.647 40.647 0 014.8-.1 2.978 2.978 0 00.288 1.512 1.719 1.719 0 001.368-.24 9.737 9.737 0 00.336-1.152c1.128 0 2.112.168 2.76.192.72.028 1.08-.284 1.08-.672zm.84 4.176a2.144 2.144 0 00-1.272-.768 25.716 25.716 0 00-6.672-.576l.12-1.512a2.211 2.211 0 00-2.208-.312l-.1 1.944a35.653 35.653 0 00-6.048.768 4.171 4.171 0 00-.72-.7s-.7.864-1.176 1.488a2.885 2.885 0 00-.768 1.656 1.647 1.647 0 00.408 1.08 1.923 1.923 0 001.32-.144 3.12 3.12 0 001.248-2.3 2.7 2.7 0 00.648.024 45.909 45.909 0 0112.168-.408 6.922 6.922 0 01-.192 1.608c.744-.384 1.344-.648 1.872-.912a5.109 5.109 0 001.372-.932zm-3.648 8.624c-1.008-1.512-6.576-.816-8.112-.576 0-.192-.024-1.032.024-1.752a1.7 1.7 0 00.936.192 22.22 22.22 0 013.96-.312l.336.48a1.45 1.45 0 001.632-1.2 15.164 15.164 0 00.264-3.528 1.653 1.653 0 00-.72-.72 17.2 17.2 0 00-6.432.168c-.12-.048-.96-.432-1.272-.312-.36.12-.552.7-.6 1.656-.048 1.2-.24 8.76.312 11.064a1.678 1.678 0 001.9-.624 25.6 25.6 0 015.248-.1c.024.5.264.768.744.768a1.849 1.849 0 001.44-.816 21.875 21.875 0 00.34-4.388zm-2.9-6.36a9.794 9.794 0 01-.1 2.616 44.774 44.774 0 00-5.016.264 33.32 33.32 0 01.144-2.664 19.169 19.169 0 014.968-.22zm.768 6.816a13.659 13.659 0 01-.144 2.76 23.813 23.813 0 00-5.712.1 27.584 27.584 0 01-.1-2.76 3.338 3.338 0 001.176.12 18.906 18.906 0 012.088-.296 9.918 9.918 0 012.688.072zm31.224-9.768a1.717 1.717 0 00-.648-1.32 5.47 5.47 0 00-1.588-.268 29.189 29.189 0 00-.048-3.84c-.336-.5-1.7-1.416-2.352-.792a44.4 44.4 0 01.1 4.656 29.8 29.8 0 00-5.064.384 1.142 1.142 0 00.48 1.464c1.176-.1 2.976-.168 4.656-.24.1 5.616.168 10.776-.12 12.048l-2.832.02c1.1.576 2.208 1.1 2.328 2.544 1.752-.12 2.544-1.248 2.688-3.024.216-2.52.264-8.352.144-11.64.812.004 1.388.076 2.252.004zm-10.752.024c.216-.672.1-1.152-.7-1.32a16.384 16.384 0 00-2.616-.264c.048-1.3.072-2.52.24-3.816C53.856.633 52.8-.039 52.152.345a39 39 0 00-.288 4.632c-1.56.072-3.024.336-3.84.432a.839.839 0 00-.384.7c0 .552.36.96 1.056 1.08a12.89 12.89 0 012.568-.72 60.965 60.965 0 01-4.32 10.032c1.92-.72 3.6-3.528 4.872-6.36 0 0-.024 6.6.024 9.5.024 1.368 1.7 1.776 2.184.912-.144-2.52-.408-7.68-.264-11.448a5.594 5.594 0 011.08 1.92c.264 1.032.792 1.488 1.248 1.488a2.8 2.8 0 00.984-.48c.024-1.8-.84-2.5-3.288-4.032a10.424 10.424 0 01.168-1.608c.576.048 1.224.12 1.8.192a2.949 2.949 0 001.608-.1zm4.68 5.544c.192-1.416-1.464-3.432-3.264-3.072a8.894 8.894 0 011.3 3.48 1.247 1.247 0 00.984.432.861.861 0 00.976-.844zm27.384-7.728a1.347 1.347 0 00-1.872-1.008c-2.256.312-6.528.528-9.1.624-1.44.048-3.576-.12-4.344-.144a2.126 2.126 0 001.8 2.064 12.729 12.729 0 002.232-.168c2.52-.36 5.328-.816 8.016-1.1a23.33 23.33 0 00-4.248 3.264 10.29 10.29 0 00-2.592 4.984 5.857 5.857 0 005.064 6.456c.864.144 2.736.288 3.048-.408-.144-.552-.72-1.344-1.272-1.344a7.314 7.314 0 01-3.384-.648c-1.92-1.152-1.9-4.176-1.008-6.384a9.877 9.877 0 014.344-4.608c.84-.508 2.832-1.176 3.312-1.584zm.984 6a1.947 1.947 0 00-2.232-1.392c.384.72 1.08 2.064 1.848 2.232.284-.076.452-.532.38-.844zm-2.616.24a2 2 0 00-1.944-1.128c.312.648.744 1.7 1.08 2.3 1.028-.024 1.148-.6.86-1.176zm26.54.332c-.024-4.224-3.744-7.176-7.728-7.152-5.064.048-9.648 3.528-9.624 8.928 0 1.56.936 4.584 2.832 4.512a19.549 19.549 0 003-1.416c2.16-1.44 3.36-4.944 4.008-7.656.36-1.56.168-2.736-1.416-2.976-.5 3.84-1.08 6.576-3.336 9.888a1.72 1.72 0 01-1.488.744c-2.064.024-1.9-2.856-1.68-4.3.552-3.744 3.192-6.744 7.032-6.744a6.167 6.167 0 016.48 6.456c-.024 3.6-2.4 6.216-5.928 7.1 0 0 .528.024.792.024 4.296-.04 7.08-2.92 7.056-7.408zM139.3 8.909c-.288-.6-1.8-1.008-2.472-1.056a25.5 25.5 0 00.288-6.912c-.744-.768-5.112-.816-7.752-.6-.36-.312-1.416-.264-1.632.264a42.535 42.535 0 00.048 7.2 8.509 8.509 0 00-2.04.432c-.576 1.824-.288 7.992-.1 8.784.264.36 1.488.288 1.8.048a80.247 80.247 0 01-.048-8.3 1.346 1.346 0 00.672.432 34.77 34.77 0 019.336.072 32.716 32.716 0 01-.24 5.9c-1.1.1-2.664.1-2.664.1.648.456 1.56.96 1.56.96a1.5 1.5 0 00.7 1.128 2.55 2.55 0 002.036-1.084 35.688 35.688 0 00.508-7.368zm-17.28-4.488a.949.949 0 001.68-.792 3.662 3.662 0 00-2.26-2.472 1.227 1.227 0 00-.936.024 13.3 13.3 0 011.512 3.24zm13.2-2.712s.1 1.32.1 2.472a10.3 10.3 0 00-2.112 0 1.965 1.965 0 00-1.608-.1 12.2 12.2 0 00-.1 3.48c-.648-.024-1.92.072-1.92.072-.1-1.536-.192-4.824-.1-6.072a5.405 5.405 0 001.632.12 18.1 18.1 0 014.104.028zm.072 3.528a20.322 20.322 0 01-.144 2.424c-.552 0-1.224-.1-1.992-.1a7.215 7.215 0 01.12-2.4s1.292.004 2.012.076zm4.556 13.752c-.912.048-1.848.072-2.736.072-4.752 0-12.576-1.176-14.04-.864a8.494 8.494 0 00.864-3.24 1.778 1.778 0 00-1.752-1.9 12.07 12.07 0 01.7-2.664c.12-.288.552-.648.552-.936a1.792 1.792 0 00-1.152-1.392 5 5 0 00-3.816.456c-.1.672.048 1.08.432 1.3 1.008-.144 1.392-.672 2.592-.408a21.054 21.054 0 00-1.276 4.584 1.08 1.08 0 00.768.768c.168.024.408-.12.648-.384.264-.288.48-.5.888-.36a8.028 8.028 0 01-1.632 4.776c-.1.5-.1 1.464.624 1.488.408.024.912-.624 1.272-1.224 1.056-.456 6.888.864 9.528 1.728 1.8.336 5.688.384 6.864-1.224.192-.188.624-.216.672-.576zm-4.584-8.3c-.7-1.056-3.648-.7-4.344-.672a1.572 1.572 0 00-1.584.144c-.384.624-.312 4.08-.216 4.8a1.79 1.79 0 001.536-.144.911.911 0 00.1-.456 13.472 13.472 0 012.784 0 .838.838 0 00.24.48 2.274 2.274 0 001.44-.288 17.418 17.418 0 00.044-3.868zm-1.68.336a11.21 11.21 0 01-.048 2.328 17.916 17.916 0 00-2.784.024c0-.936.048-1.488.12-2.4a17.3 17.3 0 012.712.044zm29.3-8.832a1.994 1.994 0 00-2.256-1.368c.408.72.912 2.064 1.7 2.208a.839.839 0 00.56-.844zm-2.568.312a2 2 0 00-1.94-1.128c.312.624.648 1.8.984 2.4 1.032-.028 1.248-.7.96-1.276zm-2.064 1.944c-.648-1.2-2.808-1.128-4.824-1.128-1.608 0-3.216 0-4.176-.552l-.384.264c.144 1.536 1.3 1.824 2.712 1.824 1.464 0 3.216-.36 4.392-.024-.576.6-2.184 1.872-3.048 2.808l2.952-1.368c1.276-.004 2.98-.696 2.38-1.828zm2.14 13.484c.12-.5-.816-1.224-1.152-1.176a30.068 30.068 0 01-6.384.456c-1.68-.1-4.032-.816-4.392-1.848-.432-1.224.528-3.528.528-3.528-1.752 1.248-2.352 4.272-.6 5.688s5.928 1.632 8.496 1.392c1.08-.096 3.36-.384 3.504-.984zm24.744-4.44A5.839 5.839 0 00183 9.005a10.675 10.675 0 01.6 3.264 7.243 7.243 0 01-.864 3.528 5.823 5.823 0 01-4.584 2.98c-2.808 0-3.192-2.4-3.216-4.584a61.981 61.981 0 01.792-8.856c.288-2.04.624-3.312-.648-4.176l-1.512-.288a20.661 20.661 0 01.216 4.08c-.12 2.064-.384 4.128-.48 6.192-.12 2.592.048 5.04.96 6.7a4.4 4.4 0 004.2 2.16 9.252 9.252 0 004.3-1.3 6.387 6.387 0 002.372-5.212zm26.328-8.208c.144-.768-.408-1.2-1.176-1.584-2.064-.072-5.664-.1-7.488-.048 0 0 .024-2.088.1-2.688-.552-.552-1.8-1.056-2.472-.48-.072.96.048 3.288.048 3.288a70.348 70.348 0 00-8.5.984c-.36 1.224.744 1.488 1.7 1.536a61.487 61.487 0 0115.48-.936 9.229 9.229 0 002.308-.072zm-3.576 4.032c-.024-.528-.7-1.128-1.2-1.416a22.834 22.834 0 00-6.624.168l.216-1.512c-.528-.48-1.512-.984-2.208-.624-.888 6.244-1.992 10.444-4.248 13.8l-.864 1.3a9.451 9.451 0 004.824-4.516 28.179 28.179 0 002.088-6.94 22.464 22.464 0 015.544-.12 39.02 39.02 0 01-1.08 8.76l-3.408.12s2.28 1.128 2.5 2.688a3.375 3.375 0 003.072-2.4 45.086 45.086 0 001.388-9.308z" fill="#993a22"/></svg>