<svg xmlns="http://www.w3.org/2000/svg" width="160.402" height="51.929" viewBox="0 0 160.402 51.929">
  <path id="card04-text" d="M-34.344-17.136a2.576,2.576,0,0,0-1.872-1.344c-.984,0-.5,1.056-.48,1.656.072,2.064.024,12.216-.144,15.6a20.713,20.713,0,0,1-3.336.072L-38.4-.144c.264.792.96,1.68,1.584,1.68a2.814,2.814,0,0,0,1.32-.408c.912-1.176.936-2.448.936-4.2C-34.584-7.536-34.488-14.5-34.344-17.136ZM-39.24-12a2.448,2.448,0,0,0-2.4-1.488c-.672,3.48-2.184,6.072-3.96,9.12a12.9,12.9,0,0,0,1.56-.816A14.128,14.128,0,0,0-39.24-12Zm12.216,5.952c.048-2.928-2.376-6.672-5.424-7.1a4.264,4.264,0,0,0,.48,1.248,23.453,23.453,0,0,1,2.592,5.76c.216.768.648,1.68,1.488,1.68C-27.312-4.464-27.048-5.016-27.024-6.048ZM-3.768-16.3c0-.312-.528-.624-.984-.7a18.723,18.723,0,0,0-2.736-.216,5.873,5.873,0,0,0-.048-1.608,1.771,1.771,0,0,0-1.992-.24,16.114,16.114,0,0,1-.024,1.824c-1.632-.024-2.976-.024-4.848.072a8.48,8.48,0,0,1,.1-1.464,2.059,2.059,0,0,0-1.848-.408,4.369,4.369,0,0,0-.336,1.992,12.127,12.127,0,0,0-3.84.72,1.364,1.364,0,0,0,.552,1.128,30.6,30.6,0,0,1,3.312-.5,6.542,6.542,0,0,0,.432,1.68,1.138,1.138,0,0,0,1.3-.432A2.715,2.715,0,0,0-14.4-15.84a40.647,40.647,0,0,1,4.8-.1,2.978,2.978,0,0,0,.288,1.512,1.719,1.719,0,0,0,1.368-.24,9.737,9.737,0,0,0,.336-1.152c1.128,0,2.112.168,2.76.192C-4.128-15.6-3.768-15.912-3.768-16.3Zm.84,4.176A2.144,2.144,0,0,0-4.2-12.888a25.716,25.716,0,0,0-6.672-.576l.12-1.512a2.211,2.211,0,0,0-2.208-.312l-.1,1.944a35.653,35.653,0,0,0-6.048.768,4.171,4.171,0,0,0-.72-.7s-.7.864-1.176,1.488a2.885,2.885,0,0,0-.768,1.656,1.647,1.647,0,0,0,.408,1.08,1.923,1.923,0,0,0,1.32-.144,3.12,3.12,0,0,0,1.248-2.3,2.7,2.7,0,0,0,.648.024A45.909,45.909,0,0,1-5.976-11.88a6.923,6.923,0,0,1-.192,1.608c.744-.384,1.344-.648,1.872-.912A5.109,5.109,0,0,0-2.928-12.12ZM-6.576-3.5c-1.008-1.512-6.576-.816-8.112-.576,0-.192-.024-1.032.024-1.752a1.7,1.7,0,0,0,.936.192,22.22,22.22,0,0,1,3.96-.312l.336.48A1.45,1.45,0,0,0-7.8-6.672,15.164,15.164,0,0,0-7.536-10.2a1.653,1.653,0,0,0-.72-.72,17.2,17.2,0,0,0-6.432.168c-.12-.048-.96-.432-1.272-.312-.36.12-.552.7-.6,1.656-.048,1.2-.24,8.76.312,11.064a1.678,1.678,0,0,0,1.9-.624A25.6,25.6,0,0,1-9.1.936c.024.5.264.768.744.768A1.849,1.849,0,0,0-6.912.888,21.876,21.876,0,0,0-6.576-3.5Zm-2.9-6.36a9.794,9.794,0,0,1-.1,2.616,44.774,44.774,0,0,0-5.016.264c.024-1.368.12-2.472.144-2.664A19.169,19.169,0,0,1-9.48-9.864Zm.768,6.816a13.659,13.659,0,0,1-.144,2.76,23.813,23.813,0,0,0-5.712.1,27.583,27.583,0,0,1-.1-2.76,3.338,3.338,0,0,0,1.176.12A18.906,18.906,0,0,1-11.4-3.12,9.918,9.918,0,0,1-8.712-3.048Zm31.224-9.768a1.717,1.717,0,0,0-.648-1.32A5.47,5.47,0,0,0,20.28-14.4a29.189,29.189,0,0,0-.048-3.84c-.336-.5-1.7-1.416-2.352-.792a44.4,44.4,0,0,1,.1,4.656,29.8,29.8,0,0,0-5.064.384,1.142,1.142,0,0,0,.48,1.464c1.176-.1,2.976-.168,4.656-.24.1,5.616.168,10.776-.12,12.048L15.1-.7c1.1.576,2.208,1.1,2.328,2.544,1.752-.12,2.544-1.248,2.688-3.024.216-2.52.264-8.352.144-11.64C21.072-12.816,21.648-12.744,22.512-12.816Zm-10.752.024c.216-.672.1-1.152-.7-1.32a16.384,16.384,0,0,0-2.616-.264c.048-1.3.072-2.52.24-3.816-.432-.456-1.488-1.128-2.136-.744A39,39,0,0,0,6.264-14.3c-1.56.072-3.024.336-3.84.432a.839.839,0,0,0-.384.7c0,.552.36.96,1.056,1.08a12.89,12.89,0,0,1,2.568-.72A60.965,60.965,0,0,1,1.344-2.784c1.92-.72,3.6-3.528,4.872-6.36,0,0-.024,6.6.024,9.5.024,1.368,1.7,1.776,2.184.912-.144-2.52-.408-7.68-.264-11.448a5.594,5.594,0,0,1,1.08,1.92c.264,1.032.792,1.488,1.248,1.488a2.8,2.8,0,0,0,.984-.48c.024-1.8-.84-2.5-3.288-4.032a10.424,10.424,0,0,1,.168-1.608c.576.048,1.224.12,1.8.192A2.949,2.949,0,0,0,11.76-12.792Zm4.68,5.544c.192-1.416-1.464-3.432-3.264-3.072a8.894,8.894,0,0,1,1.3,3.48,1.247,1.247,0,0,0,.984.432A.861.861,0,0,0,16.44-7.248Zm19.848-5.688a19.356,19.356,0,0,0,.72-4.056,2.061,2.061,0,0,0-2.592-.24l.12.768C33.552-7.248,27.12.888,27.12.888c4.152-.936,7.656-8.376,8.64-12,0,0,2.088,6.888,5.616,10.8A2.825,2.825,0,0,0,43.2.672,2.677,2.677,0,0,0,44.808-.12a2.309,2.309,0,0,1,.936-.408C42.432-2.736,37.536-7.992,36.288-12.936ZM-63.168,15.44c.216-1.008-1.056-2.376-2.712-2.064-1.632.288-1.848,2.856-.384,3.7A2.1,2.1,0,0,0-63.168,15.44Zm-.912.024c-.168.888-.912,1.56-1.728,1.032a1.326,1.326,0,0,1,.24-2.352A1.277,1.277,0,0,1-64.08,15.464Zm-.528,4.968c.024-.528.024-1.128-.264-1.344a31.929,31.929,0,0,0-5.472-.336c0-1.1.024-2.856-.1-4.032-.792-.072-1.728.12-1.992.648.1.888.12,2.328.144,3.456a35.813,35.813,0,0,0-6.888.912c.144.576.312,1.176.792,1.392A31.491,31.491,0,0,1-72.216,20.1c.048,2.976.1,6.84-.168,10.248l-2.3.072A4.3,4.3,0,0,1-72.5,32.552a1.886,1.886,0,0,0,1.992-1.416A109.246,109.246,0,0,0-70.32,20,39.155,39.155,0,0,1-64.608,20.432Zm-9.408,3.552a2.122,2.122,0,0,0-1.632-1.248c-1.008,1.824-2.928,4.488-3.912,5.88A10.336,10.336,0,0,0-74.016,23.984Zm9.552,2.256c-.1-1.2-2.616-2.832-4.056-3,.264,1.176,2.256,3.912,3.528,4.464C-64.7,27.824-64.416,26.768-64.464,26.24ZM-41.3,17.1c0-.36-.648-.936-.984-1.224-1.92,1.488-4.7,3.456-7.1,5.112-.84.576-6.408,3.648-6.672,4.2,1.008.192,6.12-1.944,7.92-3.048-.1,3.216-.12,6.7.072,9.648a1.36,1.36,0,0,0,1.68.192c.072-2.376.048-6.912.072-8.712,0-.792.024-1.608.024-1.608l-.264-.408C-45.744,20.72-41.3,17.816-41.3,17.1Zm16.776,1.8c-.672-1.512-3.12-3.264-5.232-2.208,1.008.744,2.688,2.664,3.984,3.84ZM-15,21.632s-2.352,1.9-3.7,2.736a53.321,53.321,0,0,1-11.52,5.3,4.538,4.538,0,0,0,.6,1.968C-23.616,30.08-16.344,25.9-15,21.632ZM6.072,24.584c-.24-.72-1.272-1.128-1.872-1.368A21.979,21.979,0,0,0-.288,22.16c.072-1.944.24-4.536.36-6.5a1.981,1.981,0,0,0-1.9.144,94.117,94.117,0,0,0-.1,16.7,2.159,2.159,0,0,0,1.7-.072c-.024-2.784-.24-6.5-.072-9.648a25.7,25.7,0,0,1,5.28,2.9C6.024,26.432,6.192,24.968,6.072,24.584Zm24.84-4.848c-1.392-.816-4.152-.864-6.12-.888.24-.984.552-2.088.792-3.072a4.032,4.032,0,0,0-1.9-.624c-.24.984-.672,2.88-.936,3.744a27.009,27.009,0,0,0-5.736.5,1.1,1.1,0,0,0,.384,1.2c1.464-.12,3.144-.336,5.04-.36a53.48,53.48,0,0,1-4.9,11.616c2.592-.528,5.184-5.688,6.912-11.64a18.4,18.4,0,0,1,4.512.288,43.42,43.42,0,0,1-2.016,8.928l-2.472.024a9.158,9.158,0,0,1,2.232,1.872c1.152-.1,2.112-1.488,2.352-2.232A39.422,39.422,0,0,0,30.912,19.736ZM56.04,23.48c.6-.36.456-1.1,0-1.776a74.588,74.588,0,0,0-15.7,0,2.151,2.151,0,0,0,.648,2.3,3.342,3.342,0,0,1,.912-.384C44.448,23.168,53.112,23.408,56.04,23.48Zm22.008,1.1c-.24-.72-1.248-1.152-1.848-1.368a21.3,21.3,0,0,0-4.464-1.032c.072-1.92.24-4.488.36-6.432a2.043,2.043,0,0,0-1.92.12,94.515,94.515,0,0,0-.1,16.536,2.445,2.445,0,0,0,1.728-.072c-.024-2.736-.24-6.432-.072-9.552a25.777,25.777,0,0,1,5.208,2.928C77.952,26.456,78.168,24.944,78.048,24.584Zm2.784-5.376a1.994,1.994,0,0,0-2.256-1.368c.408.72.912,2.064,1.7,2.208A.839.839,0,0,0,80.832,19.208Zm-2.712.336a2,2,0,0,0-1.944-1.128c.312.624.648,1.8.984,2.4C78.192,20.792,78.408,20.12,78.12,19.544Z" transform="translate(79.56 19.277)" fill="#993a22"/>
</svg>
