<svg xmlns="http://www.w3.org/2000/svg" width="189.024" height="21.996"><path d="M11.256 2.664A2.576 2.576 0 009.384 1.32c-.984 0-.5 1.056-.48 1.656.072 2.064.024 12.216-.144 15.6a20.713 20.713 0 01-3.336.072L7.2 19.656c.264.792.96 1.68 1.584 1.68a2.814 2.814 0 001.32-.408c.912-1.176.936-2.448.936-4.2-.024-4.464.072-11.428.216-14.064zM6.36 7.8a2.448 2.448 0 00-2.4-1.488c-.672 3.48-2.184 6.072-3.96 9.12a12.9 12.9 0 001.56-.816A14.128 14.128 0 006.36 7.8zm12.216 5.952c.048-2.928-2.376-6.672-5.424-7.1a4.264 4.264 0 00.48 1.248 23.453 23.453 0 012.592 5.76c.216.768.648 1.68 1.488 1.68.576-.004.84-.556.864-1.588zM41.832 3.5c0-.312-.528-.624-.984-.7a18.723 18.723 0 00-2.736-.216 5.873 5.873 0 00-.048-1.608 1.771 1.771 0 00-1.992-.24 16.114 16.114 0 01-.024 1.824 67.235 67.235 0 00-4.848.072 8.48 8.48 0 01.1-1.464A2.059 2.059 0 0029.452.76a4.369 4.369 0 00-.336 1.992 12.127 12.127 0 00-3.84.72 1.364 1.364 0 00.552 1.128 30.6 30.6 0 013.312-.5 6.542 6.542 0 00.432 1.68 1.138 1.138 0 001.3-.432A2.715 2.715 0 0031.2 3.96a40.648 40.648 0 014.8-.1 2.978 2.978 0 00.288 1.512 1.719 1.719 0 001.368-.24 9.737 9.737 0 00.336-1.152c1.128 0 2.112.168 2.76.192.72.028 1.08-.284 1.08-.672zm.84 4.176a2.144 2.144 0 00-1.272-.768 25.716 25.716 0 00-6.672-.576l.12-1.512a2.211 2.211 0 00-2.208-.312l-.1 1.944a35.653 35.653 0 00-6.048.768 4.171 4.171 0 00-.72-.7s-.7.864-1.176 1.488a2.885 2.885 0 00-.768 1.656 1.647 1.647 0 00.408 1.08 1.923 1.923 0 001.32-.144 3.12 3.12 0 001.248-2.3 2.7 2.7 0 00.648.024 45.909 45.909 0 0112.168-.408 6.923 6.923 0 01-.192 1.608c.744-.384 1.344-.648 1.872-.912a5.109 5.109 0 001.372-.932zM39.024 16.3c-1.008-1.512-6.576-.816-8.112-.576 0-.192-.024-1.032.024-1.752a1.7 1.7 0 00.936.192 22.22 22.22 0 013.96-.312l.336.48a1.45 1.45 0 001.632-1.2 15.164 15.164 0 00.264-3.528 1.653 1.653 0 00-.72-.72 17.2 17.2 0 00-6.432.168c-.12-.048-.96-.432-1.272-.312-.36.12-.552.7-.6 1.656-.048 1.2-.24 8.76.312 11.064a1.678 1.678 0 001.9-.624 25.6 25.6 0 015.248-.1c.024.5.264.768.744.768a1.849 1.849 0 001.44-.816 21.876 21.876 0 00.34-4.388zm-2.9-6.36a9.794 9.794 0 01-.1 2.616 44.774 44.774 0 00-5.016.264 33.32 33.32 0 01.144-2.664 19.169 19.169 0 014.968-.22zm.768 6.816a13.659 13.659 0 01-.144 2.76 23.813 23.813 0 00-5.712.1 27.584 27.584 0 01-.1-2.76 3.338 3.338 0 001.176.12 18.906 18.906 0 012.088-.296 9.918 9.918 0 012.688.072zm31.224-9.768a1.717 1.717 0 00-.648-1.32A5.47 5.47 0 0065.88 5.4a29.189 29.189 0 00-.048-3.84c-.336-.5-1.7-1.416-2.352-.792a44.4 44.4 0 01.1 4.656 29.8 29.8 0 00-5.064.384 1.142 1.142 0 00.48 1.464c1.176-.1 2.976-.168 4.656-.24.1 5.616.168 10.776-.12 12.048l-2.832.02c1.1.576 2.208 1.1 2.328 2.544 1.752-.12 2.544-1.248 2.688-3.024.216-2.52.264-8.352.144-11.64.812.004 1.388.076 2.252.004zm-10.752.024c.216-.672.1-1.152-.7-1.32a16.384 16.384 0 00-2.616-.264c.048-1.3.072-2.52.24-3.816-.432-.456-1.488-1.128-2.136-.744a39 39 0 00-.288 4.632c-1.56.072-3.024.336-3.84.432a.839.839 0 00-.384.7c0 .552.36.96 1.056 1.08a12.89 12.89 0 012.568-.72 60.965 60.965 0 01-4.32 10.032c1.92-.72 3.6-3.528 4.872-6.36 0 0-.024 6.6.024 9.5.024 1.368 1.7 1.776 2.184.912-.144-2.52-.408-7.68-.264-11.448a5.594 5.594 0 011.08 1.92c.264 1.032.792 1.488 1.248 1.488a2.8 2.8 0 00.984-.48c.024-1.8-.84-2.5-3.288-4.032a10.424 10.424 0 01.168-1.608c.576.048 1.224.12 1.8.192a2.949 2.949 0 001.608-.1zm4.68 5.544c.192-1.416-1.464-3.432-3.264-3.072a8.894 8.894 0 011.3 3.48 1.247 1.247 0 00.984.432.861.861 0 00.976-.844zm27.24-9.816a2.533 2.533 0 00-2.664-1.008 47.424 47.424 0 00-11.376.24 2.046 2.046 0 00-1.3.576c.024.312.336.624.408.84a89.054 89.054 0 00.048 16.964c.288.48.624 1.008 1.056 1.008.84 0 5.208-2.136 6.624-4.44a43.865 43.865 0 01-5.616 1.728A95.5 95.5 0 0176.32 7.56a1.635 1.635 0 00.936.312 38.041 38.041 0 019.1-.336 1.134 1.134 0 00.84.6 1.3 1.3 0 001.416-.984 19.733 19.733 0 00.668-4.416zm-2.424.5a20.889 20.889 0 01-.312 2.784 42.883 42.883 0 00-10.152.48 24.447 24.447 0 01.384-3.12C79.8 3 83.568 2.592 86.856 3.24zm4.24 13.152a8.746 8.746 0 01-1.988 2.708 13.114 13.114 0 01-5.04-7.392c2.208-.12 4.68.144 5.784.072.144-.528-.288-1.008-.672-1.392a50.024 50.024 0 00-5.352-.1L83.64 8.68c-.36-.384-1.872-1.08-2.256-.432a12.027 12.027 0 00.264 2.208 22.326 22.326 0 00-4.872.912c-.072.288.264.768.528.96 1.08.24 3.192-.216 4.752-.408.984 4.38 4.176 8.696 7.464 9.632a1.23 1.23 0 00.864-.452 16.429 16.429 0 00.716-4.708zm22.8 3.144c.648-1.632.648-12.072.24-14.112a2.738 2.738 0 00-2.472-.96 46.2 46.2 0 00-8.328-.144s3.432-2.088 3.432-3.12c0-.528-.96-1.2-1.752-1.2a1.487 1.487 0 00-.72.216 23.369 23.369 0 01-2.324 4.224 12.84 12.84 0 00-3.384.648 1.736 1.736 0 00-1.1-.144 3.18 3.18 0 00-.408 1.608c-.144 3-.36 10.008.336 12.888.216.912.72 1.344 1.56 1.272a3.9 3.9 0 00.288-2.4 104.229 104.229 0 01.048-12.24 3.177 3.177 0 001.752.1 48.947 48.947 0 0110.944-.1 93.778 93.778 0 01.024 12.456 20.632 20.632 0 01-2.4-.1 5.4 5.4 0 001.436 1.012s.288 1.344.936 1.416a2.772 2.772 0 001.892-1.32zm-4.508-5.064a37.449 37.449 0 01.264-4.512c-1.008-1.776-4.776-1.416-6.48-1.1l-.264.432a1.221 1.221 0 00-1.056.048c-.216 2.444-.288 3.74-.288 3.96 0 2.232.528 3.336 1.7 3.24a1.365 1.365 0 00.456-.984 15.871 15.871 0 013.532-.056 5.011 5.011 0 00.168.72 1.278 1.278 0 001.632-.192 2.514 2.514 0 00.336-1.556zm-5.736-4.2a7.081 7.081 0 013.744-.048c-.072 1.2-.12 2.472-.168 3.912a14.316 14.316 0 00-3.624.12 36.55 36.55 0 01.048-3.984zm35.328-1.752a1.1 1.1 0 00-1.2-1.176c-.528.048-1.9.168-2.4.192a28.785 28.785 0 00-.192-4.224c-.072-.528-1.392-1.848-2.256-.96a25.584 25.584 0 01.624 5.256c-1.464.048-3.6 0-5.016 0-.336 1.056.432 1.416 1.512 1.44 1.2.024 2.832-.1 3.5-.1a27.359 27.359 0 01-2.856 12.22 12.93 12.93 0 002.784-2.856c1.512-2.4 1.872-6.5 1.92-9.456a13 13 0 003.58-.336zM123.96 16.3c-.984-2.472-.552-6.672-.072-9.912a16.207 16.207 0 00.336-2.736 1.885 1.885 0 00-2.016-1.176c.24 3.12-.7 7.416-.48 10.752.1 1.488.912 5.808 2.592 6.048 1.1.144 1.632-1.464.96-2.568.192-.72.744-1.872.912-2.52zm40.08-6.268c-.048-.624-.792-.888-.792-.888a41.1 41.1 0 00-4.8-.264 14.273 14.273 0 00.1-1.632 10.682 10.682 0 011.7.168 1.022 1.022 0 00.144-1.2 3.886 3.886 0 00-1.824-.312l.048-1.656a44.057 44.057 0 004.416.24c.048-.624-.12-1.056-.648-1.176a18.6 18.6 0 00-3.768-.384s-.024-.936-.024-1.368a1.353 1.353 0 00-1.416-1.176c-.336 0-.6.12-.624.744-.048.624 0 1.9 0 1.9a28.341 28.341 0 00-5.568.768 1.4 1.4 0 001.224 1.248 27.887 27.887 0 014.344-.7V6a7.48 7.48 0 00-2.9.7c-.024.648.288 1.056.936.96a17.947 17.947 0 011.968-.288c0 .768.024 1.584.024 1.584a26.453 26.453 0 00-6.048.912.756.756 0 00.48.888 1.633 1.633 0 001.2.192 33.966 33.966 0 0111.568-.312.842.842 0 00.26-.604zM148.272 1.56a1.714 1.714 0 00-1.8-.528c-.552 1.752-.72 14.568-.312 17.592.1.744.312 1.44.84 1.44.624 0 1.032-.744 1.008-1.3a101.034 101.034 0 01.264-17.204zm-4.08 9.768a4.749 4.749 0 00.96-3.024 1.991 1.991 0 00-.672-1.604 6.988 6.988 0 01-.888 1.68 4.786 4.786 0 00-.768 1.416 1.666 1.666 0 00.624 1.604 1.559 1.559 0 00.744-.072zm4.9-1.3c1.1-.168 1.2-1.176.936-2.04a2.2 2.2 0 00-1.848-.72s.12 1.032.168 1.56c.116.652.352 1.06.74 1.204zm12.284 4.156c-.1-1.176-.336-1.872-.96-2.16-1.416-.7-4.3-.336-5.568-.024l-.216.7a1.44 1.44 0 00-1.08-.12 26.887 26.887 0 00-.12 6.936c.144 1.08.6 2.04 1.656 1.752.432-.432.216-1.152.168-1.68a32.494 32.494 0 01.024-6.488 9.435 9.435 0 014.1 0 30.44 30.44 0 01-.1 6.936c-.864.072-1.824.072-1.824.072s1.224.864 1.344 1.776a2.152 2.152 0 002.216-1.508 31.667 31.667 0 00.36-6.192zm-2.76 1.632a1.057 1.057 0 00-.072-.864 4.161 4.161 0 00-2.3-.072c-.1.648 0 1.032.312 1.2a14.262 14.262 0 002.06-.264zm-.408 1.512c-.576-.192-1.872-.216-1.968.408a.787.787 0 00.384.744 4 4 0 011.512 0c.528-.216.408-.816.072-1.152zm19.68-7.628c.168-.48.264-1.032-.336-1.32a13.878 13.878 0 00-3.5-.432l.072-2.352a20.41 20.41 0 012.5.168 1.227 1.227 0 00.456-.744c-.312-.7-2.088-.84-2.928-.816.048-.888.192-1.7.192-2.208 0-1.032-1.68-1.344-2.208-.912a31.164 31.164 0 00-.1 3.216c-.576.024-1.44.144-2.16.216a1.532 1.532 0 00-1.376.784 1.442 1.442 0 001.248.72 15.167 15.167 0 002.3-.336c0 .72.048 2.328.048 2.328a23.618 23.618 0 00-5.088.792 1.572 1.572 0 00-.192 1.248 1.158 1.158 0 00.792.288 25.288 25.288 0 012.5-.672l.168 1.464c.048.456.12 1.176.768 1.176a1.344 1.344 0 001.152-1.1 5.591 5.591 0 01-1.008-1.728 21.072 21.072 0 016.7.22zm11.136 10.124a16.3 16.3 0 01-3.724-3.168 21.113 21.113 0 002.112-5.28c-1.392-1.344-5.3-1.128-7.1-.768 0-3.864.048-6.264.024-8.16a2.156 2.156 0 00.984.288 15 15 0 013.1-.168 19.475 19.475 0 01-.1 4.752l-2.5.12a3.021 3.021 0 012.38 1.872 2.317 2.317 0 001.9-1.152c.576-1.608 1.008-5.232-.072-6.816-2.04-.36-4.512-.48-6.072.312a1.73 1.73 0 00-1.632-.168c.048 3.72.048 13.3.024 19.344a1.312 1.312 0 001.872.312c.1-1.992.072-6.384.072-9.24a25.853 25.853 0 014.776-.072 16.4 16.4 0 01-1.176 3.576c-.82-.816-2.692-2.784-2.692-2.784a10.208 10.208 0 002.016 4.32 20.987 20.987 0 01-2.376 3.792 8.749 8.749 0 003.46-2.52 12.727 12.727 0 003.164 3.144c.336-.72.72-1.416 1.56-1.536zm-12.124-5.88c.312-.384.072-.936-.168-1.3-1.488-.072-2.52-.1-2.52-.1s2.4-1.224 2.28-2.064c-.048-.5-.84-.792-1.752-.72a25.731 25.731 0 01-1.176 2.784c-1.392.048-2.856.192-4.248.36-.312.12-.7.336-.7.72a.97.97 0 00.864.816 27.207 27.207 0 012.736-.48l-.072 2.256a20.436 20.436 0 00-3.312.624 1.183 1.183 0 001.368 1.2s1.224-.288 1.992-.384c0 1.176.072 2.184.192 3.888a1.1 1.1 0 001.8-.048c-.048-1.44-.1-3-.072-4.008.96.024 1.68.192 2.256-.144.216-.192.12-.648.12-.648a3.54 3.54 0 00-2.4-.672 14.324 14.324 0 01.1-1.656 1.376 1.376 0 00-.528-.552c1.3-.088 2.38.2 3.24.128z" fill="#993a22"/></svg>