<svg xmlns="http://www.w3.org/2000/svg" width="136.992" height="21.634" viewBox="0 0 136.992 21.634">
  <path id="category-h2-title" d="M18.912-12.264c-1.392-.816-4.152-.864-6.12-.888.24-.984.552-2.088.792-3.072a4.032,4.032,0,0,0-1.9-.624c-.24.984-.672,2.88-.936,3.744a27.009,27.009,0,0,0-5.736.5A1.1,1.1,0,0,0,5.4-11.4c1.464-.12,3.144-.336,5.04-.36A53.48,53.48,0,0,1,5.544-.144c2.592-.528,5.184-5.688,6.912-11.64a18.4,18.4,0,0,1,4.512.288,43.42,43.42,0,0,1-2.016,8.928l-2.472.024A9.158,9.158,0,0,1,14.712-.672c1.152-.1,2.112-1.488,2.352-2.232A39.422,39.422,0,0,0,18.912-12.264Zm23.064-1.752a2.151,2.151,0,0,0,0-1.1c-1.728-1.056-9.456-.12-11.4.24a1.344,1.344,0,0,0,.264,1.56A43.049,43.049,0,0,1,41.976-14.016Zm1.68,5.376a2.925,2.925,0,0,0-.12-1.416,68.326,68.326,0,0,0-15.408,1.2,2.464,2.464,0,0,0,.336,1.248c2.5-.336,6.024-.816,7.944-.96-.36,3.624-1.656,6.312-2.856,9.1L35.232-.7c2.016-1.776,2.76-5.112,3.072-8.016A32.9,32.9,0,0,1,43.656-8.64ZM70.1-16.9a1.994,1.994,0,0,0-2.256-1.368c.408.72.912,2.064,1.7,2.208A.839.839,0,0,0,70.1-16.9Zm-2.712.336a2,2,0,0,0-1.944-1.128c.312.624.648,1.8.984,2.4C67.464-15.312,67.68-15.984,67.392-16.56Zm-.312,2.5c-3.312-1.464-11.088-.96-13.968.192-.48.192.312,1.224.6,1.512a25.5,25.5,0,0,1,11.184-.7c-.48,3.432-.96,6.552-1.464,9.744a57.992,57.992,0,0,0-8.784.816,4.663,4.663,0,0,0-.36,1.8,53.678,53.678,0,0,1,9.264-1.176,1.341,1.341,0,0,0,1.512.72C65.568-4.3,66.576-10.752,67.08-14.064ZM80.688-6.576a39.183,39.183,0,0,1-.144-8.808s-1.176-.408-1.776-.552c-.6,1.824-.864,8.52.36,10.224A6.688,6.688,0,0,0,80.688-6.576Zm6.792-9a50.687,50.687,0,0,1-.6,7.824A52.1,52.1,0,0,1,84.312.84,8.276,8.276,0,0,0,87.528-3a31.874,31.874,0,0,0,2.256-12.384Zm30.408,7.2c.1-.744-.648-1.272-1.32-1.44-3.072-.768-12.456-.192-17.136.264a1.416,1.416,0,0,0-1.2.768A1.91,1.91,0,0,0,99.5-7.176a41.174,41.174,0,0,1,15.384-.768C116.064-7.7,117.744-7.344,117.888-8.376Zm23.88-7.368a2.987,2.987,0,0,0-.024-1.056,3.272,3.272,0,0,0-1.992-.528c-1.44,0-2.952.216-4.152.216l.336-1.32a1.84,1.84,0,0,0-1.848-.648,48.974,48.974,0,0,1-2.136,6.672,8.022,8.022,0,0,0,3.36-3.7,1.089,1.089,0,0,0,.84.36A39.454,39.454,0,0,1,141.768-15.744ZM132.1-11.016c.1-.5-.264-.744-1.056-.744-.456,0-1.824.1-2.256.12a1.473,1.473,0,0,0-.288-1.32,17.025,17.025,0,0,1,2.424.168c.408-.072.672-.48.72-1.224l.12-1.728c-.672-.792-2.352-.6-3.168-.624.144-.672-.1-.864-.552-1.248a14.761,14.761,0,0,1,2.592.072A2.247,2.247,0,0,0,132-17.736c.048-.7-.432-1.032-1.464-1.032a37.233,37.233,0,0,0-6.144.48,2.273,2.273,0,0,0-1.488-.192c-.432,1.128,0,7.488.192,8.832a2.563,2.563,0,0,0,.96.408,4.385,4.385,0,0,0,1.1-1.032,32.148,32.148,0,0,1,6.672-.336A.758.758,0,0,0,132.1-11.016Zm-5.256-5.256c-.552.024-1.488.144-2.208.24,0-.6.024-1.008.048-1.272.672-.048,1.7-.144,2.208-.168Zm3.12.888a7.656,7.656,0,0,1-.048,1.368c-1.512.048-3.288.192-5.328.408l-.024-1.632c.288-.072.432.168.552.336A18.658,18.658,0,0,1,129.96-15.384ZM141.288-12c-.024-.672-.648-1.008-1.944-1.008-1.128,0-2.4-.024-3.312.048-.744.048-1.2.288-1.272.648a.906.906,0,0,0,.624.984,3.073,3.073,0,0,0,.888-.192c1.032-.312,2.736,0,4.344,0C140.88-11.52,141.1-11.784,141.288-12Zm-14.184.384c-.792.072-1.872.192-2.424.288-.024-.816-.072-1.512-.072-1.512a2.36,2.36,0,0,0,.96.192,10.722,10.722,0,0,0,1.44-.168ZM141.936.7a6.538,6.538,0,0,0-1.32-2.856s-.144,1.632-.624,2.064c-.744.144-4.032.384-4.416-.264-.336-.552,0-1.8.1-2.5.48.024,1.44.1,1.44.1a1.1,1.1,0,0,0,1.68.12,24.03,24.03,0,0,0,.648-6.216c-.432-.864-2.328-1.128-4.512-1.152a45.123,45.123,0,0,0-6,.432c-.336-.24-1.656-.456-1.992-.12-.264,2.112-.36,6.048.552,7.512a1.363,1.363,0,0,0,1.56-.36,7.218,7.218,0,0,0,1.488-.072C128.52.312,124.872,1.8,123.24,2.52a16.419,16.419,0,0,0,5.328-1.128c2.112-1.1,3.888-3.12,3.888-3.768,0-.24-.456-.456-.456-.456s1.3-.1,1.656-.1c-.048.6-.1,1.488-.1,1.752,0,1.464,1.128,2.16,2.4,2.52a11.4,11.4,0,0,0,4.512.216C141.36,1.44,141.864,1.152,141.936.7ZM137.16-8.688c-.024,1.44-.1,2.952-.192,4.92a31.991,31.991,0,0,0-7.872.1,39.179,39.179,0,0,1,0-4.8A31.279,31.279,0,0,1,137.16-8.688Zm-1.728,1.68a.767.767,0,0,0-.288-.936,24.172,24.172,0,0,0-4.224.192c-.216.36-.192,1.176.216,1.128C132.528-6.816,134.808-6.768,135.432-7.008Zm-.168,2.328a.929.929,0,0,0-.072-1.272,19.145,19.145,0,0,0-4.176.072,1.291,1.291,0,0,0,.072,1.248A9.09,9.09,0,0,1,135.264-4.68Z" transform="translate(-4.947 19.114)" fill="#518c03"/>
</svg>
