<svg xmlns="http://www.w3.org/2000/svg" width="136.992" height="21.634"><path d="M13.965 6.85c-1.392-.816-4.152-.864-6.12-.888.24-.984.552-2.088.792-3.072a4.032 4.032 0 00-1.9-.624c-.24.984-.672 2.88-.936 3.744a27.009 27.009 0 00-5.736.5 1.1 1.1 0 00.388 1.204c1.464-.12 3.144-.336 5.04-.36A53.48 53.48 0 01.597 18.97c2.592-.528 5.184-5.688 6.912-11.64a18.4 18.4 0 014.512.288 43.42 43.42 0 01-2.016 8.928l-2.472.024a9.158 9.158 0 012.232 1.872c1.152-.1 2.112-1.488 2.352-2.232a39.422 39.422 0 001.848-9.36zm23.064-1.752a2.151 2.151 0 000-1.1c-1.728-1.056-9.456-.12-11.4.24a1.344 1.344 0 00.264 1.56 43.049 43.049 0 0111.136-.7zm1.68 5.376a2.925 2.925 0 00-.12-1.416 68.326 68.326 0 00-15.408 1.2 2.464 2.464 0 00.336 1.248c2.5-.336 6.024-.816 7.944-.96-.36 3.624-1.656 6.312-2.856 9.1l1.68-1.232c2.016-1.776 2.76-5.112 3.072-8.016a32.9 32.9 0 015.352.076zm26.444-8.26A1.994 1.994 0 0062.897.846c.408.72.912 2.064 1.7 2.208a.839.839 0 00.556-.84zm-2.712.336a2 2 0 00-1.944-1.128c.312.624.648 1.8.984 2.4 1.036-.02 1.252-.692.964-1.268zm-.312 2.5c-3.312-1.464-11.088-.96-13.968.192-.48.192.312 1.224.6 1.512a25.5 25.5 0 0111.184-.7c-.48 3.432-.96 6.552-1.464 9.744a57.992 57.992 0 00-8.784.816 4.663 4.663 0 00-.36 1.8 53.678 53.678 0 019.264-1.176 1.341 1.341 0 001.512.72c.508-3.144 1.516-9.596 2.02-12.908zm13.612 7.488a39.183 39.183 0 01-.144-8.808s-1.176-.408-1.776-.552c-.6 1.824-.864 8.52.36 10.224a6.688 6.688 0 001.56-.864zm6.792-9a50.687 50.687 0 01-.6 7.824 52.1 52.1 0 01-2.568 8.592 8.276 8.276 0 003.216-3.84A31.874 31.874 0 0084.837 3.73zm30.408 7.2c.1-.744-.648-1.272-1.32-1.44-3.072-.768-12.456-.192-17.136.264a1.416 1.416 0 00-1.2.768 1.91 1.91 0 001.268 1.608 41.174 41.174 0 0115.384-.768c1.18.244 2.86.6 3.004-.432zm23.88-7.368a2.987 2.987 0 00-.024-1.056 3.272 3.272 0 00-1.992-.528c-1.44 0-2.952.216-4.152.216l.336-1.32a1.84 1.84 0 00-1.848-.648 48.974 48.974 0 01-2.136 6.672 8.022 8.022 0 003.36-3.7 1.089 1.089 0 00.84.36 39.454 39.454 0 015.616.004zm-9.668 4.728c.1-.5-.264-.744-1.056-.744-.456 0-1.824.1-2.256.12a1.473 1.473 0 00-.288-1.32 17.025 17.025 0 012.424.168c.408-.072.672-.48.72-1.224l.12-1.728c-.672-.792-2.352-.6-3.168-.624.144-.672-.1-.864-.552-1.248a14.761 14.761 0 012.592.072 2.247 2.247 0 001.364-.192c.048-.7-.432-1.032-1.464-1.032a37.233 37.233 0 00-6.144.48 2.273 2.273 0 00-1.488-.192c-.432 1.128 0 7.488.192 8.832a2.563 2.563 0 00.96.408 4.385 4.385 0 001.1-1.032 32.148 32.148 0 016.672-.336.758.758 0 00.272-.408zm-5.256-5.256c-.552.024-1.488.144-2.208.24 0-.6.024-1.008.048-1.272.672-.048 1.7-.144 2.208-.168zm3.12.888a7.656 7.656 0 01-.048 1.368c-1.512.048-3.288.192-5.328.408l-.024-1.632c.288-.072.432.168.552.336a18.658 18.658 0 014.844-.48zm11.324 3.384c-.024-.672-.648-1.008-1.944-1.008-1.128 0-2.4-.024-3.312.048-.744.048-1.2.288-1.272.648a.906.906 0 00.624.984 3.073 3.073 0 00.888-.192c1.032-.312 2.736 0 4.344 0 .264 0 .484-.264.672-.48zm-14.184.384c-.792.072-1.872.192-2.424.288-.024-.816-.072-1.512-.072-1.512a2.36 2.36 0 00.96.192 10.722 10.722 0 001.44-.168zm14.832 12.316a6.538 6.538 0 00-1.32-2.856s-.144 1.632-.624 2.064c-.744.144-4.032.384-4.416-.264-.336-.552 0-1.8.1-2.5.48.024 1.44.1 1.44.1a1.1 1.1 0 001.68.12 24.03 24.03 0 00.648-6.216c-.432-.864-2.328-1.128-4.512-1.152a45.123 45.123 0 00-6 .432c-.336-.24-1.656-.456-1.992-.12-.264 2.112-.36 6.048.552 7.512a1.363 1.363 0 001.56-.36 7.218 7.218 0 001.488-.072c-2.02 2.924-5.668 4.412-7.3 5.132a16.419 16.419 0 005.328-1.128c2.112-1.1 3.888-3.12 3.888-3.768 0-.24-.456-.456-.456-.456s1.3-.1 1.656-.1c-.048.6-.1 1.488-.1 1.752 0 1.464 1.128 2.16 2.4 2.52a11.4 11.4 0 004.512.216c.892-.116 1.396-.404 1.468-.856zm-4.776-9.388c-.024 1.44-.1 2.952-.192 4.92a31.991 31.991 0 00-7.872.1 39.179 39.179 0 010-4.8 31.279 31.279 0 018.064-.22zm-1.728 1.68a.767.767 0 00-.288-.936 24.172 24.172 0 00-4.224.192c-.216.36-.192 1.176.216 1.128 1.392-.192 3.672-.144 4.296-.384zm-.168 2.328a.929.929 0 00-.072-1.272 19.145 19.145 0 00-4.176.072 1.291 1.291 0 00.072 1.248 9.09 9.09 0 014.176-.048z" fill="#518c03"/></svg>