<svg xmlns="http://www.w3.org/2000/svg" width="32" height="32"><g data-name="Ebene 1"><path data-name="パス 42200" d="M32 16a16 16 0 10-18.5 15.806V20.625H9.438V16H13.5v-3.525c0-4.01 2.389-6.225 6.043-6.225a24.614 24.614 0 013.582.313V10.5h-2.017A2.313 2.313 0 0018.5 13v3h4.438l-.709 4.625H18.5v11.181A16 16 0 0032 16z"/><path data-name="パス 42201" d="M22.228 20.625L22.937 16H18.5v-3a2.313 2.313 0 012.608-2.5h2.017V6.563a24.6 24.6 0 00-3.582-.312c-3.655 0-6.043 2.215-6.043 6.225v3.525H9.437v4.625H13.5v11.181a16.175 16.175 0 005 0V20.625z" fill="#fff"/></g></svg>