<svg xmlns="http://www.w3.org/2000/svg" width="168.998" height="18.312"><g fill="#3b5898"><path data-name="パス 42200" d="M32.384 4.138a1.681 1.681 0 000-1.44 13.37 13.37 0 00-4.416-.552c-2.112.048-4.248.432-5.328 1.272.048 4.512.192 9.12.408 13.8.48.432 1.2 1.1 1.944.84.24-1.8 0-5.376 0-7.248a19.457 19.457 0 013.72-.192c1.152 0 1.68-.048 1.728-.936.048-.96-1.08-.984-2.4-.984a18.967 18.967 0 00-3.12.24 28.193 28.193 0 01.072-4.512 36.448 36.448 0 017.392-.288zM48.368 17.17c.024-.48-.336-.72-.84-.96-.432-.216-.912-.408-1.056-.768a8.4 8.4 0 01-.144-3.72 9.182 9.182 0 000-3.24c-.384-1.8-2.112-2.784-3.984-2.9-1.488-.1-4.152.1-4.2 2.16a11.256 11.256 0 003.408-.192c1.536-.144 2.832.1 2.664 2.52a17.649 17.649 0 00-4.92.576 4.035 4.035 0 00-2.352 4.344c.312 1.968 2.3 2.952 4.488 2.928a6.781 6.781 0 003.384-.888c.1.432 1.2.96 2.16 1.032.768.068 1.368-.148 1.392-.892zm-4.3-1.944a5.062 5.062 0 01-4.344.648 2.237 2.237 0 01.648-3.5 6.493 6.493 0 013.7-.456 18.9 18.9 0 000 3.308zm19.7-1.9c-1.056-.312-1.536.336-2.112.936a4.061 4.061 0 01-2.416 1.78 3.767 3.767 0 01-4.656-3.72c-.1-2.592 1.632-5.4 4.272-5.088a4.49 4.49 0 012.16 1.128c.984.432 1.944.552 2.04-.552.048-.5-1.44-1.776-2.76-2.16a6.218 6.218 0 00-6.408 1.584 8.531 8.531 0 00-1.512 4.824c.048 3.72 2.9 6.792 7.488 5.9 1.92-.38 4.436-2.372 3.912-4.628zm16.184 1.78c-.24-1.152-1.056-.552-2.184.024a7.122 7.122 0 01-3.048.984c-1.944.072-3.984-.792-4.272-3.192 2.064-.24 5.04-.6 6.5-.888.864-.168 1.872-.216 2.256-1.272.384-1.032-.768-3.48-2.016-4.344a6.478 6.478 0 00-6.528.144 6.832 6.832 0 00-2.616 5.5 6.013 6.013 0 002.692 5.012 7.309 7.309 0 004.992.936c1.2-.168 4.56-1.316 4.224-2.904zm-3.072-4.992a35.377 35.377 0 01-6.5.864c-.1-1.608 1.872-3.336 3.48-3.528a2.827 2.827 0 013.02 2.664zm17.808 6.432c2.112-2.232 2.064-7.56-.288-9.552-2.16-1.824-5.4-1.056-7.512.288.12-1.584.144-3.288.312-4.8-1.128-1.656-2.616-.312-2.376 2.04a84.948 84.948 0 00-.1 12.312 2.015 2.015 0 001.68 1.032l.744-1.056c2.02 1.392 6.028 1.32 7.54-.264zm-1.9-8.4c1.728 2.088 1.44 7.1-1.008 7.968a3.834 3.834 0 01-3.96-1.1 4.57 4.57 0 01-.908-4.42 4.187 4.187 0 015.88-2.448zm20.86 3.288c-.192-3.7-3.24-6.384-7.488-5.808a6.633 6.633 0 00-5.472 4.944 6.682 6.682 0 003.168 7.08 7.661 7.661 0 003.552.644c3.864-.26 6.456-2.756 6.24-6.86zm-2.348.408c.024 1.776-.624 3.672-2.112 4.32a5.464 5.464 0 01-1.968.48c-2.592.1-4.176-2.256-4.272-4.56a4.361 4.361 0 013.36-4.68 5.081 5.081 0 013.024.288c1.244.604 1.94 2.448 1.968 4.152zm19.8-.408c-.192-3.7-3.24-6.384-7.488-5.808a6.633 6.633 0 00-5.472 4.944 6.682 6.682 0 003.168 7.08 7.661 7.661 0 003.552.648c3.86-.264 6.452-2.76 6.24-6.864zm-2.352.408c.024 1.776-.624 3.672-2.112 4.32a5.464 5.464 0 01-1.968.48c-2.592.1-4.176-2.256-4.272-4.56a4.361 4.361 0 013.36-4.68 5.081 5.081 0 013.024.288c1.244.604 1.94 2.448 1.964 4.152zm18.72 5.568a19.512 19.512 0 00-5.952-7.152c1.392-.84 3.816-2.448 4.944-4.32-.816-1.2-1.656-1.032-2.4-.384-.528.456-1.344 1.344-1.9 1.776-1.2.984-2.352 1.968-3.816 2.016-.048-2.52.048-4.32.144-6.816a2.013 2.013 0 00-1.9-.624c-.864 3.624-.648 11.76-.576 15.792a1.693 1.693 0 002.328-.144c-.072-1.248-.072-3.648-.072-5.52a3.427 3.427 0 012.232.216c1.056.5 2.016 1.632 3.336 3.528.456.672.888 1.416 1.32 1.92.628.696 1.3.912 2.308-.288z"/><g data-name="グループ 18"><g data-name="グループ 15" transform="rotate(167 5 9.453)"><circle data-name="楕円形 8" cx="1" cy="1" r="1" transform="translate(0 16)"/><rect data-name="長方形 30" width="2" height="14" rx="1"/></g><g data-name="グループ 16" transform="rotate(167 2 9.111)"><circle data-name="楕円形 8" cx="1" cy="1" r="1" transform="translate(0 16)"/><rect data-name="長方形 30" width="2" height="14" rx="1"/></g></g><g data-name="グループ 17"><g data-name="グループ 15" transform="rotate(13 13487.204 -1082.023)"><circle data-name="楕円形 8" cx="1" cy="1" r="1" transform="translate(746 2970)"/><rect data-name="長方形 30" width="2" height="14" rx="1" transform="translate(746 2974)"/></g><g data-name="グループ 16" transform="rotate(13 13490.204 -1055.692)"><circle data-name="楕円形 8" cx="1" cy="1" r="1" transform="translate(746 2970)"/><rect data-name="長方形 30" width="2" height="14" rx="1" transform="translate(746 2974)"/></g></g></g></svg>