<svg xmlns="http://www.w3.org/2000/svg" width="194.998" height="18.22"><g fill="#993a22"><path data-name="パス 42200" d="M26.192 17.77c-.216-4.68-.072-10.92-.264-15.36-.456-.384-1.56-.72-2.088-.168a30.541 30.541 0 00-.216 4.872c.024 3.384.024 7.752.216 10.512a2.286 2.286 0 002.352.144zM44.408 2.41c0-.36-.456-.72-1.3-.5-.552.144-.84 1.008-.84 2.04-.024 2.328.024 6.864-.216 10.272-2.184-3.432-5.352-8.712-7.128-11.9-1.08-.384-1.872-.576-2.16-.216a121.339 121.339 0 00-.144 14.88 1.773 1.773 0 002.064.552 97.952 97.952 0 01.048-11.856 165.86 165.86 0 007.2 11.856c.528.552 1.344.144 1.9-.312.336-3.488.576-11.332.576-14.816zm15.768 2.784a1.569 1.569 0 00.072-.96 4.8 4.8 0 00-3.888-2.352 6.617 6.617 0 00-5.232 3.024 4.475 4.475 0 00.172 5.328c.84.84 2.688.7 4.368.7 1.632 0 3.12.12 3.336 1.368.288 1.632-1.44 3.12-2.664 3.456a3.476 3.476 0 01-1.06.136 5.156 5.156 0 01-3.264-1.128c-.72-.624-1.1-1.488-2.184-1.128-.72 1.32.168 2.592 1.176 3.36a9.3 9.3 0 004.2.96c2.692-.064 5.232-1.464 5.952-3.74 1.008-3.12-1.536-5.256-4.536-5.472-1.656-.12-3.5.432-3.84-.888-.5-1.968 2.04-3.864 3.528-3.744a4.214 4.214 0 011.968.96 1.389 1.389 0 001.896.12zm19.656-.864a1.4 1.4 0 000-1.656c-2.5-.624-9.336-.384-11.28-.288-1.08.048-2.544.144-2.952.576.144 1.176.816 1.392 1.92 1.392s3.048-.072 3.864.048c-.168 2.232.1 12.768.6 13.608a1.6 1.6 0 001.776-.144c.552-3.984.192-10.584.24-13.464 1.872-.048 4.08-.072 5.832-.072zm18.216 13.632c.312-1.848-.672-4.44-1.488-6.384-.7-1.656-1.488-3.528-2.376-5.352-.624-1.3-1.968-4.392-3.12-4.608a1.9 1.9 0 00-1.9.672 69.615 69.615 0 00-2.856 7.656c-.764 2.548-1.748 5.016-2.228 7.128a1.728 1.728 0 001.776 1.032c.672-1.3 1.632-4.56 2.088-5.784a17.347 17.347 0 016.384-.144c.792 1.7 1.224 3.744 1.944 5.5a1.562 1.562 0 001.776.284zm-4.608-7.728a17.444 17.444 0 00-4.992.216c.6-1.968 1.608-4.752 2.3-6.384a26.565 26.565 0 012.692 6.168zm23.016 5.232c-.072-1.968-.432-5.184-.6-6.672a7.893 7.893 0 00-4.176-.96c-1.152.048-2.16.384-2.424 1.248 0 .48.264.672.936.72.816.048 2.664-.072 3.384.312a4.825 4.825 0 01-2.016 4.608 4.636 4.636 0 01-2.424.816 4.257 4.257 0 01-4.152-3.244c-.984-3.6.576-6.984 2.568-8.016a4.974 4.974 0 015.28.792c1.1-.456.984-1.176.408-1.824a4.78 4.78 0 00-2.424-1.176 6.989 6.989 0 00-7.992 5.064 11.886 11.886 0 000 5.808 6.285 6.285 0 007.3 4.44 7.043 7.043 0 004.224-2.52 9.386 9.386 0 00.168 2.088c.216.624.5 1.032 1.2.888.764-.144.784-1.1.74-2.372zm16.608.576c-.552-.624-5.256-4.776-5.256-4.776 2.592-.216 4.08-1.512 4.536-3.12a4.664 4.664 0 00-.6-4.08 6.56 6.56 0 00-5.112-2.4 6.788 6.788 0 00-4.848 1.632 86.92 86.92 0 00.12 14.112c.6.336 1.536.84 2.232.288-.1-1.056-.168-2.736-.312-4.536a76.965 76.965 0 01.024-9.144 6.04 6.04 0 014.944-.12c1.032.552 1.608 1.92 1.3 3.792-.624 1.9-3.072 2.448-3.5 2.16-1.056-.7-2.208-.1-2.208.648a8.861 8.861 0 001.032 1.2c1.728 1.56 5.832 5.736 7.632 6.432.976-.648.688-1.296.016-2.088zm18.436 1.92c.312-1.848-.672-4.44-1.488-6.384-.7-1.656-1.488-3.528-2.376-5.352-.624-1.3-1.968-4.392-3.12-4.608a1.9 1.9 0 00-1.9.672 69.615 69.615 0 00-2.856 7.656c-.768 2.544-1.752 5.016-2.232 7.128a1.728 1.728 0 001.772 1.032c.672-1.3 1.632-4.56 2.088-5.784a17.347 17.347 0 016.384-.144c.792 1.7 1.224 3.744 1.944 5.5a1.562 1.562 0 001.784.284zm-4.612-7.728a17.444 17.444 0 00-4.992.216c.6-1.968 1.608-4.752 2.3-6.384a26.565 26.565 0 012.692 6.168zm25.612 7.032a105.992 105.992 0 00-2.424-15.24 5.762 5.762 0 00-1.272-.6 50.927 50.927 0 00-5.328 6.36c-.5-.864-1.8-2.976-2.712-4.3a3.7 3.7 0 00-2.9-1.752c-1.8 4.056-1.752 11.328-1.7 15.384a2.377 2.377 0 001.992.6c.192-3.432.072-9.408.96-12.84.936.528 2.52 3.912 3.384 5.184a1.683 1.683 0 001.608.168 38.225 38.225 0 014.488-5.544 62.283 62.283 0 011.488 12.72 2.168 2.168 0 002.416-.14z"/><g data-name="グループ 18"><g data-name="グループ 15" transform="rotate(167 5 9.453)"><circle data-name="楕円形 8" cx="1" cy="1" r="1" transform="translate(0 16)"/><rect data-name="長方形 30" width="2" height="14" rx="1"/></g><g data-name="グループ 16" transform="rotate(167 2 9.111)"><circle data-name="楕円形 8" cx="1" cy="1" r="1" transform="translate(0 16)"/><rect data-name="長方形 30" width="2" height="14" rx="1"/></g></g><g data-name="グループ 17"><g data-name="グループ 15" transform="rotate(13 13500.204 -967.923)"><circle data-name="楕円形 8" cx="1" cy="1" r="1" transform="translate(746 2970)"/><rect data-name="長方形 30" width="2" height="14" rx="1" transform="translate(746 2974)"/></g><g data-name="グループ 16" transform="rotate(13 13503.204 -941.593)"><circle data-name="楕円形 8" cx="1" cy="1" r="1" transform="translate(746 2970)"/><rect data-name="長方形 30" width="2" height="14" rx="1" transform="translate(746 2974)"/></g></g></g></svg>