<svg xmlns="http://www.w3.org/2000/svg" xmlns:xlink="http://www.w3.org/1999/xlink" width="66" height="58.07"><defs><linearGradient id="a" y1=".5" x2="1" y2=".5" gradientUnits="objectBoundingBox"><stop offset="0" stop-color="#8cb808"/><stop offset="1" stop-color="#67aa1b"/></linearGradient><linearGradient id="b" x1="-18.843" y1="-2.524" x2="-17.664" y2="-2.524" xlink:href="#a"/></defs><path data-name="パス 160" d="M28.046 48.004a22.143 22.143 0 01-3.5 4.969 13.953 13.953 0 01-5.62 3.339c-.489 0-.244 1.14.163 1.466s1.222.652 3.014-.652a99.119 99.119 0 007.167-7.086z" fill="#6f9300"/><g data-name="グループ 56"><g data-name="グループ 53"><path data-name="パス 161" d="M4160.35 1041.806s-1.466-24.435 10.874-31.643 27.978-4.276 27.978-4.276 2.734 24.987-11.927 33.05c-10.099 5.555-26.925 2.869-26.925 2.869z" transform="translate(-4133.404 -990.992)" fill="url(#a)"/></g><g data-name="グループ 55"><g data-name="グループ 54"><path data-name="パス 162" d="M26.946 50.814S25.48 26.379 37.82 19.171s27.978-4.276 27.978-4.276 2.734 24.987-11.927 33.05c-10.099 5.555-26.925 2.869-26.925 2.869z" fill="#33702a" opacity=".32"/></g></g></g><path data-name="パス 163" d="M28.906 49.104s9.979-13.608 18.448-20.647a101.442 101.442 0 0116.86-11.607s-14.243 9.492-21.869 18.082c-5.568 6.267-13.439 14.172-13.439 14.172z" fill="#afc93f"/><path data-name="パス 164" d="M48.938 17.583a36.944 36.944 0 00-2.149 6.156c-.833 4.106-.069 6.189-.069 6.189l1.09-.895a16.267 16.267 0 01-.151-4.86 34.029 34.029 0 011.279-6.59z" fill="#afc93f"/><path data-name="パス 165" d="M40.542 20.451a44.275 44.275 0 00-1.28 7.7c-.146 5.012 1.18 7.313 1.18 7.313l1.1-1.278a19.483 19.483 0 01-1.17-5.7 40.777 40.777 0 01.17-8.035z" fill="#afc93f"/><path data-name="パス 166" d="M33.528 27a44.208 44.208 0 00-.47 7.791c.378 5 1.936 7.15 1.936 7.15l.965-1.386a19.474 19.474 0 01-1.758-5.547A40.763 40.763 0 0133.528 27z" fill="#afc93f"/><path data-name="パス 167" d="M53.676 16.613a24.391 24.391 0 00-1.421 4.07 8.222 8.222 0 00-.046 4.092l.722-.592a10.733 10.733 0 01-.1-3.213 22.454 22.454 0 01.845-4.357z" fill="#afc93f"/><path data-name="パス 168" d="M60.801 28.721a41.947 41.947 0 01-7.122 2.014c-4.708.662-7.016-.345-7.016-.345l1.088-1.174a18.463 18.463 0 005.5.5 38.692 38.692 0 007.55-.995z" fill="#afc93f"/><path data-name="パス 169" d="M57.593 37.027a50.25 50.25 0 01-8.81.924c-5.687-.178-8.2-1.837-8.2-1.837l1.523-1.163a22.113 22.113 0 006.378 1.715 46.229 46.229 0 009.109.361z" fill="#afc93f"/><path data-name="パス 170" d="M50.016 45.641a50.218 50.218 0 01-8.818.84c-5.686-.233-8.187-1.915-8.187-1.915l1.534-1.149a22.142 22.142 0 006.361 1.776 46.254 46.254 0 009.11.448z" fill="#afc93f"/><path data-name="パス 171" d="M63.05 23.191a27.746 27.746 0 01-4.709 1.332 9.328 9.328 0 01-4.638-.228l.72-.777a12.212 12.212 0 003.632.334 25.528 25.528 0 004.995-.661z" fill="#afc93f"/><path data-name="パス 172" d="M20.664 36.818a17.434 17.434 0 00.669 4.747 11.007 11.007 0 002.741 4.365c.343.176-.239.888-.642.97s-1.091.018-1.88-1.542a78.291 78.291 0 01-2.479-7.551z" fill="#6f9300"/><g data-name="グループ 60"><g data-name="グループ 57"><path data-name="パス 173" d="M3996.006 946.226s9.823-16.618 3.758-26.117-18.093-13.069-18.093-13.069-10.911 16.548-3.525 27.482c5.088 7.534 17.86 11.704 17.86 11.704z" transform="translate(-3975.581 -907.041)" fill="url(#b)"/></g><g data-name="グループ 59"><g data-name="グループ 58"><path data-name="パス 174" d="M20.425 39.185s9.823-16.618 3.758-26.117S6.09-.001 6.09-.001-4.821 16.547 2.565 27.481c5.088 7.534 17.86 11.704 17.86 11.704z" fill="#33702a" opacity=".32"/></g></g></g><path data-name="パス 175" d="M19.666 37.282s-2.1-13.14-5.514-21.127A79.98 79.98 0 006.498 1.944s6.578 11.786 8.839 20.558c1.651 6.399 4.329 14.78 4.329 14.78z" fill="#afc93f"/><path data-name="パス 176" d="M16.953 7.953a29.122 29.122 0 01-.707 5.093 9.807 9.807 0 01-2.179 4.367l-.444-1.021a12.816 12.816 0 001.856-3.355 26.86 26.86 0 001.474-5.084z" fill="#afc93f"/><path data-name="パス 177" d="M21.813 12.987a34.889 34.889 0 01-1.872 5.863c-1.7 3.569-3.46 4.707-3.46 4.707l-.315-1.294a15.359 15.359 0 002.873-3.579 32.165 32.165 0 002.774-5.697z" fill="#afc93f"/><path data-name="パス 178" d="M24.378 20.107a34.88 34.88 0 01-2.474 5.636c-2.064 3.372-3.932 4.32-3.932 4.32l-.178-1.32a15.353 15.353 0 003.23-3.26 32.124 32.124 0 003.354-5.376z" fill="#afc93f"/><path data-name="パス 179" d="M13.978 5.568a19.309 19.309 0 01-.468 3.367 6.482 6.482 0 01-1.44 2.887l-.293-.675a8.479 8.479 0 001.227-2.218 17.755 17.755 0 00.974-3.361z" fill="#afc93f"/><path data-name="パス 180" d="M4.621 11.499a33.049 33.049 0 004.273 3.977c3.065 2.159 5.047 2.283 5.047 2.283l-.341-1.216a14.552 14.552 0 01-4.038-1.623 30.5 30.5 0 01-4.941-3.421z" fill="#afc93f"/><path data-name="パス 181" d="M3.883 18.482A39.556 39.556 0 009.732 22.3c4.055 1.922 6.417 1.664 6.417 1.664L15.5 22.6a17.435 17.435 0 01-5.093-1.092 36.434 36.434 0 01-6.524-3.026z" fill="#afc93f"/><path data-name="パス 182" d="M6.099 27.253a39.58 39.58 0 005.886 3.763c4.073 1.883 6.433 1.6 6.433 1.6l-.663-1.358a17.428 17.428 0 01-5.1-1.043 36.463 36.463 0 01-6.556-2.962z" fill="#afc93f"/><path data-name="パス 183" d="M5.033 6.811A21.907 21.907 0 007.858 9.44a7.358 7.358 0 003.337 1.509l-.225-.8a9.63 9.63 0 01-2.669-1.073 20.172 20.172 0 01-3.268-2.265z" fill="#afc93f"/></svg>