<svg xmlns="http://www.w3.org/2000/svg" width="24.001" height="24"><path data-name="長方形 43" fill="none" d="M0 0h24v24H0z"/><g fill="#fff"><path data-name="パス 203" d="M1.608 9.684c.108-.236.314-.623.676-1.3.166-.314.352-.659.543-1.014H1.159a1.159 1.159 0 000 2.317z"/><path data-name="パス 204" d="M22.842 7.368h-1.669c.191.355.376.7.543 1.014.362.68.568 1.068.676 1.3h.45a1.159 1.159 0 000-2.317z"/><path data-name="パス 205" d="M1.846 19.729a1.562 1.562 0 103.124 0v-1.477H1.846z"/><path data-name="パス 206" d="M19.029 19.729a1.563 1.563 0 003.125 0v-1.477h-3.125z"/><path data-name="パス 207" d="M21.932 9.975c.079.023-2.892-5.429-3.034-5.723A2.457 2.457 0 0016.692 3H7.308a2.458 2.458 0 00-2.206 1.252c-.142.294-3.111 5.747-3.033 5.723 0 0-.961.959-1.034 1.036a1.457 1.457 0 00-.375 1.187v4.339c0 .809.144 1.252 1.1 1.252h20.483c.954 0 1.1-.443 1.1-1.252v-4.34a1.454 1.454 0 00-.377-1.187 204.125 204.125 0 00-1.034-1.035zM4.527 8.303s1.908-3.437 2.021-3.661a1.487 1.487 0 011.3-.662h8.3a1.486 1.486 0 011.3.662c.114.225 2.022 3.661 2.022 3.661a.61.61 0 01-.5.905H5.026a.61.61 0 01-.499-.905zm-.255 7.643a1.753 1.753 0 111.753-1.753 1.753 1.753 0 01-1.753 1.753zm10.39.474a.232.232 0 01-.231.232h-4.86a.232.232 0 01-.232-.232v-2.141a.231.231 0 01.232-.23h4.86a.231.231 0 01.231.23v2.141zm5.067-.474a1.753 1.753 0 111.753-1.753 1.754 1.754 0 01-1.753 1.753z"/></g></svg>