<svg xmlns="http://www.w3.org/2000/svg" width="24" height="24"><path data-name="長方形 43" fill="none" d="M0 0h24v24H0z"/><g fill="#fff"><path data-name="パス 189" d="M20.533 10.193l-8.224 5.2V3.001h-.726V15.42L3.31 10.193l-.387.614 8.3 5.247-5.393 3.2.371.625 5.378-3.2v2.166h.726v-2.131l5.329 3.168.372-.624-5.393-3.205 8.3-5.247-.387-.614z"/><path data-name="パス 190" d="M24 9.239a4.216 4.216 0 00-.26-1.559.722.722 0 00-.478-.429 9.651 9.651 0 00-2.578-.346 9.957 9.957 0 00-3.248.538c-.2.07-.378.145-.554.222.017-.219.026-.434.026-.645a7.444 7.444 0 00-1.626-4.716 7.25 7.25 0 00-3.03-2.259.733.733 0 00-.5 0 7.24 7.24 0 00-3.03 2.259 7.444 7.444 0 00-1.629 4.715c0 .211.009.427.026.646a8.69 8.69 0 00-.552-.221 9.93 9.93 0 00-3.248-.538 9.611 9.611 0 00-2.577.346.723.723 0 00-.479.429A4.192 4.192 0 000 9.239a10.471 10.471 0 001.225 4.555 9.738 9.738 0 002.649 3.259A5.643 5.643 0 002.8 18.464a6.184 6.184 0 00-.721 2.263v.064a.726.726 0 00.306.596l-.018-.013.021.013a7.775 7.775 0 004.283 1.111 9.992 9.992 0 003.757-.744v1.276a.726.726 0 00.726.726h1.693a.726.726 0 00.726-.726v-1.276a9.975 9.975 0 003.756.744 7.794 7.794 0 004.283-1.111.725.725 0 00.31-.595v-.062a6.158 6.158 0 00-.723-2.264 5.6 5.6 0 00-1.07-1.413 9.724 9.724 0 002.648-3.259l-.322-.166.323.166A10.471 10.471 0 0024 9.239zm-2.193 4.058a8.059 8.059 0 01-3.084 3.41.363.363 0 000 .636 4 4 0 011.515 1.638 5.3 5.3 0 01.564 1.629 7.1 7.1 0 01-3.474.8 8.588 8.588 0 01-4.3-1.111.363.363 0 00-.545.314v2.054h-.968v-2.055a.363.363 0 00-.545-.314 8.6 8.6 0 01-4.3 1.111 7.105 7.105 0 01-3.475-.8 5.325 5.325 0 01.565-1.63 4 4 0 011.515-1.638.363.363 0 000-.636 8.061 8.061 0 01-3.084-3.41 9.427 9.427 0 01-1.1-4.058 3.441 3.441 0 01.125-.983 8.58 8.58 0 012.1-.261 8.849 8.849 0 012.889.476 3.951 3.951 0 011.617.931.363.363 0 00.629-.322 8.368 8.368 0 01-.27-2.06 6.348 6.348 0 011.388-4.031A6.2 6.2 0 0112 1.123a6.2 6.2 0 012.431 1.864 6.347 6.347 0 011.388 4.037 8.406 8.406 0 01-.27 2.06.363.363 0 00.629.322 3.933 3.933 0 011.617-.931 8.846 8.846 0 012.889-.476 8.544 8.544 0 012.1.261 3.443 3.443 0 01.125.983 9.425 9.425 0 01-1.102 4.054z"/></g></svg>