<svg xmlns="http://www.w3.org/2000/svg" width="16" height="16"><g fill="#333"><path data-name="パス 34" d="M10.308 1.766a6.04 6.04 0 100 8.542 6.046 6.046 0 000-8.542zm-.839 7.7a4.854 4.854 0 110-6.864A4.855 4.855 0 019.47 9.47z"/><path data-name="パス 35" d="M3.214 3.45a3.784 3.784 0 00-.242 4.287.216.216 0 10.368-.225 3.354 3.354 0 01.214-3.8.216.216 0 00-.34-.265z"/><path data-name="パス 36" d="M15.562 13.876l-4.384-4.27a.612.612 0 00-.86.006l-.7.7a.611.611 0 00-.005.859l4.27 4.384a1.09 1.09 0 001.716.065 1.112 1.112 0 00-.037-1.744z"/></g></svg>