<svg version="1.1" id="レイヤー_1" xmlns="http://www.w3.org/2000/svg" x="0" y="0" viewBox="0 0 129 134.7" xml:space="preserve"><style>.st1{fill:none}.st2{fill:#e8a35a}.st3{fill:#d38439}.st4{fill:#d98a40}.st5{fill:#cd7e34}.st7{fill:#b86823}.st8{fill:#e89d51}.st9{fill:#c7782e}.st10{fill:#c07228}.st11{fill:#db934e}.st12{fill:#e29346}.st13{fill:#e3994d}</style><g id="レイヤー_2_1_"><g id="aw"><path d="M115.6 109.6c1.4-1.9 2.8-3.8 4-5.8 1.8-2.9 3.3-6 4.6-9.2.7-1.6 1.2-3.2 1.7-4.8 1.4-4.3 2.3-8.8 2.7-13.3.2-2 .3-4.1.3-6.2v-1.9c-.1-2-.2-4-.5-6-.1-1-.3-2-.4-3 0-.3-.1-.5-.1-.8-.5-2.5-1.1-5-1.8-7.4l-.3-1c-.7-2.2-1.6-4.3-2.5-6.5l-.6-1.2c-.5-1.1-1.1-2.3-1.7-3.4-.2-.5-.5-.9-.8-1.4-.6-1-1.2-2-1.9-3-.2-.3-.3-.5-.5-.8-1-1.4-2-2.8-3-4.1l-1.5-1.8-.1-.1c-.2-.3-.4-.5-.7-.8-.3-.4-.7-.8-1-1.1-.6-.7-1.3-1.3-2-2-.5-.5-.9-.9-1.4-1.3l-.9-.8c-.8-.7-1.7-1.5-2.6-2.1l-1.4-1.1-1.4-1-.8-.5-1.8-1.2-.2-.1-1.5-.9-.8-.5-.5-.3-.3-.2-.6-.3-.6-.3-.5-.4-1.2-.6-.7-.4c-.6-.3-1.3-.6-1.9-.9l-.6-.3-1.2-.5-1-.4c-.9-.3-1.7-.6-2.6-.9l-.9-.3c-.7-.2-1.3-.4-2-.6L81 7.9l-1.2-.3-1-.2-1.5-.3-1.3-.3-1.8-.3c-.3-.1-.7-.1-1.1-.2-.9-.1-1.7-.2-2.6-.3-.6 0-1.3-.1-1.9-.2l-1.2-.1h-5.1c-.8 0-1.5.1-2.2.1-1.8.1-3.5.3-5.2.6-1.1.2-2.2.3-3.3.6l-1.8.4-1.3.3c-.5.2-1.1.3-1.6.5s-1.3.4-2 .6l-1 .3-1.5.5c-2.4.9-4.7 1.9-7 3l-1.4.8c-1.5.8-3 1.7-4.5 2.6-1.6 1-3.1 2.1-4.5 3.2-3.2 2.5-6.2 5.3-8.9 8.4-1.8 2-3.4 4.1-4.9 6.3-.8 1.1-1.5 2.3-2.2 3.4s-1.5 2.6-2.1 3.9c-.1.3-.3.5-.4.8-.2.4-.4.9-.6 1.3-.4.9-.8 1.8-1.2 2.8-.8 2.1-1.6 4.2-2.2 6.4-.2.6-.3 1.2-.5 1.8s-.3 1.2-.4 1.8l-.4 1.7-.2 1c-.1.4-.1.8-.2 1.2s-.1.6-.1.9c-.1.6-.2 1.2-.2 1.8s-.1 1.3-.2 2c0 .4-.1.9-.1 1.3s0 .8-.1 1.1c0 .6 0 1.3-.1 1.9v1.2c0 .8 0 1.6.1 2.4 0 .5 0 1 .1 1.6 0 .4 0 .7.1 1.1.1.7.1 1.3.2 2 0 .4.1.9.2 1.3s.1 1 .2 1.5.1.7.2 1.1c.1.7.2 1.4.4 2.1.1.3.1.5.2.8.1.5.2.9.3 1.4 0 .2.1.4.2.7.1.4.2.9.3 1.3s.2.9.4 1.3c.2.7.4 1.4.7 2.1.1.4.2.7.4 1.1l.4 1.2c.2.4.3.8.5 1.2.2.4.3.8.5 1.2.1.2.2.4.2.6.5 1.2 1.1 2.4 1.7 3.6.5.9.9 1.8 1.4 2.6 0 .1.1.1.1.2.2.4.5.8.7 1.2l.5.7 1 1.6.4.6 1.5 2.1.5.6.8 1c.6.8 1.3 1.6 1.9 2.3l.2.2c.3.3.6.7.9 1 1.1 1.1 2.1 2.2 3.2 3.3l.5.5c.4.4.8.8 1.3 1.1s1 .8 1.4 1.2c1.6 1.3 3.2 2.5 4.9 3.7.5.4 1.1.7 1.6 1.1l.9.6c2.4 1.4 4.8 2.7 7.4 3.9 1.7.8 3.4 1.4 5.2 2.1 1.1.4 2.3.8 3.4 1.1 1.3.4 2.6.7 3.9 1 .8.2 1.6.3 2.3.5 3.7.7 7.5 1 11.3 1 1.4 0 2.8-.1 4.2-.1 1.8-.1 3.7-.3 5.5-.6 1.4-.2 2.7-.5 4.1-.8 9.1-2 17.7-5.9 25.1-11.6l12.2-12.3z" fill="#612b17"/><path class="st1" d="M70.6.3C68.3 2.7 66 5 63.7 7.4 66 5 68.3 2.7 70.6.3zM46.8 23.5l4.6-4.5-4.6 4.5zm0 0c.2-.8.6-1.6 1.2-2.2-.6.6-1 1.4-1.2 2.2zm-31 31.9C26 45.1 36.3 34.9 46 24.3c-9.7 10.6-20.1 20.8-30.2 31.1zM67.5.1l-.5.5.5-.5zm23.2 30.7c-.1.2-.2.4-.4.5.2-.1.3-.3.4-.5zM65.3 85.4c-.7.6-1.3 1.3-1.7 2.1l-6 6 6-6c.5-.8 1-1.5 1.7-2.1zm24.1-27.5c9.7-9.6 19.2-19.4 28.9-29-9.7 9.7-19.2 19.4-28.9 29zM74.7 86.7c-1 1.3-1.5 2.2-1.1 2.8-.5.9-1.2 1.7-1.9 2.5.7-.8 1.3-1.6 1.9-2.5-.3-.5.1-1.5 1.1-2.8zm-7.2 13.6c.6-.4 1.1-.9 1.4-1.5l2.7-3.3 5.3-4.6-5.3 4.6-2.7 3.3c-.3.6-.8 1.1-1.4 1.5zm24.1-31.2l6-6-6 6zm12-11.1c.5-.7.8-1.5.9-2.3-.1.8-.5 1.6-.9 2.3zm12.3-22.2c-.7 1.2.3 1.4.5 2l-2.3 2 2.3-2c-.2-.6-1.2-.8-.5-2zM53.7 96c-5.2 3.8-10.3 9-11.7 12.4l-.8.8c-.3.3-.7.6-1 .9.3-.3.6-.6 1-.9s.5-.6.8-.8c1.4-3.4 6.5-8.6 11.7-12.4zm70.8-40c-1.3 1.3-2.7 2.8-4.1 4 1.4-1.2 2.8-2.7 4.1-4l2.8-2.8c.2.2.4.3.7.3-.3 0-.5-.1-.7-.3l-2.8 2.8zm-55.3 49.8c1.3-.9 2.5-2 3.5-3.1 1.7-1.3 3.4-2.7 4.9-4.3-1.5 1.6-3.1 3-4.9 4.3-1.1 1.1-2.2 2.2-3.5 3.1zm43.3-84.4l-19.7 19 19.7-19zM59.8 73.3c-.4.1-.8.3-1.3.4.5-.1.9-.3 1.3-.4zm-4.1 3c-.2.5-.2.9-.2 1.4l-.1.1.1-.1c0-.5.1-1 .2-1.4zm-11.2 14l29-29.1-29 29.1c-1.6 2.9-3.7 5.7-6 8.1 2.3-2.5 4.3-5.2 6-8.1zm31.6-30.6c2-1.4 3.5-3.4 4.5-5.6 5-5.2 10.2-10.1 15.3-15.1-5.2 5-10.3 9.9-15.3 15.1-1 2.2-2.6 4.2-4.5 5.6zm10.6 27.6c2.8-2.8 3.5-4.2 3.4-6.3.1 2.1-.5 3.5-3.4 6.3zm11.5-25.5l5.9-5.7-5.9 5.7zm-1-1.1c-.1.1-.3.2-.4.3.1-.2.2-.2.4-.3zm-24.8 46.1c-.6 0-1.2.1-1.8.4.6-.2 1.2-.4 1.8-.4zm-2.9 1.1c.3-.2.7-.4 1-.6-.4.2-.7.4-1 .6zm-10.3 8.3c-1.7 1.5-3.4 3.2-4.3 2.6-2.7 2.6-5.3 5.2-8 7.8 2.6-2.6 5.3-5.2 8-7.8.9.7 2.6-1.1 4.3-2.6zM36.9 112c-.6.6-.9 1.4-.8 2.2l-2.9 2.8 2.9-2.8c-.1-.8.2-1.6.8-2.2zm.4 2c1.1-.5 1.8-1.5 2-2.7l1-1.1-1 1.1c-.2 1.2-.9 2.2-2 2.7zm-9.6-26.1c-.6.8-1.2 1.5-1.8 2.3L23 93l2.9-2.9c.6-.7 1.2-1.5 1.8-2.2zm33.2-31.2c2.2-1.6 4.3-3.4 6.4-5.2-2.1 1.8-4.2 3.5-6.4 5.2zm-4.1 4.8c.7-.5 1.2-1.2 1.4-2 .9-.9 1.8-1.9 2.7-2.8-.9.9-1.8 1.9-2.7 2.8-.2.8-.7 1.5-1.4 2zM27 91.1c1.5-1.2 3-2.5 4.5-3.9L27 91.1zm-.5 5.5l-10 10 10-10c.1-.3.1-.6.2-.9-.1.3-.1.6-.2.9zm14.1-14l-12 12.1 12-12.1c2-4.3 4.9-7.3 10.1-10-5.2 2.6-8.2 5.6-10.1 10zm30-34c5.6-5.3 10.9-10.9 15.8-16.8l2.1-1.8-2.1 1.8c-5 5.9-10.2 11.5-15.8 16.8zm11.2 54c-2.2 1.6-4.3 2.8-5.2 1.9l-2.7 2.7 2.7-2.7c.9.9 2.9-.3 5.2-1.9zm27.3-12.1c-1.2 1.6-1.9 3-.9 3.4-6.5 7.8-13.3 15.4-20.2 23 6.9-7.6 13.7-15.3 20.2-23-1-.4-.3-1.8.9-3.4zm-47.6 29.2c.3-.3.7-.6 1-.9-.3.2-.7.6-1 .9-2.8 2.7-5.5 5.5-8.2 8.3 2.7-2.8 5.4-5.6 8.2-8.3zm7.2 9.1c.1-.5.2-.9.4-1.4-.1.5-.3 1-.4 1.4zm-51.9-90L2 53.8l14.8-15c-.5.3-1 .7-1.5 1.1.5-.4 1-.7 1.5-1.1zm-10-2.2l8.2-8.1-8.2 8.1zm9.6-14.5l-.3-.3.3.3zm-2.6 8.7zm75.1-12.5c-1.1 1.2-2 2.5-2.7 3.9.7-1.5 1.6-2.8 2.7-3.9zM68.7 29.2c2.1-1.9 4.1-3.9 5.3-6.1-1.2 2.2-3.3 4.1-5.3 6.1zm-56.2 63c-1.4 1.3-2.7 2.7-4 4.2 1.2-1.4 2.6-2.8 4-4.2zM22 68.9c-1.5 1.1-2.6 2.6-3.3 4.3-4.8 4.7-9.7 9.4-14.5 14.2C9 82.7 13.9 78 18.7 73.2c.7-1.8 1.8-3.3 3.3-4.3zm42.3-41.2L47.1 45l17.2-17.3zm0 0l.6.6-.6-.6C72.2 20 79.8 12.1 87.5 4.2 79.8 12.1 72.2 20 64.3 27.7zm-2.7-14.2L74.2.7 61.6 13.5zm-8.7 8.6l-5.3 5-.1-.1.1.1 5.3-5zM81 2.1L64.8 18.3 81 2.1zM41.8 33.3c-.4.4-.7.8-1 1.3C27.6 48.2 14.3 61.9.9 75.4c13.4-13.6 26.7-27.2 39.9-40.9.3-.4.6-.9 1-1.2zm4.1-3.8c.4-.2.8-.5 1.1-.8-.4.4-.7.6-1.1.8zm-36.8 40l41.8-43.1.1-.1-.1.1L9.1 69.5zm27.4-24.1C24.9 56.9 13.2 68.4 2 80.3c11.2-11.9 22.9-23.4 34.5-34.9z"/><path class="st2" d="M26.5 96.6c.1-.3.1-.6.2-.9 0-.1.1-.2.2-.3.8-1 1.2-.9 1.6-.9l12-12.1c2-4.3 4.9-7.3 10.1-10l19.2-19.1c-.3-.4-.3-.8-.2-1.2 0-.1.1-.2.1-.2l.3-.3.2-.2c6.2-5.3 10.1-12.2 16.8-17.2.6-.5 1.1-.9 1.6-1.3.2-.2.4-.4.6-.5l.4-.4.3-.4.3-.4c.1-.2.3-.4.4-.5.7-1.2.2-1.7-1-1.8l-1.2 1-2.1 1.8c-4.9 5.9-10.2 11.5-15.8 16.8-.8.7-1.6 1.5-2.4 2.2l-.9.8c-2.1 1.8-4.2 3.5-6.4 5.2-.9.9-1.8 1.9-2.7 2.8-.2.8-.7 1.5-1.4 2l-.2.1c-.1.1-.3.2-.5.3L44.5 74c-4.3 4.4-8.5 9-13 13.2-1.5 1.3-3 2.7-4.5 3.9l-2 2c-3.4 4.1-7.1 7.9-11 11.5.6.8 1.3 1.6 1.9 2.3l.6-.2 10-10.1zm68.4-77.7c-5 5-9.9 9.9-14.9 14.8-7.6 7.5-15.1 14.9-22.7 22.3-6.7 6.6-13.5 13.2-20.2 19.7-8.7 8.4-17.3 16.8-25.9 25.2.5.7 1 1.4 1.5 2l4-4c1.3-1.3 2.8-3 4.2-4.2l.1-.1.8-.6c.4-.3.8-.6 1.3-.9l2.9-2.9c.6-.8 1.2-1.5 1.8-2.3l.1-.1 9.6-9.3c3.2-3.1 6.4-6.2 9.5-9.4 13.9-13.8 27.7-27.7 41.6-41.5 4.9-4.9 9.9-9.7 14.8-14.6l-1.4-1-7.1 6.9z"/><path class="st3" d="M91.4 7.1L89 9.3c-1.5 1.4-2.9 2.8-4.3 4.2s-2.8 2.8-4.1 4.2c-1.3 1.6-3 2.8-4.9 3.5L73.9 23c-1.1 2.3-3.2 4.2-5.3 6.1l-.9.9c-.3.3-.7.6-1 1-1.1 1.1-2.8 2.6-2.5 3.3.2.7 1.8-.9 3-1.9s3.1-3.3 3.6-2.5-1.7 2.5-2.9 3.8c-2.7 2.6-5.3 6-8.2 6.5-1.5.3-2.9 2.5-3.5 3.8-1.1 2.3-2.7 4.3-4.6 6-13.8 12.5-26.8 26-39.9 39.2l-4.6 4.7c.5.9.9 1.8 1.4 2.6 1.3-1.5 2.6-2.9 4-4.2l.7-.8c17.7-18.2 36.3-35.2 54-53.4 2.1-1.9 4-4 5.7-6.2-4.6 3.2-8 7.8-12 10.9 6.9-6.5 12.8-13.8 21-19.6 4.6-3.3 9.9-9.4 15-14.5l-.5-.3c-4.3 4.2-8.6 8.4-13 12.5L95.9 8.2l-.6-.3-78.9 78.8-.5-.5L94.7 7.5l-.5-.2-4.3 4.3-.3-.2c1.2-1.3 2.3-2.5 3.5-3.8l-.2-.2-3.7 3.6-.2-.3 4-4-.7-.4-.4.4-.5.4zM54.9 48.6l.1.2-26.2 26.3-.2-.1c8.8-8.8 17.6-17.6 26.3-26.4z"/><path class="st4" d="M51.6 1.3c-.6.1-1.2.2-1.8.4-14.1 14.4-28 28.9-42 43.5-2.2 2.3-4.4 4.6-6.7 6.9L1 53c5.1-5.2 10.1-10.4 15.2-15.6C28 25.4 39.9 13.3 51.6 1.3zM16.8 38.8c-.5.3-1 .7-1.5 1.1-.9.7-1.7 1.5-2.5 2.3-.5.5-1 1-1.4 1.5s-.8.8-1.2 1.2C7 48 3.9 51.1.8 54.2c0 .3-.1.6-.1.9L2 53.8l14.8-15z"/><path class="st5" d="M93.7 14.7l-7.5 7.4C66.7 41.4 47.4 61 27.7 79.9c-6.2 5.9-12.3 11.9-18.4 18l.5.8 5.6-5.5 18.4-17.9c4.7-4.6 9.4-9.3 14.1-14l46.5-45.8c1.8-1.6 3.4-3.4 4.9-5.3l-.2-.2c-.2.1-.3.2-.5.3-1.9 1.1-3.4 3-4.9 4.4zm-30-7.3l-4.1 4.1-2.1 2-1.1 1.1-.3.3-.6.6c-1.2 1.3-2.6 2.5-4.1 3.6l-4.6 4.5-.4.4-.4.4C36.3 35 26 45.2 15.8 55.5c-1.6 1.7-3.3 3.3-4.9 5-.8.8-1.6 1.6-2.3 2.4-2.7 2.9-5.5 5.8-8.2 8.6 0 .4.1.9.2 1.3l12.9-13.5c11.8-12.5 24-25.3 37-36.8 1.2-1.1 2.5-2.4 3.4-2.4 6.4-6.5 12.9-13 19.4-19.5-.9-.1-1.7-.2-2.6-.3-2.4 2.4-4.7 4.7-7 7.1z"/><path d="M64.3 27.7l.6.6L88.6 4.6c-.3-.1-.7-.3-1-.4-7.8 7.9-15.4 15.8-23.3 23.5z" fill="#af6322"/><path class="st7" d="M47.2 26.9l.3.2.1.1 5.3-5 8.8-8.7L74.2.7 73.1.6c-6.5 6.5-13 13-19.4 19.5l-6.5 6.8z"/><path class="st8" d="M69.7 125.6c1.1-2.7 1.8-5.5 2.1-8.4.1-2 .1-4.3-5.3.3-2.2 1.8-2.9 1.1-4.1 1.3-.3.3-.6.6-1 .9-2.8 2.7-5.5 5.5-8.2 8.3 3.7.7 7.5 1 11.3 1 1.4 0 2.8-.1 4.2-.1.1-.5.2-.9.4-1.4s.4-1.3.6-1.9z"/><path class="st9" d="M112.9 74.1c-5.8 7.6-12.3 14.7-19.5 21 1.8-3.2 5.1-5.8 7-8.4 1.2-1.7 3.2-3.9 2.5-4.4s-2.5 1.7-3.8 2.6c-7 4.8-13.9 11.5-20.9 17.1-1.4 1.2-1.6 1.9-1.7 2.6.9.9 3-.3 5.2-1.9l.4-.3.3-.2.7-.5c.8-.6 1.5-1.1 2.3-1.6 1.1-.8 2.6-2.4 3.1-2s-.8 1.9-1.9 3.1c-3.4 3.9-7.3 7.9-3.4 7.7.8-.1-1.2 2.5-2.1 4s-3.4 4-2.4 4.3c.9.3 2.9-2.3 5-3.5-2.4 3.4-4.2 6.6-6.3 9.9l-.6.9-1 1.4-1 1.4-.5.6-.3.4c1.4-.2 2.7-.5 4.1-.8 2.2-2.4 4.5-4.9 6.7-7.3l3-3.3c6.9-7.6 13.7-15.3 20.2-23-1-.4-.3-1.8.9-3.4.2-.3.5-.6.7-.9.4-.6.9-1.2 1.3-1.7 2.1-2.8 3.8-5.1-.1-3-3.1 1.7-1.1-.7.4-2.3 5.9-6.6 11.6-13.3 17.5-19.9-.1-2-.2-4.1-.5-6-5.3 5.3-10.6 11.1-15.3 17.4z"/><path class="st10" d="M106.2 18.8c-.4.4-.8.8-1.2 1.1s-.8.7-1.2 1l-1.2.9-32.8 31.6-19.2 19.1-10.1 10-12 12.1-2 2-10 10-.4.4c.3.3.6.7.9 1 8-8 16.1-16 24.2-24.1 11.5-11.5 23-23.1 34.8-34.3 11.1-10.5 22.3-20.9 33.5-31.3-.5-.5-.9-.9-1.4-1.3l-.4.5c-.5.4-1 .9-1.5 1.3zM69.8 53.4L50.6 72.5l19.2-19.1z"/><path class="st11" d="M89.7 29c1.2.1 1.8.7 1 1.8-.1.2-.2.4-.4.5l-.3.4-.3.4-.4.4c-.2.2-.4.4-.6.5-.4.4-1 .8-1.6 1.3-6.7 5-10.6 11.9-16.8 17.2l-.3.2-.3.3c-.1.1-.1.2-.1.2-.2.4-.1.9.2 1.2l32.7-31.6c1.1-2.2 2.7-4.1 4.6-5.7-.8-.7-1.7-1.4-2.6-2.1-4.8 5-9.8 10-14.8 15z"/><path class="st11" d="M90.7 30.8c.7-1.2.2-1.7-1-1.8 1.2.1 1.7.7 1 1.8zM69.8 53.4c-.3-.4-.3-.8-.2-1.2-.1.4 0 .9.2 1.2zm32.8-31.5L69.8 53.4l32.8-31.5zM69.8 53.4z"/><path class="st9" d="M46.8 69.1c-3.2 3.1-6.3 6.3-9.5 9.4l-9.6 9.3-.1.1c-.6.8-1.2 1.5-1.8 2.3L23 93c-1.9 2.2-4 4.1-6.3 5.9l-4 4 .5.6 2-2c.9-.9 1.8-1.7 2.7-2.6 2.3-2.1 4.7-4 7.2-5.9l2-2c.8-1.1 1.7-2.1 2.6-3.1.4-.5.9-.9 1.3-1.4 1.1-1.2 2.2-2.4 3.4-3.5.6-.6 1.1-1.2 1.7-1.8 1.4-1.5 2.8-2.9 4.1-4.4 1.7-2 3.4-3 4.4-2.8l11.7-12c.5-.9 1.2-1.8 2-2.5.9-.9 1.8-1.9 2.7-2.8.8-1.2 1.6-2.3 2.6-3.3.3-.3.6-.7.9-1l1.2-1.2c1.4-1.3 2.8-2.7 4.1-4 5.4-5.4 10.9-10.7 16.7-15.4l2.1-1.8 1.2-1c5-4.9 10-10 15-15-.4-.4-.9-.7-1.4-1-5 4.9-9.9 9.7-14.8 14.7-14 13.8-27.8 27.7-41.8 41.4zm9.4-7.1L44.5 74l11.7-12zm33.5-33l-1.2 1 1.2-1zM25 93l2-2-2 2zm-8.3 5.9l-4 4 4-4z"/><path class="st9" d="M37.3 78.5l-9.6 9.3-.1.1.1-.1c3.3-3.1 6.5-6.2 9.6-9.3z"/><path class="st4" d="M68.2 50.7c.8-.7 1.6-1.4 2.4-2.2 5.6-5.3 10.9-10.9 15.8-16.8-5.7 4.7-11.3 10-16.7 15.4-1.3 1.3-2.8 2.7-4.1 4l-1.2 1.2c-.4.4-.6.7-.9 1-1 1-1.8 2.1-2.6 3.3 2.2-1.6 4.3-3.4 6.4-5.2l.9-.7z"/><path class="st4" d="M60.9 56.7c.8-1.2 1.6-2.3 2.6-3.3-1 1-1.9 2.1-2.6 3.3zM25 93c-2.5 1.8-4.9 3.8-7.2 5.9-.9.8-1.8 1.7-2.7 2.6l-2 2 .8 1c4-3.5 7.7-7.3 11.1-11.5z"/><path class="st4" d="M25 93c-3.4 4.1-7.1 7.9-11 11.5 3.9-3.5 7.6-7.4 11-11.5zm0 0c-2.5 1.8-4.9 3.8-7.2 5.9 2.3-2 4.7-4 7.2-5.9zm0 0zm19.5-19c-1-.2-2.7.8-4.4 2.8-1.3 1.5-2.7 3-4.1 4.4-.6.6-1.1 1.2-1.7 1.8-1.1 1.2-2.3 2.3-3.4 3.5-.4.5-.9.9-1.3 1.4-.9 1.1-1.8 2.1-2.6 3.2 1.5-1.2 3-2.5 4.5-3.9 4.5-4.2 8.6-8.8 13-13.2z"/><path class="st4" d="M31.5 87.2c4.5-4.2 8.7-8.8 13-13.2-4.4 4.4-8.5 9-13 13.2zM27 91.1c.8-1.1 1.7-2.1 2.6-3.1-.9 1-1.8 2-2.6 3.1z"/><path class="st11" d="M40.6 82.6l10.1-10c-5.2 2.6-8.2 5.6-10.1 10zm10-10.1l-10.1 10 10.1-10zm-34.7 34.3l.2.2.4-.4-.6.2z"/><path class="st4" d="M56.8 61.5c.7-.5 1.2-1.2 1.4-2-.8.7-1.5 1.5-2 2.5.2-.1.3-.2.5-.3l.1-.2z"/><path class="st11" d="M26.9 95.5c-.1.1-.1.2-.2.3-.1.3-.2.6-.2.9l2-2c-.4-.1-.8-.2-1.6.8zm-.4 1.1l2-2-2 2z"/><path class="st8" d="M108.2 93.9c-6.5 7.8-13.3 15.4-20.2 23l-3 3.3c-2.2 2.4-4.5 4.9-6.7 7.3 9.1-2 17.7-5.9 25.1-11.6 3.4-3.5 6.8-7.1 10-10.7 2-2.4 4-4.9 6.2-7.3 1.8-2.9 3.3-6 4.6-9.2-1 .9-2 1.8-3 2.8-1.6 1.5-4.1 3.7-4.5 2.8s2.1-2.8 3.5-4.2c1.9-2 3.8-4.1 5.8-6.1 1.4-4.3 2.3-8.8 2.7-13.3-.9.9-1.8 1.8-2.7 2.8-6.6 6.7-11.7 13.6-17.8 20.4z"/><path class="st5" d="M10.8 100.2c.1.2.3.4.4.6 8.6-8.4 17.2-16.8 25.9-25.2 6.7-6.5 13.5-13.1 20.2-19.7 7.6-7.4 15.2-14.8 22.7-22.2 5-4.9 10-9.9 14.9-14.8l7-7-.8-.6c-9.5 9.5-19 18.9-28.6 28.3C52 59.9 31.4 80.1 10.8 100.2zm91.1-88.3l-7 7 7-7z"/><path class="st4" d="M16.7 98.9c2.3-1.7 4.4-3.7 6.3-5.9-.4.3-.8.6-1.3.9l-.7.7-.1.1c-1.4 1.2-2.8 2.7-4.2 4.2z"/><path class="st4" d="M20.9 94.6c-1.5 1.3-2.9 2.8-4.2 4.2 1.4-1.4 2.8-2.9 4.2-4.2z"/><path class="st12" d="M47.2 26.9l6.5-6.9c-.9 0-2.2 1.3-3.4 2.4-13 11.6-25.1 24.3-37 36.8C9 63.7 4.8 68.3.5 72.8c.1.5.1 1 .2 1.5 15.4-15.8 30.7-31.8 46.5-47.4z"/><path class="st12" d="M47.2 26.9l6.5-6.9c.1 0-6.5 6.9-6.5 6.9zM10.9 60.5c1.6-1.7 3.3-3.4 4.9-5C25.9 45.1 36.3 34.9 46 24.3c-1.8.6-3.7 2.5-5.6 4.4l-.4.3C28.7 40 18 51.6 6.8 62.8l-2 2-4.7 4.8c.1.7.1 1.3.2 2 2.8-2.8 5.5-5.7 8.2-8.6.9-.9 1.7-1.7 2.4-2.5z"/><path class="st12" d="M15.8 55.4c-1.6 1.7-3.3 3.3-4.9 5 1.7-1.6 3.3-3.3 4.9-5zm35.5-38.9C56.5 11.2 61.8 5.9 67 .6l.5-.5-1.4-.1c-16 16.2-32 32.5-47.9 48.8-6 6.1-12.1 11.9-18.1 18 0 .5 0 1 .1 1.6l4.1-4.2c15.7-15.8 31.3-31.8 47-47.7z"/><path class="st5" d="M41.8 33.3c.1-.1.3-.2.4-.3.2-.1.4-.3.6-.4l3-3 1.7-2.3-.1-.1-.3-.2C31.4 42.6 16.1 58.5.7 74.4c.1.4.1.7.2 1.1 13.4-13.6 26.7-27.2 39.9-40.9.3-.5.6-1 1-1.3zm5.7-6.2l-.3-.2.3.2zM4.2 64.2L.1 68.4c0 .4.1.7.1 1.1l4.7-4.8-.7-.5z"/><path class="st5" d="M4.2 64.2L.1 68.4l4.1-4.2z"/><path class="st8" d="M94.4 15.4L47.9 61.2c-4.7 4.7-9.4 9.4-14.1 14L15.4 93.1l-5.6 5.5 1 1.6C31.4 80.1 52 59.9 72.6 39.7c9.6-9.4 19.1-18.8 28.5-28.3l-1.8-1.2c-1.5 1.9-3.1 3.6-4.9 5.2zM9.3 97.9c6.1-6.1 12.2-12.1 18.4-18 19.7-18.9 39-38.5 58.5-57.8.7-1.4 1.6-2.7 2.7-3.9l.9-.9c1.2-1 2.5-1.9 3.9-2.6 1.6-1.4 3-3.3 4.9-4.5.2-.1.3-.2.5-.3L97.6 9c-30.1 28.8-59 59-89 87.7.2.4.5.8.7 1.2z"/><path class="st8" d="M98.6 10.3c-1.9 1.2-3.3 3.1-4.9 4.5 1.5-1.5 3-3.4 4.9-4.5z"/><path class="st5" d="M51.5 50c1.9-1.7 3.5-3.7 4.6-6 .6-1.3 2-3.5 3.5-3.8 2.9-.5 5.5-3.9 8.2-6.5 1.3-1.2 3.3-3.1 2.9-3.8s-2.3 1.4-3.6 2.5-2.7 2.7-3 1.9 1.4-2.2 2.5-3.3c.3-.3.7-.6 1-1l.9-.9c2.1-1.9 4.1-3.9 5.3-6.1-1.8.5-3.5 2.3-5.2 4.1l-.4.4-.8.8c-20.6 20.6-41.3 41.3-62 61.9l-.1.1c.5 1.2 1.1 2.4 1.7 3.6l4.7-4.7C24.8 76 37.8 62.5 51.5 50zM96.2 8.3l-.3-.2-12.7 12.8c4.4-4.2 8.7-8.4 13-12.6zM16.4 86.7L95.3 7.8l-.6-.3-78.8 78.8.5.4zM94.7 7.5L15.9 86.3 94.7 7.5z"/><path class="st7" d="M17.6 77.4c-4.2 4.1-8.3 8.2-12.5 12.3.1.2.2.4.2.6l.1-.1C26.2 69.6 46.9 49 67.5 28.3l.8-.8.4-.4c1.7-1.8 3.5-3.6 5.2-4.1l1.8-1.8c1.6-2.8 4.3-5.5 7.1-8.2l7.6-7.6-.6-.3C65.9 29.4 41.9 53.5 17.6 77.4z"/><path class="st7" d="M73.9 23c-1.8.5-3.5 2.3-5.2 4.1 1.7-1.8 3.5-3.6 5.2-4.1z"/><path class="st5" d="M81.8 23.1c-8.1 5.8-14 13.2-21 19.6 4-3 7.5-7.7 12-10.9-1.7 2.2-3.6 4.3-5.7 6.2-17.7 18.1-36.3 35.2-54 53.4l-.7.8c-1.4 1.3-2.8 2.7-4 4.2 0 .1.1.1.1.2 30.1-28.7 59-58.9 89-87.6l-.8-.5c-5 5.2-10.3 11.4-14.9 14.6zm-6.1-1.9c1.9-.7 3.6-1.9 4.9-3.5 1.3-1.4 2.7-2.8 4.1-4.2s2.9-2.8 4.3-4.2L91.4 7l.5-.4.4-.4c-.7-.2-1.3-.5-1.9-.8L82.7 13c-2.7 2.7-5.4 5.4-7 8.2zM89.2 11L93 7.5l.2.2c-1.2 1.3-2.3 2.5-3.5 3.8l.3.2 4.3-4.3-1.2-.6-4 4 .1.2zm5-3.8l-4.3 4.3 4.3-4.3z"/><path class="st5" d="M55 48.8l-.1-.2C46.1 57.4 37.4 66.2 28.6 75l.1.2L55 48.8z"/><path class="st10" d="M60.2.1c-1.8.1-3.5.3-5.2.5-2 1.7-4 3.4-6 5.3-11.4 10.8-20.1 22.7-31.2 33.6-3.3 3.2-6.5 6.7-9.8 9.9l-.5-.3 21.2-21.2-.5-.5-11.4 11.4L2 53.8c-.2 1.2-.7 2.3-1.6 3.1-.1.7-.1 1.3-.2 2 3.9-3.7 7.8-7.4 11.8-11C8.1 52 4.1 56.1.1 60.2c0 .4 0 .8-.1 1.1 1-1 2-1.9 2.9-2.9C22.3 39.2 41.1 19.6 60.2.1zm-8.9 16.4C35.6 32.4 20 48.4 4.2 64.2l.6.5 2-2C18 51.6 28.7 40 40 29l.4-.4c1.9-1.9 3.8-3.8 5.6-4.4l.4-.4.4-.4c.2-.8.6-1.6 1.2-2.2l.3-.4.4-.5c.3-.4.7-.7 1.1-1.1C56.1 13 62.4 6.6 68.7.1L67.5 0l-.5.6c-5.2 5.3-10.5 10.6-15.7 15.9zM18.2 48.8C34.2 32.6 50.1 16.3 66.1 0h-1.3C54.7 10.4 44.5 20.7 34.3 31l-3.7 3.7-4 3.9c-3 3-6.1 5.9-9.2 8.9C32.6 31.5 48.2 15.8 63.8 0h-1.4C45.8 16.8 29.2 33.7 12.6 50.5L0 63.3v1.2c0 .8 0 1.6.1 2.4 6-6.2 12.1-12 18.1-18.1zm28.6-25.3l-.4.4.4-.4z"/><path class="st10" d="M40.4 28.7c1.9-1.9 3.8-3.8 5.6-4.4-1.8.6-3.7 2.5-5.6 4.4zm10.9-12.2C35.6 32.4 20 48.4 4.2 64.2 20 48.4 35.6 32.4 51.3 16.5z"/><path class="st12" d="M46.9 2.4C36.5 13 26.2 23.6 15.9 34.2 11.3 39 6.7 43.8 2 48.6c-.1.6-.3 1.2-.4 1.8C17.2 34.2 32.9 18.1 48.5 2c-.5.1-1.1.3-1.6.4zM8.3 39.2l15.8-15.7.3.1-4.5 4.8C28.4 20 36.7 11.5 44.9 3l-1 .3C39.5 7.7 35 12 30.6 16.4c3.9-4.2 7.8-8.4 11.8-12.5-2.4.9-4.7 1.9-7 3l-.8.8-2 2.1c-4.7 4.9-9.2 9.9-13.9 14.8l-.3 1-.8.3-2.6 2.6c-.2.9-.6 1.7-1.2 2.3l-.1.1-.3.3c-.1.2-.3.3-.5.5l-8.3 8.6c-.8 2.1-1.6 4.2-2.2 6.4l10.1-10.1c-.9-.6-2.9 2.2-4.2 2.6z"/><path class="st5" d="M11.4 43.7c.5-.5 1-1 1.4-1.5.8-.8 1.6-1.6 2.5-2.3.5-.4 1-.8 1.5-1.1l11.4-11.4.5.5L7.5 49.1l.5.3c3.3-3.2 6.5-6.7 9.8-9.9C28.9 28.6 37.6 16.7 49 6c2-1.9 4-3.5 6-5.2l-3.3.6c-11.8 12-23.7 24-35.5 36.1C11.1 42.6 6.1 47.8 1 53c-.1.4-.1.8-.2 1.2l9.3-9.3c.5-.4.9-.8 1.3-1.2z"/><path class="st5" d="M15.3 39.9c-.9.7-1.7 1.5-2.5 2.3.8-.8 1.6-1.6 2.5-2.3zm-2.5 2.3c-.5.5-1 1-1.4 1.5.5-.5.9-1 1.4-1.5zm37-40.5l-1.3.3c-15.6 16.2-31.3 32.2-47 48.3L1.2 52c2.2-2.3 4.4-4.6 6.7-6.9 13.9-14.5 27.9-29 41.9-43.4zM.7 55c-.1.7-.2 1.3-.2 1.9.8-.8 1.3-1.9 1.5-3.1L.7 55z"/><path class="st12" d="M113 22.3C107.4 28 101.6 33.5 95.9 39c-5.2 5-10.3 9.9-15.3 15.1-1 2.2-2.5 4.2-4.5 5.6l-.9.6c-.6.3-1.1.6-1.7.9l-29 29.1c-1.6 2.9-3.7 5.7-6 8.1-.6.6-1.2 1.3-1.8 1.9-2.4 2.4-6.1 4.8-5.2 6.8.1.3-1 1.5-1.5 1.7-2.3 1-4.2 3.1-6.3 5.4l-.1.1c1.6 1.3 3.2 2.6 4.9 3.7 9.1-9.2 18.2-18.5 27.5-27.6 1.7-1.6 3.3-3.3 5-4.9l5-5c5.5-5.5 11-11.1 16.5-16.6l11.8-12.1c-4 1-4.3.2 2.1-6.4 5.4-5.6 9.4-11.8 15.7-17.9 1.1-1 2.1-2.1 2.8-3.4l-1.5-1.8h-.4z"/><path class="st10" d="M88 45.3l-8.3 8.2-19.9 19.8-4.3 4.4-.1.1-4.6 4.6-4.3 4.3-3.3 3c-4.7 4.3-9.1 9-13.8 13.5l-8.6 8.7L22 113c7.1-7.9 14.8-15.3 22.5-22.8l29-29.1 7.1-7.1c5-5.2 10.2-10.2 15.3-15.1 5.8-5.5 11.5-11 17.1-16.6l.2-.2c-.2-.3-.4-.5-.7-.8l-19.7 19-4.8 5z"/><path class="st10" d="M113 22.3C107.4 28 101.6 33.5 95.9 39c5.7-5.5 11.5-11 17.1-16.7z"/><path class="st3" d="M93.7 14.7c-1.4.7-2.7 1.5-3.9 2.6l-.9.9c-1.1 1.2-2 2.5-2.7 3.9l7.5-7.4zm-7.5 7.5l7.5-7.4-7.5 7.4zM51.4 19c1.5-1 2.9-2.2 4.1-3.5l.6-.6.3-.3 1.1-1.1 2.1-2c1.4-1.3 2.7-2.7 4.1-4L70.6.3C70 .2 69.3.2 68.7.2c-6.3 6.4-12.6 12.8-19 19.2l1.7-.4z"/><path class="st12" d="M49.7 19.4l-1.1 1.1-.4.5-.2.3c-.6.6-.9 1.4-1.1 2.2l4.5-4.5-1.7.4z"/><path class="st4" d="M47.6 41.3C32.8 56.1 18.4 71.2 3.7 86.2l.4 1.2c4.8-4.7 9.7-9.4 14.5-14.2.6-1.7 1.8-3.2 3.3-4.3l.1-.1c.5-.4 1.1-.7 1.6-1l.5-.2 23-22.6 17.2-17.3C72.2 20 79.8 12.1 87.5 4.2c-.8-.3-1.7-.6-2.6-.9-12.5 12.6-24.8 25.4-37.3 38zm.1 4.2c-14.3 14.4-28.6 28.8-43.1 43 .2.4.3.8.5 1.2 4.2-4.1 8.3-8.2 12.5-12.3 24.2-23.9 48.2-48 72.1-72.2l-1.2-.5-23.6 23.6-17.2 17.2z"/><path class="st10" d="M47.7 45.5l17.2-17.2-.6-.6L47.1 45l.6.5zm0 0l17.2-17.2-17.2 17.2zM8.1 75.7c-1.9 2-3.8 3.9-5.8 5.9.1.4.2.9.4 1.3C8.5 77.2 14.3 71.4 20 65.7c18.8-19 37.8-38 56.3-57.3 1.9-2 3.8-4 5.8-6-.3-.1-.7-.2-1.1-.3L64.8 18.3C46.3 37.8 27 56.5 8.1 75.7z"/><path class="st7" d="M3.3 85c.1.4.2.7.4 1.1 14.6-15 29.1-30.1 43.9-44.9C60.1 28.7 72.4 15.9 85 3.3l-.9-.3C69.7 17.5 55.5 32 41.3 46.6c-12.5 12.9-25 25.9-38 38.4z"/><path class="st5" d="M62.8 14.5L54 23.3l-3 3-.1.1L9.1 69.5c-2.6 2.7-5.2 5.3-7.8 8 .1.3.1.5.2.8l4-4C29 50.3 52.3 26.3 76 2.6l1.3-1.3L76 1c-4.5 4.4-8.9 8.9-13.2 13.5z"/><path class="st3" d="M62.8 14.5C67.1 9.9 71.5 5.4 76 1L74.2.7 61.6 13.5l1.2 1zm0 0z"/><path class="st12" d="M53.9 23.3c3-2.9 5.9-5.9 8.8-8.8l-1.1-1-8.8 8.7 1.1 1.1z"/><path class="st12" d="M61.6 13.5l-8.8 8.7 8.8-8.7zm-7.7 9.8l8.8-8.8c-2.9 2.9-5.8 5.9-8.8 8.8z"/><path class="st3" d="M45.9 29.5c.4-.2.8-.5 1.1-.8l.7-.5.3-.2.5-.4.3-.2c.8-.6 1.5-1 2-.9l.1-.1 3-3-1.1-1.2-5.3 5.1-1.6 2.2zm0 0l1.7-2.3-1.7 2.3zm5.1-3.2l3-3-3 3z"/><path class="st4" d="M19.9 65.7C14.3 71.5 8.5 77.2 2.7 82.9c.2.7.4 1.4.7 2.1 12.9-12.6 25.4-25.6 38-38.4C55.5 32 69.8 17.5 84.1 3c-.7-.2-1.3-.4-2-.6-1.9 2-3.9 4-5.8 6-18.6 19.3-37.6 38.3-56.4 57.3zM5.4 74.2l-4 4c.1.5.2.9.3 1.4.7-.9 1.5-1.8 2.3-2.6l.6-.6.7-.7c22.6-22.6 44.9-45.4 67.4-68l6-6.1-1.4-.3L76 2.6C52.3 26.3 29 50.3 5.4 74.2z"/><path class="st5" d="M5.3 75.8l-.7.7-.6.6c-.8.8-1.6 1.7-2.3 2.6 0 .2.1.4.2.7 11.2-11.9 22.9-23.4 34.5-35 9.2-9.2 18.4-18.5 27.3-28 5.5-5 10.7-10.3 16-15.6-.3-.1-.7-.2-1-.2l-6 6.1C50.2 30.3 27.9 53.1 5.3 75.8z"/><path class="st5" d="M4.1 77.1c-.8.8-1.6 1.7-2.3 2.6.7-1 1.4-1.8 2.3-2.6z"/><path class="st9" d="M61.5 119.7c.3-.3.7-.6 1-.9l11.1-11.2c-.2-.3-.5-.5-.8-.6h-.4c-.6 0-1.2.1-1.8.4l-.2.1c-.3.2-.7.4-1 .6l-.6.4-.8.5-.7.5-.2.2-.5.4-.2.2-1 .8-.5.4-.7.6-.5.4c-1.2 1-2.3 2-3.4 2.8-.2.2-.5.4-.7.6l-.3.3c-1.7 1.5-3.4 3.2-4.3 2.6-2.7 2.6-5.3 5.2-8 7.8 1.3.4 2.6.7 3.9 1 1.8-1.8 3.7-3.7 5.5-5.7 3.3-3.7 4.1-2.8 5.1-2.2z"/><path class="st4" d="M75 127.3l1-1.4.9-1.4.6-.9c2.1-3.3 4-6.5 6.3-9.9-2 1.2-4.1 3.8-5 3.5-1-.4 1.4-2.8 2.4-4.3s3-4 2.1-4c-3.9.3 0-3.8 3.4-7.7 1-1.2 2.3-2.7 1.9-3.1s-2 1.2-3.1 2c-.7.5-1.5 1.1-2.3 1.6l-.7.5-.3.2-.4.3c-2.2 1.6-4.3 2.8-5.2 1.9l-2.7 2.7-.3.3-11.1 11.2c1.2-.2 1.9.6 4.1-1.3 5.4-4.6 5.4-2.2 5.3-.3-.3 2.9-1 5.8-2.1 8.4l-.6 1.8c-.2.6-.3.9-.4 1.4 1.8-.1 3.7-.3 5.5-.6l.3-.4.4-.5zm1-1.4l-1 1.4 1-1.4zm.9-1.4l-.9 1.4.9-1.4zm-3.3-17l-11.1 11.2 11.1-11.2z"/><path class="st3" d="M61.5 119.7c-1-.5-1.8-1.4-5.1 2.2-1.8 2-3.6 3.8-5.5 5.7.8.2 1.6.3 2.3.5 2.8-2.9 5.5-5.7 8.3-8.4z"/><path class="st4" d="M111.1 84.8c3.8-2.1 2.2.3.1 3-.4.6-.9 1.2-1.3 1.7-.3.3-.5.6-.7.9-1.2 1.6-1.9 3-.9 3.4 6.2-6.8 11.3-13.7 17.8-20.4.9-.9 1.8-1.8 2.7-2.8.2-2 .3-4.1.3-6.2v-1.9c-5.9 6.6-11.6 13.3-17.5 19.9-1.6 1.7-3.7 4.1-.5 2.4zm17-31.3c0-.3-.1-.5-.1-.8l-.6.4c.1.3.4.4.7.4z"/><path class="st7" d="M124.5 56c-1.3 1.3-2.7 2.8-4.1 4l-.6.5c-.5.4-1.1.9-1.7 1.2-11.4 10.8-22.9 21.4-34.5 31.8-1.4 1.3-3 2.4-4.6 3.3l-.8.8-.7.7c-1.5 1.6-3.1 3-4.9 4.3-1.1 1.2-2.3 2.2-3.5 3.1-.3.2-.5.3-.8.5-4.5 4.2-9.2 8-13.5 12.5.9.7 2.6-1.1 4.3-2.6l.3-.3c.2-.2.5-.4.7-.6 1.1-.8 2.2-1.8 3.4-2.8l.5-.4.7-.6.5-.4 1-.8.2-.2.5-.4.2-.2.7-.5.9-.7.6-.4c.3-.2.7-.4 1-.6l.2-.1c.5-.3 1.2-.4 1.8-.4h.4c.3.1.6.3.8.6l.3-.3 2.7-2.7c0-.7.2-1.5 1.7-2.6 7-5.6 13.9-12.3 20.9-17.1 1.3-.9 3.2-3.1 3.8-2.6s-1.3 2.8-2.5 4.4c-1.9 2.6-5.2 5.2-7 8.4 7.2-6.3 13.7-13.4 19.5-21 4.7-6.3 9.9-12.1 15.6-17.5-.1-1-.3-2-.4-3-.3 0-.5-.1-.7-.3l-2.9 3zm-54 51.3l.2-.1-.2.1zm3.1.2zm.3-.3l-.3.3.3-.3zm-.3.3z"/><path class="st13" d="M41.2 83.9C33.2 92 25.1 100 17 108.1c1.1 1.1 2.1 2.2 3.2 3.3.3-.3.5-.7.8-1l.6-.8c.4-.5.9-1 1.4-1.4s1-.9 1.5-1.3 1-.9 1.5-1.3c1.1-.8 2.2-1.6 3.3-2.3 4.6-4.4 9.1-9.2 13.8-13.5l3.3-3c-.1-.7-.1-1.5 1.7-3.2 1.4-1.3 2.1-1.2 2.7-1.1l4.6-4.6.1-.1c0-.5.1-.9.2-1.4.1-.2.2-.5.3-.7.1-.2.3-.4.5-.6l.3-.3c.2-.2.4-.3.6-.4.4-.2.7-.4 1.1-.6.4-.2.8-.3 1.3-.4l19.8-19.7c1.4-3.1 6-7 6.5-10.3 2.2-.2-.1 2.9 1.8 2.1l4.9-4.8c.6-2.3 3.7-5.5 5.8-7.3 4.6-4 8.7-8.4 12.8-12.8l-2-2c-11.1 10-22.3 20.5-33.4 31-11.8 11.2-23.3 22.8-34.8 34.3z"/><path class="st13" d="M79.7 53.5L59.8 73.3l19.9-19.8zm13.1-13.1L88 45.3l4.8-4.9zM43.1 89.7c-4.7 4.3-9.1 9.1-13.8 13.5 4.7-4.4 9.1-9.2 13.8-13.5zm12.3-11.9l-4.6 4.6 4.6-4.6z"/><path class="st4" d="M102.6 21.9l1.2-.9c.4-.3.8-.7 1.2-1s.8-.7 1.1-1l.1-.1c.5-.5 1-.9 1.4-1.4l.4-.5-.9-.8c-1.8 1.6-3.4 3.5-4.5 5.7zm5.5-4.9l-.4.5.4-.5zM6.8 36.6l-.3-.3c-.2.4-.4.9-.6 1.3l.9-1z"/><path class="st8" d="M29.5 10.3l-8.9 9.3c-3.9 4-7.8 8.1-11.7 12.1-.8 1.3-1.5 2.6-2.1 3.9 9-9.3 18.1-18.6 27.1-27.8-1.4.7-2.9 1.6-4.4 2.5z"/><path class="st3" d="M29.5 10.3c-1.6 1-3.1 2.1-4.5 3.2l-8.6 8.6c-.5.7-1.1 1.4-1.6 2.1s-1.1 1.3-1.7 2-1.2 1.3-1.9 2c-.8 1.1-1.5 2.3-2.2 3.5 3.9-4 7.8-8 11.7-12.1l8.8-9.3z"/><path class="st8" d="M13.1 26.2c.6-.7 1.2-1.3 1.7-2s1.1-1.4 1.6-2.1l-.3-.3c-1.8 2-3.4 4.1-4.9 6.3.6-.6 1.3-1.2 1.9-1.9z"/><path class="st8" d="M16.4 22.1c-.5.7-1.1 1.4-1.6 2.1.6-.7 1.1-1.4 1.6-2.1z"/><path class="st2" d="M25 13.5c-3.2 2.5-6.2 5.3-8.9 8.4l.3.3 8.6-8.7z"/><path class="st2" d="M25 13.5l-8.6 8.6 8.6-8.6z"/><path class="st9" d="M113.4 105.3c-3.3 3.6-6.6 7.1-10 10.7 4.6-3.5 8.7-7.5 12.2-12.1-.7.4-1.4.9-2.2 1.4z"/><path class="st9" d="M113.4 105.3c-3.3 3.6-6.6 7.1-10 10.7 3.4-3.6 6.8-7.2 10-10.7z"/><path class="st4" d="M116.7 94.4c.4.9 2.8-1.3 4.5-2.8 1-.9 2-1.9 3-2.8.7-1.6 1.2-3.2 1.7-4.8-1.9 2.1-3.9 4.1-5.8 6.2-1.2 1.4-3.7 3.4-3.4 4.2zm-1.1 9.4c1.4-1.9 2.8-3.8 4-5.8-2.2 2.3-4.2 4.8-6.2 7.3.8-.5 1.5-1 2.2-1.5z"/><path class="st4" d="M113.4 105.3c2-2.4 4-4.9 6.2-7.3-2.2 2.3-4.2 4.8-6.2 7.3z"/><path class="st12" d="M50.9 26.5c-.5-.1-1.2.3-2 .9l-.3.2-.6.4-.3.3-.7.5c-.4.3-.7.5-1.1.8l-3 3c-.4.9-1.1 1.6-2 2C27.6 48.2 14.3 61.9.9 75.4c.1.7.2 1.4.4 2.1 2.6-2.7 5.2-5.3 7.8-8l41.8-43z"/><path class="st3" d="M41.8 33.3c-.4.4-.7.8-1 1.3.9-.4 1.6-1.1 2-2-.2.1-.4.2-.6.4-.1 0-.2.1-.4.3z"/><path class="st4" d="M62.4 0c-.8 0-1.5.1-2.2.1C41.1 19.6 22.3 39.2 3 58.4L.1 61.3c0 .6 0 1.3-.1 1.9l12.6-12.8L62.4 0z"/><path class="st4" d="M62.4 0C45.8 16.8 29.2 33.7 12.6 50.5L62.4 0z"/><path class="st1" d="M46.9 2.4c-.7.2-1.3.4-2 .6-8.2 8.5-16.5 17-25 25.3l4.5-4.8-.3-.1L8.3 39.2c1.2-.3 3.3-3.2 4.2-2.5l-10 10.1c-.2.6-.4 1.2-.5 1.8 4.7-4.8 9.3-9.6 14-14.4C26.2 23.6 36.5 13 46.9 2.4z"/><path class="st5" d="M43.9 3.4c-.5.2-1 .3-1.5.5-4 4.1-7.8 8.4-11.8 12.5 4.5-4.4 8.9-8.7 13.3-13z"/><path class="st4" d="M.2 58.9c0 .4-.1.9-.1 1.3 4-4.1 8-8.2 11.9-12.4C8 51.5 4.1 55.2.2 58.9zm26.3-20.3l4-3.9 3.7-3.7C44.5 20.7 54.7 10.4 64.8 0h-1.1C48.2 15.8 32.6 31.5 17.3 47.5c3.1-2.9 6.2-5.9 9.2-8.9z"/><path class="st4" d="M34.3 31C44.5 20.7 54.7 10.4 64.8 0 54.7 10.4 44.5 20.7 34.3 31z"/><path class="st3" d="M15.1 28.5l2.6-2.6c.4-.4.7-.8 1.1-1.2 4.6-4.9 9.2-9.9 13.9-14.8l2-2.1.8-.8c-.5.2-1 .5-1.5.8-9 9.3-18 18.5-27 27.8-.1.3-.3.5-.4.8l.3.3 8.2-8.2z"/><path class="st3" d="M18.7 24.6c4.6-4.9 9.2-9.9 13.9-14.8-4.7 4.9-9.2 9.9-13.9 14.8zm-3.6 3.9l2.6-2.6-2.6 2.6z"/><path class="st2" d="M13.4 31.3l.3-.3.1-.1c.6-.7 1-1.5 1.2-2.3l-8.2 8.1-1 1c-.4.9-.8 1.8-1.2 2.8l8.4-8.6c.1-.3.3-.4.4-.6zm-6.6 5.3l-1 1 1-1zm10.9-10.7l.8-.3.3-1c-.4.4-.8.8-1.1 1.3zm.8-.3l.3-1-.3 1z"/><path class="st9" d="M33.2 117.1l2.9-2.8c-.1-.8.2-1.6.8-2.2l.2-.2.2-.2c.2-.2.3-.4.5-.6 1.5-1.4 2-1 2.5-.9.3-.3.6-.6 1-.9s.5-.6.8-.8c1.4-3.4 6.4-8.6 11.7-12.4l1.5-1 2.4-1.5 6-6c.4-.8 1-1.5 1.7-2.1.4-.4.9-.7 1.3-1l7.7-8.3 4-4.1c-.7-1.6 2.9-5.1 4.5-7.7l-.6-.6c-5.5 5.5-11 11.1-16.5 16.6l-5 5c-1.7 1.7-3.3 3.3-5 4.9-9.2 9.1-18.4 18.3-27.5 27.6.5.4 1.1.7 1.6 1.1.8-1.1 2-1.8 3.3-1.9z"/><path class="st9" d="M55.8 90.3c1.7-1.6 3.3-3.3 5-4.9-1.6 1.7-3.3 3.3-5 4.9zm26.4-26.5c-5.5 5.5-11 11.1-16.5 16.6 5.6-5.5 11.1-11 16.5-16.6z"/><path class="st4" d="M113.3 22.3l-.1-.1-.2.2.3-.1zm-1.4 5.2c-6.3 6-10.3 12.3-15.7 17.9-6.4 6.6-6.1 7.4-2.1 6.4l23.7-23.5c-1-1.4-2-2.8-3-4.1-.8 1.2-1.8 2.3-2.9 3.3zm1.1-5.2l.2-.2-.2.2z"/><path class="st7" d="M82.2 63.8l.6.6c2.2-2.1 4.4-4.3 6.6-6.5 9.7-9.6 19.2-19.4 28.9-29-.2-.3-.3-.5-.5-.8L94.1 51.7 82.2 63.8zm0 0L94 51.7 82.2 63.8zm0 0z"/><path class="st3" d="M29.9 108.7c.6-.2 1.7-1.4 1.5-1.7-.9-2 2.7-4.4 5.2-6.8.6-.6 1.3-1.2 1.8-1.9 2.3-2.4 4.4-5.1 6-8.1-7.5 7.5-15.3 14.9-22.4 22.8.5.4 1 .8 1.4 1.2l.1-.1c2.2-2.2 4.1-4.4 6.4-5.4zm46.2-49c2-1.4 3.5-3.4 4.5-5.6l-7.1 7.1c.6-.3 1.2-.6 1.7-.9l.9-.6zm22.5-26.6c-2.1 1.8-5.2 5-5.8 7.3l19.7-19c-.3-.4-.7-.8-1-1.1-4.2 4.4-8.3 8.7-12.9 12.8zM86.2 43.2c-.5 3.3-5.1 7.2-6.5 10.3l8.3-8.2c-1.9.8.4-2.3-1.8-2.1zm1.8 2.1l-8.3 8.2 8.3-8.2zm-62 60.3c-.5.4-1 .8-1.5 1.3s-1 .9-1.5 1.3-.9 1-1.4 1.4l-.6.8c-.3.3-.5.7-.8 1l.5.5 8.6-8.7c-1.1.7-2.2 1.5-3.3 2.4zm3.3-2.4l-8.6 8.7 8.6-8.7z"/><path class="st3" d="M23 108.2c.5-.5 1-.9 1.5-1.3-.5.4-1 .8-1.5 1.3zm25.1-24.7c-1.8 1.7-1.7 2.4-1.7 3.2l4.3-4.3c-.5-.1-1.2-.2-2.6 1.1zm2.7-1.1l-4.3 4.3 4.3-4.3zm9-9.1c-.4.1-.8.3-1.3.4-.4.2-.8.3-1.1.6-.2.1-.4.3-.6.4l-.3.3c-.2.2-.3.4-.5.6-.1.2-.2.4-.3.7-.2.5-.2.9-.2 1.4 1.5-1.5 2.9-2.9 4.3-4.4z"/><path class="st3" d="M59.8 73.3c-1.4 1.4-2.9 2.9-4.3 4.4l4.3-4.4z"/><path class="st8" d="M46.1 114.5c-1.8-.4-.2-2.4 2.6-5.1 4.1-3.9 5.7-8.3 12.2-13.2-3.1 1.2-4.6 1.5-6.5 2.5s-4.5 3.2-3.6 4.2c.6.7 1 .8-1.1 2.9-1.9 1.9-3.8 3.9-5.2 3.8-1.1-.1-2.1-.3-3.2-.5-.3.3-.7.6-1 .9l-1 1.1c-.2 1.2-.9 2.2-2 2.7-.4.2-.8.3-1.2.4v-.1l-2.9 2.8-2.4 2.4c2.4 1.4 4.8 2.7 7.4 3.9 1.8-1.8 3.8-3.5 5.8-5.1 2.1-1.2 3.1-3.4 2.1-3.6z"/><path class="st7" d="M47.7 45.5l-.6-.5-22.9 22.6-5.5 5.6C13.9 77.9 9 82.6 4.2 87.4c.2.4.3.8.5 1.2 14.4-14.3 28.7-28.7 43-43.1z"/><path class="st7" d="M47.7 45.5c-14.3 14.4-28.6 28.8-43.1 43 14.5-14.2 28.8-28.6 43.1-43zm-.6-.5l.6.4-.6-.4z"/><path class="st10" d="M18.7 73.1l5.5-5.6-.5.2c-.6.3-1.1.6-1.6 1l-.1.2a9.7 9.7 0 00-3.3 4.2z"/><path class="st13" d="M64.8 18.3l-1-.9c-8.9 9.5-18.1 18.8-27.3 28C24.9 56.9 13.2 68.4 2 80.3c.1.4.2.9.3 1.3 1.9-2 3.8-3.9 5.8-5.9C27 56.5 46.3 37.8 64.8 18.3z"/><path class="st13" d="M63.8 17.4c-8.9 9.5-18.1 18.8-27.3 28 9.2-9.3 18.4-18.5 27.3-28z"/><path class="st4" d="M63.8 17.4l1.1.9L81 2.1l-1.2-.3c-5.3 5.3-10.5 10.6-16 15.6z"/><path class="st4" d="M63.8 17.4c5.5-5 10.7-10.3 16-15.6-5.3 5.3-10.5 10.6-16 15.6z"/><path class="st11" d="M57.7 112.2l.8-.7c3.6-3.6 5.3-6.2 5.2-8 0-2.5 1.4-5.2 3.8-7.7l.1-.1c.3-.3.6-.6 1-.9.8-.7 1.5-1.3 2.4-1.9l.8-.8c.7-.8 1.3-1.6 1.9-2.5-.4-.6 0-1.5 1.1-2.8.2-.2.4-.4.6-.7l.7-.7c5.2-5.4 10.1-11 15.6-16.2l6-6c.2-.4.4-.9.6-1.3-.2-.4-.1-1.3-.6-1.3h-.2c-.1 0-.2.1-.3.1-.1.1-.3.2-.4.3-.6.5-1.1 1-1.6 1.6-5.7 6.4-10.9 9.6-16.5 13.2-3.3 2.1-5.2 3.4-4.3.4l-7.7 8.3c-.7 1.3-1.7 2.4-3 3.1l-6 6c-4.8 5.7-10.4 9.9-15.6 14.9l-.8.8c1 .3 2.1.5 3.2.5 1.4 0 3.4-2 5.2-3.8 2.1-2.1 1.7-2.2 1.1-2.9-.9-1 1.8-3.2 3.6-4.2s3.4-1.4 6.5-2.5c-6.5 4.9-8 9.2-12.2 13.2-2.8 2.7-4.5 4.7-2.6 5.1 1.1.2 0 2.4-1.9 3.8-2.1 1.6-4 3.3-5.8 5.1 1.7.8 3.4 1.4 5.2 2 3.8-3.8 7.8-7.3 11.7-10.9.8-.9 1.7-1.7 2.4-2.5zm8.9-27.7l7.7-8.3-7.7 8.3z"/><path class="st8" d="M68.4 106.3c1.4-2.4 2.8-4.6 4.3-3.6 1.7-1.3 3.4-2.7 4.9-4.3l.7-.7.8-.8c-.4-1.5.6-3.2 4.1-6.3 1.5-1.3 2.7-2.4 3.6-3.3 2.8-2.8 3.5-4.2 3.4-6.3 0-.4-.1-.8-.2-1.3l-10.3 9.5c-.6.8-1.4 1.4-2.3 1.7-.1 0-.3.1-.4.1l-5.3 4.6-2.7 3.3c-.3.6-.8 1.1-1.4 1.5l-.1.1-.2.1c-.1 0-.2 0-.2.1h-.4l-2.9 2.9c.1 1.8-1.6 4.4-5.2 8l-.8.7c-.8.7-1.6 1.5-2.5 2.3-3.9 3.6-7.9 7.1-11.7 10.9 1.1.4 2.3.8 3.4 1.1 2.6-2.6 5.3-5.2 8-7.8 4.2-4.5 8.9-8.3 13.4-12.5z"/><path class="st8" d="M58.5 111.5c3.6-3.6 5.3-6.2 5.2-8 .1 1.8-1.6 4.4-5.2 8z"/><path class="st11" d="M122.4 49.1l-.7.6c-1.3 1.1-2.7 2.2-4.2 3.1L97 72.6c-.5.9-1.2 1.7-2 2.3-.4.3-.9.5-1.3.6L90 79.6c.1.5.1.9.2 1.3.1 2.1-.6 3.6-3.4 6.3-.9.9-2.1 2-3.6 3.3-3.5 3.1-4.5 4.9-4.1 6.3 1.6-1 3.2-2.1 4.6-3.3 11.6-10.4 23.1-21 34.5-31.9.3-.5.7-1 1-1.5.2-.3.5-.6.7-.9.4-.4.7-.9 1.1-1.2.9-1 2.1-1.7 3.4-2.1l2.8-2.8.6-.4c-.5-2.5-1.1-4.9-1.8-7.4-1.1 1.4-2.3 2.6-3.6 3.8z"/><path class="st11" d="M90 79.6c.1.5.1.9.2 1.3 0-.4-.1-.8-.2-1.3z"/><path class="st4" d="M120.4 60c1.4-1.2 2.7-2.7 4.1-4-1.3.4-2.5 1.1-3.4 2.1-.4.4-.8.8-1.1 1.2-.2.3-.5.6-.7.9-.3.5-.7 1-1 1.5.6-.4 1.1-.8 1.7-1.2l.4-.5z"/><path class="st4" d="M124.5 56c-1.3.4-2.5 1.1-3.4 2.1.9-1 2.1-1.7 3.4-2.1z"/><path class="st11" d="M72.7 102.7c-1.5-1-3 1.2-4.3 3.6.3-.1.6-.3.8-.5 1.3-.9 2.4-2 3.5-3.1z"/><path class="st3" d="M89.4 57.9c-2.2 2.2-4.4 4.3-6.6 6.5-1.6 2.6-5.2 6.2-4.5 7.7 3-3 6.1-6 9-9 1.3-1.3 2.5-2.6 3.8-3.9l2.3-2.3c5.7-5.8 12-11 18.8-15.4l1.9-1.6 2.3-2c-.2-.6-1.2-.8-.5-2 .1-.1.1-.2.2-.3.1-.1.1-.2.2-.3.3-.4.6-.8 1-1.2 1.5-1.6 2.3-2 2.9-2-.6-1-1.2-2-1.9-3-9.7 9.5-19.2 19.2-28.9 28.8z"/><path class="st4" d="M78.6 75.7c5.7-3.6 10.8-6.8 16.5-13.2.5-.6 1-1.1 1.6-1.6.1-.1.2-.2.4-.3.1-.1.2-.1.3-.1h.2c.5 0 .4.9.6 1.3l5.9-5.7.4-.4 2.7-2.8 4.2-4.3c-4.1 1-.1-4.2.9-7.1-6.8 4.4-13.1 9.6-18.7 15.4-.8.7-1.5 1.5-2.3 2.3-1.3 1.3-2.5 2.6-3.8 3.9-2.9 3.1-6 6-9 9l-4 4.1c-1.1 2.9.8 1.6 4.1-.5zm-4.2.5l4-4.1-4 4.1z"/><path class="st4" d="M97.6 60.5c.5 0 .4.9.6 1.3-.2-.4-.1-1.2-.6-1.3zm14.6-19c-6.8 4.4-13.1 9.6-18.8 15.4 5.8-5.8 12.1-11 18.8-15.4zM53.7 96c-5.2 3.8-10.3 9-11.7 12.4 5.2-5 10.9-9.2 15.6-14.9L55.2 95l-1.5 1zM30 119l.9.6 2.3-2.4c-1.2 0-2.4.7-3.2 1.8zm7.8-7.9c-.2.2-.4.4-.5.6l-.2.2-.2.2c-.6.6-.9 1.4-.8 2.2v.1l3.1-3.1 1-1.1c-.5-.2-.9-.5-2.4.9zm25.8-23.6c1.3-.7 2.3-1.7 3-3.1-.5.3-.9.6-1.3 1-.7.6-1.2 1.3-1.7 2.1z"/><path class="st11" d="M39.3 111.3l-3.1 3.1c.4-.1.8-.2 1.2-.4 1-.5 1.7-1.5 1.9-2.7z"/><path class="st10" d="M107.2 52.9l-2.7 2.7c-.2.8-.5 1.6-.9 2.3-.1.1-.1.2-.2.3s-.3.4-.5.6l-.2.2c-.4.4-.7.8-1.1 1.1-1.2 1.1-2.6 2-4 2.8l-6 6c0 1.2-1.2 2.9-2.9 4.7-5.2 5.2-9.6 10.8-15 15.8-.5.9-1.1 1.7-1.9 2.5-.2.3-.5.6-.8.8-.3.9-.1 1.9.6 2.6l5.3-4.6c.5-.6 1.2-1.1 1.9-1.4.1-.1.2-.1.3-.2.2-.1.4-.2.6-.2L90 79.6l3.7-4.1c.9-1.2 2.1-2.1 3.3-2.9l20.4-19.8 8.4-8.4c-.7-2.2-1.6-4.3-2.5-6.4l-2.3 2.3c-4.2 5.2-8.7 9.7-13.8 12.6zM79.6 89.1L90 79.6l-10.4 9.5zm37.8-36.3L97 72.6l20.4-19.8zM93.6 75.5L90 79.6l3.6-4.1zm-3.7 4.1zm14.6-24l2.7-2.7-2.7 2.7z"/><path class="st3" d="M76 85.3l-.7.7c-.2.2-.4.5-.6.7-1 1.3-1.5 2.2-1.1 2.8 5.4-5 9.8-10.6 15-15.8 1.8-1.8 2.9-3.5 2.9-4.7-5.4 5.3-10.4 10.9-15.5 16.3zm-8.4 10.3l-.1.1c-2.5 2.5-3.8 5.2-3.8 7.7l2.9-2.9 2.4-1.8 2.7-3.3c-.7-.7-.9-1.7-.6-2.6l-2.4 1.8c-.4.4-.8.7-1.1 1z"/><path class="st3" d="M63.7 103.5c0-2.5 1.4-5.2 3.8-7.7-2.5 2.5-3.9 5.2-3.8 7.7zm3.9-7.9c.3-.3.6-.6 1-.9-.3.3-.7.6-1 .9zm36.5-39.5l-5.9 5.7c-.2.4-.4.9-.6 1.3 1.4-.8 2.8-1.7 4-2.8.4-.4.8-.7 1.1-1.1l.2-.2c.2-.2.3-.4.5-.6s.1-.2.2-.3c.5-.7.8-1.5.9-2.3l-.4.3z"/><path class="st3" d="M98.2 61.8c-.2.4-.4.9-.6 1.3.2-.4.4-.9.6-1.3zm6.3-6.2l-.4.4.4-.4zM79.6 89.1c-.2 0-.4.1-.6.2-.1 0-.2.1-.3.2-.7.4-1.3.9-1.9 1.4.1 0 .3 0 .4-.1 1-.3 1.8-.9 2.4-1.7zm-2.3 1.8z"/><path class="st3" d="M79.6 89.1c-.2 0-.4.1-.6.2.2-.1.4-.1.6-.2zm0 0z"/><path class="st11" d="M68.9 98.8l-2.4 1.8h.5c.1 0 .2 0 .2-.1l.2-.1.1-.1c.6-.3 1.1-.9 1.4-1.5z"/><path class="st4" d="M121.7 49.8l.7-.6c1.3-1.2 2.6-2.4 3.7-3.8l-.3-1-8.4 8.4c1.5-.9 2.9-1.9 4.3-3z"/><path class="st4" d="M122.4 49.1c1.3-1.2 2.6-2.4 3.7-3.8-1.2 1.4-2.4 2.6-3.7 3.8z"/><path class="st3" d="M97 72.6c-1.3.8-2.4 1.8-3.3 2.9.5-.1.9-.3 1.3-.6.8-.6 1.5-1.4 2-2.3zm-2 2.3z"/><path class="st13" d="M114.1 39.9l-1.9 1.6c-.9 2.9-4.9 8.1-.9 7.1.7-.8 1.4-1.6 2-2.4 2.1-2.3 4.3-4.6 6.6-6.9l2.7-2.7c-.5-1.1-1.1-2.3-1.7-3.4l-4.6 4.5-2.2 2.2zm-1.9 1.6l1.9-1.6-1.9 1.6z"/><path class="st4" d="M117.3 34c-.4.4-.7.8-1 1.2-.1.1-.2.2-.2.3-.1.1-.1.2-.2.3-.7 1.2.3 1.4.6 2l4.5-4.5c-.2-.5-.5-.9-.8-1.4-.5.1-1.4.5-2.9 2.1z"/><path class="st3" d="M121 40.3l-1-.9c-2.3 2.2-4.5 4.5-6.6 6.9-.7.8-1.4 1.6-2 2.4l-4.2 4.3c5.1-3 9.6-7.5 13.8-12.7zm-13.8 12.6l4.2-4.3-4.2 4.3zM120 39.4z"/><path class="st4" d="M121 40.3l2.3-2.3-.6-1.2-2.7 2.6 1 .9zm-1-.9l2.7-2.7-2.7 2.7z"/><path d="M129 62.6c-.1-2-.2-4.1-.5-6-.1-1-.3-2-.4-3 0-.3-.1-.5-.1-.8-.5-2.5-1.1-4.9-1.8-7.4l-.3-1c-.7-2.2-1.6-4.4-2.5-6.5l-.6-1.2c-.5-1.1-1.1-2.3-1.7-3.4-.2-.5-.5-.9-.8-1.4-.6-1-1.2-2-1.9-3-.2-.3-.3-.5-.5-.8-1-1.4-2-2.8-3-4.1l-1.5-1.8-.1-.1c-.2-.3-.4-.5-.7-.8-.3-.4-.7-.8-1-1.1l-2-2c-.5-.5-.9-.9-1.4-1.3l-.9-.8c-.8-.7-1.7-1.4-2.6-2.1-.4-.4-.9-.7-1.4-1l-1.4-1-.8-.6-1.8-1.2-.2-.2-1.5-.9-.8-.5-.5-.3-.3-.2-.6-.3-.6-.3-.5-.2c-.5-.3-.9-.5-1.3-.7l-.7-.4c-.6-.3-1.3-.6-1.9-.9l-.6-.3-1.2-.5c-.3-.1-.7-.3-1-.4-.8-.3-1.7-.6-2.6-.9l-.9-.2c-.7-.2-1.3-.4-2-.6-.3-.1-.7-.2-1.1-.3l-1.2-.3c-.3-.1-.7-.2-1-.2l-1.5-.3L76 1 74.2.7l-1-.1c-.9-.1-1.7-.2-2.6-.3-.6-.1-1.3-.1-1.9-.1L67.5.1 66.1 0h-3.8c-.8 0-1.5.1-2.2.1-1.7.2-3.5.3-5.1.6l-3.3.6c-.6.1-1.2.2-1.8.4l-1.4.3c-.6.1-1.1.3-1.7.5s-1.3.4-2 .6l-1 .3c-.5.2-1 .3-1.5.5-2.4.9-4.7 1.9-7 3-.5.2-1 .5-1.5.8-1.5.8-2.9 1.7-4.4 2.6-1.6 1-3.1 2.1-4.5 3.2-3.2 2.5-6.2 5.3-8.9 8.4-1.8 2-3.4 4.1-4.9 6.3-.8 1.1-1.5 2.3-2.2 3.5-.7 1.2-1.5 2.6-2.1 3.9-.1.3-.3.5-.4.8-.2.4-.4.9-.6 1.3-.4.9-.8 1.8-1.2 2.8-.8 2.1-1.6 4.2-2.2 6.4-.1.5-.3 1.1-.4 1.7s-.3 1.2-.4 1.8L1.2 52 1 53c-.1.4-.1.8-.2 1.2s-.1.5-.1.8c-.1.6-.2 1.3-.2 1.9s-.1 1.3-.2 2c0 .4-.1.9-.1 1.3s0 .8-.1 1.1c0 .6 0 1.3-.1 1.9v1.2c0 .8 0 1.6.1 2.4 0 .5 0 1 .1 1.6 0 .4 0 .7.1 1.1.1.7.1 1.3.2 2 0 .4.1.9.2 1.3s.1 1 .2 1.5.1.7.2 1.1c.1.7.2 1.4.4 2.1.1.3.1.5.2.8.1.5.2.9.3 1.4 0 .2.1.4.2.7.1.4.2.9.3 1.3s.2.9.4 1.3c.2.7.4 1.4.7 2.1.1.4.2.7.4 1.1l.4 1.2c.2.4.3.8.5 1.2-.1.4.1.8.3 1.1.1.2.2.4.2.6.5 1.2 1.1 2.4 1.7 3.6.5.9.9 1.8 1.4 2.6 0 .1.1.1.1.2.2.4.5.8.7 1.2l.5.8 1 1.6c.1.2.3.4.4.6.5.7 1 1.4 1.5 2l.5.6.8 1c.6.8 1.3 1.6 1.9 2.3l.2.2c.3.3.6.7.9 1 1.1 1.1 2.1 2.2 3.2 3.3l.5.5L22 113c.5.4 1 .8 1.4 1.2 1.6 1.3 3.2 2.6 4.9 3.7.5.4 1.1.7 1.6 1.1l.9.6c2.4 1.4 4.8 2.7 7.4 3.9 1.7.8 3.4 1.4 5.2 2 1.1.4 2.3.8 3.4 1.1 1.3.4 2.6.7 3.9 1 .8.2 1.6.3 2.3.5 3.7.7 7.5 1 11.3 1 1.4 0 2.8-.1 4.2-.1 1.8-.1 3.7-.3 5.5-.6 1.4-.2 2.7-.5 4.1-.8 9.1-2 17.7-5.9 25.1-11.6 4.6-3.5 8.7-7.5 12.2-12.1 1.4-1.9 2.8-3.8 4-5.8 1.8-2.9 3.3-6 4.6-9.2.7-1.6 1.2-3.2 1.7-4.8 1.4-4.3 2.3-8.8 2.7-13.3.2-2 .3-4.1.3-6.2.3-.8.3-1.4.3-2z" opacity=".7" fill="#915b25"/></g></g><path d="M18.4 68.5c.4 2.6 1.7 8.5 1.7 12.2-.3.3-1 .7-1.6.4-.5-.7-2.3-10.2-2.5-12.2-.8 0-2.5.4-3.5.5-1 .2-1.6.1-1.9-1 .3-.5 1.6-.8 2.6-1 1.7-.4 7.9-1.6 10.3-1.4.5.3.4 1 .2 1.5-1.6.3-3.6.7-5.3 1zm18.3 9.7c-3.9.6-7.7-2-8.1-6.2v-.4c-.4-3.9 1.9-7.6 5.9-8.2 3.9-.6 7.4 2.2 8 6.3.6 4.3-1.9 7.9-5.8 8.5zm-2.1-13.1c-3 .5-4.5 3.4-4 6.4.5 2.8 2.8 5.6 5.8 5.1 2.7-.4 4.4-3.4 3.8-6.7-.4-2.6-2.4-5.3-5.6-4.8zm20 4.2c-1.2 1.3-3 2.1-5.3 2.4.1 1 .7 3.4.7 4.5-.7.5-1.7.1-2.1-.3-.5-3.6-2.3-10.6-1.5-13.8 1.9-.1 3.8-1.5 5.6-1.2 1.5.3 3.2 1.8 3.6 3.7.6 1.9.2 3.5-1 4.7zm-2.5-6.6c-1.2-.3-2.7.2-4 1.1.3 1.8.5 4.5 1 6.3 2.5-.1 4.5-1.5 5-3.6-.1-2.2-.9-3.5-2-3.8zm24.3 7.7c-3.7-1.9-6.9-4.9-9.8-7.6-1.1 1.6-1.9 3.5-2.9 5.2-.3.5-.5 1.3-1.3 1.4-.4-.1-1-1.3-1.1-1.9 2.1-1.7 3.2-4.1 4.4-6.3.3-.2 1-.3 1.3-.2 2.6 3.2 6.1 5.4 9.5 7.4.8.5 1.4.6.9 1.6l-1 .4zm20.3-10.5c-.1.5-.5 1.3-1.1 1.3-.4 0-.6-.5-.6-.5-1.8 0-6 .5-8.3 1.8l-.7-.1c-.5 1.5-1.3 4-2.5 5.5-.6.9-1.4 1.5-2.3 1.9 1.4-2.7 2.6-6.6 3.5-11.6-.5.2-1 .3-1.4.4-.7.1-1.2.1-1.6-.6.1-.4.5-.7 1.2-.9 1.1-.4 2.5-.8 3.7-1.1.8-1 1.4-2.3 2.2-3.5.9-.1 1.9.2 2.3.7-.5 1.1-2.7 2.5-2.7 2.5 1.9-.4 5.6-1 7-.8.6.1 1 .3 1.4.7.1 1.3 0 3.1-.1 4.3zm-10.6-2l.6.5c.1.6-.2 1.6-.3 2.3 2.8-.8 5.5-1.5 8.4-1.5.1-.6 0-1.5 0-2.8-2.2-.2-7.3 1-8.7 1.5zm13.8 11.8c-.2.3-.5 1.1-.8 1.3-2.1-.4-4.6-2.1-5.9-4.5-.5 2.3-1.7 4.1-3.7 5.4-.6.4-2.5 1.1-2.5 1.1 2.6-2.3 4.1-4.8 4.3-7.5-1.1.3-2.5.7-3.3 1-.8.3-1.3-.1-1.6-.8.3-.4.9-.6 1.7-.8.8-.3 2.2-.6 3.2-.8v-2.2c.4-.6 1.2-.4 1.7 0 .2.5.3 1.1.3 1.8.7-.1 2-.3 3.2-.4.7 0 1.3 0 1.6.2.6.5.3 1.1.1 1.3-1.6-.2-3.5.1-4.9.3l-.1.5c1.6 2.1 4.4 3 7.4 3.5.2.3-.3.5-.7.6zm15.7-3.5c-1.4 1-4.2 1.6-5.8.8-.9-.5-1.3-1.6-.6-2.6 1.2-1.7 4.5-1.4 6.4-.5.4-.4.6-1.4.4-2.1-.2-1.4-1.3-2.9-2.6-2.9-1.9-.1-4 .9-5.4 3-.3.5-.8 1.5-1 1.7-.4.4-1.2-.1-1.2-.5 0-.8.7-2.2 1-2.7 1.2-2.6 2.5-5.1 3.6-7.7-1.3.4-2.7.8-3.9 1.2-.5-.3-.7-1.1-.8-1.5 1.6-.2 4.5-.8 5.8-1.2.4.2.8.8 1 1.2-1.2 2.1-2.6 4.5-3.5 6.7 1.8-1.1 4.6-1.9 6.5-.8.8.6 1.8 1.7 2 3.1.5 2.1-.3 3.7-1.9 4.8zm-4.8-1.6c-.3.6-.2 1.1.1 1.3.4.3 1.1.3 1.7.3.9-.1 1.9-.7 2.2-1.2-.9-.7-2.8-.8-4-.4z" fill="#fff"/></svg>