<svg xmlns="http://www.w3.org/2000/svg" width="94.368" height="21.774"><path d="M10.584 6.498a23.1 23.1 0 00-4.056-.1 17.515 17.515 0 001.008-2.54 9.3 9.3 0 003.072-.336c-.12-.792-.72-1.176-1.824-1.176-1.176 0-2.544.288-3.72.168.408-.576.912-1.032.864-1.7-.048-.72-1.2-.96-1.776-.72-.936 2.064-1.632 3.6-2.112 4.608-.168.24-.72.888-.72 1.3a8.068 8.068 0 003.288-2.744 1.807 1.807 0 00.912.528 26.123 26.123 0 01-1.056 2.712 15.591 15.591 0 00-4.272.792c-.36.6.264 1.224.888 1.2a17.279 17.279 0 012.832-.648C2.232 10.678.936 12.762 0 14.106c.192-.1.456-.24.744-.408a9.237 9.237 0 002.808-2.136c.024 2.664.12 5.448.312 8.376a2.6 2.6 0 001.056.312c.384 0 .6-.36.576-.816a17.7 17.7 0 015.16.024 1.151 1.151 0 00.216-.624c0-.528-.888-.816-1.8-.84a9.449 9.449 0 00.1-1.848 13.555 13.555 0 011.392.072.938.938 0 00-.144-1.08 8.187 8.187 0 00-1.224-.072l-.024-1.3c.456.024 1.152.12 1.152.12a.7.7 0 000-1.176s-.768-.1-1.152-.1a7.58 7.58 0 00-.216-1.512c.768.024 1.44.048 1.752.048a1.077 1.077 0 00.212-.568c0-.24-.144-.408-.456-.528a8.781 8.781 0 00-1.8-.12A3.064 3.064 0 009.72 8.394a1.457 1.457 0 00-1.68-.192 2.707 2.707 0 01-.384 1.728 12.363 12.363 0 00-2.424.312 1.4 1.4 0 00-.624-.312 10.049 10.049 0 001.416-2.352c1.68-.144 3.312.144 4.968.048a.727.727 0 00-.408-1.128zm9.48-4.248c-1.632-1.176-4.224-.96-6.12-.648-.144.024-.384.36-.384.36a1.672 1.672 0 00-1.08-.024 70.162 70.162 0 00-.072 10.2 1.67 1.67 0 001.008.6 1.278 1.278 0 00.816-.816 19.377 19.377 0 013.912-.044 1.064 1.064 0 00.816.792 1.538 1.538 0 00.984-1.108 72.006 72.006 0 00.12-9.312zm-1.944 8.544a14.816 14.816 0 00-3.888-.1 59.806 59.806 0 01.024-7.752 10.427 10.427 0 013.84-.264 53.274 53.274 0 01.024 8.116zm-1.2-5.112c.072-.312.072-.576-.264-.744a2.7 2.7 0 00-1.512 0 .95.95 0 00.1 1.152l.264-.12c.308 0 1.196.048 1.412-.292zm-.048 3.024a1.24 1.24 0 00-.144-1.152c-.456-.048-1.32-.192-1.752.24a1.642 1.642 0 00.144.936c.6.148 1.124-.144 1.752-.024zm-9.36 6.456c-.264.048-1.008.072-1.416.168a.64.64 0 00.336.888 2.871 2.871 0 001.1.024c.024.576-.048 1.7-.048 1.7a4.714 4.714 0 00-2.112.216c.004-1.68-.188-3.38-.188-5.06a18.835 18.835 0 01.12-2.088 3.666 3.666 0 002.04.168c0 .288.12 1.08.1 1.488a2.273 2.273 0 00-.864.048.556.556 0 00-.436.624.764.764 0 00.552.552 7.193 7.193 0 00.768-.1c.024.436.072 1.036.048 1.372zm13.776 5.64a11.09 11.09 0 00-1.344-4.032 10.941 10.941 0 01-.168 2.424 3.42 3.42 0 01-1.416-.048 22.856 22.856 0 01-.072-5.256 7.461 7.461 0 000-1.08c-.6-.216-1.2-.408-1.632.024-.212 1.08-.312 6.336.312 7.392.48.816 1.656.912 2.5.96a2.909 2.909 0 001.82-.384zm-7.032-7.776a10.486 10.486 0 00-.48 1.464 18.8 18.8 0 01-4.368 6.864 11.107 11.107 0 003.36-2.184 10.339 10.339 0 003.024-5.52 1.089 1.089 0 00-1.536-.624zm29.28-3.672a1.025 1.025 0 00-.72-1.176 45.645 45.645 0 00-7.3-.384c-.048-2.256.072-4.536.168-6.792a1.965 1.965 0 00-2.3-.888c-.312.528-.024 1.248-.024 1.824.048 2.568.072 4.512.048 5.952-2.256.144-4.68.36-6.72.648-.384.048-1.176.264-1.176.744 0 .288.24.576.744.864.912 0 2.28-.456 4.8-.624a21.206 21.206 0 01-5.472 11.472 8.112 8.112 0 003.144-1.7 18.194 18.194 0 004.632-8.52 1.959 1.959 0 00-.48-1.416 56.46 56.46 0 018.472.12 4.231 4.231 0 002.184-.124zM41.424 2.73a2.131 2.131 0 00-2.088-.648 9.344 9.344 0 01-.888 2.112c-.336.624-.984 1.92-.984 1.92 1.296-.48 3.58-1.392 3.96-3.384zm-10.1 2.208c-.12-1.08-2.256-2.976-3.36-2.544a5.919 5.919 0 01.816 2.04c.168.672.528 1.824 1.416 1.824a1.219 1.219 0 001.124-1.32zm12.7 12.72a9.58 9.58 0 00-.296-2.78s-.672 3.312-1.368 3.624c-1.08.48-3.216.048-4.368-.1a45.3 45.3 0 01-.024-7.44 2.146 2.146 0 00-1.608-.84 1.27 1.27 0 00-.72.216c0 1.488-.048 3.1-.048 4.656 0 2.64.5 4.392 1.44 5.256a12.66 12.66 0 006.888.192c.912-.576.524-1.992.096-2.784zm25.36-7.848c-.048-.624-.792-.888-.792-.888a41.1 41.1 0 00-4.8-.264 14.273 14.273 0 00.1-1.632 10.682 10.682 0 011.7.168 1.022 1.022 0 00.144-1.2 3.886 3.886 0 00-1.824-.312l.048-1.656a44.057 44.057 0 004.416.24c.048-.624-.12-1.056-.648-1.176a18.6 18.6 0 00-3.768-.384s-.024-.936-.024-1.368A1.353 1.353 0 0062.52.162c-.336 0-.6.12-.624.744-.048.624 0 1.9 0 1.9a28.341 28.341 0 00-5.568.768 1.4 1.4 0 001.224 1.248 27.887 27.887 0 014.344-.7v1.656a7.48 7.48 0 00-2.9.7c-.024.648.288 1.056.936.96A17.947 17.947 0 0161.9 7.15c0 .768.024 1.584.024 1.584a26.453 26.453 0 00-6.048.912.756.756 0 00.48.888 1.633 1.633 0 001.2.192 33.966 33.966 0 0111.568-.312.842.842 0 00.26-.604zM53.616 1.338a1.714 1.714 0 00-1.8-.528c-.552 1.752-.72 14.568-.312 17.592.1.744.312 1.44.84 1.44.624 0 1.032-.744 1.008-1.3a101.034 101.034 0 01.264-17.204zm-4.08 9.768a4.749 4.749 0 00.96-3.024 1.991 1.991 0 00-.672-1.604 6.988 6.988 0 01-.888 1.68 4.786 4.786 0 00-.768 1.416 1.666 1.666 0 00.624 1.604 1.559 1.559 0 00.744-.072zm4.9-1.3c1.1-.168 1.2-1.176.936-2.04a2.2 2.2 0 00-1.848-.72s.12 1.032.168 1.56c.116.652.352 1.06.74 1.204zm12.284 4.156c-.1-1.176-.336-1.872-.96-2.16-1.416-.7-4.3-.336-5.568-.024l-.216.7a1.44 1.44 0 00-1.08-.12 26.887 26.887 0 00-.12 6.936c.144 1.08.6 2.04 1.656 1.752.432-.432.216-1.152.168-1.68a32.494 32.494 0 01.024-6.488 9.435 9.435 0 014.1 0 30.44 30.44 0 01-.1 6.936c-.864.072-1.824.072-1.824.072s1.224.864 1.344 1.776a2.152 2.152 0 002.216-1.508 31.667 31.667 0 00.36-6.192zm-2.76 1.632a1.057 1.057 0 00-.072-.864 4.161 4.161 0 00-2.3-.072c-.1.648 0 1.032.312 1.2a14.262 14.262 0 002.06-.264zm-.408 1.512c-.576-.192-1.872-.216-1.968.408a.787.787 0 00.384.744 4 4 0 011.512 0c.528-.216.408-.816.072-1.152zm19.68-7.628c.168-.48.264-1.032-.336-1.32a13.878 13.878 0 00-3.5-.432l.072-2.352a20.41 20.41 0 012.5.168 1.227 1.227 0 00.456-.744c-.312-.7-2.088-.84-2.928-.816.048-.888.192-1.7.192-2.208 0-1.032-1.68-1.344-2.208-.912a31.164 31.164 0 00-.1 3.216c-.576.024-1.44.144-2.16.216a1.532 1.532 0 00-1.376.784 1.442 1.442 0 001.248.72 15.167 15.167 0 002.3-.336c0 .72.048 2.328.048 2.328a23.618 23.618 0 00-5.088.792 1.572 1.572 0 00-.192 1.248 1.158 1.158 0 00.792.288 25.288 25.288 0 012.5-.672l.168 1.464c.048.456.12 1.176.768 1.176a1.344 1.344 0 001.152-1.1 5.591 5.591 0 01-1.008-1.728 21.072 21.072 0 016.7.22zm11.136 10.124a16.3 16.3 0 01-3.724-3.168 21.113 21.113 0 002.112-5.28c-1.392-1.344-5.3-1.128-7.1-.768 0-3.864.048-6.264.024-8.16a2.156 2.156 0 00.984.288 15 15 0 013.1-.168 19.475 19.475 0 01-.1 4.752l-2.5.12a3.021 3.021 0 012.38 1.872 2.317 2.317 0 001.9-1.152c.576-1.608 1.008-5.232-.072-6.816-2.04-.36-4.512-.48-6.072.312a1.73 1.73 0 00-1.632-.168c.048 3.72.048 13.3.024 19.344a1.312 1.312 0 001.872.312c.1-1.992.072-6.384.072-9.24a25.853 25.853 0 014.776-.072 16.4 16.4 0 01-1.176 3.576c-.82-.816-2.692-2.784-2.692-2.784a10.208 10.208 0 002.016 4.32 20.987 20.987 0 01-2.376 3.792 8.749 8.749 0 003.46-2.52 12.727 12.727 0 003.164 3.144c.336-.72.72-1.416 1.56-1.536zm-12.124-5.88c.312-.384.072-.936-.168-1.3-1.488-.072-2.52-.1-2.52-.1s2.4-1.224 2.28-2.064c-.048-.5-.84-.792-1.752-.72a25.731 25.731 0 01-1.176 2.784c-1.392.048-2.856.192-4.248.36-.312.12-.7.336-.7.72a.97.97 0 00.864.816 27.207 27.207 0 012.736-.48l-.072 2.256a20.436 20.436 0 00-3.312.624 1.183 1.183 0 001.368 1.2s1.224-.288 1.992-.384c0 1.176.072 2.184.192 3.888a1.1 1.1 0 001.8-.048c-.048-1.44-.1-3-.072-4.008.96.024 1.68.192 2.256-.144.216-.192.12-.648.12-.648a3.54 3.54 0 00-2.4-.672 14.324 14.324 0 01.1-1.656 1.376 1.376 0 00-.528-.552c1.3-.088 2.38.2 3.24.128z" fill="#518c03"/></svg>