<svg xmlns="http://www.w3.org/2000/svg" width="64.005" height="46"><g data-name="グループ 42"><path data-name="パス 97" d="M8.964 46s1.669-10.364 1.252-13.7-.417-9.389-.417-9.389h4.8s-.418 9.6-.418 10.85.626 7.094.626 7.094l.417 5.008z" fill="#a56d35"/><path data-name="パス 98" d="M3.539 35.224h17.526s-1.252-3.338-2.5-4.381L17.313 29.8s-1.7-4.615-4.59-4.381-8.975 7.301-9.184 9.805z" fill="#526e00"/><path data-name="パス 99" d="M0 28.729h24.6s-1.758-4.687-3.515-6.151l-1.757-1.465s-2.386-6.479-6.444-6.151S.293 25.214 0 28.729z" fill="#739703"/><path data-name="パス 100" d="M0 20.571h24.6s-1.758-4.687-3.515-6.151l-1.757-1.465s-2.386-6.479-6.444-6.151S.293 17.056 0 20.571z" fill="#628200"/></g><g data-name="グループ 43"><path data-name="パス 101" d="M48.363 46s1.669-10.364 1.251-13.7-.417-9.389-.417-9.389h4.8s-.417 9.6-.417 10.85.626 7.094.626 7.094l.417 5.008z" fill="#a56d35"/><path data-name="パス 102" d="M42.939 35.224h17.527s-1.251-3.338-2.5-4.381L56.714 29.8s-1.7-4.615-4.591-4.381-8.975 7.301-9.184 9.805z" fill="#526e00"/><path data-name="パス 103" d="M39.4 28.729H64s-1.758-4.687-3.515-6.151l-1.758-1.465s-2.386-6.479-6.444-6.151S39.693 25.214 39.4 28.729z" fill="#739703"/><path data-name="パス 104" d="M39.4 20.571H64s-1.758-4.687-3.515-6.151l-1.758-1.465s-2.386-6.479-6.444-6.151S39.693 17.056 39.4 20.571z" fill="#628200"/></g><g data-name="グループ 44"><path data-name="パス 105" d="M28.89 46s1.669-12.133 1.252-16.041-.417-10.992-.417-10.992h4.8s-.417 11.236-.417 12.7.626 8.3.626 8.3l.417 5.862z" fill="#a56d35"/><path data-name="パス 106" d="M23.465 33.348h17.526s-1.252-3.908-2.5-5.129l-1.252-1.221s-1.7-5.4-4.59-5.13-8.975 8.549-9.184 11.48z" fill="#739703"/><path data-name="パス 107" d="M19.926 25.714h24.605s-1.758-5.487-3.515-7.2L39.259 16.8s-2.386-7.585-6.444-7.2-12.596 11.999-12.889 16.114z" fill="#81aa06"/><path data-name="パス 108" d="M19.926 16.131h24.605s-1.758-5.487-3.515-7.2l-1.757-1.714s-2.386-7.585-6.444-7.2-12.596 11.999-12.889 16.114z" fill="#8cb808"/></g></svg>