<svg xmlns="http://www.w3.org/2000/svg" width="386.543" height="105.397"><defs><clipPath id="a"><path data-name="パス 131" d="M3228.534 1989.592s-17.606 3.025-19-4.45-9.284-10.963-10.212-15.946-1.392-17.441-.928-21.428 0-13.953 2.785-17.441 20.888-21.428 33.886-20.431 18.1 3.986 23.209 6.976 5.107 17.441 6.963 22.425 5.106 6.976 5.106 13.454-4.178 18.936-6.5 22.424-12.557 26.067-35.309 14.417z" transform="translate(-3198.213 -1909.856)" fill="none"/></clipPath></defs><path data-name="パス 109" d="M177.736 61.449s-4.744 25.841 19.133 25.841c34.839 0 20.307-25.359 20.307-25.359s17.589-7.735 15.925-29.43c-1.652-21.54-16.654-16.494-16.654-16.494S213.079-5.339 190.984 1.27c-16.112 4.819-11.789 23.72-11.789 23.72s-13.7-7.512-15.022 13.7 13.563 22.759 13.563 22.759z" fill="#bdcb00"/><path data-name="パス 110" d="M181.952 60.705s-3.787 20.63 15.275 20.63c27.814 0 16.213-20.246 16.213-20.246s14.041-6.175 12.713-23.5c-1.319-17.2-13.3-13.168-13.3-13.168s-2.689-17.042-20.329-11.765c-12.863 3.848-9.412 18.937-9.412 18.937s-10.935-6-11.993 10.935 10.833 18.177 10.833 18.177z" fill="#89b60b"/><path data-name="パス 111" d="M186.427 59.812s-2.869 15.628 11.571 15.628c21.069 0 12.281-15.336 12.281-15.336a17.76 17.76 0 009.631-17.8c-1-13.027-10.072-9.975-10.072-9.975s-2.036-12.909-15.4-8.912c-9.743 2.915-7.129 14.345-7.129 14.345s-8.284-4.543-9.085 8.283 8.203 13.767 8.203 13.767z" fill="#c5ce00"/><path data-name="パス 112" d="M98.306 83.673s-17.606 3.025-19-4.45-9.284-10.963-10.212-15.946-1.392-17.441-.928-21.428 0-13.953 2.785-17.441S91.839 2.98 104.837 3.977s18.1 3.986 23.209 6.976 5.107 17.441 6.963 22.425 5.106 6.976 5.106 13.454-4.178 18.936-6.5 22.424-12.557 26.067-35.309 14.417z" fill="#699d6e"/><path data-name="パス 113" d="M19.574 85.803S2.535 76.139 3.043 64.186s-5.726-20.534-1.656-30.2S8.639 8.741 15.505 9.504s19.571 10.024 21.86 26.046-4.464 30.408-5.735 37.021-8.887 13.056-12.056 13.232z" fill="#739703"/><path data-name="パス 114" d="M12.02 99.287s.763-14.242 2.289-23.4 2.034-36.368 3.052-32.044 2.543 19.328 3.306 31.281-1.272 22.889-1.017 26.2-6.902 6.828-7.63-2.037z" fill="#32190e"/><path data-name="パス 115" d="M189.275 105.397s6.727-16.627 6.209-25.942 1.035-18.042-.517-21.147-14.72-16.2-12.419-15.007c5.434 2.823 13.318 12.767 14.489 8.8 3.009-10.2-3.622-21.733-.518-19.146s6.209 22.251 6.209 22.251a8.08 8.08 0 003.623-2.587c1.308-2.105 1.2-5.116 2.07-5.692 1.552-1.035 1.035 6.727 0 9.832s-3.622 7.762-3.622 11.9 1.035 15.524 1.035 19.664 1.035 10.349 2.587 13.454 1.552 3.622 1.552 3.622z" fill="#693b1e"/><path data-name="パス 116" d="M210.491 32.693s-1.531 5.392-5.692 8.538l-4.162 3.146-.668 4.443s6.665-4.929 8.8-8.279c3.619-5.692 2.523-9.937 1.722-7.848z" fill="#693b1e"/><g data-name="グループ 46"><path data-name="パス 117" d="M274.207 105.228s3.407-21.153 2.555-27.966-.852-19.163-.852-19.163h9.794s-.852 19.589-.852 22.144 1.278 14.479 1.278 14.479l.852 10.22z" fill="#a56d35"/><path data-name="パス 118" d="M263.135 82.797h35.771s-2.555-6.813-5.11-8.942l-2.555-2.13s-3.469-9.42-9.369-8.942-18.311 14.904-18.737 20.014z" fill="#526e00"/><path data-name="パス 119" d="M255.911 69.171h50.218s-3.587-9.565-7.174-12.554l-3.587-2.989s-4.87-13.224-13.152-12.555-25.707 20.924-26.305 28.098z" fill="#739703"/><path data-name="パス 120" d="M255.911 52.136h50.218s-3.587-9.565-7.174-12.554l-3.587-2.99s-4.87-13.224-13.152-12.554-25.707 20.921-26.305 28.098z" fill="#628200"/></g><g data-name="グループ 47"><path data-name="パス 121" d="M354.62 105.228s3.407-21.153 2.555-27.966-.852-19.163-.852-19.163h9.794s-.852 19.589-.852 22.144 1.277 14.479 1.277 14.479l.852 10.22z" fill="#a56d35"/><path data-name="パス 122" d="M343.549 82.797h35.77s-2.555-6.813-5.109-8.942l-2.555-2.13s-3.469-9.42-9.369-8.942-18.31 14.904-18.737 20.014z" fill="#526e00"/><path data-name="パス 123" d="M336.325 69.171h50.218s-3.586-9.565-7.173-12.554l-3.587-2.989s-4.87-13.224-13.153-12.555-25.707 20.924-26.305 28.098z" fill="#739703"/><path data-name="パス 124" d="M336.325 52.136h50.218s-3.586-9.565-7.173-12.554l-3.587-2.99s-4.87-13.224-13.153-12.554-25.707 20.921-26.305 28.098z" fill="#628200"/></g><g data-name="グループ 48"><path data-name="パス 125" d="M314.876 105.228s3.407-24.763 2.555-32.74-.852-22.434-.852-22.434h9.794s-.852 22.932-.852 25.923 1.277 16.95 1.277 16.95l.852 11.965z" fill="#a56d35"/><path data-name="パス 126" d="M303.805 78.969h35.771s-2.555-7.976-5.11-10.469l-2.555-2.493s-3.469-11.027-9.368-10.469-18.312 17.448-18.738 23.431z" fill="#739703"/><path data-name="パス 127" d="M296.581 63.016h50.218s-3.587-11.2-7.174-14.7l-3.587-3.5s-4.87-15.481-13.152-14.7-25.707 24.501-26.305 32.9z" fill="#81aa06"/><path data-name="パス 128" d="M296.581 43.077h50.218s-3.587-11.2-7.174-14.7l-3.587-3.5s-4.87-15.481-13.152-14.7-25.707 24.5-26.305 32.9z" fill="#8cb808"/></g><g data-name="グループ 50"><g data-name="グループ 49" clip-path="url(#a)" fill="none" stroke="#aecaae" stroke-miterlimit="10" stroke-width="2.126" transform="translate(67.985 3.937)"><path data-name="パス 129" d="M-14.84 23.115L73.646-2.758l-85.9 37.257L92.79 15.87S-27.261 47.953-25.71 47.953s114.359 1.552 114.359 1.552L-15.878 68.133l83.312 3.622"/><path data-name="パス 130" d="M-8.12 31.871L80.366 5.998l-85.9 37.257L99.511 24.626S-20.54 56.709-18.989 56.709 95.37 58.261 95.37 58.261L-9.157 76.89l83.311 3.622"/></g></g><path data-name="パス 132" d="M99.509 99.556s-1.013-14.511.512-23.667 2.034-36.368 3.052-32.044 2.543 19.328 3.306 31.281.5 23.158.759 26.464-6.899 6.831-7.629-2.034z" fill="#6d3c17"/><path data-name="パス 133" d="M106.088 70.287l-.481-.439A129.07 129.07 0 0092.213 59.66c-8.762-5.912-6.591-22.759-6.494-23.473a.55.55 0 011.09.147c-.023.168-2.176 16.883 6.02 22.413a137.818 137.818 0 0113.036 9.86c1.6-2.443 8.2-12.26 12.422-15.075 4.342-2.895 2.391-13.933 2.371-14.044a.55.55 0 011.083-.2c.087.483 2.093 11.865-2.844 15.156-4.544 3.03-12.378 15.17-12.457 15.292z" fill="#6d3c17"/><path data-name="パス 134" d="M99.675 77.995l-.108-.045c-.062-.026-6.273-2.59-10.356-4.121-4.343-1.628-7.447-11.573-7.577-12a.55.55 0 011.052-.323c.03.1 3.072 9.85 6.912 11.29 3.8 1.425 9.426 3.737 10.28 4.089 1.067-.04 9.26-.419 12.493-2.728 2.049-1.464 5.2-5.618 7.5-8.651 2.416-3.186 3.244-4.229 3.814-4.371a.55.55 0 01.307 1.056 34.006 34.006 0 00-3.244 3.979c-2.472 3.262-5.549 7.321-7.735 8.882-3.716 2.655-12.831 2.926-13.217 2.937z" fill="#6d3c17"/><path data-name="パス 135" d="M87.684 52.742h-.147c-5.847-.173-7.407-7.973-7.47-8.305a.55.55 0 011.081-.207c.014.073 1.458 7.266 6.422 7.413a2.729 2.729 0 002.222-.906c2.142-2.362 1.4-8.343 1.4-8.4a.55.55 0 011.091-.14c.034.266.807 6.548-1.672 9.282a3.786 3.786 0 01-2.927 1.263z" fill="#6d3c17"/><path data-name="パス 136" d="M116.612 58.969a8.489 8.489 0 01-2.463-.336 2.8 2.8 0 01-1.9-1.695c-1.077-2.733 1.656-7.5 1.773-7.7a.55.55 0 01.952.551c-.722 1.247-2.435 4.89-1.7 6.749a1.725 1.725 0 001.192 1.045c3.819 1.158 9.3-1.548 9.36-1.575a.55.55 0 11.492.984 19.875 19.875 0 01-7.706 1.977z" fill="#6d3c17"/><path data-name="パス 137" d="M91.696 77.954a18.126 18.126 0 01-6.674-1.818.55.55 0 01.487-.986c.052.025 5.153 2.515 7.724 1.448a2.028 2.028 0 001.2-1.293c1.29-3.8-2.718-6.687-2.758-6.716a.55.55 0 11.635-.9c.193.136 4.716 3.394 3.166 7.968a3.112 3.112 0 01-1.822 1.956 5.131 5.131 0 01-1.958.341z" fill="#6d3c17"/><g data-name="グループ 51" fill="#6d3c17"><path data-name="パス 138" d="M99.509 99.557s-1.013-14.511.512-23.667 2.034-36.368 3.052-32.044 2.543 19.328 3.306 31.281.5 23.158.759 26.464-6.899 6.831-7.629-2.034z"/><path data-name="パス 139" d="M106.088 70.287l-.481-.439A129.07 129.07 0 0092.213 59.66c-8.762-5.912-6.591-22.759-6.494-23.473a.55.55 0 011.09.147c-.023.168-2.176 16.883 6.02 22.413a137.818 137.818 0 0113.036 9.86c1.6-2.443 8.2-12.26 12.422-15.075 4.342-2.895 2.391-13.933 2.371-14.044a.55.55 0 011.083-.2c.087.483 2.093 11.865-2.844 15.156-4.544 3.03-12.378 15.17-12.457 15.292z"/><path data-name="パス 140" d="M99.675 77.996l-.108-.045c-.062-.026-6.273-2.59-10.356-4.121-4.343-1.628-7.447-11.573-7.577-12a.55.55 0 011.052-.323c.03.1 3.072 9.85 6.912 11.29 3.8 1.425 9.426 3.737 10.28 4.089 1.067-.04 9.26-.419 12.493-2.728 2.049-1.464 5.2-5.618 7.5-8.651 2.416-3.186 3.244-4.229 3.814-4.371a.55.55 0 01.307 1.056 34.006 34.006 0 00-3.244 3.979c-2.472 3.262-5.549 7.321-7.735 8.882-3.716 2.655-12.831 2.926-13.217 2.937z"/><path data-name="パス 141" d="M87.683 52.743h-.147c-5.847-.173-7.407-7.973-7.47-8.305a.55.55 0 011.081-.207c.014.073 1.458 7.266 6.422 7.413a2.729 2.729 0 002.222-.906c2.142-2.362 1.4-8.343 1.4-8.4a.55.55 0 011.091-.14c.034.266.807 6.548-1.672 9.282a3.786 3.786 0 01-2.927 1.263z"/><path data-name="パス 142" d="M116.612 58.969a8.489 8.489 0 01-2.463-.336 2.8 2.8 0 01-1.9-1.695c-1.077-2.733 1.656-7.5 1.773-7.7a.55.55 0 01.952.551c-.722 1.247-2.435 4.89-1.7 6.749a1.725 1.725 0 001.192 1.045c3.819 1.158 9.3-1.548 9.36-1.575a.55.55 0 11.492.984 19.875 19.875 0 01-7.706 1.977z"/><path data-name="パス 143" d="M91.695 77.954a18.126 18.126 0 01-6.674-1.818.55.55 0 01.487-.986c.052.025 5.153 2.515 7.724 1.448a2.028 2.028 0 001.2-1.293c1.29-3.8-2.718-6.687-2.758-6.716a.55.55 0 11.635-.9c.193.136 4.716 3.394 3.166 7.968a3.112 3.112 0 01-1.822 1.956 5.131 5.131 0 01-1.958.341z"/></g><path data-name="パス 144" d="M24.113 31.499s.124-3.712 2.722-4.207 1.238 2.846-2.722 4.207z" fill="#87b107"/><path data-name="パス 145" d="M23.756 46.375s2.156-3.025 4.595-2-.543 3.056-4.595 2z" fill="#87b107"/><path data-name="パス 146" d="M23.209 57.938s.124-3.712 2.722-4.207 1.238 2.846-2.722 4.207z" fill="#87b107"/><path data-name="パス 147" d="M17.398 41.702s.124-3.712 2.723-4.207 1.24 2.846-2.723 4.207z" fill="#87b107"/><path data-name="パス 148" d="M29.884 60.242s.124-3.712 2.723-4.207 1.237 2.846-2.723 4.207z" fill="#87b107"/><path data-name="パス 149" d="M30.244 38.18s2.156-3.024 4.595-2-.54 3.056-4.595 2z" fill="#87b107"/><path data-name="パス 150" d="M23.378 78.095s.124-3.712 2.722-4.207 1.238 2.846-2.722 4.207z" fill="#87b107"/><path data-name="パス 151" d="M23.172 70.445s.124-3.712 2.722-4.207 1.238 2.846-2.722 4.207z" fill="#87b107"/><path data-name="パス 152" d="M14.011 28.094s-.093-3.714-2.687-4.23-1.261 2.835 2.687 4.23z" fill="#87b107"/><path data-name="パス 153" d="M14.244 42.968s-2.13-3.042-4.578-2.038.517 3.064 4.578 2.038z" fill="#87b107"/><path data-name="パス 154" d="M12.087 52.185s-.093-3.713-2.687-4.23-1.261 2.836 2.687 4.23z" fill="#87b107"/><path data-name="パス 155" d="M21.152 22.923s-.092-3.713-2.687-4.229-1.261 2.835 2.687 4.229z" fill="#87b107"/><path data-name="パス 156" d="M8 56.787s-.092-3.713-2.687-4.23S4.051 55.393 8 56.787z" fill="#87b107"/><path data-name="パス 157" d="M7.824 34.722s-2.13-3.042-4.578-2.038.518 3.061 4.578 2.038z" fill="#87b107"/><path data-name="パス 158" d="M10.476 73.292s-.092-3.713-2.687-4.23-1.261 2.836 2.687 4.23z" fill="#87b107"/><path data-name="パス 159" d="M12.805 66.695s-.093-3.713-2.687-4.23-1.261 2.836 2.687 4.23z" fill="#87b107"/></svg>