<svg xmlns="http://www.w3.org/2000/svg" width="64" height="52"><path data-name="パス 88" d="M9.532 42.662s-9.809 1.28-9.525-5.4.568-14.5 2.844-19.9S3.42-.41 7.258.017s7.677 2.559 8.956 11.516 3.129 23.032 2.417 26.729-7.327 4.302-9.099 4.4z" fill="#739703"/><path data-name="パス 89" d="M10.029 39.154s-6.4.834-6.211-3.523.371-9.455 1.854-12.978.371-11.587 2.874-11.309 5.006 1.668 5.84 7.509 2.04 15.017 1.576 17.428-4.778 2.81-5.933 2.873z" fill="#547000"/><path data-name="パス 90" d="M7.257 48.87s.426-7.962 1.28-13.08 1.138-20.331 1.706-17.914a169.317 169.317 0 011.848 17.487c.427 6.682-.711 12.8-.569 14.644s-3.856 3.82-4.265-1.137z" fill="#32190e"/><path data-name="パス 91" d="M32.138 42.662s-9.81 1.28-9.526-5.4.569-14.5 2.843-19.9S26.024-.41 29.863.017s7.677 2.559 8.957 11.516 3.127 23.032 2.417 26.729-7.327 4.302-9.099 4.4z" fill="#739703"/><path data-name="パス 92" d="M32.633 39.154s-6.4.834-6.21-3.523.371-9.455 1.854-12.978.371-11.587 2.874-11.309 5.005 1.668 5.84 7.509 2.039 15.017 1.576 17.428-4.779 2.81-5.934 2.873z" fill="#547000"/><path data-name="パス 93" d="M29.863 48.87s.427-7.962 1.28-13.08 1.137-20.331 1.706-17.914a169.2 169.2 0 011.849 17.487c.426 6.682-.711 12.8-.569 14.644s-3.858 3.82-4.266-1.137z" fill="#32190e"/><path data-name="パス 94" d="M54.743 42.662s-9.811 1.28-9.526-5.4.569-14.5 2.844-19.9S48.629-.41 52.468.017s7.677 2.559 8.957 11.516 3.128 23.032 2.417 26.729-7.327 4.302-9.099 4.4z" fill="#739703"/><path data-name="パス 95" d="M55.238 39.154s-6.4.834-6.21-3.523.371-9.455 1.854-12.978.371-11.587 2.874-11.309 5.006 1.668 5.84 7.509 2.039 15.017 1.576 17.428-4.779 2.81-5.934 2.873z" fill="#547000"/><path data-name="パス 96" d="M52.469 48.87s.426-7.962 1.279-13.08 1.137-20.331 1.706-17.914a169.3 169.3 0 011.848 17.487c.427 6.682-.71 12.8-.568 14.644s-3.858 3.82-4.265-1.137z" fill="#32190e"/></svg>