<svg xmlns="http://www.w3.org/2000/svg" width="146.998" height="18.262"><g fill="#55acee"><path data-name="パス 42200" d="M36.272 4.33a1.4 1.4 0 000-1.656c-2.5-.624-9.336-.384-11.28-.288-1.08.048-2.544.144-2.952.576.144 1.176.816 1.392 1.92 1.392s3.048-.072 3.864.048c-.168 2.232.1 12.768.6 13.608a1.6 1.6 0 001.776-.144c.552-3.984.192-10.584.24-13.464 1.872-.048 4.08-.072 5.832-.072zm20.76 2.16c-.336-.624-.7-1.392-1.944-1.2-.984 3.024-2.064 6.72-3.552 9.216a20.435 20.435 0 01-2.112-4.944c-.264-1.128.192-2.64-1.344-2.76-1.008.36-.768 1.44-1.056 2.28-.648 1.92-1.9 4.08-2.616 5.856a38.947 38.947 0 01-1.848-9.044c-1.56-.96-2.256.24-1.944 3.192.264 2.608 1.944 7.008 2.376 8.708a2.719 2.719 0 002.088.288c1.008-2.016 1.9-4.488 3.048-6.36a24.6 24.6 0 012.184 5.448 3.388 3.388 0 001.944.456c2.088-3.216 3.384-7.2 4.776-11.132zm7.9-4.464c-1.7-.744-2.976.072-3.072 1.152-.1 1.008.6 2.208 2.472 1.872a2.23 2.23 0 00.596-3.024zm-.24 15.96c.144-2.544.312-7.944-.216-10.68-1.7-.84-2.352.1-2.424 1.7-.1 2.376.192 7.032.312 8.232.548.556 1.388 1.492 2.324.748zm15.72-3.24c-.864-.312-1.2.432-1.7.888a1.952 1.952 0 01-2.52.12 36.823 36.823 0 01-.288-7.488c1.2 0 2.832.264 3.264-.432l-.432-1.248c-.744-.168-2.16-.216-2.9-.288 0 0 .048-2.544-.024-3.5-1.224-.888-1.776-.312-2.016.7a15.989 15.989 0 00-.216 2.808c-1.488.072-3.072-.072-3.192.72-.12.816.528.912 1.368 1.08a9.96 9.96 0 001.824.144c-.024 2.184-.1 5.856.432 7.824.336 1.224 2.088 1.92 3.6 1.944a3.294 3.294 0 002.784-1.464c.348-.46.704-1.304.012-1.808zm14.424 0c-.864-.312-1.2.432-1.7.888a1.952 1.952 0 01-2.52.12 36.823 36.823 0 01-.288-7.488c1.2 0 2.832.264 3.264-.432l-.432-1.248c-.744-.168-2.16-.216-2.9-.288 0 0 .048-2.544-.024-3.5-1.224-.888-1.776-.312-2.016.7a15.989 15.989 0 00-.216 2.808c-1.488.072-3.072-.072-3.192.72-.12.816.528.912 1.368 1.08a9.96 9.96 0 001.824.144c-.024 2.184-.1 5.856.432 7.824.336 1.224 2.088 1.92 3.6 1.944a3.294 3.294 0 002.784-1.464c.348-.46.708-1.304.012-1.808zm16.272.36c-.24-1.152-1.056-.552-2.184.024a7.122 7.122 0 01-3.048.984c-1.944.072-3.984-.792-4.272-3.192 2.064-.24 5.04-.6 6.5-.888.864-.168 1.872-.216 2.256-1.272.384-1.032-.768-3.48-2.016-4.344a6.478 6.478 0 00-6.528.144 6.832 6.832 0 00-2.616 5.5 6.013 6.013 0 002.688 5.012 7.309 7.309 0 004.992.936c1.2-.168 4.56-1.316 4.22-2.904zm-3.076-4.992a35.377 35.377 0 01-6.5.864c-.1-1.608 1.872-3.336 3.48-3.528a2.827 2.827 0 013.02 2.664zm16.92-1.728c.168-1.656-1.248-2.376-2.832-2.5a5.59 5.59 0 00-3.7.912s-.192-1.032-.72-1.176c-.96-.264-1.464.768-1.68 2.3a39.776 39.776 0 00.24 9.456c.648.264 1.416.864 2.3.432.048-2.16-.48-6.216.144-8.112a2.909 2.909 0 012.472-1.9c.648.048 1.08.624 1.608.984a1.555 1.555 0 001.872.024z"/><g data-name="グループ 18"><g data-name="グループ 15" transform="rotate(167 5 9.453)"><circle data-name="楕円形 8" cx="1" cy="1" r="1" transform="translate(0 16)"/><rect data-name="長方形 30" width="2" height="14" rx="1"/></g><g data-name="グループ 16" transform="rotate(167 2 9.111)"><circle data-name="楕円形 8" cx="1" cy="1" r="1" transform="translate(0 16)"/><rect data-name="長方形 30" width="2" height="14" rx="1"/></g></g><g data-name="グループ 17"><g data-name="グループ 15" transform="rotate(13 13476.204 -1178.569)"><circle data-name="楕円形 8" cx="1" cy="1" r="1" transform="translate(746 2970)"/><rect data-name="長方形 30" width="2" height="14" rx="1" transform="translate(746 2974)"/></g><g data-name="グループ 16" transform="rotate(13 13479.204 -1152.238)"><circle data-name="楕円形 8" cx="1" cy="1" r="1" transform="translate(746 2970)"/><rect data-name="長方形 30" width="2" height="14" rx="1" transform="translate(746 2974)"/></g></g></g></svg>