<svg xmlns="http://www.w3.org/2000/svg" width="146.998" height="18.262" viewBox="0 0 146.998 18.262">
  <g id="twitter-h3-title" transform="translate(-563 -2968.006)">
    <path id="パス_42200" data-name="パス 42200" d="M16.272-14.664a1.4,1.4,0,0,0,0-1.656c-2.5-.624-9.336-.384-11.28-.288-1.08.048-2.544.144-2.952.576.144,1.176.816,1.392,1.92,1.392s3.048-.072,3.864.048c-.168,2.232.1,12.768.6,13.608A1.6,1.6,0,0,0,10.2-1.128c.552-3.984.192-10.584.24-13.464C12.312-14.64,14.52-14.664,16.272-14.664Zm20.76,2.16c-.336-.624-.7-1.392-1.944-1.2-.984,3.024-2.064,6.72-3.552,9.216a20.435,20.435,0,0,1-2.112-4.944c-.264-1.128.192-2.64-1.344-2.76-1.008.36-.768,1.44-1.056,2.28-.648,1.92-1.9,4.08-2.616,5.856A38.947,38.947,0,0,1,22.56-13.1c-1.56-.96-2.256.24-1.944,3.192C20.88-7.3,22.56-2.9,22.992-1.2a2.719,2.719,0,0,0,2.088.288c1.008-2.016,1.9-4.488,3.048-6.36a24.6,24.6,0,0,1,2.184,5.448,3.388,3.388,0,0,0,1.944.456C34.344-4.584,35.64-8.568,37.032-12.5Zm7.9-4.464c-1.7-.744-2.976.072-3.072,1.152-.1,1.008.6,2.208,2.472,1.872A2.23,2.23,0,0,0,44.928-16.968Zm-.24,15.96c.144-2.544.312-7.944-.216-10.68-1.7-.84-2.352.1-2.424,1.7-.1,2.376.192,7.032.312,8.232C42.912-1.2,43.752-.264,44.688-1.008Zm15.72-3.24c-.864-.312-1.2.432-1.7.888a1.952,1.952,0,0,1-2.52.12,36.823,36.823,0,0,1-.288-7.488c1.2,0,2.832.264,3.264-.432l-.432-1.248c-.744-.168-2.16-.216-2.9-.288,0,0,.048-2.544-.024-3.5-1.224-.888-1.776-.312-2.016.7a15.989,15.989,0,0,0-.216,2.808c-1.488.072-3.072-.072-3.192.72-.12.816.528.912,1.368,1.08a9.96,9.96,0,0,0,1.824.144c-.024,2.184-.1,5.856.432,7.824.336,1.224,2.088,1.92,3.6,1.944a3.294,3.294,0,0,0,2.784-1.464C60.744-2.9,61.1-3.744,60.408-4.248Zm14.424,0c-.864-.312-1.2.432-1.7.888a1.952,1.952,0,0,1-2.52.12,36.823,36.823,0,0,1-.288-7.488c1.2,0,2.832.264,3.264-.432l-.432-1.248c-.744-.168-2.16-.216-2.9-.288,0,0,.048-2.544-.024-3.5-1.224-.888-1.776-.312-2.016.7a15.989,15.989,0,0,0-.216,2.808c-1.488.072-3.072-.072-3.192.72-.12.816.528.912,1.368,1.08a9.96,9.96,0,0,0,1.824.144c-.024,2.184-.1,5.856.432,7.824.336,1.224,2.088,1.92,3.6,1.944a3.294,3.294,0,0,0,2.784-1.464C75.168-2.9,75.528-3.744,74.832-4.248Zm16.272.36c-.24-1.152-1.056-.552-2.184.024a7.122,7.122,0,0,1-3.048.984c-1.944.072-3.984-.792-4.272-3.192,2.064-.24,5.04-.6,6.5-.888.864-.168,1.872-.216,2.256-1.272.384-1.032-.768-3.48-2.016-4.344a6.478,6.478,0,0,0-6.528.144,6.832,6.832,0,0,0-2.616,5.5A6.013,6.013,0,0,0,81.888-1.92a7.309,7.309,0,0,0,4.992.936C88.08-1.152,91.44-2.3,91.1-3.888ZM88.032-8.88a35.377,35.377,0,0,1-6.5.864c-.1-1.608,1.872-3.336,3.48-3.528A2.827,2.827,0,0,1,88.032-8.88Zm16.92-1.728c.168-1.656-1.248-2.376-2.832-2.5a5.59,5.59,0,0,0-3.7.912s-.192-1.032-.72-1.176c-.96-.264-1.464.768-1.68,2.3a39.776,39.776,0,0,0,.24,9.456c.648.264,1.416.864,2.3.432.048-2.16-.48-6.216.144-8.112a2.909,2.909,0,0,1,2.472-1.9c.648.048,1.08.624,1.608.984a1.555,1.555,0,0,0,1.872.024Z" transform="translate(583 2987)" fill="#55acee"/>
    <g id="グループ_18" data-name="グループ 18" transform="translate(563 2968.006)">
      <g id="グループ_15" data-name="グループ 15" transform="translate(11.998 17.539) rotate(167)">
        <circle id="楕円形_8" data-name="楕円形 8" cx="1" cy="1" r="1" transform="translate(0 16)" fill="#55acee"/>
        <rect id="長方形_30" data-name="長方形 30" width="2" height="14" rx="1" transform="translate(0 0)" fill="#55acee"/>
      </g>
      <g id="グループ_16" data-name="グループ 16" transform="translate(5.998 17.539) rotate(167)">
        <circle id="楕円形_8-2" data-name="楕円形 8" cx="1" cy="1" r="1" transform="translate(0 16)" fill="#55acee"/>
        <rect id="長方形_30-2" data-name="長方形 30" width="2" height="14" rx="1" transform="translate(0 0)" fill="#55acee"/>
      </g>
    </g>
    <g id="グループ_17" data-name="グループ 17" transform="translate(-48.001)">
      <g id="グループ_15-2" data-name="グループ 15" transform="translate(691.275 -93.687) rotate(13)">
        <circle id="楕円形_8-3" data-name="楕円形 8" cx="1" cy="1" r="1" transform="translate(746 2970)" fill="#55acee"/>
        <rect id="長方形_30-3" data-name="長方形 30" width="2" height="14" rx="1" transform="translate(746 2974)" fill="#55acee"/>
      </g>
      <g id="グループ_16-2" data-name="グループ 16" transform="translate(697.275 -93.687) rotate(13)">
        <circle id="楕円形_8-4" data-name="楕円形 8" cx="1" cy="1" r="1" transform="translate(746 2970)" fill="#55acee"/>
        <rect id="長方形_30-4" data-name="長方形 30" width="2" height="14" rx="1" transform="translate(746 2974)" fill="#55acee"/>
      </g>
    </g>
  </g>
</svg>
