<svg xmlns="http://www.w3.org/2000/svg" width="212" height="23"><defs><clipPath id="a"><path data-name="長方形 132" transform="translate(647 920)" fill="none" stroke="rgba(0,0,0,0)" d="M0 0h212v23H0z"/></clipPath></defs><g data-name="マスクグループ 70" transform="translate(-647 -920)" clip-path="url(#a)"><path d="M656.288 927.064a19.356 19.356 0 00.72-4.056 2.061 2.061 0 00-2.592-.24l.12.768c-.984 9.216-7.416 17.352-7.416 17.352 4.152-.936 7.656-8.376 8.64-12 0 0 2.088 6.888 5.616 10.8a2.825 2.825 0 001.824.984 2.677 2.677 0 001.608-.792 2.309 2.309 0 01.936-.408c-3.312-2.208-8.208-7.464-9.456-12.408zm31.272-2.592c.768-1.128-.648-1.56-1.632-1.584-2.376-.024-6.168.072-9.216.264a12.94 12.94 0 00.624-1.584 1.947 1.947 0 00-1.992-.744 17.557 17.557 0 01-2.76 4.416c-.6.744-2.448 2.664-3.456 3.72a11.589 11.589 0 006.936-4.56 2.117 2.117 0 001.2.24 87.92 87.92 0 0110.296-.168zm-2.9 3.192c.456-1.1-.216-1.656-1.32-1.728-1.608-.12-5.448-.048-7.728 1.176.072.648.432.936 1.176 1.032a19.679 19.679 0 017.868-.48zm6.14 10.272a6.764 6.764 0 01-2.064 1.872c-1.9-2.112-1.968-6.072-1.8-9.456a8.328 8.328 0 00-1.248-1.252c-3.5-.432-10.08.288-12.432 1.248.192.84.84 1.728 1.608 1.44a25.106 25.106 0 019.936-1.172c-.144 5.616.96 9.48 3.432 11.16a2.1 2.1 0 001.272.456c.552-.48 1.396-3.744 1.296-4.296zm-8.832-5.448c-.408-.6-1.3-1.272-2.064-.888a12.63 12.63 0 01-1.7 3.1 6.641 6.641 0 00-4.32-.768 24.827 24.827 0 013.264 2.136 47.494 47.494 0 01-5.188 5.324c3.312-.48 5.4-2.688 6.768-4.08.768.744 1.488 1.848 2.448 2.136.528.168.624-.432.624-.936 0-1.056-1.1-1.992-1.776-2.712a18.073 18.073 0 001.944-3.312zm18.648-9.456a1.567 1.567 0 00-.84-1.584 4.587 4.587 0 00-3.384-.288 1.107 1.107 0 00.36 1.512c.768.24 3.148.84 3.864.36zm13.728 15.792c.192-.336-.672-2.112-1.272-3.312a8.762 8.762 0 01-.84 2.712 9.482 9.482 0 01-4.224.792c-1.508 0-2.208-.576-2.352-1.776a19.907 19.907 0 01.24-4.824 19.02 19.02 0 014.7-.048.96.96 0 00.432.984 1.772 1.772 0 001.7-1.32 27.66 27.66 0 00.7-4.944 2.407 2.407 0 00-.672-1.8c-1.1-.864-7.488-1.152-8.664-.528-.624.336-.144 1.8.624 1.68a22.129 22.129 0 016.432-.12 25.1 25.1 0 01-.408 4.752 13.34 13.34 0 00-4.964-.172 1.536 1.536 0 00-1.676-.38 22.046 22.046 0 00-.2 8.064c.436 1.176 1.66 1.968 3.628 2.064a19.082 19.082 0 004.872-.456 2.842 2.842 0 001.944-1.368zm-11.928-12.504a1.172 1.172 0 00-.7-1.536 24.325 24.325 0 00-4.392-.1c-2.3.24-3.456.384-3.456 1.176 0 .408.576 1.08.96.96a20.871 20.871 0 012.64-.576 28.485 28.485 0 014.948.076zm-1.3 2.928c0-.7-.7-1.056-2.016-1.056a7.408 7.408 0 00-2.9.5 1.223 1.223 0 00.36 1.632c.936-.7 3.24-.624 4.032-.408.432.124.528-.284.528-.668zm.024 4.632c.072-.552-.24-1.08-.96-1.608-.648-.024-1.752-.072-2.424-.072-.936 0-1.392.36-1.392 1.008a2.231 2.231 0 00.1.648 38.321 38.321 0 014.68.024zm1.06 3.408c-.408-.864-1.848-1.368-2.9-1.368a3.774 3.774 0 00-2.26.58 1.9 1.9 0 00-1.248-.336c-.408.768-.12 3.072.432 4.512a1.514 1.514 0 00.888.912 1.561 1.561 0 00.84-.888 6.024 6.024 0 002.136-.172 1.311 1.311 0 00.912 1.224 2.5 2.5 0 00.816-1.224 10.146 10.146 0 00.384-3.24zm-2.112 2.232a20.331 20.331 0 01-2.424.048 6.535 6.535 0 01-.288-2.328 5.552 5.552 0 012.808 0 3.9 3.9 0 01-.096 2.28zm37.176-4.3a1.093 1.093 0 00-.72-1.152 4.98 4.98 0 00-1.464-.264 2.869 2.869 0 00-.792-2.5 20.475 20.475 0 00-5.232-.36v-1.176a12.2 12.2 0 011.632.072c.216.024.672.336.96.336 1.344 0 1.728-2.808 1.968-3.768a2.06 2.06 0 00-2.04-1.1 24.426 24.426 0 00-2.448-.144v-1.152a49.471 49.471 0 016.7.36.889.889 0 00-.264-1.344 43.342 43.342 0 00-6.408-.312 7.126 7.126 0 00-.144-1.728c-.288-.648-1.512-.6-2.112-.5v2.376a65.7 65.7 0 00-7.032.6s-.336.648.024.984a1.292 1.292 0 001.152.312 55.4 55.4 0 015.808-.672v1.2c-1.344.1-2.736.312-2.736.312a6.986 6.986 0 00-1.608-.072 12.909 12.909 0 00.264 3.912c.264.792.72 1.128 1.392 1.032a4.274 4.274 0 00.672-.7 1.085 1.085 0 00.7.192c.36-.024.744-.1 1.272-.12v1.224a32.422 32.422 0 00-5.136.72 1.083 1.083 0 001.344 1.08c.888-.1 2.064-.384 3.768-.48l.016 1.372c-3 .216-5.976.5-7.272.768l-.36.744c.288.432.768.7 1.776.528a51.308 51.308 0 015.832-.6v1.632c-1.824.024-3.5.024-4.728.048a1.175 1.175 0 00.384 1.3s3.048.048 4.392 0l.024 1.776a11.947 11.947 0 01-2.76-.168 12.776 12.776 0 012.76 2.352s1.32 0 1.8-.7a11.108 11.108 0 00.408-3.34 42.513 42.513 0 003.624-.264c.264.408.5.6.768.6.408 0 .816-.408 1.128-1.248a10.429 10.429 0 00.384-1.944c.672.12 1.152.12 1.608.168a1.974 1.974 0 00.696-.188zm-5.952-8.736a6.414 6.414 0 01-.336 2.184 8.008 8.008 0 00-1.9-.144l.024-2.136a13.839 13.839 0 012.212.1zm-4.512 2.164c-.552 0-1.416.144-2.088.216a15.288 15.288 0 01-.144-2.28 1.465 1.465 0 00.672.12c.384-.024 1.032-.168 1.56-.168zm6.216 3.72a7.409 7.409 0 01.024 1.3s-2.424-.1-3.96-.024v-1.396a20.438 20.438 0 013.936.12zm-.216 4.224s-2.448.168-3.744.168v-1.68a34.388 34.388 0 013.912.024 5.6 5.6 0 01-.168 1.488zm24.984-10.656c.168-.312-.024-.984-.072-1.272-2.352-.792-7.416-.528-10.416-.12-.288.336.072 1.536.072 1.536 2.688-.24 7.272-.216 10.416-.144zm1.56 4.248a30.366 30.366 0 00-14.928.792c-.024.408-.048 1.464.384 1.368 2.64-.6 7.584-1.488 11.376-1.08-.6 2.16-3.24 5.448-4.92 7.176-.576.6-1.608 1.752-1.608 1.752 1.176-.168 4.92-2.736 5.712-3.672a26.56 26.56 0 003.984-6.336zm16.128-3.284c-.672-1.512-3.12-3.264-5.232-2.208 1.008.744 2.688 2.664 3.984 3.84zm9.528 2.732s-2.352 1.9-3.7 2.736a53.321 53.321 0 01-11.52 5.3 4.538 4.538 0 00.6 1.968c6.004-1.556 13.276-5.736 14.62-10.004zm22.7 3.576c.192-.624.048-1.3-.48-1.3-1.32-.024-4.7.336-5.832.456-.12-1.536-.408-3.384-.48-4.464 1.464-.192 3.648-.216 4.776-.24.264-.264.024-1.368-.192-1.368-.936 0-3.792.264-4.752.384-.144-.888-.144-2.112-.264-3.048a2.993 2.993 0 00-1.872-.12 31.321 31.321 0 00.216 3.456 27.153 27.153 0 00-5.32 1.276s.432 1.128.768 1.032a44.111 44.111 0 014.728-1.08c.144 1.056.432 3.336.552 4.44a49.191 49.191 0 00-6.432 1.248c-.048.456-.024 1.128.216 1.3a50.93 50.93 0 016.312-1.3c.216 1.608.672 5.112.984 6.72.6.216 1.536-.336 1.776-.456-.192-1.9-.744-5.064-.816-6.48a56.9 56.9 0 016.112-.456zm15.772-6.308c-.672-1.512-3.12-3.264-5.232-2.208 1.008.744 2.688 2.664 3.984 3.84zm9.528 2.732s-2.352 1.9-3.7 2.736a53.321 53.321 0 01-11.52 5.3 4.538 4.538 0 00.6 1.968c6.004-1.556 13.276-5.736 14.62-10.004zm24.552-5.4a1.994 1.994 0 00-2.256-1.368c.408.72.912 2.064 1.7 2.208a.839.839 0 00.556-.84zm-2.712.336a2 2 0 00-1.94-1.128c.312.624.648 1.8.984 2.4 1.028-.024 1.244-.696.956-1.272zm-.24 2.592c-2.04-1.08-5.5-.936-7.848-.984a10.581 10.581 0 00.792-1.776 3.4 3.4 0 00-1.56-.624c-1.728 3.192-3.5 6.288-5.28 9.456 2.136-.24 4.7-4.608 5.352-5.616a21.753 21.753 0 016.192.288c-1.68 5.064-5.424 9.408-7.824 12.528 1.992-.5 4.464-2.664 5.88-4.728a34.358 34.358 0 004.296-8.544z" fill="#518c03"/></g></svg>