<svg xmlns="http://www.w3.org/2000/svg" width="1920" height="615" viewBox="0 0 1920 615">
  <g id="background02" transform="translate(0 -1094)">
    <path id="パス_77" data-name="パス 77" d="M0,14.614H452.864S483.717,6.1,506.405-11.358A294.768,294.768,0,0,0,545.866-48.41s4.487-2.065,5.487-.536c4.08,6.245,25.115,27.273,39.752,40.239a171.215,171.215,0,0,0,33.249,23.321S674.567,10.9,722.14-4.86s84.471-61.583,84.471-61.583,32.652,17.848,60.6,33.6,59.223,47.454,59.223,47.454,35.671.856,67.852-7.353,33.085-19.553,49.913-26.571,31.623,8.149,63.309,14.791,61.322,19.132,61.322,19.132,31.5-7,54.456-15.485,37.361-18.438,37.361-18.438,13.473,9.958,36.092,18.438,54.384,15.485,54.384,15.485S1367.1,13,1379.878,7.553a82.972,82.972,0,0,0,22.369-14.719,69.218,69.218,0,0,1,15.3,8.918,64.4,64.4,0,0,1,11.6,12.863H1920v495.3H1455.706s-28.2-9.737-34.643-19.032-19.776-17.058-19.776-17.058-12.249-1.478-34.962,8.711-61.8,37.023-61.8,37.023-27.856-3.73-55.34-15.174-55.987-40.245-55.987-40.245a165.587,165.587,0,0,0-29.487,18.119c-14.752,11.444-29.519,27.657-29.519,27.657s-51.547-17.328-96.328-34.422c-31.257-11.931-49.9-23.309-70.6-31.8s-27.936,0-27.936,0-13.693,14.7-63.849,31.8-121.036,34.422-121.036,34.422-53.541-9.192-92.577-20.636-63.566-25.14-63.566-25.14a298.84,298.84,0,0,0-39.683,19.62,302.048,302.048,0,0,0-35.891,26.156H0Z" transform="translate(0 1160.443)" fill="#e0ebd1"/>
    <path id="パス_78" data-name="パス 78" d="M543.487,1130.41a321.846,321.846,0,0,1-26.13,22.961,300.833,300.833,0,0,1-28.254,19.063l6.71,2.119s14.923-5.2,26.842-16.238S543.487,1130.41,543.487,1130.41Z" fill="#abc94e"/>
    <path id="パス_79" data-name="パス 79" d="M550.048,1131.44s6.065,15.492,12.55,27.68a162.288,162.288,0,0,0,13.389,21.071l7.9,3.878a196.471,196.471,0,0,1-33.84-52.628Z" transform="translate(-284.157 198.127) rotate(-16)" fill="#abc94e"/>
    <path id="パス_80" data-name="パス 80" d="M808.259,1112.3s-6.167,21.306-15.1,36.142a84.718,84.718,0,0,1-20.633,23.2h12.438s11.237-16.048,15.73-30.885S808.259,1112.3,808.259,1112.3Z" transform="translate(157.623 -100.888) rotate(8)" fill="#abc94e"/>
    <path id="パス_81" data-name="パス 81" d="M0,17.088a44.155,44.155,0,0,1,9.939-7.1A63.5,63.5,0,0,1,22.825,5.515L14.035,0A14.54,14.54,0,0,0,5.776,6.094C2.923,10.876,0,17.088,0,17.088Z" transform="translate(907.018 1157.218) rotate(94)" fill="#abc94e"/>
    <path id="パス_82" data-name="パス 82" d="M1043.634,1148.1l-9.087,10-19.937,6.137,20.192-2.457,7.985,16.281-4.868-17.8Z" transform="translate(-4 4.929)" fill="#abc94e"/>
    <path id="パス_86" data-name="パス 86" d="M1035.311,1148.1l-6.481,7.133-14.22,4.377,14.4-1.753,5.7,11.612-3.472-12.693Z" transform="translate(-30.738 576.644) rotate(-26)" fill="#abc94e"/>
    <path id="パス_83" data-name="パス 83" d="M1062.325,1148.1l27.647,12.44,58.831,10.77-60.438-8.519Z" transform="translate(2 0.533)" fill="#abc94e"/>
    <path id="パス_84" data-name="パス 84" d="M1274.662,1151.016l-6.8,10.386,6.8,11.746-2.6-11Z" transform="matrix(0.588, -0.809, 0.809, 0.588, -403.112, 1510.5)" fill="#abc94e"/>
    <path id="パス_85" data-name="パス 85" d="M1235.168,1153.464l15.522,10.943,5.613,21.836-10.354-20.911Z" transform="translate(2470.706 -23.296) rotate(93)" fill="#abc94e"/>
    <path id="パス_87" data-name="パス 87" d="M818.555,1114.209s18.229,27.166,35.383,46.21a206.16,206.16,0,0,0,33.232,29.966l-28.37-4.664Z" transform="translate(11.579 -23.745) rotate(1)" fill="#abc94e"/>
    <g id="グループ_41" data-name="グループ 41" transform="translate(-2498.651 -359.818)">
      <path id="パス_88" data-name="パス 88" d="M3952.41,1560.353s-16.219,2.116-15.749-8.932.94-23.976,4.7-32.908.94-29.382,7.287-28.677,12.693,4.231,14.809,19.04,5.172,38.079,4,44.191S3955.34,1560.191,3952.41,1560.353Z" transform="translate(0 0)" fill="#739703"/>
      <path id="パス_89" data-name="パス 89" d="M3973.285,1616.2s-10.576,1.38-10.269-5.824.613-15.633,3.065-21.457.613-19.158,4.751-18.7,8.276,2.758,9.656,12.414,3.372,24.829,2.605,28.814S3975.195,1616.094,3973.285,1616.2Z" transform="translate(-20.055 -61.163)" fill="#547000"/>
      <path id="パス_90" data-name="パス 90" d="M3986.825,1667.561s.7-13.163,2.115-21.625,1.881-33.614,2.821-29.617,2.35,17.864,3.056,28.912-1.175,21.156-.94,24.211S3987.5,1675.755,3986.825,1667.561Z" transform="translate(-38.175 -95.918)" fill="#32190e"/>
      <path id="パス_91" data-name="パス 91" d="M4108.7,1560.353s-16.219,2.116-15.749-8.932.94-23.976,4.7-32.908.94-29.382,7.287-28.677,12.693,4.231,14.809,19.04,5.171,38.079,4,44.191S4111.631,1560.191,4108.7,1560.353Z" transform="translate(-118.823 0)" fill="#739703"/>
      <path id="パス_92" data-name="パス 92" d="M4129.576,1616.2s-10.575,1.38-10.269-5.824.613-15.633,3.065-21.457.613-19.158,4.751-18.7,8.276,2.758,9.656,12.414,3.372,24.829,2.605,28.814S4131.486,1616.094,4129.576,1616.2Z" transform="translate(-138.876 -61.163)" fill="#547000"/>
      <path id="パス_93" data-name="パス 93" d="M4143.115,1667.561s.705-13.163,2.115-21.625,1.881-33.614,2.821-29.617,2.351,17.864,3.056,28.912-1.176,21.156-.94,24.211S4143.791,1675.755,4143.115,1667.561Z" transform="translate(-156.997 -95.918)" fill="#32190e"/>
      <path id="パス_94" data-name="パス 94" d="M4264.992,1560.353s-16.219,2.116-15.749-8.932.94-23.976,4.7-32.908.94-29.382,7.286-28.677,12.693,4.231,14.809,19.04,5.171,38.079,4,44.191S4267.921,1560.191,4264.992,1560.353Z" transform="translate(-237.645 0)" fill="#739703"/>
      <path id="パス_95" data-name="パス 95" d="M4285.866,1616.2s-10.575,1.38-10.269-5.824.613-15.633,3.065-21.457.613-19.158,4.751-18.7,8.276,2.758,9.655,12.414,3.372,24.829,2.605,28.814S4287.776,1616.094,4285.866,1616.2Z" transform="translate(-257.701 -61.163)" fill="#547000"/>
      <path id="パス_96" data-name="パス 96" d="M4299.406,1667.561s.705-13.163,2.116-21.625,1.88-33.614,2.821-29.617,2.351,17.864,3.055,28.912-1.175,21.156-.94,24.211S4300.081,1675.755,4299.406,1667.561Z" transform="translate(-275.82 -95.918)" fill="#32190e"/>
    </g>
    <g id="グループ_45" data-name="グループ 45" transform="translate(-3548.553 -315.875)">
      <g id="グループ_42" data-name="グループ 42" transform="translate(3924.553 1947.178)">
        <path id="パス_97" data-name="パス 97" d="M3995.266,2164.419s3.269-20.3,2.452-26.838-.817-18.39-.817-18.39h9.4s-.817,18.8-.817,21.25,1.226,13.895,1.226,13.895l.817,9.808Z" transform="translate(-3977.709 -2086.723)" fill="#a56d35"/>
        <path id="パス_98" data-name="パス 98" d="M3952.474,2156.453H3986.8s-2.452-6.538-4.9-8.581l-2.452-2.044s-3.329-9.04-8.99-8.582S3952.883,2151.549,3952.474,2156.453Z" transform="translate(-3945.542 -2100.193)" fill="#526e00"/>
        <path id="パス_99" data-name="パス 99" d="M3924.553,2080.278h48.192s-3.442-9.179-6.885-12.048l-3.442-2.869s-4.673-12.69-12.622-12.048S3925.127,2073.394,3924.553,2080.278Z" transform="translate(-3924.553 -2037.02)" fill="#739703"/>
        <path id="パス_100" data-name="パス 100" d="M3924.553,2014.442h48.192s-3.442-9.179-6.885-12.048l-3.442-2.869s-4.673-12.69-12.622-12.048S3925.127,2007.558,3924.553,2014.442Z" transform="translate(-3924.553 -1987.455)" fill="#628200"/>
      </g>
      <g id="グループ_43" data-name="グループ 43" transform="translate(4001.362 1947.178)">
        <path id="パス_101" data-name="パス 101" d="M4306.066,2164.419s3.269-20.3,2.452-26.838-.817-18.39-.817-18.39h9.4s-.817,18.8-.817,21.25,1.226,13.895,1.226,13.895l.817,9.808Z" transform="translate(-4288.509 -2086.723)" fill="#a56d35"/>
        <path id="パス_102" data-name="パス 102" d="M4263.273,2156.453H4297.6s-2.452-6.538-4.9-8.581l-2.452-2.044s-3.329-9.04-8.991-8.582S4263.682,2151.549,4263.273,2156.453Z" transform="translate(-4256.341 -2100.193)" fill="#526e00"/>
        <path id="パス_103" data-name="パス 103" d="M4235.354,2080.278h48.191s-3.442-9.179-6.884-12.048l-3.443-2.869s-4.673-12.69-12.622-12.048S4235.928,2073.394,4235.354,2080.278Z" transform="translate(-4235.354 -2037.02)" fill="#739703"/>
        <path id="パス_104" data-name="パス 104" d="M4235.354,2014.442h48.191s-3.442-9.179-6.884-12.048l-3.443-2.869s-4.673-12.69-12.622-12.048S4235.928,2007.558,4235.354,2014.442Z" transform="translate(-4235.354 -1987.455)" fill="#628200"/>
      </g>
      <g id="グループ_44" data-name="グループ 44" transform="translate(3963.399 1933.875)">
        <path id="パス_105" data-name="パス 105" d="M4152.452,2141.048s3.269-23.764,2.452-31.418-.817-21.528-.817-21.528h9.4s-.817,22.006-.817,24.877,1.226,16.266,1.226,16.266l.817,11.482Z" transform="translate(-4134.895 -2050.048)" fill="#a56d35"/>
        <path id="パス_106" data-name="パス 106" d="M4109.66,2131.72h34.327s-2.452-7.654-4.9-10.046l-2.452-2.392s-3.329-10.582-8.99-10.046S4110.069,2125.979,4109.66,2131.72Z" transform="translate(-4102.728 -2065.832)" fill="#739703"/>
        <path id="パス_107" data-name="パス 107" d="M4081.74,2042.543h48.192s-3.442-10.746-6.885-14.1l-3.442-3.358s-4.673-14.856-12.622-14.1S4082.314,2034.484,4081.74,2042.543Z" transform="translate(-4081.74 -1991.889)" fill="#81aa06"/>
        <path id="パス_108" data-name="パス 108" d="M4081.74,1965.47h48.192s-3.442-10.746-6.885-14.1l-3.442-3.358s-4.673-14.856-12.622-14.1S4082.314,1957.41,4081.74,1965.47Z" transform="translate(-4081.74 -1933.875)" fill="#8cb808"/>
      </g>
    </g>
  </g>
</svg>
