<svg xmlns="http://www.w3.org/2000/svg" width="91.248" height="21.767"><path d="M10.176 4.04c-.048-.408-.336-.624-.84-.7-.624-.072-2.088-.144-2.784-.144A11.561 11.561 0 006.528.964a3.905 3.905 0 00-1.44-.408.9.9 0 00-.792.36 15.478 15.478 0 01.024 2.352c-.648.024-1.776.168-2.52.288C.7 3.748.072 4.132.072 4.588a1.184 1.184 0 00.36.744 4.458 4.458 0 001.512-.288A18.42 18.42 0 019.336 4.9c.48.124.888-.38.84-.86zm10.032 5.5c.288-.384-.048-1.008-.384-1.224-2.3-.36-4.872.072-6.84.168.048-1.944-.072-4.584-.072-4.584a13.071 13.071 0 005.88-1.3 1.423 1.423 0 00-.744-1.608 2.05 2.05 0 00-1.416-.12 12.194 12.194 0 01-3.792 2.472c-.384-.48-1.32-.384-1.848-.216-.1 4.44.072 11.976-1.272 16.7a7.791 7.791 0 001.872-2.76 33.917 33.917 0 001.344-7.68 1.8 1.8 0 00.936.456c.48 0 1.224-.048 1.488-.072.048 2.4.144 7.7.144 10.416a1.589 1.589 0 001.992.024c.072-3.264-.072-8.064-.24-10.56a21.074 21.074 0 012.952-.116zM9.072 10.668c.216-.768-.12-1.176-.936-1.32L6.48 9.3a6.036 6.036 0 002.16-2.928c-.288-.264-.888-.96-1.392-.96a.809.809 0 00-.408.12A28.429 28.429 0 015.952 9.3a14.9 14.9 0 00-4.8.72c0 .744.408.96.96 1.152a20.092 20.092 0 016.96-.504zM4.848 7.692a2.028 2.028 0 00-1.992-2.136c0 .312-.072 1.08-.072 1.368 0 .888.432 1.512 1.128 1.512a.843.843 0 00.936-.748zm4.584 5.232a.555.555 0 00-.672-.552 12.864 12.864 0 01-1.9.264l-.048-1.152c-.5-.24-1.272-.552-1.752-.072l-.12 1.416c-1.344.072-3.024-.144-4.08-.192-.384.336-.552 1.008-.336 1.224.36.36 2.928.336 4.176.312A27.449 27.449 0 010 18.684c1.944.432 3.768-1.152 4.968-2.448 0 0-.12 2.52-.12 3.528a1.538 1.538 0 00.7 1.368 2.653 2.653 0 001.032-.12c.144-1.824.216-4.776.288-6.984a9.056 9.056 0 002.184-.48.622.622 0 00.38-.628zm-.24 3.072a1.812 1.812 0 00-2.108-1.588A7.939 7.939 0 008.5 16.952a1.059 1.059 0 00.692-.96zM33.36 2.34c-.072-.744-.624-1.272-1.512-1.632a5.018 5.018 0 00-2.256-.336c.264 1.152 1.3 1.728 2.184 2.52a2.02 2.02 0 001.584-.556zm9.792 9.168a1.1 1.1 0 00-.528-1.54 54.657 54.657 0 00-7.416-.408c0-.624.048-1.176.072-1.776.72 0 1.344.072 2.016.072a1.918 1.918 0 001.32-.36c.312-.264-.072-.864-.264-1.128-1.08 0-2.016-.048-3.1-.048a9.735 9.735 0 01.1-1.728 23.785 23.785 0 015.832.384c.456-.744-.024-1.464-.888-1.632a27.161 27.161 0 00-4.68-.192 33.77 33.77 0 003.576-2.064C38.88.464 37.392.44 36.72.512c-.624.744-1.92 2.568-1.92 2.568a46.948 46.948 0 00-8.52 1.032 2.812 2.812 0 000 1.1c.48.552 1.1.432 1.728.24a16.647 16.647 0 015.088-.744 12.2 12.2 0 01-.072 1.66 15.561 15.561 0 00-3.912.528c-.192.7-.024 1.9.84 1.608a9.585 9.585 0 013.072-.648c-.024.552-.024 1.3-.072 1.776a76.539 76.539 0 00-7.632.912 1.672 1.672 0 00-.408.984c0 .408.24.72.816.6.7-.12 3.12-.6 4.344-.672a21.919 21.919 0 01-2.3 3.912l-2.64 3.6a12.1 12.1 0 006.236-5.4 70.317 70.317 0 00.36 7.512c.192 1.032 1.368.792 1.968 0l.408.192a9.7 9.7 0 013.72-.048 1.122 1.122 0 00.816.408 1.564 1.564 0 001.2-1.056 40.8 40.8 0 00.816-7.008c0-.96-3.72-1.272-4.344-1.272a11.087 11.087 0 00-2.88.264 2.274 2.274 0 00-1.3-.432l.528-1.008a63.892 63.892 0 0110.492.384zm-4.868 2.516c0 2.064-.2 4.536-.268 5.784a13.039 13.039 0 00-4.248.192 33.439 33.439 0 01-.216-6.048 10.188 10.188 0 014.732.072zm-1.42 2.044a1.908 1.908 0 00-.072-.936 1.64 1.64 0 00-.816-.192c-.744 0-1.344.312-1.344.72a.987.987 0 00.456.744 2.6 2.6 0 011.416-.148c.168 0 .312-.048.36-.188zm-.144 2.328a1.259 1.259 0 00-.144-1.056 2.234 2.234 0 00-1.992.12c-.048.432.216 1.008.432 1.056a5.835 5.835 0 011.704-.124zM54.6 2.6a1.567 1.567 0 00-.84-1.584 4.587 4.587 0 00-3.384-.288 1.107 1.107 0 00.36 1.512c.768.24 3.148.84 3.864.36zm13.728 15.792c.192-.336-.672-2.112-1.272-3.312a8.762 8.762 0 01-.84 2.712 9.482 9.482 0 01-4.224.792c-1.508 0-2.208-.576-2.352-1.776a19.907 19.907 0 01.24-4.824 19.02 19.02 0 014.7-.048.96.96 0 00.432.984 1.772 1.772 0 001.7-1.32 27.661 27.661 0 00.7-4.944 2.407 2.407 0 00-.672-1.8c-1.1-.864-7.488-1.152-8.664-.528-.624.336-.144 1.8.624 1.68a22.129 22.129 0 016.432-.12 25.1 25.1 0 01-.408 4.752 13.34 13.34 0 00-4.964-.172 1.536 1.536 0 00-1.676-.38 22.046 22.046 0 00-.2 8.064c.436 1.176 1.66 1.968 3.628 2.064a19.082 19.082 0 004.872-.456 2.842 2.842 0 001.944-1.368zM56.4 5.888a1.172 1.172 0 00-.7-1.536 24.325 24.325 0 00-4.392-.1c-2.3.24-3.456.384-3.456 1.176 0 .408.576 1.08.96.96a20.871 20.871 0 012.64-.576 28.485 28.485 0 014.948.076zm-1.3 2.928c0-.7-.7-1.056-2.016-1.056a7.408 7.408 0 00-2.9.5 1.223 1.223 0 00.36 1.632c.936-.7 3.24-.624 4.032-.408.432.124.528-.284.528-.668zm.028 4.632c.072-.552-.24-1.08-.96-1.608-.648-.024-1.752-.072-2.424-.072-.936 0-1.392.36-1.392 1.008a2.231 2.231 0 00.1.648 38.321 38.321 0 014.676.024zm1.056 3.408c-.408-.864-1.848-1.368-2.9-1.368a3.774 3.774 0 00-2.26.58 1.9 1.9 0 00-1.248-.34c-.408.768-.12 3.072.432 4.512a1.514 1.514 0 00.888.912 1.561 1.561 0 00.84-.884 6.024 6.024 0 002.136-.172 1.311 1.311 0 00.912 1.224 2.5 2.5 0 00.816-1.224 10.146 10.146 0 00.384-3.24zm-2.112 2.232a20.331 20.331 0 01-2.424.048 6.535 6.535 0 01-.288-2.328 5.552 5.552 0 012.808 0 3.9 3.9 0 01-.096 2.28zm37.176-4.3a1.093 1.093 0 00-.72-1.152 4.98 4.98 0 00-1.464-.264 2.869 2.869 0 00-.792-2.5 20.475 20.475 0 00-5.232-.36V9.336a12.2 12.2 0 011.632.072c.216.024.672.336.96.336 1.344 0 1.728-2.808 1.968-3.768a2.06 2.06 0 00-2.04-1.1 24.425 24.425 0 00-2.448-.144V3.58a49.471 49.471 0 016.7.36.889.889 0 00-.264-1.344 43.342 43.342 0 00-6.408-.312 7.126 7.126 0 00-.144-1.728c-.288-.648-1.512-.6-2.112-.5v2.376a65.7 65.7 0 00-7.032.6s-.336.648.024.984a1.292 1.292 0 001.152.312 55.4 55.4 0 015.808-.672v1.2c-1.344.1-2.736.312-2.736.312a6.986 6.986 0 00-1.608-.072 12.908 12.908 0 00.264 3.912c.264.792.72 1.128 1.392 1.032a4.274 4.274 0 00.672-.7 1.085 1.085 0 00.7.192c.36-.024.744-.1 1.272-.12v1.224a32.422 32.422 0 00-5.136.72A1.083 1.083 0 0077 12.436c.888-.1 2.064-.384 3.768-.48l.016 1.372c-3 .216-5.976.5-7.272.768l-.36.744c.288.432.768.7 1.776.528a51.308 51.308 0 015.832-.6V16.4c-1.824.024-3.5.024-4.728.048a1.175 1.175 0 00.384 1.3s3.048.048 4.392 0l.024 1.776a11.947 11.947 0 01-2.76-.168 12.776 12.776 0 012.76 2.352s1.32 0 1.8-.7a11.108 11.108 0 00.408-3.34 42.513 42.513 0 003.624-.264c.264.408.5.6.768.6.408 0 .816-.408 1.128-1.248a10.429 10.429 0 00.384-1.944c.672.12 1.152.12 1.608.168a1.974 1.974 0 00.696-.188zm-5.952-8.736a6.414 6.414 0 01-.336 2.184 8.008 8.008 0 00-1.9-.144l.024-2.136a13.839 13.839 0 012.212.1zm-4.512 2.164c-.552 0-1.416.144-2.088.216a15.288 15.288 0 01-.144-2.28 1.465 1.465 0 00.672.12c.384-.024 1.032-.168 1.56-.168zM87 11.936a7.408 7.408 0 01.024 1.3s-2.424-.1-3.96-.024v-1.396a20.438 20.438 0 013.936.12zm-.216 4.224s-2.448.168-3.744.168v-1.68a34.388 34.388 0 013.912.024 5.6 5.6 0 01-.168 1.488z" fill="#518c03"/></svg>