<svg xmlns="http://www.w3.org/2000/svg" width="91.248" height="21.767" viewBox="0 0 91.248 21.767">
  <path id="blog-h2-title" d="M-35.808-15.528c-.048-.408-.336-.624-.84-.7-.624-.072-2.088-.144-2.784-.144a11.561,11.561,0,0,0-.024-2.232,3.905,3.905,0,0,0-1.44-.408.9.9,0,0,0-.792.36,15.478,15.478,0,0,1,.024,2.352c-.648.024-1.776.168-2.52.288-1.1.192-1.728.576-1.728,1.032a1.184,1.184,0,0,0,.36.744,4.458,4.458,0,0,0,1.512-.288,18.42,18.42,0,0,1,7.392-.144C-36.168-14.544-35.76-15.048-35.808-15.528Zm10.032,5.5c.288-.384-.048-1.008-.384-1.224-2.3-.36-4.872.072-6.84.168.048-1.944-.072-4.584-.072-4.584a13.071,13.071,0,0,0,5.88-1.3,1.423,1.423,0,0,0-.744-1.608,2.05,2.05,0,0,0-1.416-.12,12.194,12.194,0,0,1-3.792,2.472c-.384-.48-1.32-.384-1.848-.216-.1,4.44.072,11.976-1.272,16.7A7.791,7.791,0,0,0-34.392-2.5a33.917,33.917,0,0,0,1.344-7.68,1.8,1.8,0,0,0,.936.456c.48,0,1.224-.048,1.488-.072.048,2.4.144,7.7.144,10.416a1.589,1.589,0,0,0,1.992.024c.072-3.264-.072-8.064-.24-10.56A21.074,21.074,0,0,1-25.776-10.032ZM-36.912-8.9c.216-.768-.12-1.176-.936-1.32l-1.656-.048a6.036,6.036,0,0,0,2.16-2.928c-.288-.264-.888-.96-1.392-.96a.809.809,0,0,0-.408.12,28.429,28.429,0,0,1-.888,3.768,14.9,14.9,0,0,0-4.8.72c0,.744.408.96.96,1.152A20.092,20.092,0,0,1-36.912-8.9Zm-4.224-2.976a2.028,2.028,0,0,0-1.992-2.136c0,.312-.072,1.08-.072,1.368,0,.888.432,1.512,1.128,1.512A.843.843,0,0,0-41.136-11.88Zm4.584,5.232a.555.555,0,0,0-.672-.552,12.864,12.864,0,0,1-1.9.264l-.048-1.152c-.5-.24-1.272-.552-1.752-.072l-.12,1.416c-1.344.072-3.024-.144-4.08-.192-.384.336-.552,1.008-.336,1.224.36.36,2.928.336,4.176.312a27.449,27.449,0,0,1-4.7,4.512c1.944.432,3.768-1.152,4.968-2.448,0,0-.12,2.52-.12,3.528a1.538,1.538,0,0,0,.7,1.368,2.653,2.653,0,0,0,1.032-.12c.144-1.824.216-4.776.288-6.984a9.056,9.056,0,0,0,2.184-.48A.622.622,0,0,0-36.552-6.648Zm-.24,3.072A1.812,1.812,0,0,0-38.9-5.16a7.939,7.939,0,0,0,1.416,2.544A1.059,1.059,0,0,0-36.792-3.576Zm24.168-13.656c-.072-.744-.624-1.272-1.512-1.632a5.018,5.018,0,0,0-2.256-.336c.264,1.152,1.3,1.728,2.184,2.52A2.02,2.02,0,0,0-12.624-17.232Zm9.792,9.168A1.1,1.1,0,0,0-3.36-9.6a54.657,54.657,0,0,0-7.416-.408c0-.624.048-1.176.072-1.776.72,0,1.344.072,2.016.072a1.918,1.918,0,0,0,1.32-.36c.312-.264-.072-.864-.264-1.128-1.08,0-2.016-.048-3.1-.048a9.735,9.735,0,0,1,.1-1.728,23.785,23.785,0,0,1,5.832.384c.456-.744-.024-1.464-.888-1.632a27.161,27.161,0,0,0-4.68-.192A33.77,33.77,0,0,0-6.792-18.48c-.312-.624-1.8-.648-2.472-.576-.624.744-1.92,2.568-1.92,2.568a46.948,46.948,0,0,0-8.52,1.032,2.812,2.812,0,0,0,0,1.1c.48.552,1.1.432,1.728.24a16.647,16.647,0,0,1,5.088-.744A12.2,12.2,0,0,1-12.96-13.2a15.561,15.561,0,0,0-3.912.528c-.192.7-.024,1.9.84,1.608a9.585,9.585,0,0,1,3.072-.648c-.024.552-.024,1.3-.072,1.776a76.539,76.539,0,0,0-7.632.912,1.672,1.672,0,0,0-.408.984c0,.408.24.72.816.6.7-.12,3.12-.6,4.344-.672a21.919,21.919,0,0,1-2.3,3.912l-2.64,3.6A12.1,12.1,0,0,0-14.616-6a70.317,70.317,0,0,0,.36,7.512c.192,1.032,1.368.792,1.968,0l.408.192a9.7,9.7,0,0,1,3.72-.048,1.122,1.122,0,0,0,.816.408,1.564,1.564,0,0,0,1.2-1.056A40.8,40.8,0,0,0-5.328-6c0-.96-3.72-1.272-4.344-1.272a11.087,11.087,0,0,0-2.88.264,2.274,2.274,0,0,0-1.3-.432l.528-1.008A63.892,63.892,0,0,1-2.832-8.064ZM-7.7-5.544C-7.7-3.48-7.9-1.008-7.968.24a13.039,13.039,0,0,0-4.248.192,33.439,33.439,0,0,1-.216-6.048A10.188,10.188,0,0,1-7.7-5.544ZM-9.12-3.5a1.908,1.908,0,0,0-.072-.936,1.64,1.64,0,0,0-.816-.192c-.744,0-1.344.312-1.344.72a.987.987,0,0,0,.456.744A2.6,2.6,0,0,1-9.48-3.312C-9.312-3.312-9.168-3.36-9.12-3.5Zm-.144,2.328a1.259,1.259,0,0,0-.144-1.056,2.234,2.234,0,0,0-1.992.12c-.048.432.216,1.008.432,1.056A5.835,5.835,0,0,1-9.264-1.176ZM8.616-16.968a1.567,1.567,0,0,0-.84-1.584,4.587,4.587,0,0,0-3.384-.288,1.107,1.107,0,0,0,.36,1.512C5.52-17.088,7.9-16.488,8.616-16.968ZM22.344-1.176c.192-.336-.672-2.112-1.272-3.312a8.762,8.762,0,0,1-.84,2.712,9.482,9.482,0,0,1-4.224.792C14.5-.984,13.8-1.56,13.656-2.76a19.907,19.907,0,0,1,.24-4.824,19.02,19.02,0,0,1,4.7-.048.96.96,0,0,0,.432.984,1.772,1.772,0,0,0,1.7-1.32,27.661,27.661,0,0,0,.7-4.944,2.407,2.407,0,0,0-.672-1.8c-1.1-.864-7.488-1.152-8.664-.528-.624.336-.144,1.8.624,1.68a22.129,22.129,0,0,1,6.432-.12,25.1,25.1,0,0,1-.408,4.752A13.34,13.34,0,0,0,13.776-9.1,1.536,1.536,0,0,0,12.1-9.48,22.046,22.046,0,0,0,11.9-1.416C12.336-.24,13.56.552,15.528.648A19.082,19.082,0,0,0,20.4.192,2.842,2.842,0,0,0,22.344-1.176ZM10.416-13.68a1.172,1.172,0,0,0-.7-1.536,24.325,24.325,0,0,0-4.392-.1c-2.3.24-3.456.384-3.456,1.176,0,.408.576,1.08.96.96a20.871,20.871,0,0,1,2.64-.576A28.485,28.485,0,0,1,10.416-13.68Zm-1.3,2.928c0-.7-.7-1.056-2.016-1.056a7.408,7.408,0,0,0-2.9.5,1.223,1.223,0,0,0,.36,1.632c.936-.7,3.24-.624,4.032-.408C9.024-9.96,9.12-10.368,9.12-10.752ZM9.144-6.12c.072-.552-.24-1.08-.96-1.608C7.536-7.752,6.432-7.8,5.76-7.8c-.936,0-1.392.36-1.392,1.008a2.231,2.231,0,0,0,.1.648A38.321,38.321,0,0,1,9.144-6.12ZM10.2-2.712C9.792-3.576,8.352-4.08,7.3-4.08A3.774,3.774,0,0,0,5.04-3.5,1.9,1.9,0,0,0,3.792-3.84c-.408.768-.12,3.072.432,4.512a1.514,1.514,0,0,0,.888.912A1.561,1.561,0,0,0,5.952.7,6.024,6.024,0,0,0,8.088.528,1.311,1.311,0,0,0,9,1.752,2.5,2.5,0,0,0,9.816.528,10.146,10.146,0,0,0,10.2-2.712ZM8.088-.48a20.331,20.331,0,0,1-2.424.048A6.535,6.535,0,0,1,5.376-2.76a5.552,5.552,0,0,1,2.808,0A3.9,3.9,0,0,1,8.088-.48Zm37.176-4.3a1.093,1.093,0,0,0-.72-1.152,4.98,4.98,0,0,0-1.464-.264,2.869,2.869,0,0,0-.792-2.5,20.475,20.475,0,0,0-5.232-.36v-1.176a12.2,12.2,0,0,1,1.632.072c.216.024.672.336.96.336,1.344,0,1.728-2.808,1.968-3.768a2.06,2.06,0,0,0-2.04-1.1,24.425,24.425,0,0,0-2.448-.144v-1.152a49.471,49.471,0,0,1,6.7.36.889.889,0,0,0-.264-1.344,43.342,43.342,0,0,0-6.408-.312,7.126,7.126,0,0,0-.144-1.728c-.288-.648-1.512-.6-2.112-.5v2.376a65.7,65.7,0,0,0-7.032.6s-.336.648.024.984a1.292,1.292,0,0,0,1.152.312,55.4,55.4,0,0,1,5.808-.672v1.2c-1.344.1-2.736.312-2.736.312a6.986,6.986,0,0,0-1.608-.072,12.908,12.908,0,0,0,.264,3.912c.264.792.72,1.128,1.392,1.032a4.274,4.274,0,0,0,.672-.7,1.085,1.085,0,0,0,.7.192c.36-.024.744-.1,1.272-.12v1.224a32.422,32.422,0,0,0-5.136.72,1.083,1.083,0,0,0,1.344,1.08c.888-.1,2.064-.384,3.768-.48L34.8-6.24c-3,.216-5.976.5-7.272.768l-.36.744c.288.432.768.7,1.776.528a51.308,51.308,0,0,1,5.832-.6v1.632c-1.824.024-3.5.024-4.728.048a1.175,1.175,0,0,0,.384,1.3s3.048.048,4.392,0l.024,1.776a11.947,11.947,0,0,1-2.76-.168,12.776,12.776,0,0,1,2.76,2.352s1.32,0,1.8-.7A11.108,11.108,0,0,0,37.056-1.9c1.872-.048,3.624-.264,3.624-.264.264.408.5.6.768.6.408,0,.816-.408,1.128-1.248a10.429,10.429,0,0,0,.384-1.944c.672.12,1.152.12,1.608.168A1.974,1.974,0,0,0,45.264-4.776Zm-5.952-8.736a6.414,6.414,0,0,1-.336,2.184,8.008,8.008,0,0,0-1.9-.144l.024-2.136A13.839,13.839,0,0,1,39.312-13.512ZM34.8-11.352c-.552,0-1.416.144-2.088.216a15.288,15.288,0,0,1-.144-2.28,1.465,1.465,0,0,0,.672.12c.384-.024,1.032-.168,1.56-.168Zm6.216,3.72a7.408,7.408,0,0,1,.024,1.3s-2.424-.1-3.96-.024V-7.752A20.438,20.438,0,0,1,41.016-7.632ZM40.8-3.408s-2.448.168-3.744.168V-4.92a34.388,34.388,0,0,1,3.912.024A5.6,5.6,0,0,1,40.8-3.408Z" transform="translate(45.984 19.568)" fill="#518c03"/>
</svg>
