<svg xmlns="http://www.w3.org/2000/svg" width="114.336" height="57.029" viewBox="0 0 114.336 57.029">
  <path id="card03-text" d="M-46.344-17.136a2.576,2.576,0,0,0-1.872-1.344c-.984,0-.5,1.056-.48,1.656.072,2.064.024,12.216-.144,15.6a20.713,20.713,0,0,1-3.336.072L-50.4-.144c.264.792.96,1.68,1.584,1.68a2.814,2.814,0,0,0,1.32-.408c.912-1.176.936-2.448.936-4.2C-46.584-7.536-46.488-14.5-46.344-17.136ZM-51.24-12a2.448,2.448,0,0,0-2.4-1.488c-.672,3.48-2.184,6.072-3.96,9.12a12.9,12.9,0,0,0,1.56-.816A14.128,14.128,0,0,0-51.24-12Zm12.216,5.952c.048-2.928-2.376-6.672-5.424-7.1a4.264,4.264,0,0,0,.48,1.248,23.453,23.453,0,0,1,2.592,5.76c.216.768.648,1.68,1.488,1.68C-39.312-4.464-39.048-5.016-39.024-6.048ZM-15.768-16.3c0-.312-.528-.624-.984-.7a18.723,18.723,0,0,0-2.736-.216,5.873,5.873,0,0,0-.048-1.608,1.771,1.771,0,0,0-1.992-.24,16.114,16.114,0,0,1-.024,1.824c-1.632-.024-2.976-.024-4.848.072a8.48,8.48,0,0,1,.1-1.464,2.059,2.059,0,0,0-1.848-.408,4.369,4.369,0,0,0-.336,1.992,12.127,12.127,0,0,0-3.84.72,1.364,1.364,0,0,0,.552,1.128,30.6,30.6,0,0,1,3.312-.5,6.542,6.542,0,0,0,.432,1.68,1.138,1.138,0,0,0,1.3-.432A2.715,2.715,0,0,0-26.4-15.84a40.647,40.647,0,0,1,4.8-.1,2.978,2.978,0,0,0,.288,1.512,1.719,1.719,0,0,0,1.368-.24,9.737,9.737,0,0,0,.336-1.152c1.128,0,2.112.168,2.76.192C-16.128-15.6-15.768-15.912-15.768-16.3Zm.84,4.176a2.144,2.144,0,0,0-1.272-.768,25.716,25.716,0,0,0-6.672-.576l.12-1.512a2.211,2.211,0,0,0-2.208-.312l-.1,1.944a35.653,35.653,0,0,0-6.048.768,4.171,4.171,0,0,0-.72-.7s-.7.864-1.176,1.488a2.885,2.885,0,0,0-.768,1.656,1.647,1.647,0,0,0,.408,1.08,1.923,1.923,0,0,0,1.32-.144,3.12,3.12,0,0,0,1.248-2.3,2.7,2.7,0,0,0,.648.024,45.909,45.909,0,0,1,12.168-.408,6.923,6.923,0,0,1-.192,1.608c.744-.384,1.344-.648,1.872-.912A5.109,5.109,0,0,0-14.928-12.12ZM-18.576-3.5c-1.008-1.512-6.576-.816-8.112-.576,0-.192-.024-1.032.024-1.752a1.7,1.7,0,0,0,.936.192,22.22,22.22,0,0,1,3.96-.312l.336.48a1.45,1.45,0,0,0,1.632-1.2,15.164,15.164,0,0,0,.264-3.528,1.653,1.653,0,0,0-.72-.72,17.2,17.2,0,0,0-6.432.168c-.12-.048-.96-.432-1.272-.312-.36.12-.552.7-.6,1.656-.048,1.2-.24,8.76.312,11.064a1.678,1.678,0,0,0,1.9-.624A25.6,25.6,0,0,1-21.1.936c.024.5.264.768.744.768a1.849,1.849,0,0,0,1.44-.816A21.876,21.876,0,0,0-18.576-3.5Zm-2.9-6.36a9.794,9.794,0,0,1-.1,2.616,44.774,44.774,0,0,0-5.016.264c.024-1.368.12-2.472.144-2.664A19.169,19.169,0,0,1-21.48-9.864Zm.768,6.816a13.659,13.659,0,0,1-.144,2.76,23.813,23.813,0,0,0-5.712.1,27.583,27.583,0,0,1-.1-2.76,3.338,3.338,0,0,0,1.176.12A18.906,18.906,0,0,1-23.4-3.12,9.918,9.918,0,0,1-20.712-3.048Zm31.224-9.768a1.717,1.717,0,0,0-.648-1.32A5.47,5.47,0,0,0,8.28-14.4a29.189,29.189,0,0,0-.048-3.84c-.336-.5-1.7-1.416-2.352-.792a44.4,44.4,0,0,1,.1,4.656,29.8,29.8,0,0,0-5.064.384,1.142,1.142,0,0,0,.48,1.464c1.176-.1,2.976-.168,4.656-.24.1,5.616.168,10.776-.12,12.048L3.1-.7C4.2-.12,5.3.408,5.424,1.848,7.176,1.728,7.968.6,8.112-1.176c.216-2.52.264-8.352.144-11.64C9.072-12.816,9.648-12.744,10.512-12.816ZM-.24-12.792c.216-.672.1-1.152-.7-1.32a16.384,16.384,0,0,0-2.616-.264c.048-1.3.072-2.52.24-3.816-.432-.456-1.488-1.128-2.136-.744A39,39,0,0,0-5.736-14.3c-1.56.072-3.024.336-3.84.432a.839.839,0,0,0-.384.7c0,.552.36.96,1.056,1.08a12.89,12.89,0,0,1,2.568-.72,60.965,60.965,0,0,1-4.32,10.032c1.92-.72,3.6-3.528,4.872-6.36,0,0-.024,6.6.024,9.5.024,1.368,1.7,1.776,2.184.912-.144-2.52-.408-7.68-.264-11.448a5.594,5.594,0,0,1,1.08,1.92c.264,1.032.792,1.488,1.248,1.488a2.8,2.8,0,0,0,.984-.48c.024-1.8-.84-2.5-3.288-4.032a10.424,10.424,0,0,1,.168-1.608c.576.048,1.224.12,1.8.192A2.949,2.949,0,0,0-.24-12.792ZM4.44-7.248c.192-1.416-1.464-3.432-3.264-3.072a8.894,8.894,0,0,1,1.3,3.48,1.247,1.247,0,0,0,.984.432A.861.861,0,0,0,4.44-7.248Zm27.384-7.728a1.347,1.347,0,0,0-1.872-1.008c-2.256.312-6.528.528-9.1.624-1.44.048-3.576-.12-4.344-.144a2.126,2.126,0,0,0,1.8,2.064,12.729,12.729,0,0,0,2.232-.168c2.52-.36,5.328-.816,8.016-1.1a23.33,23.33,0,0,0-4.248,3.264A10.29,10.29,0,0,0,21.72-6.456,5.857,5.857,0,0,0,26.784,0c.864.144,2.736.288,3.048-.408-.144-.552-.72-1.344-1.272-1.344A7.314,7.314,0,0,1,25.176-2.4c-1.92-1.152-1.9-4.176-1.008-6.384a9.877,9.877,0,0,1,4.344-4.608C29.352-13.9,31.344-14.568,31.824-14.976Zm.984,6a1.947,1.947,0,0,0-2.232-1.392c.384.72,1.08,2.064,1.848,2.232C32.712-8.208,32.88-8.664,32.808-8.976Zm-2.616.24a2,2,0,0,0-1.944-1.128c.312.648.744,1.7,1.08,2.3C30.36-7.584,30.48-8.16,30.192-8.736ZM56.736-8.4c-.024-4.224-3.744-7.176-7.728-7.152-5.064.048-9.648,3.528-9.624,8.928,0,1.56.936,4.584,2.832,4.512a19.549,19.549,0,0,0,3-1.416c2.16-1.44,3.36-4.944,4.008-7.656.36-1.56.168-2.736-1.416-2.976-.5,3.84-1.08,6.576-3.336,9.888a1.72,1.72,0,0,1-1.488.744c-2.064.024-1.9-2.856-1.68-4.3.552-3.744,3.192-6.744,7.032-6.744a6.167,6.167,0,0,1,6.48,6.456c-.024,3.6-2.4,6.216-5.928,7.1,0,0,.528.024.792.024C53.976-1.032,56.76-3.912,56.736-8.4ZM-26.3,25.632c-.288-.6-1.8-1.008-2.472-1.056a25.5,25.5,0,0,0,.288-6.912c-.744-.768-5.112-.816-7.752-.6-.36-.312-1.416-.264-1.632.264a42.535,42.535,0,0,0,.048,7.2,8.509,8.509,0,0,0-2.04.432c-.576,1.824-.288,7.992-.1,8.784.264.36,1.488.288,1.8.048a80.248,80.248,0,0,1-.048-8.3,1.346,1.346,0,0,0,.672.432,34.77,34.77,0,0,1,9.336.072,32.716,32.716,0,0,1-.24,5.9c-1.1.1-2.664.1-2.664.1.648.456,1.56.96,1.56.96a1.5,1.5,0,0,0,.7,1.128A2.55,2.55,0,0,0-26.808,33,35.689,35.689,0,0,0-26.3,25.632Zm-17.28-4.488a.949.949,0,0,0,1.68-.792A3.662,3.662,0,0,0-44.16,17.88a1.227,1.227,0,0,0-.936.024A13.3,13.3,0,0,1-43.584,21.144Zm13.2-2.712s.1,1.32.1,2.472a10.3,10.3,0,0,0-2.112,0,1.965,1.965,0,0,0-1.608-.1,12.2,12.2,0,0,0-.1,3.48c-.648-.024-1.92.072-1.92.072-.1-1.536-.192-4.824-.1-6.072a5.405,5.405,0,0,0,1.632.12A18.1,18.1,0,0,1-30.384,18.432Zm.072,3.528a20.322,20.322,0,0,1-.144,2.424c-.552,0-1.224-.1-1.992-.1a7.215,7.215,0,0,1,.12-2.4S-31.032,21.888-30.312,21.96Zm4.56,13.752c-.912.048-1.848.072-2.736.072-4.752,0-12.576-1.176-14.04-.864a8.494,8.494,0,0,0,.864-3.24,1.778,1.778,0,0,0-1.752-1.9,12.07,12.07,0,0,1,.7-2.664c.12-.288.552-.648.552-.936a1.792,1.792,0,0,0-1.152-1.392,5,5,0,0,0-3.816.456c-.1.672.048,1.08.432,1.3,1.008-.144,1.392-.672,2.592-.408a21.054,21.054,0,0,0-1.272,4.584,1.08,1.08,0,0,0,.768.768c.168.024.408-.12.648-.384.264-.288.48-.5.888-.36a8.028,8.028,0,0,1-1.632,4.776c-.1.5-.1,1.464.624,1.488.408.024.912-.624,1.272-1.224,1.056-.456,6.888.864,9.528,1.728,1.8.336,5.688.384,6.864-1.224C-26.232,36.1-25.8,36.072-25.752,35.712Zm-4.584-8.3c-.7-1.056-3.648-.7-4.344-.672a1.572,1.572,0,0,0-1.584.144c-.384.624-.312,4.08-.216,4.8a1.79,1.79,0,0,0,1.536-.144.911.911,0,0,0,.1-.456,13.472,13.472,0,0,1,2.784,0,.838.838,0,0,0,.24.48,2.274,2.274,0,0,0,1.44-.288A17.418,17.418,0,0,0-30.336,27.408Zm-1.68.336a11.21,11.21,0,0,1-.048,2.328,17.916,17.916,0,0,0-2.784.024c0-.936.048-1.488.12-2.4A17.3,17.3,0,0,1-32.016,27.744Zm29.3-8.832a1.994,1.994,0,0,0-2.256-1.368c.408.72.912,2.064,1.7,2.208A.839.839,0,0,0-2.712,18.912Zm-2.568.312A2,2,0,0,0-7.224,18.1c.312.624.648,1.8.984,2.4C-5.208,20.472-4.992,19.8-5.28,19.224Zm-2.064,1.944c-.648-1.2-2.808-1.128-4.824-1.128-1.608,0-3.216,0-4.176-.552l-.384.264c.144,1.536,1.3,1.824,2.712,1.824,1.464,0,3.216-.36,4.392-.024-.576.6-2.184,1.872-3.048,2.808l2.952-1.368C-8.448,22.992-6.744,22.3-7.344,21.168Zm2.136,13.488c.12-.5-.816-1.224-1.152-1.176a30.068,30.068,0,0,1-6.384.456c-1.68-.1-4.032-.816-4.392-1.848-.432-1.224.528-3.528.528-3.528-1.752,1.248-2.352,4.272-.6,5.688s5.928,1.632,8.5,1.392C-7.632,35.544-5.352,35.256-5.208,34.656Zm24.744-4.44A5.839,5.839,0,0,0,17.4,25.728a10.674,10.674,0,0,1,.6,3.264,7.243,7.243,0,0,1-.864,3.528A5.823,5.823,0,0,1,12.552,35.5c-2.808,0-3.192-2.4-3.216-4.584a61.98,61.98,0,0,1,.792-8.856c.288-2.04.624-3.312-.648-4.176l-1.512-.288a20.661,20.661,0,0,1,.216,4.08c-.12,2.064-.384,4.128-.48,6.192-.12,2.592.048,5.04.96,6.7a4.4,4.4,0,0,0,4.2,2.16,9.252,9.252,0,0,0,4.3-1.3A6.387,6.387,0,0,0,19.536,30.216Zm26.328-8.208c.144-.768-.408-1.2-1.176-1.584-2.064-.072-5.664-.1-7.488-.048,0,0,.024-2.088.1-2.688-.552-.552-1.8-1.056-2.472-.48-.072.96.048,3.288.048,3.288a70.348,70.348,0,0,0-8.5.984c-.36,1.224.744,1.488,1.7,1.536a61.487,61.487,0,0,1,15.48-.936A9.229,9.229,0,0,0,45.864,22.008ZM42.288,26.04c-.024-.528-.7-1.128-1.2-1.416a22.834,22.834,0,0,0-6.624.168l.216-1.512c-.528-.48-1.512-.984-2.208-.624-.888,6.24-1.992,10.44-4.248,13.8l-.864,1.3a9.451,9.451,0,0,0,4.824-4.512A28.179,28.179,0,0,0,34.272,26.3a22.464,22.464,0,0,1,5.544-.12,39.02,39.02,0,0,1-1.08,8.76l-3.408.12s2.28,1.128,2.5,2.688a3.375,3.375,0,0,0,3.072-2.4A45.086,45.086,0,0,0,42.288,26.04Z" transform="translate(57.6 19.277)" fill="#993a22"/>
</svg>
