<svg xmlns="http://www.w3.org/2000/svg" width="189.024" height="21.996" viewBox="0 0 189.024 21.996">
  <path id="card01-text" d="M-82.344-17.136a2.576,2.576,0,0,0-1.872-1.344c-.984,0-.5,1.056-.48,1.656.072,2.064.024,12.216-.144,15.6a20.713,20.713,0,0,1-3.336.072L-86.4-.144c.264.792.96,1.68,1.584,1.68a2.814,2.814,0,0,0,1.32-.408c.912-1.176.936-2.448.936-4.2C-82.584-7.536-82.488-14.5-82.344-17.136ZM-87.24-12a2.448,2.448,0,0,0-2.4-1.488c-.672,3.48-2.184,6.072-3.96,9.12a12.9,12.9,0,0,0,1.56-.816A14.128,14.128,0,0,0-87.24-12Zm12.216,5.952c.048-2.928-2.376-6.672-5.424-7.1a4.264,4.264,0,0,0,.48,1.248,23.453,23.453,0,0,1,2.592,5.76c.216.768.648,1.68,1.488,1.68C-75.312-4.464-75.048-5.016-75.024-6.048ZM-51.768-16.3c0-.312-.528-.624-.984-.7a18.723,18.723,0,0,0-2.736-.216,5.873,5.873,0,0,0-.048-1.608,1.771,1.771,0,0,0-1.992-.24,16.114,16.114,0,0,1-.024,1.824c-1.632-.024-2.976-.024-4.848.072a8.48,8.48,0,0,1,.1-1.464,2.059,2.059,0,0,0-1.848-.408,4.369,4.369,0,0,0-.336,1.992,12.127,12.127,0,0,0-3.84.72,1.364,1.364,0,0,0,.552,1.128,30.6,30.6,0,0,1,3.312-.5,6.542,6.542,0,0,0,.432,1.68,1.138,1.138,0,0,0,1.3-.432A2.715,2.715,0,0,0-62.4-15.84a40.648,40.648,0,0,1,4.8-.1,2.978,2.978,0,0,0,.288,1.512,1.719,1.719,0,0,0,1.368-.24,9.737,9.737,0,0,0,.336-1.152c1.128,0,2.112.168,2.76.192C-52.128-15.6-51.768-15.912-51.768-16.3Zm.84,4.176a2.144,2.144,0,0,0-1.272-.768,25.716,25.716,0,0,0-6.672-.576l.12-1.512a2.211,2.211,0,0,0-2.208-.312l-.1,1.944a35.653,35.653,0,0,0-6.048.768,4.171,4.171,0,0,0-.72-.7s-.7.864-1.176,1.488a2.885,2.885,0,0,0-.768,1.656,1.647,1.647,0,0,0,.408,1.08,1.923,1.923,0,0,0,1.32-.144,3.12,3.12,0,0,0,1.248-2.3,2.7,2.7,0,0,0,.648.024,45.909,45.909,0,0,1,12.168-.408,6.923,6.923,0,0,1-.192,1.608c.744-.384,1.344-.648,1.872-.912A5.109,5.109,0,0,0-50.928-12.12ZM-54.576-3.5c-1.008-1.512-6.576-.816-8.112-.576,0-.192-.024-1.032.024-1.752a1.7,1.7,0,0,0,.936.192,22.22,22.22,0,0,1,3.96-.312l.336.48a1.45,1.45,0,0,0,1.632-1.2,15.164,15.164,0,0,0,.264-3.528,1.653,1.653,0,0,0-.72-.72,17.2,17.2,0,0,0-6.432.168c-.12-.048-.96-.432-1.272-.312-.36.12-.552.7-.6,1.656-.048,1.2-.24,8.76.312,11.064a1.678,1.678,0,0,0,1.9-.624A25.6,25.6,0,0,1-57.1.936c.024.5.264.768.744.768a1.849,1.849,0,0,0,1.44-.816A21.876,21.876,0,0,0-54.576-3.5Zm-2.9-6.36a9.794,9.794,0,0,1-.1,2.616,44.774,44.774,0,0,0-5.016.264c.024-1.368.12-2.472.144-2.664A19.169,19.169,0,0,1-57.48-9.864Zm.768,6.816a13.659,13.659,0,0,1-.144,2.76,23.813,23.813,0,0,0-5.712.1,27.584,27.584,0,0,1-.1-2.76,3.338,3.338,0,0,0,1.176.12A18.906,18.906,0,0,1-59.4-3.12,9.918,9.918,0,0,1-56.712-3.048Zm31.224-9.768a1.717,1.717,0,0,0-.648-1.32A5.47,5.47,0,0,0-27.72-14.4a29.189,29.189,0,0,0-.048-3.84c-.336-.5-1.7-1.416-2.352-.792a44.4,44.4,0,0,1,.1,4.656,29.8,29.8,0,0,0-5.064.384,1.142,1.142,0,0,0,.48,1.464c1.176-.1,2.976-.168,4.656-.24.1,5.616.168,10.776-.12,12.048L-32.9-.7c1.1.576,2.208,1.1,2.328,2.544,1.752-.12,2.544-1.248,2.688-3.024.216-2.52.264-8.352.144-11.64C-26.928-12.816-26.352-12.744-25.488-12.816Zm-10.752.024c.216-.672.1-1.152-.7-1.32a16.384,16.384,0,0,0-2.616-.264c.048-1.3.072-2.52.24-3.816-.432-.456-1.488-1.128-2.136-.744a39,39,0,0,0-.288,4.632c-1.56.072-3.024.336-3.84.432a.839.839,0,0,0-.384.7c0,.552.36.96,1.056,1.08a12.89,12.89,0,0,1,2.568-.72,60.965,60.965,0,0,1-4.32,10.032c1.92-.72,3.6-3.528,4.872-6.36,0,0-.024,6.6.024,9.5.024,1.368,1.7,1.776,2.184.912-.144-2.52-.408-7.68-.264-11.448a5.594,5.594,0,0,1,1.08,1.92c.264,1.032.792,1.488,1.248,1.488a2.8,2.8,0,0,0,.984-.48c.024-1.8-.84-2.5-3.288-4.032a10.424,10.424,0,0,1,.168-1.608c.576.048,1.224.12,1.8.192A2.949,2.949,0,0,0-36.24-12.792Zm4.68,5.544c.192-1.416-1.464-3.432-3.264-3.072a8.894,8.894,0,0,1,1.3,3.48,1.247,1.247,0,0,0,.984.432A.861.861,0,0,0-31.56-7.248Zm27.24-9.816a2.533,2.533,0,0,0-2.664-1.008,47.424,47.424,0,0,0-11.376.24,2.046,2.046,0,0,0-1.3.576c.024.312.336.624.408.84A89.054,89.054,0,0,0-19.2.552c.288.48.624,1.008,1.056,1.008.84,0,5.208-2.136,6.624-4.44a43.865,43.865,0,0,1-5.616,1.728A95.5,95.5,0,0,1-17.28-12.24a1.635,1.635,0,0,0,.936.312,38.041,38.041,0,0,1,9.1-.336,1.134,1.134,0,0,0,.84.6,1.3,1.3,0,0,0,1.416-.984A19.733,19.733,0,0,0-4.32-17.064Zm-2.424.5a20.889,20.889,0,0,1-.312,2.784,42.883,42.883,0,0,0-10.152.48,24.447,24.447,0,0,1,.384-3.12C-13.8-16.8-10.032-17.208-6.744-16.56ZM-2.5-3.408A8.746,8.746,0,0,1-4.488-.7a13.114,13.114,0,0,1-5.04-7.392c2.208-.12,4.68.144,5.784.072.144-.528-.288-1.008-.672-1.392a50.024,50.024,0,0,0-5.352-.1l-.192-1.608c-.36-.384-1.872-1.08-2.256-.432a12.027,12.027,0,0,0,.264,2.208,22.326,22.326,0,0,0-4.872.912c-.072.288.264.768.528.96,1.08.24,3.192-.216,4.752-.408C-10.56-3.5-7.368.816-4.08,1.752A1.23,1.23,0,0,0-3.216,1.3,16.429,16.429,0,0,0-2.5-3.408ZM20.3-.264c.648-1.632.648-12.072.24-14.112a2.738,2.738,0,0,0-2.472-.96,46.2,46.2,0,0,0-8.328-.144s3.432-2.088,3.432-3.12c0-.528-.96-1.2-1.752-1.2a1.487,1.487,0,0,0-.72.216A23.369,23.369,0,0,1,8.376-15.36a12.84,12.84,0,0,0-3.384.648,1.736,1.736,0,0,0-1.1-.144,3.18,3.18,0,0,0-.408,1.608c-.144,3-.36,10.008.336,12.888.216.912.72,1.344,1.56,1.272a3.9,3.9,0,0,0,.288-2.4,104.229,104.229,0,0,1,.048-12.24,3.177,3.177,0,0,0,1.752.1,48.947,48.947,0,0,1,10.944-.1,93.778,93.778,0,0,1,.024,12.456,20.632,20.632,0,0,1-2.4-.1A5.4,5.4,0,0,0,17.472-.36s.288,1.344.936,1.416A2.772,2.772,0,0,0,20.3-.264ZM15.792-5.328a37.449,37.449,0,0,1,.264-4.512c-1.008-1.776-4.776-1.416-6.48-1.1l-.264.432a1.221,1.221,0,0,0-1.056.048C8.04-8.016,7.968-6.72,7.968-6.5c0,2.232.528,3.336,1.7,3.24a1.365,1.365,0,0,0,.456-.984A15.871,15.871,0,0,1,13.656-4.3a5.011,5.011,0,0,0,.168.72,1.278,1.278,0,0,0,1.632-.192A2.514,2.514,0,0,0,15.792-5.328Zm-5.736-4.2A7.081,7.081,0,0,1,13.8-9.576c-.072,1.2-.12,2.472-.168,3.912a14.316,14.316,0,0,0-3.624.12A36.55,36.55,0,0,1,10.056-9.528ZM45.384-11.28a1.1,1.1,0,0,0-1.2-1.176c-.528.048-1.9.168-2.4.192a28.785,28.785,0,0,0-.192-4.224c-.072-.528-1.392-1.848-2.256-.96a25.584,25.584,0,0,1,.624,5.256c-1.464.048-3.6,0-5.016,0-.336,1.056.432,1.416,1.512,1.44,1.2.024,2.832-.1,3.5-.1A27.359,27.359,0,0,1,37.1,1.368a12.93,12.93,0,0,0,2.784-2.856c1.512-2.4,1.872-6.5,1.92-9.456A13,13,0,0,0,45.384-11.28ZM30.36-3.5c-.984-2.472-.552-6.672-.072-9.912a16.207,16.207,0,0,0,.336-2.736,1.885,1.885,0,0,0-2.016-1.176c.24,3.12-.7,7.416-.48,10.752.1,1.488.912,5.808,2.592,6.048,1.1.144,1.632-1.464.96-2.568.192-.72.744-1.872.912-2.52ZM70.44-9.768c-.048-.624-.792-.888-.792-.888a41.1,41.1,0,0,0-4.8-.264,14.273,14.273,0,0,0,.1-1.632,10.682,10.682,0,0,1,1.7.168,1.022,1.022,0,0,0,.144-1.2,3.886,3.886,0,0,0-1.824-.312l.048-1.656a44.057,44.057,0,0,0,4.416.24c.048-.624-.12-1.056-.648-1.176a18.6,18.6,0,0,0-3.768-.384s-.024-.936-.024-1.368a1.353,1.353,0,0,0-1.416-1.176c-.336,0-.6.12-.624.744-.048.624,0,1.9,0,1.9a28.341,28.341,0,0,0-5.568.768,1.4,1.4,0,0,0,1.224,1.248,27.887,27.887,0,0,1,4.344-.7V-13.8a7.48,7.48,0,0,0-2.9.7c-.024.648.288,1.056.936.96a17.947,17.947,0,0,1,1.968-.288c0,.768.024,1.584.024,1.584a26.453,26.453,0,0,0-6.048.912.756.756,0,0,0,.48.888,1.633,1.633,0,0,0,1.2.192,33.966,33.966,0,0,1,11.568-.312A.842.842,0,0,0,70.44-9.768ZM54.672-18.24a1.714,1.714,0,0,0-1.8-.528c-.552,1.752-.72,14.568-.312,17.592.1.744.312,1.44.84,1.44.624,0,1.032-.744,1.008-1.3A101.034,101.034,0,0,1,54.672-18.24Zm-4.08,9.768a4.749,4.749,0,0,0,.96-3.024A1.991,1.991,0,0,0,50.88-13.1a6.988,6.988,0,0,1-.888,1.68,4.786,4.786,0,0,0-.768,1.416A1.666,1.666,0,0,0,49.848-8.4,1.559,1.559,0,0,0,50.592-8.472Zm4.9-1.3c1.1-.168,1.2-1.176.936-2.04a2.2,2.2,0,0,0-1.848-.72s.12,1.032.168,1.56C54.864-10.32,55.1-9.912,55.488-9.768ZM67.776-5.616c-.1-1.176-.336-1.872-.96-2.16-1.416-.7-4.3-.336-5.568-.024l-.216.7a1.44,1.44,0,0,0-1.08-.12,26.887,26.887,0,0,0-.12,6.936c.144,1.08.6,2.04,1.656,1.752.432-.432.216-1.152.168-1.68A32.494,32.494,0,0,1,61.68-6.7a9.435,9.435,0,0,1,4.1,0,30.44,30.44,0,0,1-.1,6.936c-.864.072-1.824.072-1.824.072s1.224.864,1.344,1.776A2.152,2.152,0,0,0,67.416.576,31.667,31.667,0,0,0,67.776-5.616Zm-2.76,1.632a1.057,1.057,0,0,0-.072-.864,4.161,4.161,0,0,0-2.3-.072c-.1.648,0,1.032.312,1.2A14.262,14.262,0,0,0,65.016-3.984Zm-.408,1.512c-.576-.192-1.872-.216-1.968.408a.787.787,0,0,0,.384.744,4,4,0,0,1,1.512,0C65.064-1.536,64.944-2.136,64.608-2.472ZM84.288-10.1c.168-.48.264-1.032-.336-1.32a13.878,13.878,0,0,0-3.5-.432l.072-2.352a20.41,20.41,0,0,1,2.5.168,1.227,1.227,0,0,0,.456-.744c-.312-.7-2.088-.84-2.928-.816.048-.888.192-1.7.192-2.208,0-1.032-1.68-1.344-2.208-.912a31.164,31.164,0,0,0-.1,3.216c-.576.024-1.44.144-2.16.216A1.532,1.532,0,0,0,74.9-14.5a1.442,1.442,0,0,0,1.248.72,15.167,15.167,0,0,0,2.3-.336c0,.72.048,2.328.048,2.328a23.618,23.618,0,0,0-5.088.792,1.572,1.572,0,0,0-.192,1.248,1.158,1.158,0,0,0,.792.288,25.288,25.288,0,0,1,2.5-.672l.168,1.464c.048.456.12,1.176.768,1.176a1.344,1.344,0,0,0,1.152-1.1,5.591,5.591,0,0,1-1.008-1.728A21.072,21.072,0,0,1,84.288-10.1ZM95.424.024A16.3,16.3,0,0,1,91.7-3.144a21.113,21.113,0,0,0,2.112-5.28c-1.392-1.344-5.3-1.128-7.1-.768,0-3.864.048-6.264.024-8.16a2.156,2.156,0,0,0,.984.288,15,15,0,0,1,3.1-.168,19.475,19.475,0,0,1-.1,4.752l-2.5.12A3.021,3.021,0,0,1,90.6-10.488a2.317,2.317,0,0,0,1.9-1.152c.576-1.608,1.008-5.232-.072-6.816-2.04-.36-4.512-.48-6.072.312a1.73,1.73,0,0,0-1.632-.168c.048,3.72.048,13.3.024,19.344a1.312,1.312,0,0,0,1.872.312c.1-1.992.072-6.384.072-9.24a25.853,25.853,0,0,1,4.776-.072,16.4,16.4,0,0,1-1.176,3.576C89.472-5.208,87.6-7.176,87.6-7.176a10.208,10.208,0,0,0,2.016,4.32A20.987,20.987,0,0,1,87.24.936,8.749,8.749,0,0,0,90.7-1.584,12.727,12.727,0,0,0,93.864,1.56C94.2.84,94.584.144,95.424.024ZM83.3-5.856c.312-.384.072-.936-.168-1.3-1.488-.072-2.52-.1-2.52-.1s2.4-1.224,2.28-2.064c-.048-.5-.84-.792-1.752-.72a25.731,25.731,0,0,1-1.176,2.784c-1.392.048-2.856.192-4.248.36-.312.12-.7.336-.7.72a.97.97,0,0,0,.864.816,27.207,27.207,0,0,1,2.736-.48l-.072,2.256a20.436,20.436,0,0,0-3.312.624,1.183,1.183,0,0,0,1.368,1.2s1.224-.288,1.992-.384c0,1.176.072,2.184.192,3.888a1.1,1.1,0,0,0,1.8-.048c-.048-1.44-.1-3-.072-4.008.96.024,1.68.192,2.256-.144.216-.192.12-.648.12-.648a3.54,3.54,0,0,0-2.4-.672,14.324,14.324,0,0,1,.1-1.656,1.376,1.376,0,0,0-.528-.552C81.36-6.072,82.44-5.784,83.3-5.856Z" transform="translate(93.6 19.8)" fill="#993a22"/>
</svg>
