<svg xmlns="http://www.w3.org/2000/svg" width="131.643" height="52.195" viewBox="0 0 131.643 52.195">
  <path id="card02-text" d="M-46.344-17.136a2.576,2.576,0,0,0-1.872-1.344c-.984,0-.5,1.056-.48,1.656.072,2.064.024,12.216-.144,15.6a20.713,20.713,0,0,1-3.336.072L-50.4-.144c.264.792.96,1.68,1.584,1.68a2.814,2.814,0,0,0,1.32-.408c.912-1.176.936-2.448.936-4.2C-46.584-7.536-46.488-14.5-46.344-17.136ZM-51.24-12a2.448,2.448,0,0,0-2.4-1.488c-.672,3.48-2.184,6.072-3.96,9.12a12.9,12.9,0,0,0,1.56-.816A14.128,14.128,0,0,0-51.24-12Zm12.216,5.952c.048-2.928-2.376-6.672-5.424-7.1a4.264,4.264,0,0,0,.48,1.248,23.453,23.453,0,0,1,2.592,5.76c.216.768.648,1.68,1.488,1.68C-39.312-4.464-39.048-5.016-39.024-6.048ZM-15.768-16.3c0-.312-.528-.624-.984-.7a18.723,18.723,0,0,0-2.736-.216,5.873,5.873,0,0,0-.048-1.608,1.771,1.771,0,0,0-1.992-.24,16.114,16.114,0,0,1-.024,1.824c-1.632-.024-2.976-.024-4.848.072a8.48,8.48,0,0,1,.1-1.464,2.059,2.059,0,0,0-1.848-.408,4.369,4.369,0,0,0-.336,1.992,12.127,12.127,0,0,0-3.84.72,1.364,1.364,0,0,0,.552,1.128,30.6,30.6,0,0,1,3.312-.5,6.542,6.542,0,0,0,.432,1.68,1.138,1.138,0,0,0,1.3-.432A2.715,2.715,0,0,0-26.4-15.84a40.647,40.647,0,0,1,4.8-.1,2.978,2.978,0,0,0,.288,1.512,1.719,1.719,0,0,0,1.368-.24,9.737,9.737,0,0,0,.336-1.152c1.128,0,2.112.168,2.76.192C-16.128-15.6-15.768-15.912-15.768-16.3Zm.84,4.176a2.144,2.144,0,0,0-1.272-.768,25.716,25.716,0,0,0-6.672-.576l.12-1.512a2.211,2.211,0,0,0-2.208-.312l-.1,1.944a35.653,35.653,0,0,0-6.048.768,4.171,4.171,0,0,0-.72-.7s-.7.864-1.176,1.488a2.885,2.885,0,0,0-.768,1.656,1.647,1.647,0,0,0,.408,1.08,1.923,1.923,0,0,0,1.32-.144,3.12,3.12,0,0,0,1.248-2.3,2.7,2.7,0,0,0,.648.024,45.909,45.909,0,0,1,12.168-.408,6.923,6.923,0,0,1-.192,1.608c.744-.384,1.344-.648,1.872-.912A5.109,5.109,0,0,0-14.928-12.12ZM-18.576-3.5c-1.008-1.512-6.576-.816-8.112-.576,0-.192-.024-1.032.024-1.752a1.7,1.7,0,0,0,.936.192,22.22,22.22,0,0,1,3.96-.312l.336.48a1.45,1.45,0,0,0,1.632-1.2,15.164,15.164,0,0,0,.264-3.528,1.653,1.653,0,0,0-.72-.72,17.2,17.2,0,0,0-6.432.168c-.12-.048-.96-.432-1.272-.312-.36.12-.552.7-.6,1.656-.048,1.2-.24,8.76.312,11.064a1.678,1.678,0,0,0,1.9-.624A25.6,25.6,0,0,1-21.1.936c.024.5.264.768.744.768a1.849,1.849,0,0,0,1.44-.816A21.876,21.876,0,0,0-18.576-3.5Zm-2.9-6.36a9.794,9.794,0,0,1-.1,2.616,44.774,44.774,0,0,0-5.016.264c.024-1.368.12-2.472.144-2.664A19.169,19.169,0,0,1-21.48-9.864Zm.768,6.816a13.659,13.659,0,0,1-.144,2.76,23.813,23.813,0,0,0-5.712.1,27.583,27.583,0,0,1-.1-2.76,3.338,3.338,0,0,0,1.176.12A18.906,18.906,0,0,1-23.4-3.12,9.918,9.918,0,0,1-20.712-3.048Zm31.224-9.768a1.717,1.717,0,0,0-.648-1.32A5.47,5.47,0,0,0,8.28-14.4a29.189,29.189,0,0,0-.048-3.84c-.336-.5-1.7-1.416-2.352-.792a44.4,44.4,0,0,1,.1,4.656,29.8,29.8,0,0,0-5.064.384,1.142,1.142,0,0,0,.48,1.464c1.176-.1,2.976-.168,4.656-.24.1,5.616.168,10.776-.12,12.048L3.1-.7C4.2-.12,5.3.408,5.424,1.848,7.176,1.728,7.968.6,8.112-1.176c.216-2.52.264-8.352.144-11.64C9.072-12.816,9.648-12.744,10.512-12.816ZM-.24-12.792c.216-.672.1-1.152-.7-1.32a16.384,16.384,0,0,0-2.616-.264c.048-1.3.072-2.52.24-3.816-.432-.456-1.488-1.128-2.136-.744A39,39,0,0,0-5.736-14.3c-1.56.072-3.024.336-3.84.432a.839.839,0,0,0-.384.7c0,.552.36.96,1.056,1.08a12.89,12.89,0,0,1,2.568-.72,60.965,60.965,0,0,1-4.32,10.032c1.92-.72,3.6-3.528,4.872-6.36,0,0-.024,6.6.024,9.5.024,1.368,1.7,1.776,2.184.912-.144-2.52-.408-7.68-.264-11.448a5.594,5.594,0,0,1,1.08,1.92c.264,1.032.792,1.488,1.248,1.488a2.8,2.8,0,0,0,.984-.48c.024-1.8-.84-2.5-3.288-4.032a10.424,10.424,0,0,1,.168-1.608c.576.048,1.224.12,1.8.192A2.949,2.949,0,0,0-.24-12.792ZM4.44-7.248c.192-1.416-1.464-3.432-3.264-3.072a8.894,8.894,0,0,1,1.3,3.48,1.247,1.247,0,0,0,.984.432A.861.861,0,0,0,4.44-7.248Zm26.04,0a3.242,3.242,0,0,0-1.968-3.216,9.048,9.048,0,0,0-3.936-.48c-1.512.048-5.472.72-7.608.7,0,0,.648,1.992,1.728,1.824,1.68-.264,3.312-.888,5.016-1.128,2.3-.336,4.776-.1,5.3,1.56.456,1.392-.624,3.168-1.392,3.768a13.312,13.312,0,0,1-7.632,2.712c.6.816,2.592.816,3.168.744C26.664-1.2,30.48-2.928,30.48-7.248Zm25.1-7.728a1.382,1.382,0,0,0-1.872-1.056c-2.256.312-6.528.576-9.1.672-1.44.048-3.576-.12-4.344-.144a2.175,2.175,0,0,0,1.8,2.112A12.729,12.729,0,0,0,44.3-13.56l8.016-1.152a23.33,23.33,0,0,0-4.248,3.264A10.29,10.29,0,0,0,45.48-6.456,5.857,5.857,0,0,0,50.544,0c.864.144,2.736.288,3.048-.408-.144-.552-.576-1.416-1.128-1.416a7.314,7.314,0,0,1-3.384-.648c-1.92-1.152-1.968-4.1-1.08-6.312a9.733,9.733,0,0,1,4.272-4.608C53.112-13.9,55.1-14.568,55.584-14.976ZM-53.952,30.9c-.5-1.1-1.272-.864-2.328-.576-1.488.384-5.112.7-6.264-.192-.912-.7-.7-2.52-.192-3.408a21.044,21.044,0,0,1,4.056-4.464c.648-.576,4.512-3.576,4.536-3.984.048-.888-.888-1.344-1.656-1.536l-.192.792c-1.344,1.416-3.048,3.144-4.632,4.608a27.174,27.174,0,0,1-1.08-7.584c-.192-.912-2.208-1.056-2.616-.912,0,0,.576,1.128.72,1.512a37.126,37.126,0,0,1,.72,4.2,14.291,14.291,0,0,0,1.128,3.72c-1.1,1.176-2.9,2.664-2.784,5.04a5.086,5.086,0,0,0,.888,2.544,6.578,6.578,0,0,0,5.64,1.92C-56.3,32.456-54.24,32.168-53.952,30.9Zm4.1-15.768A1.994,1.994,0,0,0-52.1,13.76c.408.72.912,2.064,1.7,2.208A.839.839,0,0,0-49.848,15.128Zm-2.712.336A2,2,0,0,0-54.5,14.336c.312.624.648,1.8.984,2.4C-52.488,16.712-52.272,16.04-52.56,15.464Zm24.24,9.84a4.166,4.166,0,0,0-.864-1.824l-.672-.744c.744,2.592.072,5.592-1.56,6.672-.72.48-1.92,1.128-2.736.456-.72-1.824.072-4.488-1.1-5.664-1.32-1.344-3.36-.48-4.776.5.1-.528,4.032-6.72,4.848-9.024-.12-.408-1.032-.912-1.656-1.032a24.748,24.748,0,0,1-1.776,3.984c-2.04,4.008-4.272,7.728-5.424,12.5a2.328,2.328,0,0,0,1.3.672c.216-.36.768-2.136,1.128-2.9.72-1.56,1.3-3.168,2.688-3.864A3.147,3.147,0,0,1-36.72,24.7c.84.456.6,3.288.792,4.776.168,1.344.792,2.136,1.776,2.28a5.859,5.859,0,0,0,5.232-2.424A7.424,7.424,0,0,0-28.32,25.3Zm17.52-7.848c-.1-.984-.6-1.176-1.224-1.128-.72.072-1.8.432-2.376.5.216-.624.7-1.68.96-2.3,0,0-.864-1.08-1.7-.96-.288.888-.72,2.424-1.008,3.48-.744.1-2.5.192-3.144.216-.168.5.168,1.032.864,1.176a6.51,6.51,0,0,0,1.824.12c-.744,1.944-2.16,5.52-2.928,7.9,0,0,.912,1.272,1.656.792.768-2.664,2.088-6.456,2.952-8.856A13.263,13.263,0,0,0-10.8,17.456Zm6.456,2.256c-.264-1.248-2.4-2.256-3.864-1.848A11.929,11.929,0,0,1-6.1,20.432,30.978,30.978,0,0,1-8.76,22.16c-1.008,1.1-.912,3.216-1.008,5.232-2.3-.168-4.8.432-5.784,1.752a1.661,1.661,0,0,0,0,2.112c1.32,1.368,4.272,1.584,5.856.72A3.258,3.258,0,0,0-8.088,29.36a18.812,18.812,0,0,1,3.48,1.728c.864.12.5-1.776-.072-2.112a13.561,13.561,0,0,0-3.408-1.344c.024-1.224-.168-4.032-.072-5.016C-6.84,22.5-3.888,21.824-4.344,19.712Zm-5.52,9.168c-.024,1.368-.744,2.64-2.232,2.568-1.008-.048-2.232-.744-1.536-1.824C-12.792,28.352-11.232,28.616-9.864,28.88Zm27.912,1.992c-.5-1.1-1.272-.84-2.328-.552-1.488.384-5.112.7-6.264-.192-.912-.7-.7-2.52-.192-3.408.816-1.464,2.712-3.048,4.2-4.392.648-.576,4.536-3.528,4.56-3.936.048-.888-1.056-1.464-1.824-1.656l-.192.792c-1.344,1.416-3.048,3.144-4.632,4.608a27.152,27.152,0,0,1-1.128-7.584c-.192-.912-2.184-1.056-2.592-.912,0,0,.576,1.128.72,1.512a37.361,37.361,0,0,1,.7,4.2,14.166,14.166,0,0,0,1.176,3.72c-1.1,1.176-2.9,2.664-2.784,5.04a4.814,4.814,0,0,0,.912,2.448,6.571,6.571,0,0,0,5.616,1.992C15.7,32.432,17.76,32.144,18.048,30.872ZM41.016,17c-.648-1.2-2.808-1.128-4.824-1.128-1.608,0-3.216,0-4.176-.552l-.384.336c.144,1.536,1.3,1.824,2.712,1.824,1.464,0,3.216-.36,4.392-.024-.576.6-2.184,1.872-3.048,2.808L38.64,18.9C39.912,18.9,41.616,18.128,41.016,17Zm2.136,13.608c.12-.5-.816-1.272-1.152-1.224a30.068,30.068,0,0,1-6.384.456c-1.68-.1-4.032-.816-4.392-1.848-.432-1.224.528-3.528.528-3.528-1.752,1.248-2.352,4.32-.6,5.736s5.928,1.632,8.5,1.392C40.728,31.5,43.008,31.208,43.152,30.608Zm23.928-4.2a4.473,4.473,0,0,0-3.264-3.864,11.368,11.368,0,0,0-6.36,1.032,61.857,61.857,0,0,1,5.808-7.632l-1.92-.936a57.9,57.9,0,0,1-5.808.576c-.312.192.1,1.176.48,1.8l4.56-.912c-1.7,2.328-5.184,7.248-6.936,9.864.144.36.648,1.272,1.2,1.344l.5-.72a8.071,8.071,0,0,1,7.7-3.288c1.56.168,2.088,1.44,2.088,2.808a5.224,5.224,0,0,1-2.088,3.936,13.343,13.343,0,0,1-4.968,1.92l-1.176.24a9.757,9.757,0,0,0,9.312-2.592A6.387,6.387,0,0,0,67.08,26.408Z" transform="translate(64.542 19.277)" fill="#993a22"/>
</svg>
