<svg xmlns="http://www.w3.org/2000/svg" width="160.402" height="51.929"><path d="M45.216 2.141A2.576 2.576 0 0043.344.797c-.984 0-.5 1.056-.48 1.656.072 2.064.024 12.216-.144 15.6a20.713 20.713 0 01-3.336.072l1.776 1.008c.264.792.96 1.68 1.584 1.68a2.814 2.814 0 001.32-.408c.912-1.176.936-2.448.936-4.2-.024-4.464.072-11.428.216-14.064zM40.32 7.277a2.448 2.448 0 00-2.4-1.488c-.672 3.48-2.184 6.072-3.96 9.12a12.9 12.9 0 001.56-.816 14.128 14.128 0 004.8-6.816zm12.216 5.952c.048-2.928-2.376-6.672-5.424-7.1a4.264 4.264 0 00.48 1.248 23.453 23.453 0 012.592 5.76c.216.768.648 1.68 1.488 1.68.576-.004.84-.556.864-1.588zM75.792 2.977c0-.312-.528-.624-.984-.7a18.723 18.723 0 00-2.736-.216 5.873 5.873 0 00-.048-1.608 1.771 1.771 0 00-1.992-.24 16.114 16.114 0 01-.024 1.824 67.235 67.235 0 00-4.848.072 8.48 8.48 0 01.1-1.464 2.059 2.059 0 00-1.848-.408 4.369 4.369 0 00-.336 1.992 12.127 12.127 0 00-3.84.72 1.364 1.364 0 00.552 1.128 30.6 30.6 0 013.312-.5 6.542 6.542 0 00.432 1.68 1.138 1.138 0 001.3-.432 2.715 2.715 0 00.328-1.388 40.647 40.647 0 014.8-.1 2.978 2.978 0 00.288 1.512 1.719 1.719 0 001.368-.24 9.737 9.737 0 00.336-1.152c1.128 0 2.112.168 2.76.192.72.028 1.08-.284 1.08-.672zm.84 4.176a2.144 2.144 0 00-1.272-.764 25.716 25.716 0 00-6.672-.576l.12-1.512a2.211 2.211 0 00-2.208-.312l-.1 1.944a35.653 35.653 0 00-6.048.768 4.171 4.171 0 00-.72-.7s-.7.864-1.176 1.488a2.885 2.885 0 00-.768 1.656 1.647 1.647 0 00.408 1.08 1.923 1.923 0 001.32-.144 3.12 3.12 0 001.248-2.3 2.7 2.7 0 00.648.024 45.909 45.909 0 0112.172-.408 6.923 6.923 0 01-.192 1.608c.744-.384 1.344-.648 1.872-.912a5.109 5.109 0 001.368-.936zm-3.648 8.624c-1.008-1.512-6.576-.816-8.112-.576 0-.192-.024-1.032.024-1.752a1.7 1.7 0 00.936.192 22.22 22.22 0 013.96-.312l.336.48a1.45 1.45 0 001.632-1.204 15.164 15.164 0 00.264-3.528 1.653 1.653 0 00-.72-.72 17.2 17.2 0 00-6.432.168c-.12-.048-.96-.432-1.272-.312-.36.12-.552.7-.6 1.656-.048 1.2-.24 8.76.312 11.064a1.678 1.678 0 001.9-.624 25.6 25.6 0 015.248-.096c.024.5.264.768.744.768a1.849 1.849 0 001.444-.816 21.876 21.876 0 00.336-4.388zm-2.9-6.36a9.794 9.794 0 01-.1 2.616 44.774 44.774 0 00-5.016.264 33.32 33.32 0 01.144-2.664 19.169 19.169 0 014.968-.22zm.768 6.816a13.659 13.659 0 01-.144 2.76 23.813 23.813 0 00-5.712.1 27.583 27.583 0 01-.1-2.76 3.338 3.338 0 001.176.12 18.906 18.906 0 012.088-.296 9.918 9.918 0 012.688.072zm31.224-9.768a1.717 1.717 0 00-.648-1.32 5.47 5.47 0 00-1.588-.268 29.189 29.189 0 00-.048-3.84c-.336-.5-1.7-1.416-2.352-.792a44.4 44.4 0 01.1 4.656 29.8 29.8 0 00-5.064.384 1.142 1.142 0 00.48 1.464c1.176-.1 2.976-.168 4.656-.24.1 5.616.168 10.776-.12 12.048l-2.832.02c1.1.576 2.208 1.1 2.328 2.544 1.752-.12 2.544-1.248 2.688-3.024.216-2.52.264-8.352.144-11.64.812.004 1.388.076 2.252.004zm-10.752.024c.216-.672.1-1.152-.7-1.32a16.384 16.384 0 00-2.616-.264c.048-1.3.072-2.52.24-3.816-.432-.456-1.488-1.128-2.136-.744a39 39 0 00-.288 4.632c-1.56.072-3.024.336-3.84.432a.839.839 0 00-.384.7c0 .552.36.96 1.056 1.08a12.89 12.89 0 012.568-.72 60.965 60.965 0 01-4.32 10.024c1.92-.72 3.6-3.528 4.872-6.36 0 0-.024 6.6.024 9.5.024 1.368 1.7 1.776 2.184.912-.144-2.52-.408-7.68-.264-11.448a5.594 5.594 0 011.08 1.92c.264 1.032.792 1.488 1.248 1.488a2.8 2.8 0 00.984-.48c.024-1.8-.84-2.5-3.288-4.032a10.424 10.424 0 01.168-1.608c.576.048 1.224.12 1.8.192a2.949 2.949 0 001.608-.092zm4.68 5.544c.192-1.416-1.464-3.432-3.264-3.072a8.894 8.894 0 011.3 3.48 1.247 1.247 0 00.984.432.861.861 0 00.976-.844zm19.848-5.688a19.356 19.356 0 00.72-4.056 2.061 2.061 0 00-2.592-.24l.12.768c-.988 9.212-7.42 17.348-7.42 17.348 4.152-.936 7.656-8.376 8.64-12 0 0 2.088 6.888 5.616 10.8a2.825 2.825 0 001.824.984 2.677 2.677 0 001.608-.792 2.309 2.309 0 01.936-.408c-3.312-2.208-8.208-7.464-9.456-12.408zm-99.46 28.372c.216-1.008-1.056-2.376-2.712-2.064-1.632.288-1.848 2.856-.384 3.7a2.1 2.1 0 003.096-1.636zm-.912.024c-.168.888-.912 1.56-1.728 1.032a1.326 1.326 0 01.24-2.352 1.277 1.277 0 011.488 1.32zm-.528 4.968c.024-.528.024-1.128-.264-1.344a31.929 31.929 0 00-5.472-.336c0-1.1.024-2.856-.1-4.032-.792-.072-1.728.12-1.992.648.1.888.12 2.328.144 3.456a35.813 35.813 0 00-6.888.912c.144.576.312 1.176.792 1.392a31.491 31.491 0 016.172-1.028c.048 2.976.1 6.84-.168 10.248l-2.3.072a4.3 4.3 0 012.184 2.132 1.886 1.886 0 001.992-1.416 109.246 109.246 0 00.188-11.136 39.155 39.155 0 015.712.432zm-9.408 3.552a2.122 2.122 0 00-1.632-1.248C2.904 43.837.984 46.501 0 47.893a10.336 10.336 0 005.544-4.632zm9.552 2.256c-.1-1.2-2.616-2.832-4.056-3 .264 1.176 2.256 3.912 3.528 4.464.292.12.576-.936.528-1.464zm23.164-9.14c0-.36-.648-.936-.984-1.224-1.92 1.488-4.7 3.456-7.1 5.112-.84.576-6.408 3.648-6.672 4.2 1.008.192 6.12-1.944 7.92-3.048-.1 3.216-.12 6.7.072 9.648a1.36 1.36 0 001.68.192c.072-2.376.048-6.912.072-8.712 0-.792.024-1.608.024-1.608l-.264-.408c.808-.532 5.252-3.436 5.252-4.152zm16.776 1.8c-.672-1.512-3.12-3.264-5.232-2.208 1.008.744 2.688 2.664 3.984 3.84zm9.524 2.732s-2.352 1.9-3.7 2.736a53.321 53.321 0 01-11.52 5.3 4.538 4.538 0 00.6 1.968c6.004-1.556 13.276-5.736 14.62-10.004zm21.072 2.952c-.24-.72-1.272-1.128-1.872-1.368a21.979 21.979 0 00-4.488-1.056c.072-1.944.24-4.536.36-6.5a1.981 1.981 0 00-1.9.144 94.117 94.117 0 00-.1 16.7 2.159 2.159 0 001.7-.072c-.024-2.784-.24-6.5-.072-9.648a25.7 25.7 0 015.28 2.9c1.044.748 1.212-.716 1.092-1.1zm24.84-4.848c-1.392-.816-4.152-.864-6.12-.888.24-.984.552-2.088.792-3.072a4.032 4.032 0 00-1.9-.624c-.24.984-.672 2.88-.936 3.744a27.009 27.009 0 00-5.736.5 1.1 1.1 0 00.384 1.2c1.464-.12 3.144-.336 5.04-.36a53.48 53.48 0 01-4.9 11.616c2.592-.528 5.184-5.688 6.912-11.64a18.4 18.4 0 014.512.288 43.42 43.42 0 01-2.016 8.928l-2.472.024a9.158 9.158 0 012.232 1.872c1.152-.1 2.112-1.488 2.352-2.232a39.422 39.422 0 001.856-9.356zm25.128 3.744c.6-.36.456-1.1 0-1.776a74.588 74.588 0 00-15.7 0 2.151 2.151 0 00.648 2.3 3.342 3.342 0 01.912-.384c2.548-.452 11.212-.212 14.14-.14zm22.008 1.1c-.24-.72-1.248-1.152-1.848-1.368a21.3 21.3 0 00-4.464-1.032c.072-1.92.24-4.488.36-6.432a2.043 2.043 0 00-1.92.12 94.515 94.515 0 00-.1 16.536 2.445 2.445 0 001.728-.072c-.024-2.736-.24-6.432-.072-9.552a25.777 25.777 0 015.208 2.928c1.012.748 1.228-.764 1.108-1.124zm2.784-5.376a1.994 1.994 0 00-2.256-1.368c.408.72.912 2.064 1.7 2.208a.839.839 0 00.556-.836zm-2.712.336a2 2 0 00-1.944-1.128c.312.624.648 1.8.984 2.4 1.032-.02 1.248-.692.96-1.268z" fill="#993a22"/></svg>