<svg xmlns="http://www.w3.org/2000/svg" width="168.998" height="18.312" viewBox="0 0 168.998 18.312">
  <g id="facebook-h3-title" transform="translate(-563 -2968.006)">
    <path id="パス_42200" data-name="パス 42200" d="M12.384-14.856a1.681,1.681,0,0,0,0-1.44,13.37,13.37,0,0,0-4.416-.552c-2.112.048-4.248.432-5.328,1.272.048,4.512.192,9.12.408,13.8.48.432,1.2,1.1,1.944.84.24-1.8,0-5.376,0-7.248a19.457,19.457,0,0,1,3.72-.192c1.152,0,1.68-.048,1.728-.936.048-.96-1.08-.984-2.4-.984a18.967,18.967,0,0,0-3.12.24,28.193,28.193,0,0,1,.072-4.512A36.448,36.448,0,0,1,12.384-14.856ZM28.368-1.824c.024-.48-.336-.72-.84-.96-.432-.216-.912-.408-1.056-.768a8.4,8.4,0,0,1-.144-3.72,9.182,9.182,0,0,0,0-3.24c-.384-1.8-2.112-2.784-3.984-2.9-1.488-.1-4.152.1-4.2,2.16a11.256,11.256,0,0,0,3.408-.192c1.536-.144,2.832.1,2.664,2.52a17.649,17.649,0,0,0-4.92.576,4.035,4.035,0,0,0-2.352,4.344c.312,1.968,2.3,2.952,4.488,2.928a6.781,6.781,0,0,0,3.384-.888c.1.432,1.2.96,2.16,1.032C27.744-.864,28.344-1.08,28.368-1.824Zm-4.3-1.944a5.062,5.062,0,0,1-4.344.648,2.237,2.237,0,0,1,.648-3.5,6.493,6.493,0,0,1,3.7-.456A18.9,18.9,0,0,0,24.072-3.768Zm19.7-1.9c-1.056-.312-1.536.336-2.112.936A4.061,4.061,0,0,1,39.24-2.952a3.767,3.767,0,0,1-4.656-3.72c-.1-2.592,1.632-5.4,4.272-5.088a4.49,4.49,0,0,1,2.16,1.128c.984.432,1.944.552,2.04-.552.048-.5-1.44-1.776-2.76-2.16a6.218,6.218,0,0,0-6.408,1.584,8.531,8.531,0,0,0-1.512,4.824c.048,3.72,2.9,6.792,7.488,5.9C41.784-1.416,44.3-3.408,43.776-5.664ZM59.952-3.888c-.24-1.152-1.056-.552-2.184.024a7.122,7.122,0,0,1-3.048.984c-1.944.072-3.984-.792-4.272-3.192,2.064-.24,5.04-.6,6.5-.888.864-.168,1.872-.216,2.256-1.272.384-1.032-.768-3.48-2.016-4.344a6.478,6.478,0,0,0-6.528.144,6.832,6.832,0,0,0-2.616,5.5A6.013,6.013,0,0,0,50.736-1.92a7.309,7.309,0,0,0,4.992.936C56.928-1.152,60.288-2.3,59.952-3.888ZM56.88-8.88a35.377,35.377,0,0,1-6.5.864c-.1-1.608,1.872-3.336,3.48-3.528A2.827,2.827,0,0,1,56.88-8.88ZM74.688-2.448C76.8-4.68,76.752-10.008,74.4-12c-2.16-1.824-5.4-1.056-7.512.288.12-1.584.144-3.288.312-4.8-1.128-1.656-2.616-.312-2.376,2.04a84.948,84.948,0,0,0-.1,12.312,2.015,2.015,0,0,0,1.68,1.032l.744-1.056C69.168-.792,73.176-.864,74.688-2.448Zm-1.9-8.4c1.728,2.088,1.44,7.1-1.008,7.968a3.834,3.834,0,0,1-3.96-1.1A4.57,4.57,0,0,1,66.912-8.4,4.187,4.187,0,0,1,72.792-10.848ZM93.648-7.56c-.192-3.7-3.24-6.384-7.488-5.808a6.633,6.633,0,0,0-5.472,4.944,6.682,6.682,0,0,0,3.168,7.08A7.661,7.661,0,0,0,87.408-.7C91.272-.96,93.864-3.456,93.648-7.56ZM91.3-7.152c.024,1.776-.624,3.672-2.112,4.32a5.464,5.464,0,0,1-1.968.48c-2.592.1-4.176-2.256-4.272-4.56a4.361,4.361,0,0,1,3.36-4.68,5.081,5.081,0,0,1,3.024.288C90.576-10.7,91.272-8.856,91.3-7.152Zm19.8-.408c-.192-3.7-3.24-6.384-7.488-5.808a6.633,6.633,0,0,0-5.472,4.944,6.682,6.682,0,0,0,3.168,7.08,7.661,7.661,0,0,0,3.552.648C108.72-.96,111.312-3.456,111.1-7.56Zm-2.352.408c.024,1.776-.624,3.672-2.112,4.32a5.464,5.464,0,0,1-1.968.48c-2.592.1-4.176-2.256-4.272-4.56a4.361,4.361,0,0,1,3.36-4.68,5.081,5.081,0,0,1,3.024.288C108.024-10.7,108.72-8.856,108.744-7.152Zm18.72,5.568a19.512,19.512,0,0,0-5.952-7.152c1.392-.84,3.816-2.448,4.944-4.32-.816-1.2-1.656-1.032-2.4-.384-.528.456-1.344,1.344-1.9,1.776-1.2.984-2.352,1.968-3.816,2.016-.048-2.52.048-4.32.144-6.816a2.013,2.013,0,0,0-1.9-.624c-.864,3.624-.648,11.76-.576,15.792a1.693,1.693,0,0,0,2.328-.144c-.072-1.248-.072-3.648-.072-5.52a3.427,3.427,0,0,1,2.232.216c1.056.5,2.016,1.632,3.336,3.528.456.672.888,1.416,1.32,1.92C125.784-.6,126.456-.384,127.464-1.584Z" transform="translate(583 2987)" fill="#3b5898"/>
    <g id="グループ_18" data-name="グループ 18" transform="translate(563 2968.006)">
      <g id="グループ_15" data-name="グループ 15" transform="translate(11.998 17.539) rotate(167)">
        <circle id="楕円形_8" data-name="楕円形 8" cx="1" cy="1" r="1" transform="translate(0 16)" fill="#3b5898"/>
        <rect id="長方形_30" data-name="長方形 30" width="2" height="14" rx="1" transform="translate(0 0)" fill="#3b5898"/>
      </g>
      <g id="グループ_16" data-name="グループ 16" transform="translate(5.998 17.539) rotate(167)">
        <circle id="楕円形_8-2" data-name="楕円形 8" cx="1" cy="1" r="1" transform="translate(0 16)" fill="#3b5898"/>
        <rect id="長方形_30-2" data-name="長方形 30" width="2" height="14" rx="1" transform="translate(0 0)" fill="#3b5898"/>
      </g>
    </g>
    <g id="グループ_17" data-name="グループ 17" transform="translate(-26.001)">
      <g id="グループ_15-2" data-name="グループ 15" transform="translate(691.275 -93.687) rotate(13)">
        <circle id="楕円形_8-3" data-name="楕円形 8" cx="1" cy="1" r="1" transform="translate(746 2970)" fill="#3b5898"/>
        <rect id="長方形_30-3" data-name="長方形 30" width="2" height="14" rx="1" transform="translate(746 2974)" fill="#3b5898"/>
      </g>
      <g id="グループ_16-2" data-name="グループ 16" transform="translate(697.275 -93.687) rotate(13)">
        <circle id="楕円形_8-4" data-name="楕円形 8" cx="1" cy="1" r="1" transform="translate(746 2970)" fill="#3b5898"/>
        <rect id="長方形_30-4" data-name="長方形 30" width="2" height="14" rx="1" transform="translate(746 2974)" fill="#3b5898"/>
      </g>
    </g>
  </g>
</svg>
