<svg xmlns="http://www.w3.org/2000/svg" width="194.998" height="18.22" viewBox="0 0 194.998 18.22">
  <g id="insta-h3-title" transform="translate(-563 -2968.006)">
    <path id="パス_42200" data-name="パス 42200" d="M6.192-1.224c-.216-4.68-.072-10.92-.264-15.36-.456-.384-1.56-.72-2.088-.168a30.541,30.541,0,0,0-.216,4.872c.024,3.384.024,7.752.216,10.512A2.286,2.286,0,0,0,6.192-1.224Zm18.216-15.36c0-.36-.456-.72-1.3-.5-.552.144-.84,1.008-.84,2.04-.024,2.328.024,6.864-.216,10.272-2.184-3.432-5.352-8.712-7.128-11.9-1.08-.384-1.872-.576-2.16-.216a121.339,121.339,0,0,0-.144,14.88,1.773,1.773,0,0,0,2.064.552,97.952,97.952,0,0,1,.048-11.856c2.232,4.032,4.632,8.016,7.2,11.856.528.552,1.344.144,1.9-.312C24.168-5.256,24.408-13.1,24.408-16.584ZM40.176-13.8a1.569,1.569,0,0,0,.072-.96,4.8,4.8,0,0,0-3.888-2.352,6.617,6.617,0,0,0-5.232,3.024A4.475,4.475,0,0,0,31.3-8.76c.84.84,2.688.7,4.368.7,1.632,0,3.12.12,3.336,1.368.288,1.632-1.44,3.12-2.664,3.456A3.476,3.476,0,0,1,35.28-3.1a5.156,5.156,0,0,1-3.264-1.128c-.72-.624-1.1-1.488-2.184-1.128-.72,1.32.168,2.592,1.176,3.36a9.3,9.3,0,0,0,4.2.96C37.9-1.1,40.44-2.5,41.16-4.776c1.008-3.12-1.536-5.256-4.536-5.472-1.656-.12-3.5.432-3.84-.888-.5-1.968,2.04-3.864,3.528-3.744a4.214,4.214,0,0,1,1.968.96A1.389,1.389,0,0,0,40.176-13.8Zm19.656-.864a1.4,1.4,0,0,0,0-1.656c-2.5-.624-9.336-.384-11.28-.288-1.08.048-2.544.144-2.952.576.144,1.176.816,1.392,1.92,1.392s3.048-.072,3.864.048c-.168,2.232.1,12.768.6,13.608a1.6,1.6,0,0,0,1.776-.144c.552-3.984.192-10.584.24-13.464C55.872-14.64,58.08-14.664,59.832-14.664ZM78.048-1.032c.312-1.848-.672-4.44-1.488-6.384-.7-1.656-1.488-3.528-2.376-5.352-.624-1.3-1.968-4.392-3.12-4.608a1.9,1.9,0,0,0-1.9.672,69.615,69.615,0,0,0-2.856,7.656C65.544-6.5,64.56-4.032,64.08-1.92A1.728,1.728,0,0,0,65.856-.888c.672-1.3,1.632-4.56,2.088-5.784a17.347,17.347,0,0,1,6.384-.144c.792,1.7,1.224,3.744,1.944,5.5A1.562,1.562,0,0,0,78.048-1.032ZM73.44-8.76a17.444,17.444,0,0,0-4.992.216c.6-1.968,1.608-4.752,2.3-6.384A26.565,26.565,0,0,1,73.44-8.76ZM96.456-3.528c-.072-1.968-.432-5.184-.6-6.672a7.893,7.893,0,0,0-4.176-.96c-1.152.048-2.16.384-2.424,1.248,0,.48.264.672.936.72.816.048,2.664-.072,3.384.312A4.825,4.825,0,0,1,91.56-4.272a4.636,4.636,0,0,1-2.424.816A4.257,4.257,0,0,1,84.984-6.7c-.984-3.6.576-6.984,2.568-8.016a4.974,4.974,0,0,1,5.28.792c1.1-.456.984-1.176.408-1.824a4.78,4.78,0,0,0-2.424-1.176,6.989,6.989,0,0,0-7.992,5.064,11.886,11.886,0,0,0,0,5.808,6.285,6.285,0,0,0,7.3,4.44,7.043,7.043,0,0,0,4.224-2.52,9.386,9.386,0,0,0,.168,2.088c.216.624.5,1.032,1.2.888C96.48-1.3,96.5-2.256,96.456-3.528Zm16.608.576c-.552-.624-5.256-4.776-5.256-4.776,2.592-.216,4.08-1.512,4.536-3.12a4.664,4.664,0,0,0-.6-4.08,6.56,6.56,0,0,0-5.112-2.4,6.788,6.788,0,0,0-4.848,1.632,86.92,86.92,0,0,0,.12,14.112c.6.336,1.536.84,2.232.288-.1-1.056-.168-2.736-.312-4.536a76.965,76.965,0,0,1,.024-9.144,6.04,6.04,0,0,1,4.944-.12c1.032.552,1.608,1.92,1.3,3.792-.624,1.9-3.072,2.448-3.5,2.16-1.056-.7-2.208-.1-2.208.648a8.861,8.861,0,0,0,1.032,1.2c1.728,1.56,5.832,5.736,7.632,6.432C114.024-1.512,113.736-2.16,113.064-2.952ZM131.5-1.032c.312-1.848-.672-4.44-1.488-6.384-.7-1.656-1.488-3.528-2.376-5.352-.624-1.3-1.968-4.392-3.12-4.608a1.9,1.9,0,0,0-1.9.672,69.615,69.615,0,0,0-2.856,7.656c-.768,2.544-1.752,5.016-2.232,7.128A1.728,1.728,0,0,0,119.3-.888c.672-1.3,1.632-4.56,2.088-5.784a17.347,17.347,0,0,1,6.384-.144c.792,1.7,1.224,3.744,1.944,5.5A1.562,1.562,0,0,0,131.5-1.032ZM126.888-8.76a17.444,17.444,0,0,0-4.992.216c.6-1.968,1.608-4.752,2.3-6.384A26.565,26.565,0,0,1,126.888-8.76ZM152.5-1.728a105.992,105.992,0,0,0-2.424-15.24,5.762,5.762,0,0,0-1.272-.6,50.927,50.927,0,0,0-5.328,6.36c-.5-.864-1.8-2.976-2.712-4.3a3.7,3.7,0,0,0-2.9-1.752c-1.8,4.056-1.752,11.328-1.7,15.384a2.377,2.377,0,0,0,1.992.6c.192-3.432.072-9.408.96-12.84.936.528,2.52,3.912,3.384,5.184a1.683,1.683,0,0,0,1.608.168,38.225,38.225,0,0,1,4.488-5.544,62.283,62.283,0,0,1,1.488,12.72A2.168,2.168,0,0,0,152.5-1.728Z" transform="translate(583 2987)" fill="#993a22"/>
    <g id="グループ_18" data-name="グループ 18" transform="translate(563 2968.006)">
      <g id="グループ_15" data-name="グループ 15" transform="translate(11.998 17.539) rotate(167)">
        <circle id="楕円形_8" data-name="楕円形 8" cx="1" cy="1" r="1" transform="translate(0 16)" fill="#993a22"/>
        <rect id="長方形_30" data-name="長方形 30" width="2" height="14" rx="1" transform="translate(0 0)" fill="#993a22"/>
      </g>
      <g id="グループ_16" data-name="グループ 16" transform="translate(5.998 17.539) rotate(167)">
        <circle id="楕円形_8-2" data-name="楕円形 8" cx="1" cy="1" r="1" transform="translate(0 16)" fill="#993a22"/>
        <rect id="長方形_30-2" data-name="長方形 30" width="2" height="14" rx="1" transform="translate(0 0)" fill="#993a22"/>
      </g>
    </g>
    <g id="グループ_17" data-name="グループ 17" transform="translate(-0.001)">
      <g id="グループ_15-2" data-name="グループ 15" transform="translate(691.275 -93.687) rotate(13)">
        <circle id="楕円形_8-3" data-name="楕円形 8" cx="1" cy="1" r="1" transform="translate(746 2970)" fill="#993a22"/>
        <rect id="長方形_30-3" data-name="長方形 30" width="2" height="14" rx="1" transform="translate(746 2974)" fill="#993a22"/>
      </g>
      <g id="グループ_16-2" data-name="グループ 16" transform="translate(697.275 -93.687) rotate(13)">
        <circle id="楕円形_8-4" data-name="楕円形 8" cx="1" cy="1" r="1" transform="translate(746 2970)" fill="#993a22"/>
        <rect id="長方形_30-4" data-name="長方形 30" width="2" height="14" rx="1" transform="translate(746 2974)" fill="#993a22"/>
      </g>
    </g>
  </g>
</svg>
