<svg id="instagram" xmlns="http://www.w3.org/2000/svg" width="32" height="32" viewBox="0 0 32 32">
  <g id="レイヤー_1-2">
    <circle id="楕円形_9" data-name="楕円形 9" cx="16" cy="16" r="16"/>
    <g id="グループ_34" data-name="グループ 34">
      <path id="パス_76" data-name="パス 76" d="M25.232,12.19c.027.744.04,2.017.04,3.81s-.013,3.066-.04,3.81a5.7,5.7,0,0,1-1.51,3.913,5.559,5.559,0,0,1-3.913,1.47c-.744.054-2.017.081-3.81.081s-3.066-.027-3.81-.081A5.648,5.648,0,0,1,8.3,23.7a3.964,3.964,0,0,1-.869-1.161,5.845,5.845,0,0,1-.475-1.282,6.3,6.3,0,0,1-.143-1.448c-.054-.744-.081-2.017-.081-3.81s.027-3.079.081-3.85A5.6,5.6,0,0,1,8.3,8.3a5.6,5.6,0,0,1,3.89-1.533c.744-.027,2.017-.04,3.81-.04s3.066.013,3.81.04a5.7,5.7,0,0,1,3.913,1.51A5.758,5.758,0,0,1,25.232,12.19Zm-1.99,9.273a4.506,4.506,0,0,0,.206-.847c.054-.345.1-.757.125-1.241s.04-.878.04-1.179V13.808c0-.3-.013-.695-.04-1.179a11.419,11.419,0,0,0-.125-1.241,4.506,4.506,0,0,0-.206-.847,2.985,2.985,0,0,0-1.779-1.779,4.506,4.506,0,0,0-.847-.206c-.345-.054-.757-.1-1.241-.125s-.869-.04-1.161-.04H13.808c-.3,0-.695.013-1.179.04a11.419,11.419,0,0,0-1.241.125,4.506,4.506,0,0,0-.847.206,2.985,2.985,0,0,0-1.779,1.779,4.506,4.506,0,0,0-.206.847c-.054.345-.1.757-.125,1.241s-.04.869-.04,1.161v3.975c0,.26.009.6.022,1.013s.036.766.063,1.058.067.587.125.892.112.551.166.744a3.131,3.131,0,0,0,1.779,1.779,4.505,4.505,0,0,0,.847.206c.345.054.757.1,1.241.125s.869.04,1.161.04h4.41c.3,0,.695-.013,1.179-.04a11.418,11.418,0,0,0,1.241-.125,4.506,4.506,0,0,0,.847-.206A3.17,3.17,0,0,0,23.243,21.463ZM12.625,12.625A4.592,4.592,0,0,1,16,11.24,4.729,4.729,0,0,1,20.76,16,4.729,4.729,0,0,1,16,20.76,4.729,4.729,0,0,1,11.24,16,4.592,4.592,0,0,1,12.625,12.625ZM13.8,18.2a3.105,3.105,0,0,0,4.392,0,3.105,3.105,0,0,0,0-4.392,3.105,3.105,0,0,0-4.392,0,3.105,3.105,0,0,0,0,4.392Zm7.928-7.928a1.041,1.041,0,0,1,.309.766,1.1,1.1,0,0,1-.309.784,1.011,1.011,0,0,1-.766.332,1.133,1.133,0,0,1-1.116-1.116,1.018,1.018,0,0,1,.332-.766,1.112,1.112,0,0,1,.784-.309A1.048,1.048,0,0,1,21.732,10.268Z" fill="#fff"/>
    </g>
  </g>
</svg>
