<svg xmlns="http://www.w3.org/2000/svg" xmlns:xlink="http://www.w3.org/1999/xlink" width="66" height="58.07" viewBox="0 0 66 58.07">
  <defs>
    <linearGradient id="linear-gradient" y1="0.5" x2="1" y2="0.5" gradientUnits="objectBoundingBox">
      <stop offset="0" stop-color="#8cb808"/>
      <stop offset="1" stop-color="#67aa1b"/>
    </linearGradient>
    <linearGradient id="linear-gradient-2" x1="-18.843" y1="-2.524" x2="-17.664" y2="-2.524" xlink:href="#linear-gradient"/>
  </defs>
  <g id="leaf-icon" transform="translate(-3975.581 -907.041)">
    <path id="パス_160" data-name="パス 160" d="M4113.094,1236.763a22.143,22.143,0,0,1-3.5,4.969,13.953,13.953,0,0,1-5.62,3.339c-.489,0-.244,1.14.163,1.466s1.222.652,3.014-.652a99.119,99.119,0,0,0,7.167-7.086Z" transform="translate(-109.467 -281.718)" fill="#6f9300"/>
    <g id="グループ_56" data-name="グループ 56" transform="translate(4002.473 921.346)">
      <g id="グループ_53" data-name="グループ 53" transform="translate(0 0)">
        <path id="パス_161" data-name="パス 161" d="M4160.35,1041.806s-1.466-24.435,10.874-31.643,27.978-4.276,27.978-4.276,2.734,24.987-11.927,33.05C4177.176,1044.492,4160.35,1041.806,4160.35,1041.806Z" transform="translate(-4160.296 -1005.297)" fill="url(#linear-gradient)"/>
      </g>
      <g id="グループ_55" data-name="グループ 55" transform="translate(0 0)">
        <g id="グループ_54" data-name="グループ 54" opacity="0.32" style="mix-blend-mode: multiply;isolation: isolate">
          <path id="パス_162" data-name="パス 162" d="M4160.35,1041.806s-1.466-24.435,10.874-31.643,27.978-4.276,27.978-4.276,2.734,24.987-11.927,33.05C4177.176,1044.492,4160.35,1041.806,4160.35,1041.806Z" transform="translate(-4160.296 -1005.297)" fill="#33702a"/>
        </g>
      </g>
    </g>
    <path id="パス_163" data-name="パス 163" d="M4174.1,1055.029s9.979-13.608,18.448-20.647a101.442,101.442,0,0,1,16.86-11.607s-14.243,9.492-21.869,18.082C4181.971,1047.124,4174.1,1055.029,4174.1,1055.029Z" transform="translate(-169.613 -98.884)" fill="#afc93f"/>
    <path id="パス_164" data-name="パス 164" d="M4296.819,1027.812a36.944,36.944,0,0,0-2.149,6.156c-.833,4.106-.069,6.189-.069,6.189l1.09-.895a16.267,16.267,0,0,1-.151-4.86A34.029,34.029,0,0,1,4296.819,1027.812Z" transform="translate(-272.3 -103.188)" fill="#afc93f"/>
    <path id="パス_165" data-name="パス 165" d="M4246.466,1047.5a44.275,44.275,0,0,0-1.28,7.7c-.146,5.012,1.18,7.313,1.18,7.313l1.1-1.278a19.483,19.483,0,0,1-1.17-5.7A40.777,40.777,0,0,1,4246.466,1047.5Z" transform="translate(-230.343 -120.008)" fill="#afc93f"/>
    <path id="パス_166" data-name="パス 166" d="M4202.832,1092.49a44.208,44.208,0,0,0-.47,7.791c.378,5,1.936,7.15,1.936,7.15l.965-1.386a19.474,19.474,0,0,1-1.758-5.547A40.763,40.763,0,0,1,4202.832,1092.49Z" transform="translate(-193.723 -158.449)" fill="#afc93f"/>
    <path id="パス_167" data-name="パス 167" d="M4334.412,1021.151a24.391,24.391,0,0,0-1.421,4.07,8.222,8.222,0,0,0-.046,4.092l.722-.592a10.733,10.733,0,0,1-.1-3.213A22.454,22.454,0,0,1,4334.412,1021.151Z" transform="translate(-305.155 -97.497)" fill="#afc93f"/>
    <path id="パス_168" data-name="パス 168" d="M4310.23,1104.311a41.947,41.947,0,0,1-7.122,2.014c-4.708.662-7.016-.345-7.016-.345l1.088-1.174a18.463,18.463,0,0,0,5.5.5A38.692,38.692,0,0,0,4310.23,1104.311Z" transform="translate(-273.848 -168.549)" fill="#afc93f"/>
    <path id="パス_169" data-name="パス 169" d="M4271.316,1149.175a50.25,50.25,0,0,1-8.81.924c-5.687-.178-8.2-1.837-8.2-1.837l1.523-1.163a22.113,22.113,0,0,0,6.378,1.715A46.229,46.229,0,0,0,4271.316,1149.175Z" transform="translate(-238.142 -205.107)" fill="#afc93f"/>
    <path id="パス_170" data-name="パス 170" d="M4219.334,1207.476a50.218,50.218,0,0,1-8.818.84c-5.686-.233-8.187-1.915-8.187-1.915l1.534-1.149a22.142,22.142,0,0,0,6.361,1.776A46.254,46.254,0,0,0,4219.334,1207.476Z" transform="translate(-193.737 -254.794)" fill="#afc93f"/>
    <path id="パス_171" data-name="パス 171" d="M4353.79,1066.333a27.746,27.746,0,0,1-4.709,1.332,9.328,9.328,0,0,1-4.638-.228l.72-.777a12.212,12.212,0,0,0,3.632.334A25.528,25.528,0,0,0,4353.79,1066.333Z" transform="translate(-315.159 -136.101)" fill="#afc93f"/>
    <path id="パス_172" data-name="パス 172" d="M4108.188,1159.929a17.434,17.434,0,0,0,.669,4.747,11.007,11.007,0,0,0,2.741,4.365c.343.176-.239.888-.642.97s-1.091.018-1.88-1.542a78.291,78.291,0,0,1-2.479-7.551Z" transform="translate(-111.943 -216.07)" fill="#6f9300"/>
    <g id="グループ_60" data-name="グループ 60" transform="translate(3975.581 907.041)">
      <g id="グループ_57" data-name="グループ 57" transform="translate(0 0)">
        <path id="パス_173" data-name="パス 173" d="M3996.006,946.226s9.823-16.618,3.758-26.117-18.093-13.069-18.093-13.069-10.911,16.548-3.525,27.482C3983.234,942.056,3996.006,946.226,3996.006,946.226Z" transform="translate(-3975.581 -907.041)" fill="url(#linear-gradient-2)"/>
      </g>
      <g id="グループ_59" data-name="グループ 59" transform="translate(0 0)">
        <g id="グループ_58" data-name="グループ 58" opacity="0.32" style="mix-blend-mode: multiply;isolation: isolate">
          <path id="パス_174" data-name="パス 174" d="M3996.006,946.226s9.823-16.618,3.758-26.117-18.093-13.069-18.093-13.069-10.911,16.548-3.525,27.482C3983.234,942.056,3996.006,946.226,3996.006,946.226Z" transform="translate(-3975.581 -907.041)" fill="#33702a"/>
        </g>
      </g>
    </g>
    <path id="パス_175" data-name="パス 175" d="M4033.4,955.725s-2.1-13.14-5.514-21.127a79.98,79.98,0,0,0-7.654-14.211s6.578,11.786,8.839,20.558C4030.722,947.344,4033.4,955.725,4033.4,955.725Z" transform="translate(-38.153 -11.402)" fill="#afc93f"/>
    <path id="パス_176" data-name="パス 176" d="M4072.486,961.67a29.122,29.122,0,0,1-.707,5.093,9.807,9.807,0,0,1-2.179,4.367l-.444-1.021a12.816,12.816,0,0,0,1.856-3.355A26.86,26.86,0,0,0,4072.486,961.67Z" transform="translate(-79.952 -46.676)" fill="#afc93f"/>
    <path id="パス_177" data-name="パス 177" d="M4092.27,996.24a34.889,34.889,0,0,1-1.872,5.863c-1.7,3.569-3.46,4.707-3.46,4.707l-.315-1.294a15.359,15.359,0,0,0,2.873-3.579A32.165,32.165,0,0,0,4092.27,996.24Z" transform="translate(-94.876 -76.212)" fill="#afc93f"/>
    <path id="パス_178" data-name="パス 178" d="M4104.383,1045.145a34.88,34.88,0,0,1-2.474,5.636c-2.064,3.372-3.932,4.32-3.932,4.32l-.178-1.32a15.353,15.353,0,0,0,3.23-3.26A32.124,32.124,0,0,0,4104.383,1045.145Z" transform="translate(-104.424 -117.997)" fill="#afc93f"/>
    <path id="パス_179" data-name="パス 179" d="M4058.672,945.283a19.309,19.309,0,0,1-.468,3.367,6.482,6.482,0,0,1-1.44,2.887l-.293-.675a8.479,8.479,0,0,0,1.227-2.218A17.755,17.755,0,0,0,4058.672,945.283Z" transform="translate(-69.113 -32.674)" fill="#afc93f"/>
    <path id="パス_180" data-name="パス 180" d="M4007.321,986.023a33.049,33.049,0,0,0,4.273,3.977c3.065,2.159,5.047,2.283,5.047,2.283l-.341-1.216a14.552,14.552,0,0,1-4.038-1.623A30.5,30.5,0,0,1,4007.321,986.023Z" transform="translate(-27.119 -67.483)" fill="#afc93f"/>
    <path id="パス_181" data-name="パス 181" d="M4002.253,1033.986a39.556,39.556,0,0,0,5.849,3.818c4.055,1.922,6.417,1.664,6.417,1.664l-.649-1.364a17.435,17.435,0,0,1-5.093-1.092A36.434,36.434,0,0,1,4002.253,1033.986Z" transform="translate(-22.789 -108.463)" fill="#afc93f"/>
    <path id="パス_182" data-name="パス 182" d="M4017.473,1094.23a39.58,39.58,0,0,0,5.886,3.763c4.073,1.883,6.433,1.6,6.433,1.6l-.663-1.358a17.428,17.428,0,0,1-5.1-1.043A36.463,36.463,0,0,1,4017.473,1094.23Z" transform="translate(-35.793 -159.936)" fill="#afc93f"/>
    <path id="パス_183" data-name="パス 183" d="M4010.153,953.821a21.907,21.907,0,0,0,2.825,2.629,7.358,7.358,0,0,0,3.337,1.509l-.225-.8a9.63,9.63,0,0,1-2.669-1.073A20.172,20.172,0,0,1,4010.153,953.821Z" transform="translate(-29.539 -39.969)" fill="#afc93f"/>
  </g>
</svg>
