<svg xmlns="http://www.w3.org/2000/svg" width="24" height="24"><path data-name="長方形 43" fill="none" d="M0 0h24v24H0z"/><g fill="#fff"><path data-name="パス 184" d="M20.481 3.514A12 12 0 1024 12a11.966 11.966 0 00-3.519-8.486zm-1.759 1.76A9.509 9.509 0 1112 2.488a9.474 9.474 0 016.722 2.786z"/><path data-name="パス 185" d="M11.377 15.434a1.205 1.205 0 101.205 1.206 1.206 1.206 0 00-1.205-1.206z"/><path data-name="パス 186" d="M8.64 8.148l.821.658a.443.443 0 00.568-.012 1.114 1.114 0 01.417-.363 2.633 2.633 0 011.345-.326 2.043 2.043 0 011.325.473 1.487 1.487 0 01.35.427.778.778 0 01.1.355 1.472 1.472 0 01-.151.7 1.405 1.405 0 01-.268.36 3.007 3.007 0 01-.654.468c-.257.144-.534.272-.814.426a2.519 2.519 0 00-.907.812 2.2 2.2 0 00-.284.631 2.682 2.682 0 00-.091.71v.473a.444.444 0 00.443.443h1.068a.444.444 0 00.443-.443v-.473a.729.729 0 01.021-.192.236.236 0 01.057-.107.757.757 0 01.2-.145c.16-.09.418-.211.71-.369a4.719 4.719 0 001.416-1.1 3.269 3.269 0 00.556-.958 3.544 3.544 0 00.21-1.233 2.724 2.724 0 00-.323-1.262 3.561 3.561 0 00-1.355-1.394 4.037 4.037 0 00-2.052-.554 4.6 4.6 0 00-2.315.583 2.587 2.587 0 00-.849.732.443.443 0 00.013.682z"/></g></svg>