<svg xmlns="http://www.w3.org/2000/svg" width="24" height="24" viewBox="0 0 24 24">
  <g id="menu02-icon" transform="translate(-314 -153)">
    <rect id="長方形_43" data-name="長方形 43" width="24" height="24" transform="translate(314 153)" fill="none"/>
    <g id="はてなのアイコン" transform="translate(314 153)">
      <path id="パス_184" data-name="パス 184" d="M20.481,3.514A12,12,0,1,0,24,12,11.966,11.966,0,0,0,20.481,3.514Zm-1.759,1.76A9.509,9.509,0,1,1,12,2.488,9.474,9.474,0,0,1,18.722,5.274Z" transform="translate(0 0)" fill="#fff"/>
      <path id="パス_185" data-name="パス 185" d="M218.225,329.326a1.205,1.205,0,1,0,1.205,1.206A1.206,1.206,0,0,0,218.225,329.326Z" transform="translate(-206.848 -313.892)" fill="#fff"/>
      <path id="パス_186" data-name="パス 186" d="M180.982,133.231l.821.658a.443.443,0,0,0,.568-.012,1.114,1.114,0,0,1,.417-.363,2.633,2.633,0,0,1,1.345-.326,2.043,2.043,0,0,1,1.325.473,1.487,1.487,0,0,1,.35.427.778.778,0,0,1,.1.355,1.472,1.472,0,0,1-.151.7,1.405,1.405,0,0,1-.268.36,3.007,3.007,0,0,1-.654.468c-.257.144-.534.272-.814.426a2.519,2.519,0,0,0-.907.812,2.2,2.2,0,0,0-.284.631,2.682,2.682,0,0,0-.091.71v.473a.444.444,0,0,0,.443.443h1.068a.444.444,0,0,0,.443-.443v-.473a.729.729,0,0,1,.021-.192.236.236,0,0,1,.057-.107.757.757,0,0,1,.2-.145c.16-.09.418-.211.71-.369a4.719,4.719,0,0,0,1.416-1.1,3.269,3.269,0,0,0,.556-.958,3.544,3.544,0,0,0,.21-1.233,2.724,2.724,0,0,0-.323-1.262,3.561,3.561,0,0,0-1.355-1.394,4.037,4.037,0,0,0-2.052-.554,4.6,4.6,0,0,0-2.315.583,2.587,2.587,0,0,0-.849.732.443.443,0,0,0,.013.682Z" transform="translate(-172.342 -125.083)" fill="#fff"/>
    </g>
  </g>
</svg>
