<svg xmlns="http://www.w3.org/2000/svg" width="24" height="24"><path data-name="長方形 43" fill="none" d="M0 0h24v24H0z"/><g data-name="レイヤー 2"><g data-name="レイヤー 1" fill="#fff"><path data-name="パス 193" d="M1.726 17.187h4.341v-.516h4.563v.516h4.341l-1.66-1.293H3.386z"/><path data-name="パス 194" d="M8.051 12.257L6.392 13.55h3.912l-1.659-1.293z"/><path data-name="パス 195" d="M4.058 15.368h8.579l-1.659-1.293h-5.26z"/><path data-name="パス 196" d="M14.928 21.47H1.767a.649.649 0 000 1.294h13.161a.649.649 0 000-1.294z"/><path data-name="パス 197" d="M1.172 18.479a.624.624 0 00.594.648h4.3v-1.295h-4.3a.623.623 0 00-.594.647z"/><path data-name="パス 198" d="M16.596 17.025a.613.613 0 00-.122-.808l-7.815-6.091a.5.5 0 00-.621 0L.222 16.219a.611.611 0 00-.122.806.506.506 0 00.744.134l7.5-5.851 7.5 5.854a.507.507 0 00.744-.137z"/><path data-name="パス 199" d="M14.928 17.832h-4.3v1.295h4.3a.65.65 0 000-1.295z"/><path data-name="パス 200" d="M1.767 20.943h4.3v-1.294h-4.3a.649.649 0 000 1.294z"/><path data-name="パス 201" d="M24 22.764L20.76 7.046l-2.421 8.661L14.225 1l-2.826 10.1 5.579 4.35a1.569 1.569 0 01.585 1.238 1.611 1.611 0 01-.263.886 1.375 1.375 0 01-.937.61 1.739 1.739 0 01.028.292 1.673 1.673 0 01-.267.909 1.687 1.687 0 010 1.82 1.677 1.677 0 01.267.909 1.721 1.721 0 01-.129.647z"/><path data-name="パス 202" d="M14.928 19.651h-4.3v1.292h4.3a.648.648 0 000-1.292z"/></g></g></svg>