<svg xmlns="http://www.w3.org/2000/svg" width="24" height="24" viewBox="0 0 24 24">
  <g id="menu05-icon" transform="translate(-315 -153)">
    <rect id="長方形_43" data-name="長方形 43" width="24" height="24" transform="translate(315 153)" fill="none"/>
    <g id="レイヤー_2" data-name="レイヤー 2" transform="translate(314.991 154)">
      <g id="レイヤー_1" data-name="レイヤー 1" transform="translate(0.009)">
        <path id="パス_193" data-name="パス 193" d="M29.08,252.233h4.341v-.516h4.563v.516h4.341l-1.66-1.293H30.74Z" transform="translate(-27.354 -236.046)" fill="#fff"/>
        <path id="パス_194" data-name="パス 194" d="M109.359,189.65l-1.659,1.293h3.912l-1.659-1.293Z" transform="translate(-101.308 -178.393)" fill="#fff"/>
        <path id="パス_195" data-name="パス 195" d="M68.38,221.583h8.579L75.3,220.29H70.04Z" transform="translate(-64.322 -207.215)" fill="#fff"/>
        <path id="パス_196" data-name="パス 196" d="M33.535,344.87H20.374a.649.649,0,0,0,0,1.294H33.535a.649.649,0,0,0,0-1.294Z" transform="translate(-18.607 -324.4)" fill="#fff"/>
        <path id="パス_197" data-name="パス 197" d="M19.75,284.227a.624.624,0,0,0,.594.648h4.3V283.58h-4.3A.623.623,0,0,0,19.75,284.227Z" transform="translate(-18.578 -266.748)" fill="#fff"/>
        <path id="パス_198" data-name="パス 198" d="M16.605,158.937a.613.613,0,0,0-.122-.808l-7.815-6.091a.5.5,0,0,0-.621,0L.231,158.131a.611.611,0,0,0-.122.806.506.506,0,0,0,.744.134l7.5-5.851,7.5,5.854a.507.507,0,0,0,.744-.137Z" transform="translate(-0.009 -142.912)" fill="#fff"/>
        <path id="パス_199" data-name="パス 199" d="M183.389,283.58h-4.3v1.295h4.3a.65.65,0,0,0,0-1.295Z" transform="translate(-168.461 -266.748)" fill="#fff"/>
        <path id="パス_200" data-name="パス 200" d="M20.374,315.494h4.3V314.2h-4.3a.649.649,0,0,0,0,1.294Z" transform="translate(-18.607 -295.551)" fill="#fff"/>
        <path id="パス_201" data-name="パス 201" d="M204.661,21.764l-3.24-15.718L199,14.707,194.886,0,192.06,10.1l5.579,4.35h0a1.569,1.569,0,0,1,.585,1.238,1.611,1.611,0,0,1-.263.886h0a1.375,1.375,0,0,1-.937.61,1.739,1.739,0,0,1,.028.292,1.673,1.673,0,0,1-.267.909,1.687,1.687,0,0,1,0,1.82,1.677,1.677,0,0,1,.267.909,1.721,1.721,0,0,1-.129.647Z" transform="translate(-180.661)" fill="#fff"/>
        <path id="パス_202" data-name="パス 202" d="M183.389,314.23h-4.3v1.292h4.3a.648.648,0,0,0,0-1.292Z" transform="translate(-168.461 -295.579)" fill="#fff"/>
      </g>
    </g>
  </g>
</svg>
