<svg xmlns="http://www.w3.org/2000/svg" width="24" height="24" viewBox="0 0 24 24">
  <g id="menu04-icon" transform="translate(-315 -153)">
    <rect id="長方形_43" data-name="長方形 43" width="24" height="24" transform="translate(315 153)" fill="none"/>
    <g id="もみじの無料素材2" transform="translate(315 150.387)">
      <path id="パス_189" data-name="パス 189" d="M79.975,73.818l-8.224,5.2V66.626h-.726V79.045l-8.273-5.227-.387.614h0l8.3,5.247-5.393,3.2.371.625,5.378-3.2V82.47h.726V80.339l5.329,3.168.372-.624-5.393-3.205,8.3-5.247-.387-.614Z" transform="translate(-59.442 -61.012)" fill="#fff"/>
      <path id="パス_190" data-name="パス 190" d="M24,11.852a4.216,4.216,0,0,0-.26-1.559.722.722,0,0,0-.478-.429,9.651,9.651,0,0,0-2.578-.346,9.957,9.957,0,0,0-3.248.538c-.2.07-.378.145-.554.222.017-.219.026-.434.026-.645a7.444,7.444,0,0,0-1.626-4.716,7.25,7.25,0,0,0-3.03-2.259h0a.733.733,0,0,0-.5,0h0a7.24,7.24,0,0,0-3.03,2.259A7.444,7.444,0,0,0,7.093,9.632c0,.211.009.427.026.646-.176-.077-.357-.151-.552-.221h0a9.93,9.93,0,0,0-3.248-.538,9.611,9.611,0,0,0-2.577.346.723.723,0,0,0-.479.429A4.192,4.192,0,0,0,0,11.852a10.471,10.471,0,0,0,1.225,4.555,9.738,9.738,0,0,0,2.649,3.259A5.643,5.643,0,0,0,2.8,21.077v0a6.184,6.184,0,0,0-.721,2.263l0,.064A.726.726,0,0,0,2.385,24l-.018-.013L2.388,24a7.775,7.775,0,0,0,4.283,1.111,9.992,9.992,0,0,0,3.757-.744v1.276a.726.726,0,0,0,.726.726h1.693a.726.726,0,0,0,.726-.726V24.367a9.975,9.975,0,0,0,3.756.744A7.794,7.794,0,0,0,21.612,24a.725.725,0,0,0,.31-.595l0-.062a6.158,6.158,0,0,0-.723-2.264,5.6,5.6,0,0,0-1.07-1.413,9.724,9.724,0,0,0,2.648-3.259l-.322-.166.323.166A10.471,10.471,0,0,0,24,11.852ZM21.807,15.91a8.059,8.059,0,0,1-3.084,3.41.363.363,0,0,0,0,.636,4,4,0,0,1,1.515,1.638,5.3,5.3,0,0,1,.564,1.629,7.1,7.1,0,0,1-3.474.8,8.588,8.588,0,0,1-4.3-1.111.363.363,0,0,0-.545.314V25.28h-.968V23.225a.363.363,0,0,0-.545-.314,8.6,8.6,0,0,1-4.3,1.111,7.105,7.105,0,0,1-3.475-.8,5.325,5.325,0,0,1,.565-1.63,4,4,0,0,1,1.515-1.638.363.363,0,0,0,0-.636,8.061,8.061,0,0,1-3.084-3.41,9.427,9.427,0,0,1-1.1-4.058,3.441,3.441,0,0,1,.125-.983,8.58,8.58,0,0,1,2.1-.261,8.849,8.849,0,0,1,2.889.476,3.951,3.951,0,0,1,1.617.931.363.363,0,0,0,.629-.322,8.368,8.368,0,0,1-.27-2.06A6.348,6.348,0,0,1,9.569,5.6,6.2,6.2,0,0,1,12,3.736,6.2,6.2,0,0,1,14.431,5.6a6.347,6.347,0,0,1,1.388,4.037,8.406,8.406,0,0,1-.27,2.06.363.363,0,0,0,.629.322,3.933,3.933,0,0,1,1.617-.931,8.846,8.846,0,0,1,2.889-.476,8.544,8.544,0,0,1,2.1.261,3.443,3.443,0,0,1,.125.983A9.425,9.425,0,0,1,21.807,15.91Z" transform="translate(0)" fill="#fff"/>
    </g>
  </g>
</svg>
