<svg xmlns="http://www.w3.org/2000/svg" width="24.001" height="24" viewBox="0 0 24.001 24">
  <g id="menu06-icon" transform="translate(-315 -153)">
    <rect id="長方形_43" data-name="長方形 43" width="24" height="24" transform="translate(315 153)" fill="none"/>
    <g id="乗用車のアイコン素材1" transform="translate(315 95.109)">
      <path id="パス_203" data-name="パス 203" d="M1.608,156.379c.108-.236.314-.623.676-1.3.166-.314.352-.659.543-1.014H1.159a1.159,1.159,0,0,0,0,2.317Z" transform="translate(0 -88.804)" fill="#fff"/>
      <path id="パス_204" data-name="パス 204" d="M453.356,154.063h-1.669c.191.355.376.7.543,1.014.362.68.568,1.068.676,1.3h.45a1.159,1.159,0,0,0,0-2.317Z" transform="translate(-430.514 -88.804)" fill="#fff"/>
      <path id="パス_205" data-name="パス 205" d="M39.391,387.742a1.562,1.562,0,1,0,3.124,0v-1.477H39.391Z" transform="translate(-37.545 -310.122)" fill="#fff"/>
      <path id="パス_206" data-name="パス 206" d="M405.938,387.742a1.563,1.563,0,0,0,3.125,0v-1.477h-3.125Z" transform="translate(-386.909 -310.122)" fill="#fff"/>
      <path id="パス_207" data-name="パス 207" d="M35.324,67.866c.079.023-2.892-5.429-3.034-5.723a2.457,2.457,0,0,0-2.206-1.252H20.7a2.458,2.458,0,0,0-2.206,1.252c-.142.294-3.111,5.747-3.033,5.723,0,0-.961.959-1.034,1.036a1.457,1.457,0,0,0-.375,1.187v4.339c0,.809.144,1.252,1.1,1.252H35.635c.954,0,1.1-.443,1.1-1.252V70.088a1.454,1.454,0,0,0-.377-1.187C36.287,68.825,35.324,67.866,35.324,67.866ZM17.919,66.194s1.908-3.437,2.021-3.661a1.487,1.487,0,0,1,1.3-.662h8.3a1.486,1.486,0,0,1,1.3.662c.114.225,2.022,3.661,2.022,3.661a.61.61,0,0,1-.5.905H18.418A.61.61,0,0,1,17.919,66.194Zm-.255,7.643a1.753,1.753,0,1,1,1.753-1.753A1.753,1.753,0,0,1,17.664,73.837Zm10.39.474a.232.232,0,0,1-.231.232h-4.86a.232.232,0,0,1-.232-.232V72.17a.231.231,0,0,1,.232-.23h4.86a.231.231,0,0,1,.231.23v2.141Zm5.067-.474a1.753,1.753,0,1,1,1.753-1.753A1.754,1.754,0,0,1,33.121,73.837Z" transform="translate(-13.392 0)" fill="#fff"/>
    </g>
  </g>
</svg>
