<svg xmlns="http://www.w3.org/2000/svg" width="24.001" height="24" viewBox="0 0 24.001 24">
  <g id="menu07-icon" transform="translate(-315 -154)">
    <rect id="長方形_43" data-name="長方形 43" width="24" height="24" transform="translate(315 154)" fill="none"/>
    <g id="無料のコメントアイコン素材" transform="translate(315 139)">
      <path id="パス_208" data-name="パス 208" d="M20.96,16H3.04A3.078,3.078,0,0,0,0,19.1V31.684a3.078,3.078,0,0,0,3.04,3.1h7.275l3.5,3.566a.511.511,0,0,0,.564.114.527.527,0,0,0,.319-.487V34.781H20.96a3.078,3.078,0,0,0,3.04-3.1V19.1A3.078,3.078,0,0,0,20.96,16ZM4.5,21.438v-1.5h15v1.5Zm0,4.688v-1.5h15v1.5Zm10.688,3.188v1.5H4.5v-1.5Z" fill="#fff"/>
    </g>
  </g>
</svg>
