<svg xmlns="http://www.w3.org/2000/svg" width="93.408" height="21.615" viewBox="0 0 93.408 21.615">
  <path id="news-h2-title" d="M-35.808-15.528c-.048-.408-.336-.624-.84-.7-.624-.072-2.088-.144-2.784-.144a11.561,11.561,0,0,0-.024-2.232,3.905,3.905,0,0,0-1.44-.408.9.9,0,0,0-.792.36,15.478,15.478,0,0,1,.024,2.352c-.648.024-1.776.168-2.52.288-1.1.192-1.728.576-1.728,1.032a1.184,1.184,0,0,0,.36.744,4.458,4.458,0,0,0,1.512-.288,18.42,18.42,0,0,1,7.392-.144C-36.168-14.544-35.76-15.048-35.808-15.528Zm10.032,5.5c.288-.384-.048-1.008-.384-1.224-2.3-.36-4.872.072-6.84.168.048-1.944-.072-4.584-.072-4.584a13.071,13.071,0,0,0,5.88-1.3,1.423,1.423,0,0,0-.744-1.608,2.05,2.05,0,0,0-1.416-.12,12.194,12.194,0,0,1-3.792,2.472c-.384-.48-1.32-.384-1.848-.216-.1,4.44.072,11.976-1.272,16.7A7.791,7.791,0,0,0-34.392-2.5a33.917,33.917,0,0,0,1.344-7.68,1.8,1.8,0,0,0,.936.456c.48,0,1.224-.048,1.488-.072.048,2.4.144,7.7.144,10.416a1.589,1.589,0,0,0,1.992.024c.072-3.264-.072-8.064-.24-10.56A21.074,21.074,0,0,1-25.776-10.032ZM-36.912-8.9c.216-.768-.12-1.176-.936-1.32l-1.656-.048a6.036,6.036,0,0,0,2.16-2.928c-.288-.264-.888-.96-1.392-.96a.809.809,0,0,0-.408.12,28.429,28.429,0,0,1-.888,3.768,14.9,14.9,0,0,0-4.8.72c0,.744.408.96.96,1.152A20.092,20.092,0,0,1-36.912-8.9Zm-4.224-2.976a2.028,2.028,0,0,0-1.992-2.136c0,.312-.072,1.08-.072,1.368,0,.888.432,1.512,1.128,1.512A.843.843,0,0,0-41.136-11.88Zm4.584,5.232a.555.555,0,0,0-.672-.552,12.864,12.864,0,0,1-1.9.264l-.048-1.152c-.5-.24-1.272-.552-1.752-.072l-.12,1.416c-1.344.072-3.024-.144-4.08-.192-.384.336-.552,1.008-.336,1.224.36.36,2.928.336,4.176.312a27.449,27.449,0,0,1-4.7,4.512c1.944.432,3.768-1.152,4.968-2.448,0,0-.12,2.52-.12,3.528a1.538,1.538,0,0,0,.7,1.368,2.653,2.653,0,0,0,1.032-.12c.144-1.824.216-4.776.288-6.984a9.056,9.056,0,0,0,2.184-.48A.622.622,0,0,0-36.552-6.648Zm-.24,3.072A1.812,1.812,0,0,0-38.9-5.16a7.939,7.939,0,0,0,1.416,2.544A1.059,1.059,0,0,0-36.792-3.576Zm24.168-13.656c-.072-.744-.624-1.272-1.512-1.632a5.018,5.018,0,0,0-2.256-.336c.264,1.152,1.3,1.728,2.184,2.52A2.02,2.02,0,0,0-12.624-17.232Zm9.792,9.168A1.1,1.1,0,0,0-3.36-9.6a54.657,54.657,0,0,0-7.416-.408c0-.624.048-1.176.072-1.776.72,0,1.344.072,2.016.072a1.918,1.918,0,0,0,1.32-.36c.312-.264-.072-.864-.264-1.128-1.08,0-2.016-.048-3.1-.048a9.735,9.735,0,0,1,.1-1.728,23.785,23.785,0,0,1,5.832.384c.456-.744-.024-1.464-.888-1.632a27.161,27.161,0,0,0-4.68-.192A33.77,33.77,0,0,0-6.792-18.48c-.312-.624-1.8-.648-2.472-.576-.624.744-1.92,2.568-1.92,2.568a46.948,46.948,0,0,0-8.52,1.032,2.812,2.812,0,0,0,0,1.1c.48.552,1.1.432,1.728.24a16.647,16.647,0,0,1,5.088-.744A12.2,12.2,0,0,1-12.96-13.2a15.561,15.561,0,0,0-3.912.528c-.192.7-.024,1.9.84,1.608a9.585,9.585,0,0,1,3.072-.648c-.024.552-.024,1.3-.072,1.776a76.539,76.539,0,0,0-7.632.912,1.672,1.672,0,0,0-.408.984c0,.408.24.72.816.6.7-.12,3.12-.6,4.344-.672a21.919,21.919,0,0,1-2.3,3.912l-2.64,3.6A12.1,12.1,0,0,0-14.616-6a70.317,70.317,0,0,0,.36,7.512c.192,1.032,1.368.792,1.968,0l.408.192a9.7,9.7,0,0,1,3.72-.048,1.122,1.122,0,0,0,.816.408,1.564,1.564,0,0,0,1.2-1.056A40.8,40.8,0,0,0-5.328-6c0-.96-3.72-1.272-4.344-1.272a11.087,11.087,0,0,0-2.88.264,2.274,2.274,0,0,0-1.3-.432l.528-1.008A63.892,63.892,0,0,1-2.832-8.064ZM-7.7-5.544C-7.7-3.48-7.9-1.008-7.968.24a13.039,13.039,0,0,0-4.248.192,33.439,33.439,0,0,1-.216-6.048A10.188,10.188,0,0,1-7.7-5.544ZM-9.12-3.5a1.908,1.908,0,0,0-.072-.936,1.64,1.64,0,0,0-.816-.192c-.744,0-1.344.312-1.344.72a.987.987,0,0,0,.456.744A2.6,2.6,0,0,1-9.48-3.312C-9.312-3.312-9.168-3.36-9.12-3.5Zm-.144,2.328a1.259,1.259,0,0,0-.144-1.056,2.234,2.234,0,0,0-1.992.12c-.048.432.216,1.008.432,1.056A5.835,5.835,0,0,1-9.264-1.176Zm31.7-8.592c-.048-.624-.792-.888-.792-.888a41.1,41.1,0,0,0-4.8-.264,14.273,14.273,0,0,0,.1-1.632,10.681,10.681,0,0,1,1.7.168,1.022,1.022,0,0,0,.144-1.2,3.886,3.886,0,0,0-1.824-.312l.048-1.656a44.057,44.057,0,0,0,4.416.24c.048-.624-.12-1.056-.648-1.176a18.6,18.6,0,0,0-3.768-.384s-.024-.936-.024-1.368a1.353,1.353,0,0,0-1.416-1.176c-.336,0-.6.12-.624.744-.048.624,0,1.9,0,1.9a28.341,28.341,0,0,0-5.568.768,1.4,1.4,0,0,0,1.224,1.248,27.887,27.887,0,0,1,4.344-.7V-13.8a7.481,7.481,0,0,0-2.9.7c-.024.648.288,1.056.936.96a17.947,17.947,0,0,1,1.968-.288c0,.768.024,1.584.024,1.584a26.453,26.453,0,0,0-6.048.912.756.756,0,0,0,.48.888,1.633,1.633,0,0,0,1.2.192,33.966,33.966,0,0,1,11.568-.312A.842.842,0,0,0,22.44-9.768ZM6.672-18.24a1.714,1.714,0,0,0-1.8-.528C4.32-17.016,4.152-4.2,4.56-1.176c.1.744.312,1.44.84,1.44.624,0,1.032-.744,1.008-1.3A101.034,101.034,0,0,1,6.672-18.24ZM2.592-8.472a4.749,4.749,0,0,0,.96-3.024A1.991,1.991,0,0,0,2.88-13.1a6.988,6.988,0,0,1-.888,1.68,4.786,4.786,0,0,0-.768,1.416A1.666,1.666,0,0,0,1.848-8.4,1.559,1.559,0,0,0,2.592-8.472Zm4.9-1.3c1.1-.168,1.2-1.176.936-2.04a2.2,2.2,0,0,0-1.848-.72s.12,1.032.168,1.56C6.864-10.32,7.1-9.912,7.488-9.768ZM19.776-5.616c-.1-1.176-.336-1.872-.96-2.16-1.416-.7-4.3-.336-5.568-.024l-.216.7a1.44,1.44,0,0,0-1.08-.12,26.887,26.887,0,0,0-.12,6.936c.144,1.08.6,2.04,1.656,1.752.432-.432.216-1.152.168-1.68A32.494,32.494,0,0,1,13.68-6.7a9.435,9.435,0,0,1,4.1,0,30.44,30.44,0,0,1-.1,6.936c-.864.072-1.824.072-1.824.072s1.224.864,1.344,1.776A2.152,2.152,0,0,0,19.416.576,31.666,31.666,0,0,0,19.776-5.616Zm-2.76,1.632a1.057,1.057,0,0,0-.072-.864,4.161,4.161,0,0,0-2.3-.072c-.1.648,0,1.032.312,1.2A14.262,14.262,0,0,0,17.016-3.984Zm-.408,1.512c-.576-.192-1.872-.216-1.968.408a.787.787,0,0,0,.384.744,4,4,0,0,1,1.512,0C17.064-1.536,16.944-2.136,16.608-2.472ZM36.288-10.1c.168-.48.264-1.032-.336-1.32a13.878,13.878,0,0,0-3.5-.432l.072-2.352a20.41,20.41,0,0,1,2.5.168,1.227,1.227,0,0,0,.456-.744c-.312-.7-2.088-.84-2.928-.816.048-.888.192-1.7.192-2.208,0-1.032-1.68-1.344-2.208-.912a31.165,31.165,0,0,0-.1,3.216c-.576.024-1.44.144-2.16.216A1.532,1.532,0,0,0,26.9-14.5a1.442,1.442,0,0,0,1.248.72,15.167,15.167,0,0,0,2.3-.336c0,.72.048,2.328.048,2.328a23.618,23.618,0,0,0-5.088.792,1.572,1.572,0,0,0-.192,1.248,1.158,1.158,0,0,0,.792.288,25.288,25.288,0,0,1,2.5-.672l.168,1.464c.048.456.12,1.176.768,1.176a1.344,1.344,0,0,0,1.152-1.1,5.591,5.591,0,0,1-1.008-1.728A21.072,21.072,0,0,1,36.288-10.1ZM47.424.024A16.3,16.3,0,0,1,43.7-3.144a21.114,21.114,0,0,0,2.112-5.28c-1.392-1.344-5.3-1.128-7.1-.768,0-3.864.048-6.264.024-8.16a2.156,2.156,0,0,0,.984.288,15,15,0,0,1,3.1-.168,19.475,19.475,0,0,1-.1,4.752l-2.5.12A3.021,3.021,0,0,1,42.6-10.488a2.317,2.317,0,0,0,1.9-1.152c.576-1.608,1.008-5.232-.072-6.816-2.04-.36-4.512-.48-6.072.312a1.73,1.73,0,0,0-1.632-.168c.048,3.72.048,13.3.024,19.344a1.312,1.312,0,0,0,1.872.312c.1-1.992.072-6.384.072-9.24a25.853,25.853,0,0,1,4.776-.072,16.4,16.4,0,0,1-1.176,3.576C41.472-5.208,39.6-7.176,39.6-7.176a10.208,10.208,0,0,0,2.016,4.32A20.987,20.987,0,0,1,39.24.936,8.749,8.749,0,0,0,42.7-1.584,12.727,12.727,0,0,0,45.864,1.56C46.2.84,46.584.144,47.424.024ZM35.3-5.856c.312-.384.072-.936-.168-1.3-1.488-.072-2.52-.1-2.52-.1s2.4-1.224,2.28-2.064c-.048-.5-.84-.792-1.752-.72a25.732,25.732,0,0,1-1.176,2.784c-1.392.048-2.856.192-4.248.36-.312.12-.7.336-.7.72a.97.97,0,0,0,.864.816,27.207,27.207,0,0,1,2.736-.48l-.072,2.256a20.436,20.436,0,0,0-3.312.624,1.183,1.183,0,0,0,1.368,1.2s1.224-.288,1.992-.384c0,1.176.072,2.184.192,3.888a1.1,1.1,0,0,0,1.8-.048c-.048-1.44-.1-3-.072-4.008.96.024,1.68.192,2.256-.144.216-.192.12-.648.12-.648a3.54,3.54,0,0,0-2.4-.672,14.323,14.323,0,0,1,.1-1.656,1.376,1.376,0,0,0-.528-.552C33.36-6.072,34.44-5.784,35.3-5.856Z" transform="translate(45.984 19.416)" fill="#518c03"/>
</svg>
