<svg xmlns="http://www.w3.org/2000/svg" width="139.637" height="22.397" viewBox="0 0 139.637 22.397">
  <path id="related-h2-title" d="M-60.6-17.688c-1.584-1.392-4.776-1.008-6.72-.768a2.168,2.168,0,0,0-.408.384,1.828,1.828,0,0,0-1.416-.408c-.888,2.592-.528,14.208-.168,18.5A1.4,1.4,0,0,0-67.7.672a3.193,3.193,0,0,0,.336-1.8c-.24-2.88-.432-6.888-.408-9.984,0,0,.408.48.84.432a24.353,24.353,0,0,1,4.272-.216.931.931,0,0,0,.84.552,1.039,1.039,0,0,0,1.128-.672A56.772,56.772,0,0,0-60.6-17.688ZM-50.376-2.88c-.048-4.92.048-9.744.216-14.64-1.44-1.224-5.376-1.272-7.128-.7a2.225,2.225,0,0,0-1.416.1,40.856,40.856,0,0,0-.048,6.456c.024.336.168,1.2.576,1.272a1.527,1.527,0,0,0,1.3-.6,3.926,3.926,0,0,0,1.272.144,14.834,14.834,0,0,1,3.408.12c.024,1.92,0,7.68-.048,8.832A14.752,14.752,0,0,1-55.2-1.7a18.379,18.379,0,0,0,1.776.816c.168.624.456,1.3.984,1.3a2.418,2.418,0,0,0,1.752-1.08A4.642,4.642,0,0,0-50.376-2.88ZM-66.12-17.4a14.82,14.82,0,0,1,3.552.072,35.057,35.057,0,0,1-.072,5.3,21.388,21.388,0,0,0-5.136.264,49.617,49.617,0,0,1,.336-5.76A6.655,6.655,0,0,0-66.12-17.4Zm14.04.168c-.072,1.488-.144,4.08-.144,5.28a22.957,22.957,0,0,0-4.728-.1,24.6,24.6,0,0,1,.048-5.16A15.5,15.5,0,0,1-52.08-17.232Zm-1.824,3.1a.939.939,0,0,0-.408-1.392,1.636,1.636,0,0,0-.96,0,.975.975,0,0,0-.336,1.344A4.527,4.527,0,0,1-53.9-14.136Zm-12.024-.024c.7-.024,1.224-.048,1.56-.1a1.143,1.143,0,0,0,0-1.176c-.456-.192-1.656-.264-1.92.24A1.4,1.4,0,0,0-65.928-14.16Zm7.08,7.416a15.514,15.514,0,0,1,2.9.192,1.885,1.885,0,0,0,1.152-.024c.1-.648-.216-1.008-.888-1.152A12.863,12.863,0,0,0-58.632-7.9s1.752-.768,2.184-1.584a1.769,1.769,0,0,0-1.368-.6c-.456,0-.84.336-1.176.984-.312.576-.744,1.2-.744,1.2a37.981,37.981,0,0,0-4.152.312c-.792.12-1.224.336-1.248.672-.048.576.864.72,1.272.672A19.385,19.385,0,0,1-60.48-6.7a7.511,7.511,0,0,1-.144,1.44c-.648.072-1.416-.048-1.992.024-.48.072-.744.264-.744.552,0,.384.336.6.96.648.48.048.96.024,1.536.024-.624,1.9-2.016,3.264-3.312,4.728a9.3,9.3,0,0,0,4.608-3.24,3.256,3.256,0,0,1,1.416,1.368C-57.912-.744-57.48,0-56.976,0a1.56,1.56,0,0,0,.72-.264A1.606,1.606,0,0,0-56.9-2.112,5.931,5.931,0,0,0-59.232-3.12a4.179,4.179,0,0,0,.312-.888,9.933,9.933,0,0,0,2.664-.24.861.861,0,0,0-.432-1.128,17.654,17.654,0,0,1-1.944.144A2.265,2.265,0,0,0-58.848-6.744Zm-2.784-1.344a1.113,1.113,0,0,0,.72-.312,1.407,1.407,0,0,0-.624-1.2,2.284,2.284,0,0,0-1.584-.336,3.136,3.136,0,0,0,.5,1.224A1.315,1.315,0,0,0-61.632-8.088ZM-26.256-3.96a1.28,1.28,0,0,0-.6-1.32,56.853,56.853,0,0,1-5.9.432v-1.56c.648-.024,1.776-.1,2.544-.1a3.926,3.926,0,0,0,.84.312c.528-.024.888-.576.984-1.68a52.11,52.11,0,0,0,.12-5.568c-.648-.744-3.408-.792-4.392-.792l.072-1.608a57.161,57.161,0,0,1,5.808.36,1.64,1.64,0,0,0,.24-.792c0-.6-1.08-.84-2.928-.912-.672-.024-2.3-.072-3.072-.072l.048-1.08c.048-1.152-.528-1.488-1.224-1.536-.6-.048-.912.24-.912.912l.024,1.752c-1.128.024-2.832.12-3.672.192-1.56.12-2.28.408-2.232.936.024.456.744.624,1.344.84a23.738,23.738,0,0,1,4.608-.552c.024.888.024,1.632.024,1.632-1.392.072-3.072.264-4.152.384-.6,1.1-.6,5.952.072,7.968a1.56,1.56,0,0,0,1.584-.576,14.01,14.01,0,0,0,2.448.024c-.024.552-.024,1.488-.024,1.488-1.1.024-3.12-.072-4.152-.072a3.891,3.891,0,0,0-1.7.288c-.024.792.528,1.152,1.7,1.2,1.2.048,2.856.024,4.128,0a4.73,4.73,0,0,0,.36,2.352c.768.168,1.56-.144,1.56-1.08l-.024-1.224A45.427,45.427,0,0,0-26.256-3.96ZM-42.1-15.624c0-1.632-1.536-2.328-3.792-2.424A11.586,11.586,0,0,0-43.2-14.5C-42.5-14.712-42.1-15.072-42.1-15.624ZM-30.24-12.84c.048,1.992.024,3.552-.048,5.016-.648.024-1.872.072-2.5.072-.024-.624,0-1.368.024-1.872a7.064,7.064,0,0,0,1.152.048c.5-.576.36-1.32-.48-1.416l-.648-.072a16.956,16.956,0,0,1,.072-1.8C-31.632-12.888-30.864-12.888-30.24-12.84Zm-4.344,3.312c0,.456,0,1.08-.024,1.848a21.232,21.232,0,0,1-2.472,0,34.628,34.628,0,0,1,0-4.992,19.2,19.2,0,0,0,2.5-.168c.024.456.024,1.368,0,1.848-.888.024-1.32.168-1.512.408-.12.744.048,1.056.456,1.272A3.758,3.758,0,0,1-34.584-9.528ZM-25.368-.72c-1.272.144-4.248.312-5.976.312-3.864,0-7.824-.984-10.464-.192a7.212,7.212,0,0,0,.84-2.712c0-1.32-.672-2.016-2.064-1.752A33.961,33.961,0,0,0-41.064-9.5c-.48-1.536-5.256-.672-5.712-.312a1.631,1.631,0,0,0,.72,1.416,5.186,5.186,0,0,1,2.76-.5,19.679,19.679,0,0,1-1.9,4.536c.36.648.72,1.008,1.128,1.08a1.771,1.771,0,0,0,.552-.72.953.953,0,0,1,.888-.48,1.707,1.707,0,0,1,.168.768,7.933,7.933,0,0,1-1.8,3.864A.877.877,0,0,0-44.568.7c0,.624.6.744,1.128.936A5.235,5.235,0,0,1-39.288.072c1.848.312,3.312.72,4.272.96a19.665,19.665,0,0,0,8.448,0A3.9,3.9,0,0,0-25.368-.72Zm9.984-16.248a1.567,1.567,0,0,0-.84-1.584,4.587,4.587,0,0,0-3.384-.288,1.107,1.107,0,0,0,.36,1.512C-18.48-17.088-16.1-16.488-15.384-16.968ZM-1.656-1.176c.192-.336-.672-2.112-1.272-3.312a8.762,8.762,0,0,1-.84,2.712,9.482,9.482,0,0,1-4.224.792C-9.5-.984-10.2-1.56-10.344-2.76a19.907,19.907,0,0,1,.24-4.824,19.02,19.02,0,0,1,4.7-.048.96.96,0,0,0,.432.984,1.772,1.772,0,0,0,1.7-1.32,27.661,27.661,0,0,0,.7-4.944,2.407,2.407,0,0,0-.672-1.8c-1.1-.864-7.488-1.152-8.664-.528-.624.336-.144,1.8.624,1.68a22.129,22.129,0,0,1,6.432-.12,25.1,25.1,0,0,1-.408,4.752A13.34,13.34,0,0,0-10.224-9.1,1.536,1.536,0,0,0-11.9-9.48,22.046,22.046,0,0,0-12.1-1.416C-11.664-.24-10.44.552-8.472.648A19.082,19.082,0,0,0-3.6.192,2.842,2.842,0,0,0-1.656-1.176Zm-11.928-12.5a1.172,1.172,0,0,0-.7-1.536,24.325,24.325,0,0,0-4.392-.1c-2.3.24-3.456.384-3.456,1.176,0,.408.576,1.08.96.96a20.871,20.871,0,0,1,2.64-.576A28.485,28.485,0,0,1-13.584-13.68Zm-1.3,2.928c0-.7-.7-1.056-2.016-1.056a7.408,7.408,0,0,0-2.9.5,1.223,1.223,0,0,0,.36,1.632c.936-.7,3.24-.624,4.032-.408C-14.976-9.96-14.88-10.368-14.88-10.752Zm.024,4.632c.072-.552-.24-1.08-.96-1.608-.648-.024-1.752-.072-2.424-.072-.936,0-1.392.36-1.392,1.008a2.231,2.231,0,0,0,.1.648A38.321,38.321,0,0,1-14.856-6.12ZM-13.8-2.712c-.408-.864-1.848-1.368-2.9-1.368A3.774,3.774,0,0,0-18.96-3.5a1.9,1.9,0,0,0-1.248-.336c-.408.768-.12,3.072.432,4.512a1.514,1.514,0,0,0,.888.912A1.561,1.561,0,0,0-18.048.7,6.024,6.024,0,0,0-15.912.528,1.311,1.311,0,0,0-15,1.752,2.5,2.5,0,0,0-14.184.528,10.146,10.146,0,0,0-13.8-2.712ZM-15.912-.48a20.331,20.331,0,0,1-2.424.048,6.535,6.535,0,0,1-.288-2.328,5.552,5.552,0,0,1,2.808,0A3.9,3.9,0,0,1-15.912-.48Zm37.176-4.3a1.093,1.093,0,0,0-.72-1.152,4.98,4.98,0,0,0-1.464-.264,2.869,2.869,0,0,0-.792-2.5,20.475,20.475,0,0,0-5.232-.36v-1.176a12.2,12.2,0,0,1,1.632.072c.216.024.672.336.96.336,1.344,0,1.728-2.808,1.968-3.768a2.06,2.06,0,0,0-2.04-1.1,24.425,24.425,0,0,0-2.448-.144v-1.152a49.471,49.471,0,0,1,6.7.36.889.889,0,0,0-.264-1.344,43.342,43.342,0,0,0-6.408-.312,7.126,7.126,0,0,0-.144-1.728c-.288-.648-1.512-.6-2.112-.5v2.376a65.7,65.7,0,0,0-7.032.6s-.336.648.024.984a1.292,1.292,0,0,0,1.152.312,55.4,55.4,0,0,1,5.808-.672v1.2c-1.344.1-2.736.312-2.736.312A6.986,6.986,0,0,0,6.5-14.472a12.908,12.908,0,0,0,.264,3.912c.264.792.72,1.128,1.392,1.032a4.274,4.274,0,0,0,.672-.7,1.085,1.085,0,0,0,.7.192c.36-.024.744-.1,1.272-.12v1.224a32.422,32.422,0,0,0-5.136.72,1.083,1.083,0,0,0,1.344,1.08c.888-.1,2.064-.384,3.768-.48L10.8-6.24c-3,.216-5.976.5-7.272.768l-.36.744c.288.432.768.7,1.776.528a51.308,51.308,0,0,1,5.832-.6v1.632c-1.824.024-3.5.024-4.728.048a1.175,1.175,0,0,0,.384,1.3s3.048.048,4.392,0l.024,1.776a11.947,11.947,0,0,1-2.76-.168,12.776,12.776,0,0,1,2.76,2.352s1.32,0,1.8-.7A11.107,11.107,0,0,0,13.056-1.9c1.872-.048,3.624-.264,3.624-.264.264.408.5.6.768.6.408,0,.816-.408,1.128-1.248a10.429,10.429,0,0,0,.384-1.944c.672.12,1.152.12,1.608.168A1.974,1.974,0,0,0,21.264-4.776Zm-5.952-8.736a6.414,6.414,0,0,1-.336,2.184,8.008,8.008,0,0,0-1.9-.144l.024-2.136A13.839,13.839,0,0,1,15.312-13.512ZM10.8-11.352c-.552,0-1.416.144-2.088.216a15.288,15.288,0,0,1-.144-2.28,1.465,1.465,0,0,0,.672.12c.384-.024,1.032-.168,1.56-.168Zm6.216,3.72a7.408,7.408,0,0,1,.024,1.3s-2.424-.1-3.96-.024V-7.752A20.439,20.439,0,0,1,17.016-7.632ZM16.8-3.408s-2.448.168-3.744.168V-4.92a34.388,34.388,0,0,1,3.912.024A5.6,5.6,0,0,1,16.8-3.408ZM45.888-8.376c.1-.744-.648-1.272-1.32-1.44-3.072-.768-12.456-.192-17.136.264a1.416,1.416,0,0,0-1.2.768A1.91,1.91,0,0,0,27.5-7.176a41.174,41.174,0,0,1,15.384-.768C44.064-7.7,45.744-7.344,45.888-8.376Zm23.88-7.368a2.987,2.987,0,0,0-.024-1.056,3.272,3.272,0,0,0-1.992-.528c-1.44,0-2.952.216-4.152.216l.336-1.32a1.84,1.84,0,0,0-1.848-.648,48.975,48.975,0,0,1-2.136,6.672,8.022,8.022,0,0,0,3.36-3.7,1.089,1.089,0,0,0,.84.36A39.454,39.454,0,0,1,69.768-15.744ZM60.1-11.016c.1-.5-.264-.744-1.056-.744-.456,0-1.824.1-2.256.12a1.473,1.473,0,0,0-.288-1.32,17.025,17.025,0,0,1,2.424.168c.408-.072.672-.48.72-1.224l.12-1.728c-.672-.792-2.352-.6-3.168-.624.144-.672-.1-.864-.552-1.248a14.761,14.761,0,0,1,2.592.072A2.247,2.247,0,0,0,60-17.736c.048-.7-.432-1.032-1.464-1.032a37.233,37.233,0,0,0-6.144.48A2.273,2.273,0,0,0,50.9-18.48c-.432,1.128,0,7.488.192,8.832a2.563,2.563,0,0,0,.96.408,4.385,4.385,0,0,0,1.1-1.032,32.148,32.148,0,0,1,6.672-.336A.758.758,0,0,0,60.1-11.016ZM54.84-16.272c-.552.024-1.488.144-2.208.24,0-.6.024-1.008.048-1.272.672-.048,1.7-.144,2.208-.168Zm3.12.888a7.655,7.655,0,0,1-.048,1.368c-1.512.048-3.288.192-5.328.408L52.56-15.24c.288-.072.432.168.552.336A18.658,18.658,0,0,1,57.96-15.384ZM69.288-12c-.024-.672-.648-1.008-1.944-1.008-1.128,0-2.4-.024-3.312.048-.744.048-1.2.288-1.272.648a.906.906,0,0,0,.624.984,3.073,3.073,0,0,0,.888-.192c1.032-.312,2.736,0,4.344,0C68.88-11.52,69.1-11.784,69.288-12ZM55.1-11.616c-.792.072-1.872.192-2.424.288-.024-.816-.072-1.512-.072-1.512a2.36,2.36,0,0,0,.96.192,10.722,10.722,0,0,0,1.44-.168ZM69.936.7a6.538,6.538,0,0,0-1.32-2.856S68.472-.528,67.992-.1c-.744.144-4.032.384-4.416-.264-.336-.552,0-1.8.1-2.5.48.024,1.44.1,1.44.1a1.1,1.1,0,0,0,1.68.12,24.029,24.029,0,0,0,.648-6.216c-.432-.864-2.328-1.128-4.512-1.152a45.122,45.122,0,0,0-6,.432c-.336-.24-1.656-.456-1.992-.12-.264,2.112-.36,6.048.552,7.512a1.363,1.363,0,0,0,1.56-.36,7.218,7.218,0,0,0,1.488-.072C56.52.312,52.872,1.8,51.24,2.52a16.419,16.419,0,0,0,5.328-1.128c2.112-1.1,3.888-3.12,3.888-3.768,0-.24-.456-.456-.456-.456s1.3-.1,1.656-.1c-.048.6-.1,1.488-.1,1.752,0,1.464,1.128,2.16,2.4,2.52a11.4,11.4,0,0,0,4.512.216C69.36,1.44,69.864,1.152,69.936.7ZM65.16-8.688c-.024,1.44-.1,2.952-.192,4.92a31.991,31.991,0,0,0-7.872.1,39.182,39.182,0,0,1,0-4.8A31.279,31.279,0,0,1,65.16-8.688Zm-1.728,1.68a.767.767,0,0,0-.288-.936,24.172,24.172,0,0,0-4.224.192c-.216.36-.192,1.176.216,1.128C60.528-6.816,62.808-6.768,63.432-7.008ZM63.264-4.68a.929.929,0,0,0-.072-1.272,19.145,19.145,0,0,0-4.176.072,1.291,1.291,0,0,0,.072,1.248A9.09,9.09,0,0,1,63.264-4.68Z" transform="translate(69.699 19.877)" fill="#518c03"/>
</svg>
