<svg xmlns="http://www.w3.org/2000/svg" width="183.751" height="21.907" viewBox="0 0 183.751 21.907">
  <path id="search-h2-title" d="M19.608-14.64c-2.736-1.344-12.048-.768-14.064.048a1.991,1.991,0,0,0,.744,1.56A32.289,32.289,0,0,1,16.8-13.7C15.384-9.48,11.976-4.776,9.312-1.632L7.68.288C11.5-.432,17.88-8.736,19.608-14.64Zm13.08,8.064a39.183,39.183,0,0,1-.144-8.808s-1.176-.408-1.776-.552c-.6,1.824-.864,8.52.36,10.224A6.688,6.688,0,0,0,32.688-6.576Zm6.792-9a50.687,50.687,0,0,1-.6,7.824A52.1,52.1,0,0,1,36.312.84,8.276,8.276,0,0,0,39.528-3a31.874,31.874,0,0,0,2.256-12.384ZM68.04-8.52c.6-.36.456-1.1,0-1.776a74.588,74.588,0,0,0-15.7,0,2.151,2.151,0,0,0,.648,2.3,3.342,3.342,0,0,1,.912-.384C56.448-8.832,65.112-8.592,68.04-8.52ZM91.824-14.9c-3.072-1.128-9.984-.7-12.984,0,0,0-1.224-1.008-2.112-.816-.192,1.68.528,6.1,1.32,7.224A2.024,2.024,0,0,0,79.68-9.528c-.072-.432-.5-3.216-.576-3.888a30.474,30.474,0,0,1,10.248-.408C88.2-9.576,86.04-3.312,82.44.5L84.672-.6C87.912-3.024,91.56-10.632,91.824-14.9ZM116.04-8.52c.6-.36.456-1.1,0-1.776a74.588,74.588,0,0,0-15.7,0,2.151,2.151,0,0,0,.648,2.3,3.342,3.342,0,0,1,.912-.384C104.448-8.832,113.112-8.592,116.04-8.52Zm22.008,1.1c-.24-.72-1.248-1.152-1.848-1.368a21.305,21.305,0,0,0-4.464-1.032c.072-1.92.24-4.488.36-6.432a2.043,2.043,0,0,0-1.92.12,94.515,94.515,0,0,0-.1,16.536,2.445,2.445,0,0,0,1.728-.072c-.024-2.736-.24-6.432-.072-9.552a25.777,25.777,0,0,1,5.208,2.928C137.952-5.544,138.168-7.056,138.048-7.416Zm2.784-5.376a1.994,1.994,0,0,0-2.256-1.368c.408.72.912,2.064,1.7,2.208A.839.839,0,0,0,140.832-12.792Zm-2.712.336a2,2,0,0,0-1.944-1.128c.312.624.648,1.8.984,2.4C138.192-11.208,138.408-11.88,138.12-12.456Zm28.608-.6a5.986,5.986,0,0,0-1.488-.936,14.4,14.4,0,0,1-5.064-5.5,8.89,8.89,0,0,0-1.9-.264,33.021,33.021,0,0,1-5.424,8.64c-.12-.576-1.344-1.008-1.9-1.128a3.778,3.778,0,0,1,.048-.6,19.861,19.861,0,0,1,2.088.168c.24-.288.456-.72.144-1.032a3.688,3.688,0,0,0-2.208-.552c.024-1.68.024-3.216.072-4.176a1.818,1.818,0,0,0-1.848-.648c-.12,1.128-.072,3.288-.168,4.9-.792.048-3.144.336-3.624.912a1.2,1.2,0,0,0,.936,1.248,4.8,4.8,0,0,1,2.208-.672A55.754,55.754,0,0,1,145.272-4.1c1.536-.192,3.216-3.1,3.84-4.632,0,0-.048,5.808,0,8.256a3.778,3.778,0,0,0,.312,1.7c.384.648,1.128.432,1.656.12-.024-5.592-.072-9.936-.12-12.96a4.2,4.2,0,0,1,.648,1.488,1.239,1.239,0,0,0,1.248,1.008,2.351,2.351,0,0,0,.24-1.776c1.464-.744,2.328-1.224,2.688-1.464a.889.889,0,0,0,.576.624,23.8,23.8,0,0,1,6.528-.144,1.016,1.016,0,0,0,.336-.864c.5.648,1.032,1.248,1.632,1.248.216,0,.5-.24.84-.792A1.349,1.349,0,0,1,166.728-13.056Zm-3.888-.288a33.78,33.78,0,0,0-5.88.072,22.145,22.145,0,0,0,3.1-4.728A29.485,29.485,0,0,0,162.84-13.344ZM166.872-.408c-2.328-.864-5.424-2.232-6.288-4.776a8.161,8.161,0,0,0,2.136-.048,1.3,1.3,0,0,0,1.152.7c1.416-.72.984-3.528,1.464-4.632a2.914,2.914,0,0,0-2.16-.984c-.552-.048-1.8-.216-2.592-.24l-.048-.648c-.336-.336-1.344-1.032-1.968-.5a5.932,5.932,0,0,1,.072,1.224c-.888.072-2.232.336-2.664.408-.48-.144-1.68-.456-2.064.336.408,1.512.12,3.144.672,4.608.24.6.528.888,1.008.888.456,0,.768-.312.888-.96a.616.616,0,0,0,.432.168c.336,0,.912-.168,1.152-.168a11.317,11.317,0,0,1-5.208,6.7,4.492,4.492,0,0,0,1.464-.264,9.5,9.5,0,0,0,5.712-6.12,12.163,12.163,0,0,0,4.056,5.88,2.016,2.016,0,0,0,1.512-.7C166.1-.1,166.512-.1,166.872-.408ZM163.1-9.048a19.8,19.8,0,0,1-.216,2.64c-.552.048-1.32-.048-2.472-.024a20.518,20.518,0,0,0,.192-2.832A15.352,15.352,0,0,1,163.1-9.048Zm-4.464-.12a17.075,17.075,0,0,1-.288,2.784c-.456.12-1.272.168-1.872.336-.216-1.224-.336-2.088-.384-2.688A11.9,11.9,0,0,1,158.64-9.168Zm28.08-2.952c.792-.168,2.592-1.008,2.568-1.656-.024-.432-.888-.768-2.088-.96a36.741,36.741,0,0,0-5.76-.36l.072-1.608c1.536-.048,3.984.144,3.984.144.192-.5.12-.936-.456-1.128a14.12,14.12,0,0,0-3.5-.288,10.239,10.239,0,0,0-.048-1.056,2.583,2.583,0,0,0-2.064-.48s-.024.984-.024,1.608c-1.32.1-2.736.144-3.888.336-.576.1-1.1.456-1.08.816.024.648.792.744.792.744a23.9,23.9,0,0,1,4.176-.6c0,.72.024,1.584.024,1.584-2.5.12-5.952.624-5.952.624a1.89,1.89,0,0,0-.84-.48,5.422,5.422,0,0,1-1.128,1.92c-.6.768-.672,2.544.432,2.544.984,0,1.656-1.944,1.7-2.9a4.252,4.252,0,0,0,1.08.12,29.538,29.538,0,0,1,4.248-.456,25.914,25.914,0,0,1-2.688,3.1s-.912-.144-1.152.408a.876.876,0,0,0,.264,1.1l.36-.048a8.442,8.442,0,0,1,2.688.888l-1.3,1.488c-1.464.168-2.88.48-2.88.48s-.432.264-.432.6c0,.48.624.96,1.224,1.08a16.3,16.3,0,0,1,4.32-.792s-.048,2.976.024,4.656c.024.792-.288,1.536.024,2.28.288.72,1.464.72,1.944.216.024-2.952,0-5.16-.024-6.624a2.107,2.107,0,0,0-.768-.624c1.3-.072,2.28-.12,3.048-.1,0,0,.384,1.056.84,1.1a1.207,1.207,0,0,0,1.08-1.224c.048-1.248-1.7-3.1-3.024-2.472a6.4,6.4,0,0,1,.768,1.3s-2.568-.12-4.056-.024c0,0,2.928-2.664,3.456-3.072.432-.336,1.056-.552,1.008-.984-.072-.6-1.056-.72-1.632-.648a25.786,25.786,0,0,0-2.688,2.256,8.847,8.847,0,0,0-1.3-.72c.864-.84,1.656-1.608,2.3-2.136a.823.823,0,0,0,.7-.552c-.168-.624-1.032-1.032-1.032-1.032a33.44,33.44,0,0,1,6.048.24,10.967,10.967,0,0,1-.792,2.3A6.194,6.194,0,0,0,186.72-12.12Zm-8.4,9.192a1.757,1.757,0,0,0-1.7-.72A22,22,0,0,1,171.552.36C173.688.768,177.48-1.176,178.32-2.928Zm5.76,1.56c.864.912,1.656,1.44,2.9.792.192-1.7-3.336-2.664-4.632-2.4A16.114,16.114,0,0,1,184.08-1.368Z" transform="translate(-5.537 19.752)" fill="#518c03"/>
</svg>
