<svg xmlns="http://www.w3.org/2000/svg" width="16" height="16" viewBox="0 0 16 16">
  <g id="serch-icon" transform="translate(-0.169)">
    <path id="パス_34" data-name="パス 34" d="M10.477,1.766a6.04,6.04,0,1,0,0,8.542A6.046,6.046,0,0,0,10.477,1.766Zm-.839,7.7a4.854,4.854,0,1,1,0-6.864A4.855,4.855,0,0,1,9.639,9.47Z" transform="translate(0 0)" fill="#333"/>
    <path id="パス_35" data-name="パス 35" d="M78.689,110.109a3.784,3.784,0,0,0-.242,4.287.216.216,0,1,0,.368-.225,3.354,3.354,0,0,1,.214-3.8.216.216,0,0,0-.34-.265Z" transform="translate(-75.306 -106.659)" fill="#333"/>
    <path id="パス_36" data-name="パス 36" d="M319.568,317.717l-4.384-4.27a.612.612,0,0,0-.86.006l-.7.7a.611.611,0,0,0-.005.859l4.27,4.384a1.09,1.09,0,0,0,1.716.065A1.112,1.112,0,0,0,319.568,317.717Z" transform="translate(-303.837 -303.841)" fill="#333"/>
  </g>
</svg>
