<svg xmlns="http://www.w3.org/2000/svg" width="160.248" height="21.936" viewBox="0 0 160.248 21.936">
  <path id="sns-h2-title" d="M13.656-17.136a2.576,2.576,0,0,0-1.872-1.344c-.984,0-.5,1.056-.48,1.656.072,2.064.024,12.216-.144,15.6a20.713,20.713,0,0,1-3.336.072L9.6-.144c.264.792.96,1.68,1.584,1.68a2.814,2.814,0,0,0,1.32-.408c.912-1.176.936-2.448.936-4.2C13.416-7.536,13.512-14.5,13.656-17.136ZM8.76-12a2.448,2.448,0,0,0-2.4-1.488c-.672,3.48-2.184,6.072-3.96,9.12a12.9,12.9,0,0,0,1.56-.816A14.128,14.128,0,0,0,8.76-12ZM20.976-6.048c.048-2.928-2.376-6.672-5.424-7.1a4.265,4.265,0,0,0,.48,1.248,23.453,23.453,0,0,1,2.592,5.76c.216.768.648,1.68,1.488,1.68C20.688-4.464,20.952-5.016,20.976-6.048ZM44.232-16.3c0-.312-.528-.624-.984-.7a18.723,18.723,0,0,0-2.736-.216,5.873,5.873,0,0,0-.048-1.608,1.771,1.771,0,0,0-1.992-.24,16.114,16.114,0,0,1-.024,1.824c-1.632-.024-2.976-.024-4.848.072a8.48,8.48,0,0,1,.1-1.464,2.059,2.059,0,0,0-1.848-.408,4.369,4.369,0,0,0-.336,1.992,12.127,12.127,0,0,0-3.84.72,1.364,1.364,0,0,0,.552,1.128,30.6,30.6,0,0,1,3.312-.5,6.542,6.542,0,0,0,.432,1.68,1.138,1.138,0,0,0,1.3-.432A2.715,2.715,0,0,0,33.6-15.84a40.648,40.648,0,0,1,4.8-.1,2.978,2.978,0,0,0,.288,1.512,1.719,1.719,0,0,0,1.368-.24,9.737,9.737,0,0,0,.336-1.152c1.128,0,2.112.168,2.76.192C43.872-15.6,44.232-15.912,44.232-16.3Zm.84,4.176a2.144,2.144,0,0,0-1.272-.768,25.716,25.716,0,0,0-6.672-.576l.12-1.512a2.211,2.211,0,0,0-2.208-.312l-.1,1.944a35.653,35.653,0,0,0-6.048.768,4.171,4.171,0,0,0-.72-.7s-.7.864-1.176,1.488a2.885,2.885,0,0,0-.768,1.656,1.647,1.647,0,0,0,.408,1.08,1.923,1.923,0,0,0,1.32-.144,3.12,3.12,0,0,0,1.248-2.3,2.7,2.7,0,0,0,.648.024,45.909,45.909,0,0,1,12.168-.408,6.923,6.923,0,0,1-.192,1.608c.744-.384,1.344-.648,1.872-.912A5.109,5.109,0,0,0,45.072-12.12ZM41.424-3.5c-1.008-1.512-6.576-.816-8.112-.576,0-.192-.024-1.032.024-1.752a1.7,1.7,0,0,0,.936.192,22.22,22.22,0,0,1,3.96-.312l.336.48a1.45,1.45,0,0,0,1.632-1.2,15.164,15.164,0,0,0,.264-3.528,1.653,1.653,0,0,0-.72-.72,17.2,17.2,0,0,0-6.432.168c-.12-.048-.96-.432-1.272-.312-.36.12-.552.7-.6,1.656-.048,1.2-.24,8.76.312,11.064a1.678,1.678,0,0,0,1.9-.624A25.6,25.6,0,0,1,38.9.936c.024.5.264.768.744.768a1.849,1.849,0,0,0,1.44-.816A21.876,21.876,0,0,0,41.424-3.5Zm-2.9-6.36a9.794,9.794,0,0,1-.1,2.616,44.774,44.774,0,0,0-5.016.264c.024-1.368.12-2.472.144-2.664A19.169,19.169,0,0,1,38.52-9.864Zm.768,6.816a13.659,13.659,0,0,1-.144,2.76,23.813,23.813,0,0,0-5.712.1,27.584,27.584,0,0,1-.1-2.76,3.338,3.338,0,0,0,1.176.12A18.906,18.906,0,0,1,36.6-3.12,9.918,9.918,0,0,1,39.288-3.048Zm31.224-9.768a1.717,1.717,0,0,0-.648-1.32A5.47,5.47,0,0,0,68.28-14.4a29.189,29.189,0,0,0-.048-3.84c-.336-.5-1.7-1.416-2.352-.792a44.4,44.4,0,0,1,.1,4.656,29.8,29.8,0,0,0-5.064.384,1.142,1.142,0,0,0,.48,1.464c1.176-.1,2.976-.168,4.656-.24.1,5.616.168,10.776-.12,12.048L63.1-.7c1.1.576,2.208,1.1,2.328,2.544,1.752-.12,2.544-1.248,2.688-3.024.216-2.52.264-8.352.144-11.64C69.072-12.816,69.648-12.744,70.512-12.816Zm-10.752.024c.216-.672.1-1.152-.7-1.32a16.384,16.384,0,0,0-2.616-.264c.048-1.3.072-2.52.24-3.816-.432-.456-1.488-1.128-2.136-.744a39,39,0,0,0-.288,4.632c-1.56.072-3.024.336-3.84.432a.839.839,0,0,0-.384.7c0,.552.36.96,1.056,1.08a12.89,12.89,0,0,1,2.568-.72,60.965,60.965,0,0,1-4.32,10.032c1.92-.72,3.6-3.528,4.872-6.36,0,0-.024,6.6.024,9.5.024,1.368,1.7,1.776,2.184.912-.144-2.52-.408-7.68-.264-11.448a5.594,5.594,0,0,1,1.08,1.92c.264,1.032.792,1.488,1.248,1.488a2.8,2.8,0,0,0,.984-.48c.024-1.8-.84-2.5-3.288-4.032a10.424,10.424,0,0,1,.168-1.608c.576.048,1.224.12,1.8.192A2.949,2.949,0,0,0,59.76-12.792Zm4.68,5.544c.192-1.416-1.464-3.432-3.264-3.072a8.894,8.894,0,0,1,1.3,3.48,1.247,1.247,0,0,0,.984.432A.861.861,0,0,0,64.44-7.248Zm25.608,6.12c-.5-1.1-1.272-.84-2.328-.552-1.488.384-5.112.7-6.264-.192-.912-.7-.7-2.52-.192-3.408.816-1.464,2.712-3.048,4.2-4.392.648-.576,4.536-3.528,4.56-3.936.048-.888-1.056-1.464-1.824-1.656l-.192.792c-1.344,1.416-3.048,3.144-4.632,4.608a27.152,27.152,0,0,1-1.128-7.584c-.192-.912-2.184-1.056-2.592-.912,0,0,.576,1.128.72,1.512a37.362,37.362,0,0,1,.7,4.2,14.166,14.166,0,0,0,1.176,3.72c-1.1,1.176-2.9,2.664-2.784,5.04a4.814,4.814,0,0,0,.912,2.448A6.571,6.571,0,0,0,85.992.552C87.7.432,89.76.144,90.048-1.128Zm18.288-16.056c0-.36-.5-.6-1.536-.672-.792-.048-1.632-.072-2.424-.12l.048-.936c-.216-.36-.72-.6-1.656-.72a7.524,7.524,0,0,0-.144,1.7c-1.344,0-2.976.12-4.176.216a.993.993,0,0,0,.7,1.224,25.356,25.356,0,0,1,3.456-.384v.864c-.648.048-1.7.216-1.7.216a1.905,1.905,0,0,0-1.68.144,10.285,10.285,0,0,0,.36,4.56,1.718,1.718,0,0,0,1.488-.1,9.091,9.091,0,0,0,1.608-.024l.048.912a28.667,28.667,0,0,0-4.1.672.894.894,0,0,0,1.1.912,29.432,29.432,0,0,1,2.976-.5c.1.48.1,1.272.216,1.68a1.32,1.32,0,0,0,1.56-1.32,1.827,1.827,0,0,0-.072-.5l1.608-.1a1.851,1.851,0,0,0,1.272-.408c-.048-.552-.408-.672-1.1-.672-.576,0-1.44.048-1.944.1v-.816a16.111,16.111,0,0,0,1.68-.24,1.261,1.261,0,0,0,1.488-.024,17.487,17.487,0,0,0,.288-3.96c-.672-.528-2.544-.576-3.384-.576l.024-.864a12.6,12.6,0,0,1,3.624.432A1.077,1.077,0,0,0,108.336-17.184Zm9.912,3a6.064,6.064,0,0,1-1.008-2.328s-.216,1.512-.576,1.728a1.552,1.552,0,0,1-1.248-.12,6.881,6.881,0,0,1,.12-2.064c-.792-1.032-2.88-1.032-3.864-.768a1.606,1.606,0,0,0-1.464-.5,11.881,11.881,0,0,1-1.944,4.9c2.328-.144,3.024-2.16,3.336-3.384a5.655,5.655,0,0,1,2.208.048,6.665,6.665,0,0,0,.168,2.472,5.144,5.144,0,0,0,2.616.744A1.878,1.878,0,0,0,118.248-14.184ZM106.008-15a7.363,7.363,0,0,1-.048,2.616,16.453,16.453,0,0,1-1.752.216V-13.1c.624-.024,1.032.024,1.032-.6,0-.408-.408-.6-1.008-.528l.024-.912A5.148,5.148,0,0,1,106.008-15Zm-3.36,2.88a9.166,9.166,0,0,1-1.728,0,8.754,8.754,0,0,1-.144-2.736,16.45,16.45,0,0,1,1.824-.264v.984l-.816.072a.941.941,0,0,0-.1.432c0,.576.48.648.936.552Zm15.6,3.144a38.894,38.894,0,0,1-4.224-1.152c.864-.936,1.464-1.7,1.464-2.424,0-.456-.408-.768-1.2-.984a8.34,8.34,0,0,0-4.848.312.834.834,0,0,0,.336.912,7.923,7.923,0,0,1,3.888-.216,4.614,4.614,0,0,1-1.224,1.8,43.437,43.437,0,0,1-4.08-1.68c-.072.84,2.016,1.944,3.1,2.688a9.732,9.732,0,0,1-2.016,1.248,4.151,4.151,0,0,0,3.432-.5,10.171,10.171,0,0,0,2.976,1.032A13.764,13.764,0,0,0,118.248-8.976ZM114.288.288A2.322,2.322,0,0,0,112.536-1.3a9.489,9.489,0,0,0-2.736-.24c0-.552.024-1.248-.216-1.464l1.7-.144.216.648c.768.312,1.464.312,1.464-.7a6.51,6.51,0,0,0-.528-1.92c-.528-.216-1.032-.456-1.584-.1a4.621,4.621,0,0,0,.216.912c-.864.12-2.016.264-3.432.384a11.638,11.638,0,0,1,3.624-2.376c.648-.288.336-1.152-.024-1.536A6.983,6.983,0,0,0,108.1-6.36a3.511,3.511,0,0,0-1.656-.288,18.324,18.324,0,0,0,2.64-2.088,1.063,1.063,0,0,0-1.032-1.128c-1.2,1.008-2.328,2.016-3.6,2.952-.456.336-.672.576-.7.72-.072.5.24.768.936.768.576,0,1.752-.216,2.232.12L105.5-3.84a2.432,2.432,0,0,0-1.7.84,1.122,1.122,0,0,0,.888.936c.312.024,2.64-.648,3.1-.768a21.436,21.436,0,0,1,.048,3.768c0,.744.264,1.368,1.08,1.368.5,0,.792-.456.912-1.368l.048-2.136A30.851,30.851,0,0,1,113.3.72C113.616.864,113.976.576,114.288.288ZM107.136-.7c.072-.5-.768-1.056-1.2-1.056a30.657,30.657,0,0,1-4.92,2.52l2.688-.1C104.328.648,107.016.264,107.136-.7Zm27.552-10.128c-.528-1.632-1.9-2.04-4.728-1.872a32.488,32.488,0,0,0,1.056-4.32c.072-.6-.84-1.248-1.656-1.008a29.049,29.049,0,0,1-1.056,5.4c-1.3.1-2.784.12-4.272.192-.408,1.2.192,1.584,1.08,1.56.84,0,2.232-.24,2.88-.264a57.616,57.616,0,0,1-4.056,9.84c.12.552.816.864,1.176.984,1.272-1.272,3.864-8.376,4.488-10.992,1.032-.1,2.952-.432,3.768.216.5,1.2-.024,4.176-.672,5.928-.552,1.512-1.2,2.952-2.28,3.576l-2.328-.456s.792.624,1.344,1.128c.144.864.5,1.464,1.536,1.464.84,0,2.376-2.184,3.048-4.2A14.532,14.532,0,0,0,134.688-10.824Zm7.752-5.736a1.994,1.994,0,0,0-2.256-1.368c.408.72.912,2.064,1.7,2.208A.839.839,0,0,0,142.44-16.56Zm-2.256.792A2,2,0,0,0,138.24-16.9c.312.624.648,1.8.984,2.4C140.256-14.52,140.472-15.192,140.184-15.768Zm.432,6.336c-.048-2.136-1.44-3.336-2.664-4.656l-2.256-1.08a24.525,24.525,0,0,1,2.928,4.872,2.481,2.481,0,0,1,.12,1.608l-1.992-.144a8.963,8.963,0,0,0,1.392.936,1.51,1.51,0,0,0,1.608.792C140.376-7.248,140.64-8.688,140.616-9.432Zm22.032,4.344a5.268,5.268,0,0,0-1.608-3.7c-1.848-1.488-4.968-1.128-7.128-.216a51.336,51.336,0,0,1,4.944-6.648,4.166,4.166,0,0,0-.888-1.488,56.15,56.15,0,0,1-6.48.24,2.4,2.4,0,0,0,.576,1.8c1.392-.216,3-.456,4.416-.624-1.608,2.592-3.5,5.016-5.232,7.632A8.625,8.625,0,0,0,149.712-5.3c-.048.36.744,1.128,1.2.72.24-.216.96-1.2,1.392-1.656a6.971,6.971,0,0,1,6.36-2.28c1.392.264,2.3,2.04,2.28,3.6a3.283,3.283,0,0,1-.84,2.184c-1.944-1.272-5.424-2.136-7.032-.528a1.849,1.849,0,0,0,.216,2.856c1.488,1.152,4.7.936,6.336.144A5.106,5.106,0,0,0,162.648-5.088ZM158.976-1.68a3.884,3.884,0,0,1-2.616.912,2.763,2.763,0,0,1-1.824-.576c-.288-.312-.312-.792.12-1.44A5.516,5.516,0,0,1,158.976-1.68Z" transform="translate(-2.4 19.632)" fill="#518c03"/>
</svg>
