<?xml version="1.0" encoding="utf-8"?>
<!-- Generator: Adobe Illustrator 25.2.3, SVG Export Plug-In . SVG Version: 6.00 Build 0)  -->
<svg version="1.1" id="レイヤー_1" xmlns="http://www.w3.org/2000/svg" xmlns:xlink="http://www.w3.org/1999/xlink" x="0px"
	 y="0px" viewBox="0 0 129 134.7" style="enable-background:new 0 0 129 134.7;" xml:space="preserve">
<style type="text/css">
	.st0{fill:#612B17;}
	.st1{fill:none;}
	.st2{fill:#E8A35A;}
	.st3{fill:#D38439;}
	.st4{fill:#D98A40;}
	.st5{fill:#CD7E34;}
	.st6{fill:#AF6322;}
	.st7{fill:#B86823;}
	.st8{fill:#E89D51;}
	.st9{fill:#C7782E;}
	.st10{fill:#C07228;}
	.st11{fill:#DB934E;}
	.st12{fill:#E29346;}
	.st13{fill:#E3994D;}
	.st14{opacity:0.7;fill:#915B25;enable-background:new    ;}
	.st15{fill:#FFFFFF;}
</style>
<g>
	<g id="レイヤー_2_1_">
		<g id="aw">
			<path class="st0" d="M115.6,109.6c1.4-1.9,2.8-3.8,4-5.8l0,0c1.8-2.9,3.3-6,4.6-9.2c0.7-1.6,1.2-3.2,1.7-4.8
				c1.4-4.3,2.3-8.8,2.7-13.3c0.2-2,0.3-4.1,0.3-6.2c0-0.6,0-1.3,0-1.9c-0.1-2-0.2-4-0.5-6c-0.1-1-0.3-2-0.4-3l0,0
				c0-0.3-0.1-0.5-0.1-0.8c-0.5-2.5-1.1-5-1.8-7.4l0,0l-0.3-1c-0.7-2.2-1.6-4.3-2.5-6.5c-0.2-0.4-0.4-0.8-0.6-1.2l0,0
				c-0.5-1.1-1.1-2.3-1.7-3.4c-0.2-0.5-0.5-0.9-0.8-1.4c-0.6-1-1.2-2-1.9-3l0,0c-0.2-0.3-0.3-0.5-0.5-0.8c-1-1.4-2-2.8-3-4.1
				c-0.5-0.6-1-1.2-1.5-1.8l-0.1-0.1l0,0c-0.2-0.3-0.4-0.5-0.7-0.8l0,0c-0.3-0.4-0.7-0.8-1-1.1c-0.6-0.7-1.3-1.3-2-2
				c-0.5-0.5-0.9-0.9-1.4-1.3l0,0l-0.9-0.8c-0.8-0.7-1.7-1.5-2.6-2.1l-1.4-1.1l-1.4-1l0,0l-0.8-0.5c-0.6-0.4-1.2-0.8-1.8-1.2
				l-0.2-0.1l-1.5-0.9l-0.8-0.5l-0.5-0.3l-0.3-0.2l-0.6-0.3l-0.6-0.3l0,0L94.2,13l0,0L93,12.4L92.3,12c-0.6-0.3-1.3-0.6-1.9-0.9
				l-0.6-0.3l-1.2-0.5l-1-0.4l0,0C86.7,9.6,85.9,9.3,85,9l-0.9-0.3c-0.7-0.2-1.3-0.4-2-0.6L81,7.9l0,0c-0.4-0.1-0.8-0.2-1.2-0.3l0,0
				l-1-0.2c-0.5-0.1-1-0.2-1.5-0.3L76,6.8l0,0l-1.8-0.3c-0.3-0.1-0.7-0.1-1.1-0.2c-0.9-0.1-1.7-0.2-2.6-0.3l0,0
				c-0.6,0-1.3-0.1-1.9-0.2l-1.2-0.1h-1.4h-2.3h-1.4l0,0c-0.8,0-1.5,0.1-2.2,0.1c-1.8,0.1-3.5,0.3-5.2,0.6c-1.1,0.2-2.2,0.3-3.3,0.6
				l-1.8,0.4l-1.3,0.3C48,7.9,47.4,8,46.9,8.2s-1.3,0.4-2,0.6l-1,0.3l-1.5,0.5c-2.4,0.9-4.7,1.9-7,3L34,13.4c-1.5,0.8-3,1.7-4.5,2.6
				c-1.6,1-3.1,2.1-4.5,3.2l0,0c-3.2,2.5-6.2,5.3-8.9,8.4l0,0c-1.8,2-3.4,4.1-4.9,6.3C10.4,35,9.7,36.2,9,37.3s-1.5,2.6-2.1,3.9
				c-0.1,0.3-0.3,0.5-0.4,0.8c-0.2,0.4-0.4,0.9-0.6,1.3c-0.4,0.9-0.8,1.8-1.2,2.8c-0.8,2.1-1.6,4.2-2.2,6.4
				c-0.2,0.6-0.3,1.2-0.5,1.8s-0.3,1.2-0.4,1.8l-0.4,1.7l-0.2,1c-0.1,0.4-0.1,0.8-0.2,1.2s-0.1,0.6-0.1,0.9
				c-0.1,0.6-0.2,1.2-0.2,1.8s-0.1,1.3-0.2,2c0,0.4-0.1,0.9-0.1,1.3s0,0.8-0.1,1.1c0,0.6,0,1.3-0.1,1.9c0,0.4,0,0.8,0,1.2
				c0,0.8,0,1.6,0.1,2.4c0,0.5,0,1,0.1,1.6l0,0c0,0.4,0,0.7,0.1,1.1c0.1,0.7,0.1,1.3,0.2,2c0,0.4,0.1,0.9,0.2,1.3s0.1,1,0.2,1.5
				s0.1,0.7,0.2,1.1l0,0c0.1,0.7,0.2,1.4,0.4,2.1c0.1,0.3,0.1,0.5,0.2,0.8c0.1,0.5,0.2,0.9,0.3,1.4l0,0c0,0.2,0.1,0.4,0.2,0.7h0
				c0.1,0.4,0.2,0.9,0.3,1.3s0.2,0.9,0.4,1.3c0.2,0.7,0.4,1.4,0.7,2.1c0.1,0.4,0.2,0.7,0.4,1.1l0.4,1.2l0,0c0.2,0.4,0.3,0.8,0.5,1.2
				l0,0c0.2,0.4,0.3,0.8,0.5,1.2c0.1,0.2,0.2,0.4,0.2,0.6c0.5,1.2,1.1,2.4,1.7,3.6c0.5,0.9,0.9,1.8,1.4,2.6l0,0
				c0,0.1,0.1,0.1,0.1,0.2c0.2,0.4,0.5,0.8,0.7,1.2l0.5,0.7l1,1.6l0.4,0.6c0.5,0.7,1,1.4,1.5,2.1l0,0l0.5,0.6l0.8,1l0,0
				c0.6,0.8,1.3,1.6,1.9,2.3l0.2,0.2c0.3,0.3,0.6,0.7,0.9,1c1.1,1.1,2.1,2.2,3.2,3.3l0.5,0.5l0,0c0.4,0.4,0.8,0.8,1.3,1.1
				s1,0.8,1.4,1.2c1.6,1.3,3.2,2.5,4.9,3.7c0.5,0.4,1.1,0.7,1.6,1.1l0.9,0.6c2.4,1.4,4.8,2.7,7.4,3.9c1.7,0.8,3.4,1.4,5.2,2.1
				c1.1,0.4,2.3,0.8,3.4,1.1l0,0c1.3,0.4,2.6,0.7,3.9,1c0.8,0.2,1.6,0.3,2.3,0.5l0,0c3.7,0.7,7.5,1,11.3,1c1.4,0,2.8-0.1,4.2-0.1
				l0,0c1.8-0.1,3.7-0.3,5.5-0.6c1.4-0.2,2.7-0.5,4.1-0.8c9.1-2,17.7-5.9,25.1-11.6l0,0L115.6,109.6z"/>
			<path class="st1" d="M70.6,0.3L70.6,0.3C68.3,2.7,66,5,63.7,7.4C66,5,68.3,2.7,70.6,0.3z"/>
			<path class="st1" d="M46.8,23.5l4.6-4.5c1.5-1,2.9-2.2,4.1-3.5c-1.2,1.3-2.6,2.5-4.1,3.5L46.8,23.5z"/>
			<path class="st1" d="M46.8,23.5L46.8,23.5c0.2-0.8,0.6-1.6,1.2-2.2C47.4,21.9,47,22.7,46.8,23.5z"/>
			<path class="st1" d="M15.8,55.4C26,45.1,36.3,34.9,46,24.3l0,0C36.3,34.9,25.9,45.1,15.8,55.4z"/>
			<path class="st1" d="M67.5,0.1L67.5,0.1L67,0.6L67.5,0.1z"/>
			<path class="st1" d="M90.7,30.8c-0.1,0.2-0.2,0.4-0.4,0.5C90.5,31.2,90.6,31,90.7,30.8z"/>
			<path class="st1" d="M65.3,85.4c-0.7,0.6-1.3,1.3-1.7,2.1c-2,2-4,4-6,6c2-2,4-4,6-6C64.1,86.7,64.6,86,65.3,85.4z"/>
			<path class="st1" d="M89.4,57.9c9.7-9.6,19.2-19.4,28.9-29l0,0C108.6,38.6,99.1,48.3,89.4,57.9z"/>
			<path class="st1" d="M74.7,86.7c-1,1.3-1.5,2.2-1.1,2.8c-0.5,0.9-1.2,1.7-1.9,2.5c0.7-0.8,1.3-1.6,1.9-2.5
				C73.3,89,73.7,88,74.7,86.7z"/>
			<path class="st1" d="M67.5,100.3c0.6-0.4,1.1-0.9,1.4-1.5l2.7-3.3l5.3-4.6l-5.3,4.6l-2.7,3.3C68.6,99.4,68.1,99.9,67.5,100.3z"/>
			<path class="st1" d="M91.6,69.1l6-6l0,0L91.6,69.1z"/>
			<path class="st1" d="M103.6,58c0.5-0.7,0.8-1.5,0.9-2.3l0,0C104.4,56.5,104,57.3,103.6,58z"/>
			<path class="st1" d="M115.9,35.8c-0.7,1.2,0.3,1.4,0.5,2l-2.3,2l2.3-2C116.2,37.2,115.2,37,115.9,35.8z"/>
			<path class="st1" d="M53.7,96c-5.2,3.8-10.3,9-11.7,12.4c-0.3,0.3-0.5,0.5-0.8,0.8s-0.7,0.6-1,0.9c0.3-0.3,0.6-0.6,1-0.9
				s0.5-0.6,0.8-0.8C43.4,105,48.5,99.8,53.7,96z"/>
			<path class="st1" d="M124.5,56L124.5,56c-1.3,1.3-2.7,2.8-4.1,4C121.8,58.8,123.2,57.3,124.5,56l2.8-2.8c0.2,0.2,0.4,0.3,0.7,0.3
				l0,0c-0.3,0-0.5-0.1-0.7-0.3L124.5,56z"/>
			<path class="st1" d="M69.2,105.8c1.3-0.9,2.5-2,3.5-3.1c1.7-1.3,3.4-2.7,4.9-4.3c-1.5,1.6-3.1,3-4.9,4.3
				C71.6,103.8,70.5,104.9,69.2,105.8z"/>
			<path class="st1" d="M112.5,21.4L112.5,21.4l-19.7,19L112.5,21.4z"/>
			<path class="st1" d="M59.8,73.3c-0.4,0.1-0.8,0.3-1.3,0.4C59,73.6,59.4,73.4,59.8,73.3z"/>
			<path class="st1" d="M55.7,76.3c-0.2,0.5-0.2,0.9-0.2,1.4l-0.1,0.1l0.1-0.1C55.5,77.2,55.6,76.7,55.7,76.3z"/>
			<path class="st1" d="M44.5,90.3l29-29.1L44.5,90.3c-1.6,2.9-3.7,5.7-6,8.1C40.8,95.9,42.8,93.2,44.5,90.3z"/>
			<path class="st1" d="M76.1,59.7c2-1.4,3.5-3.4,4.5-5.6c5-5.2,10.2-10.1,15.3-15.1c-5.2,5-10.3,9.9-15.3,15.1
				C79.6,56.3,78,58.3,76.1,59.7z"/>
			<path class="st1" d="M86.7,87.3c2.8-2.8,3.5-4.2,3.4-6.3C90.2,83.1,89.6,84.5,86.7,87.3z"/>
			<path class="st1" d="M98.2,61.8L98.2,61.8l5.9-5.7L98.2,61.8z"/>
			<path class="st1" d="M97.2,60.7c-0.1,0.1-0.3,0.2-0.4,0.3C96.9,60.8,97,60.8,97.2,60.7z"/>
			<path class="st1" d="M72.4,106.8c-0.6,0-1.2,0.1-1.8,0.4C71.2,107,71.8,106.8,72.4,106.8z"/>
			<path class="st1" d="M69.5,107.9c0.3-0.2,0.7-0.4,1-0.6C70.1,107.5,69.8,107.7,69.5,107.9z"/>
			<path class="st1" d="M59.2,116.2c-1.7,1.5-3.4,3.2-4.3,2.6c-2.7,2.6-5.3,5.2-8,7.8l0,0c2.6-2.6,5.3-5.2,8-7.8
				C55.8,119.5,57.5,117.7,59.2,116.2z"/>
			<path class="st1" d="M36.9,112c-0.6,0.6-0.9,1.4-0.8,2.2l-2.9,2.8l2.9-2.8C36,113.4,36.3,112.6,36.9,112z"/>
			<path class="st1" d="M37.3,114c1.1-0.5,1.8-1.5,2-2.7l1-1.1l-1,1.1C39.1,112.5,38.4,113.5,37.3,114z"/>
			<path class="st1" d="M27.7,87.9c-0.6,0.8-1.2,1.5-1.8,2.3L23,93l2.9-2.9C26.5,89.4,27.1,88.6,27.7,87.9z"/>
			<path class="st1" d="M60.9,56.7L60.9,56.7c2.2-1.6,4.3-3.4,6.4-5.2C65.2,53.3,63.1,55,60.9,56.7z"/>
			<path class="st1" d="M56.8,61.5c0.7-0.5,1.2-1.2,1.4-2c0.9-0.9,1.8-1.9,2.7-2.8c-0.9,0.9-1.8,1.9-2.7,2.8
				C58,60.3,57.5,61,56.8,61.5z"/>
			<path class="st1" d="M27,91.1L27,91.1c1.5-1.2,3-2.5,4.5-3.9C30,88.5,28.5,89.8,27,91.1z"/>
			<path class="st1" d="M26.5,96.6l-10,10L26.5,96.6L26.5,96.6c0.1-0.3,0.1-0.6,0.2-0.9C26.6,96,26.6,96.3,26.5,96.6z"/>
			<path class="st1" d="M40.6,82.6l-12,12.1L40.6,82.6c2-4.3,4.9-7.3,10.1-10l0,0C45.5,75.2,42.5,78.2,40.6,82.6z"/>
			<path class="st1" d="M70.6,48.6c5.6-5.3,10.9-10.9,15.8-16.8l2.1-1.8l-2.1,1.8C81.4,37.7,76.2,43.3,70.6,48.6z"/>
			<path class="st1" d="M81.8,102.6c-2.2,1.6-4.3,2.8-5.2,1.9l-2.7,2.7l2.7-2.7C77.5,105.4,79.5,104.2,81.8,102.6z"/>
			<path class="st1" d="M109.1,90.5c-1.2,1.6-1.9,3-0.9,3.4c-6.5,7.8-13.3,15.4-20.2,23c6.9-7.6,13.7-15.3,20.2-23
				C107.2,93.5,107.9,92.1,109.1,90.5z"/>
			<path class="st1" d="M61.5,119.7c0.3-0.3,0.7-0.6,1-0.9C62.2,119,61.8,119.4,61.5,119.7c-2.8,2.7-5.5,5.5-8.2,8.3l0,0
				C56,125.2,58.7,122.4,61.5,119.7z"/>
			<path class="st1" d="M68.7,128.8L68.7,128.8c0.1-0.5,0.2-0.9,0.4-1.4C69,127.9,68.8,128.4,68.7,128.8z"/>
			<path class="st1" d="M16.8,38.8L2,53.8L16.8,38.8c-0.5,0.3-1,0.7-1.5,1.1C15.8,39.5,16.3,39.2,16.8,38.8z"/>
			<path class="st1" d="M6.8,36.6l8.2-8.1L6.8,36.6z"/>
			<path class="st1" d="M16.4,22.1l-0.3-0.3l0,0L16.4,22.1z"/>
			<path class="st1" d="M13.8,30.8c0.6-0.7,1-1.5,1.2-2.3l0,0C14.8,29.3,14.4,30.1,13.8,30.8z"/>
			<path class="st1" d="M88.9,18.3c-1.1,1.2-2,2.5-2.7,3.9l0,0C86.9,20.7,87.8,19.4,88.9,18.3z"/>
			<path class="st1" d="M68.7,29.2c2.1-1.9,4.1-3.9,5.3-6.1l0,0C72.8,25.3,70.7,27.2,68.7,29.2z"/>
			<path class="st1" d="M12.5,92.2c-1.4,1.3-2.7,2.7-4,4.2l0,0C9.7,95,11.1,93.6,12.5,92.2z"/>
			<path class="st1" d="M22,68.9c-1.5,1.1-2.6,2.6-3.3,4.3C13.9,77.9,9,82.6,4.2,87.4l0,0c4.8-4.7,9.7-9.4,14.5-14.2
				C19.4,71.4,20.5,69.9,22,68.9z"/>
			<path class="st1" d="M64.3,27.7L47.1,45l0,0L64.3,27.7z"/>
			<path class="st1" d="M64.3,27.7l0.6,0.6L64.3,27.7C72.2,20,79.8,12.1,87.5,4.2l0,0C79.8,12.1,72.2,20,64.3,27.7z"/>
			<path class="st1" d="M61.6,13.5L74.2,0.7l0,0L61.6,13.5z"/>
			<path class="st1" d="M52.9,22.1l-5.3,5l-0.1-0.1l0.1,0.1L52.9,22.1z"/>
			<path class="st1" d="M81,2.1L81,2.1L64.8,18.3L81,2.1z"/>
			<path class="st1" d="M41.8,33.3c-0.4,0.4-0.7,0.8-1,1.3C27.6,48.2,14.3,61.9,0.9,75.4l0,0c13.4-13.6,26.7-27.2,39.9-40.9
				C41.1,34.1,41.4,33.6,41.8,33.3z"/>
			<path class="st1" d="M45.9,29.5c0.4-0.2,0.8-0.5,1.1-0.8C46.6,29.1,46.3,29.3,45.9,29.5z"/>
			<path class="st1" d="M9.1,69.5l41.8-43.1l0.1-0.1l-0.1,0.1L9.1,69.5z"/>
			<path class="st1" d="M36.5,45.4C24.9,56.9,13.2,68.4,2,80.3l0,0C13.2,68.4,24.9,56.9,36.5,45.4z"/>
			<path class="st2" d="M26.5,96.6c0.1-0.3,0.1-0.6,0.2-0.9c0-0.1,0.1-0.2,0.2-0.3c0.8-1,1.2-0.9,1.6-0.9l12-12.1
				c2-4.3,4.9-7.3,10.1-10l19.2-19.1l0,0c-0.3-0.4-0.3-0.8-0.2-1.2c0-0.1,0.1-0.2,0.1-0.2c0.1-0.1,0.2-0.2,0.3-0.3l0.2-0.2
				c6.2-5.3,10.1-12.2,16.8-17.2c0.6-0.5,1.1-0.9,1.6-1.3c0.2-0.2,0.4-0.4,0.6-0.5l0.4-0.4l0.3-0.4l0.3-0.4c0.1-0.2,0.3-0.4,0.4-0.5
				c0.7-1.2,0.2-1.7-1-1.8l-1.2,1l-2.1,1.8c-4.9,5.9-10.2,11.5-15.8,16.8c-0.8,0.7-1.6,1.5-2.4,2.2l-0.9,0.8
				c-2.1,1.8-4.2,3.5-6.4,5.2c-0.9,0.9-1.8,1.9-2.7,2.8c-0.2,0.8-0.7,1.5-1.4,2l-0.2,0.1c-0.1,0.1-0.3,0.2-0.5,0.3L44.5,74
				c-4.3,4.4-8.5,9-13,13.2c-1.5,1.3-3,2.7-4.5,3.9l-2,2l0,0c-3.4,4.1-7.1,7.9-11,11.5c0.6,0.8,1.3,1.6,1.9,2.3l0.6-0.2L26.5,96.6z"
				/>
			<path class="st2" d="M94.9,18.9c-5,5-9.9,9.9-14.9,14.8C72.4,41.2,64.9,48.6,57.3,56c-6.7,6.6-13.5,13.2-20.2,19.7
				c-8.7,8.4-17.3,16.8-25.9,25.2c0.5,0.7,1,1.4,1.5,2c1.3-1.3,2.7-2.7,4-4s2.8-3,4.2-4.2l0.1-0.1l0.8-0.6c0.4-0.3,0.8-0.6,1.3-0.9
				l2.9-2.9c0.6-0.8,1.2-1.5,1.8-2.3l0.1-0.1c3.2-3.1,6.4-6.2,9.6-9.3c3.2-3.1,6.4-6.2,9.5-9.4c13.9-13.8,27.7-27.7,41.6-41.5
				c4.9-4.9,9.9-9.7,14.8-14.6l-1.4-1L94.9,18.9L94.9,18.9z"/>
			<path class="st3" d="M91.4,7.1L89,9.3c-1.5,1.4-2.9,2.8-4.3,4.2s-2.8,2.8-4.1,4.2c-1.3,1.6-3,2.8-4.9,3.5
				c-0.6,0.6-1.2,1.2-1.8,1.8c-1.1,2.3-3.2,4.2-5.3,6.1L67.7,30c-0.3,0.3-0.7,0.6-1,1c-1.1,1.1-2.8,2.6-2.5,3.3
				c0.2,0.7,1.8-0.9,3-1.9s3.1-3.3,3.6-2.5s-1.7,2.5-2.9,3.8c-2.7,2.6-5.3,6-8.2,6.5c-1.5,0.3-2.9,2.5-3.5,3.8
				c-1.1,2.3-2.7,4.3-4.6,6C37.8,62.5,24.8,76,11.7,89.2l-4.6,4.7c0.5,0.9,0.9,1.8,1.4,2.6c1.3-1.5,2.6-2.9,4-4.2l0.7-0.8
				c17.7-18.2,36.3-35.2,54-53.4c2.1-1.9,4-4,5.7-6.2c-4.6,3.2-8,7.8-12,10.9c6.9-6.5,12.8-13.8,21-19.6c4.6-3.3,9.9-9.4,15-14.5
				l-0.5-0.3c-4.3,4.2-8.6,8.4-13,12.5L95.9,8.2l-0.6-0.3L16.4,86.7l-0.5-0.5L94.7,7.5l-0.5-0.2l-4.3,4.3l-0.3-0.2
				c1.2-1.3,2.3-2.5,3.5-3.8l-0.2-0.2L89.2,11L89,10.7l4-4l-0.7-0.4l-0.4,0.4L91.4,7.1z M54.9,48.6l0.1,0.2L28.8,75.1L28.6,75
				C37.4,66.2,46.2,57.4,54.9,48.6z"/>
			<path class="st4" d="M51.6,1.3c-0.6,0.1-1.2,0.2-1.8,0.4c-14.1,14.4-28,28.9-42,43.5c-2.2,2.3-4.4,4.6-6.7,6.9L1,53
				c5.1-5.2,10.1-10.4,15.2-15.6C28,25.4,39.9,13.3,51.6,1.3z"/>
			<path class="st4" d="M16.8,38.8c-0.5,0.3-1,0.7-1.5,1.1c-0.9,0.7-1.7,1.5-2.5,2.3c-0.5,0.5-1,1-1.4,1.5s-0.8,0.8-1.2,1.2
				C7,48,3.9,51.1,0.8,54.2c0,0.3-0.1,0.6-0.1,0.9L2,53.8L16.8,38.8z"/>
			<path class="st5" d="M93.7,14.7l-7.5,7.4l0,0C66.7,41.4,47.4,61,27.7,79.9c-6.2,5.9-12.3,11.9-18.4,18l0.5,0.8l5.6-5.5l18.4-17.9
				c4.7-4.6,9.4-9.3,14.1-14l46.5-45.8c1.8-1.6,3.4-3.4,4.9-5.3L99.1,10c-0.2,0.1-0.3,0.2-0.5,0.3C96.7,11.4,95.2,13.3,93.7,14.7z"
				/>
			<path class="st5" d="M63.7,7.4L63.7,7.4c-1.3,1.3-2.7,2.7-4.1,4.1l-2.1,2l-1.1,1.1l-0.3,0.3l-0.6,0.6c-1.2,1.3-2.6,2.5-4.1,3.6
				l-4.6,4.5l0,0l-0.4,0.4l0,0c-0.1,0.1-0.3,0.3-0.4,0.4c-9.7,10.6-20,20.8-30.2,31.1c-1.6,1.7-3.3,3.3-4.9,5
				c-0.8,0.8-1.6,1.6-2.3,2.4c-2.7,2.9-5.5,5.8-8.2,8.6c0,0.4,0.1,0.9,0.2,1.3c4.3-4.5,8.6-9,12.9-13.5c11.8-12.5,24-25.3,37-36.8
				c1.2-1.1,2.5-2.4,3.4-2.4c6.4-6.5,12.9-13,19.4-19.5c-0.9-0.1-1.7-0.2-2.6-0.3C68.3,2.7,66,5,63.7,7.4z"/>
			<path class="st6" d="M64.3,27.7l0.6,0.6L88.6,4.6c-0.3-0.1-0.7-0.3-1-0.4C79.8,12.1,72.2,20,64.3,27.7z"/>
			<path class="st7" d="M47.2,26.9l0.3,0.2l0.1,0.1l5.3-5l8.8-8.7L74.2,0.7l-1.1-0.1c-6.5,6.5-13,13-19.4,19.5L47.2,26.9z"/>
			<path class="st8" d="M69.7,125.6c1.1-2.7,1.8-5.5,2.1-8.4c0.1-2,0.1-4.3-5.3,0.3c-2.2,1.8-2.9,1.1-4.1,1.3
				c-0.3,0.3-0.6,0.6-1,0.9c-2.8,2.7-5.5,5.5-8.2,8.3c3.7,0.7,7.5,1,11.3,1c1.4,0,2.8-0.1,4.2-0.1c0.1-0.5,0.2-0.9,0.4-1.4
				S69.5,126.2,69.7,125.6z"/>
			<path class="st9" d="M112.9,74.1c-5.8,7.6-12.3,14.7-19.5,21c1.8-3.2,5.1-5.8,7-8.4c1.2-1.7,3.2-3.9,2.5-4.4s-2.5,1.7-3.8,2.6
				c-7,4.8-13.9,11.5-20.9,17.1c-1.4,1.2-1.6,1.9-1.7,2.6c0.9,0.9,3-0.3,5.2-1.9l0.4-0.3l0.3-0.2l0.7-0.5c0.8-0.6,1.5-1.1,2.3-1.6
				c1.1-0.8,2.6-2.4,3.1-2s-0.8,1.9-1.9,3.1c-3.4,3.9-7.3,7.9-3.4,7.7c0.8-0.1-1.2,2.5-2.1,4s-3.4,4-2.4,4.3c0.9,0.3,2.9-2.3,5-3.5
				c-2.4,3.4-4.2,6.6-6.3,9.9l-0.6,0.9l-1,1.4l-1,1.4l-0.5,0.6l-0.3,0.4c1.4-0.2,2.7-0.5,4.1-0.8c2.2-2.4,4.5-4.9,6.7-7.3
				c1-1.1,2-2.2,3-3.3c6.9-7.6,13.7-15.3,20.2-23c-1-0.4-0.3-1.8,0.9-3.4c0.2-0.3,0.5-0.6,0.7-0.9c0.4-0.6,0.9-1.2,1.3-1.7
				c2.1-2.8,3.8-5.1-0.1-3c-3.1,1.7-1.1-0.7,0.4-2.3c5.9-6.6,11.6-13.3,17.5-19.9c-0.1-2-0.2-4.1-0.5-6
				C122.9,62,117.6,67.8,112.9,74.1z"/>
			<path class="st10" d="M106.2,18.8L106.2,18.8c-0.4,0.4-0.8,0.8-1.2,1.1s-0.8,0.7-1.2,1s-0.8,0.6-1.2,0.9L69.8,53.4l0,0L50.6,72.5
				l0,0l-10.1,10l-12,12.1l-2,2l0,0l-10,10l-0.4,0.4c0.3,0.3,0.6,0.7,0.9,1c8-8,16.1-16,24.2-24.1C52.7,72.4,64.2,60.8,76,49.6
				c11.1-10.5,22.3-20.9,33.5-31.3c-0.5-0.5-0.9-0.9-1.4-1.3l-0.4,0.5C107.2,17.9,106.7,18.4,106.2,18.8z"/>
			<path class="st10" d="M69.8,53.4L69.8,53.4L50.6,72.5C50.6,72.5,69.8,53.4,69.8,53.4z"/>
			<path class="st11" d="M89.7,29c1.2,0.1,1.8,0.7,1,1.8c-0.1,0.2-0.2,0.4-0.4,0.5l-0.3,0.4l-0.3,0.4l-0.4,0.4
				c-0.2,0.2-0.4,0.4-0.6,0.5c-0.4,0.4-1,0.8-1.6,1.3c-6.7,5-10.6,11.9-16.8,17.2L70,51.7c-0.1,0.1-0.2,0.2-0.3,0.3
				c-0.1,0.1-0.1,0.2-0.1,0.2c-0.2,0.4-0.1,0.9,0.2,1.2l32.7-31.6c1.1-2.2,2.7-4.1,4.6-5.7c-0.8-0.7-1.7-1.4-2.6-2.1
				C99.7,19,94.7,24,89.7,29z"/>
			<path class="st11" d="M90.7,30.8c0.7-1.2,0.2-1.7-1-1.8l0,0C90.9,29.1,91.4,29.7,90.7,30.8z"/>
			<path class="st11" d="M69.8,53.4L69.8,53.4c-0.3-0.4-0.3-0.8-0.2-1.2C69.5,52.6,69.6,53.1,69.8,53.4z"/>
			<path class="st11" d="M102.6,21.9L69.8,53.4l0,0L102.6,21.9z"/>
			<polygon class="st11" points="69.8,53.4 69.8,53.4 69.8,53.4 69.8,53.4 			"/>
			<path class="st9" d="M46.8,69.1c-3.2,3.1-6.3,6.3-9.5,9.4c-3.2,3.1-6.4,6.2-9.6,9.3l-0.1,0.1c-0.6,0.8-1.2,1.5-1.8,2.3L23,93
				c-1.9,2.2-4,4.1-6.3,5.9l0,0l-4,4l0.5,0.6c0.7-0.7,1.3-1.3,2-2c0.9-0.9,1.8-1.7,2.7-2.6c2.3-2.1,4.7-4,7.2-5.9l0,0l2-2l0,0
				c0.8-1.1,1.7-2.1,2.6-3.1c0.4-0.5,0.9-0.9,1.3-1.4c1.1-1.2,2.2-2.4,3.4-3.5c0.6-0.6,1.1-1.2,1.7-1.8c1.4-1.5,2.8-2.9,4.1-4.4
				c1.7-2,3.4-3,4.4-2.8l0,0l11.7-12c0.5-0.9,1.2-1.8,2-2.5c0.9-0.9,1.8-1.9,2.7-2.8l0,0c0.8-1.2,1.6-2.3,2.6-3.3
				c0.3-0.3,0.6-0.7,0.9-1s0.8-0.8,1.2-1.2c1.4-1.3,2.8-2.7,4.1-4c5.4-5.4,10.9-10.7,16.7-15.4l2.1-1.8l1.2-1l0,0c5-4.9,10-10,15-15
				c-0.4-0.4-0.9-0.7-1.4-1c-5,4.9-9.9,9.7-14.8,14.7C74.6,41.5,60.8,55.4,46.8,69.1z"/>
			<path class="st9" d="M56.2,62L44.5,74l0,0L56.2,62z"/>
			<path class="st9" d="M89.7,29L89.7,29l-1.2,1L89.7,29z"/>
			<path class="st9" d="M25,93L25,93l2-2L25,93z"/>
			<path class="st9" d="M16.7,98.9L16.7,98.9c-1.3,1.3-2.7,2.7-4,4l0,0L16.7,98.9z"/>
			<path class="st9" d="M37.3,78.5c-3.2,3.1-6.4,6.2-9.6,9.3l-0.1,0.1l0.1-0.1C31,84.7,34.2,81.6,37.3,78.5z"/>
			<path class="st4" d="M68.2,50.7c0.8-0.7,1.6-1.4,2.4-2.2c5.6-5.3,10.9-10.9,15.8-16.8c-5.7,4.7-11.3,10-16.7,15.4
				c-1.3,1.3-2.8,2.7-4.1,4c-0.4,0.4-0.8,0.8-1.2,1.2s-0.6,0.7-0.9,1c-1,1-1.8,2.1-2.6,3.3c2.2-1.6,4.3-3.4,6.4-5.2L68.2,50.7z"/>
			<path class="st4" d="M60.9,56.7L60.9,56.7c0.8-1.2,1.6-2.3,2.6-3.3C62.5,54.4,61.6,55.5,60.9,56.7z"/>
			<path class="st4" d="M25,93c-2.5,1.8-4.9,3.8-7.2,5.9c-0.9,0.8-1.8,1.7-2.7,2.6c-0.7,0.7-1.3,1.3-2,2l0.8,1
				C17.9,101,21.6,97.2,25,93z"/>
			<path class="st4" d="M25,93L25,93c-3.4,4.1-7.1,7.9-11,11.5l0,0C17.9,101,21.6,97.1,25,93z"/>
			<path class="st4" d="M25,93c-2.5,1.8-4.9,3.8-7.2,5.9C20.1,96.9,22.5,94.9,25,93z"/>
			<polygon class="st4" points="25,93 25,93 25,93 25,93 			"/>
			<path class="st4" d="M44.5,74c-1-0.2-2.7,0.8-4.4,2.8c-1.3,1.5-2.7,3-4.1,4.4c-0.6,0.6-1.1,1.2-1.7,1.8c-1.1,1.2-2.3,2.3-3.4,3.5
				c-0.4,0.5-0.9,0.9-1.3,1.4C28.7,89,27.8,90,27,91.1c1.5-1.2,3-2.5,4.5-3.9C36,83,40.1,78.4,44.5,74z"/>
			<path class="st4" d="M31.5,87.2c4.5-4.2,8.7-8.8,13-13.2l0,0C40.1,78.4,36,83,31.5,87.2z"/>
			<path class="st4" d="M27,91.1L27,91.1c0.8-1.1,1.7-2.1,2.6-3.1C28.7,89,27.8,90,27,91.1z"/>
			<path class="st11" d="M40.6,82.6l10.1-10C45.5,75.2,42.5,78.2,40.6,82.6z"/>
			<path class="st11" d="M50.6,72.5L50.6,72.5l-10.1,10L50.6,72.5z"/>
			<path class="st11" d="M15.9,106.8l0.2,0.2l0.4-0.4L15.9,106.8z"/>
			<path class="st4" d="M56.8,61.5c0.7-0.5,1.2-1.2,1.4-2c-0.8,0.7-1.5,1.5-2,2.5c0.2-0.1,0.3-0.2,0.5-0.3L56.8,61.5z"/>
			<path class="st11" d="M26.9,95.5c-0.1,0.1-0.1,0.2-0.2,0.3c-0.1,0.3-0.2,0.6-0.2,0.9l2-2C28.1,94.6,27.7,94.5,26.9,95.5z"/>
			<path class="st11" d="M26.5,96.6l2-2L26.5,96.6z"/>
			<path class="st8" d="M108.2,93.9c-6.5,7.8-13.3,15.4-20.2,23c-1,1.1-2,2.2-3,3.3c-2.2,2.4-4.5,4.9-6.7,7.3
				c9.1-2,17.7-5.9,25.1-11.6c3.4-3.5,6.8-7.1,10-10.7c2-2.4,4-4.9,6.2-7.3c1.8-2.9,3.3-6,4.6-9.2c-1,0.9-2,1.8-3,2.8
				c-1.6,1.5-4.1,3.7-4.5,2.8s2.1-2.8,3.5-4.2c1.9-2,3.8-4.1,5.8-6.1c1.4-4.3,2.3-8.8,2.7-13.3c-0.9,0.9-1.8,1.8-2.7,2.8
				C119.4,80.2,114.3,87.1,108.2,93.9z"/>
			<path class="st5" d="M10.8,100.2c0.1,0.2,0.3,0.4,0.4,0.6c8.6-8.4,17.2-16.8,25.9-25.2c6.7-6.5,13.5-13.1,20.2-19.7
				c7.6-7.4,15.2-14.8,22.7-22.2c5-4.9,10-9.9,14.9-14.8l0,0l7-7l-0.8-0.6c-9.5,9.5-19,18.9-28.6,28.3C52,59.9,31.4,80.1,10.8,100.2
				z"/>
			<path class="st5" d="M101.9,11.9L101.9,11.9l-7,7L101.9,11.9z"/>
			<path class="st4" d="M16.7,98.9c2.3-1.7,4.4-3.7,6.3-5.9c-0.4,0.3-0.8,0.6-1.3,0.9L21,94.6l-0.1,0.1
				C19.5,95.9,18.1,97.4,16.7,98.9z"/>
			<path class="st4" d="M20.9,94.6c-1.5,1.3-2.9,2.8-4.2,4.2l0,0C18.1,97.4,19.5,95.9,20.9,94.6z"/>
			<path class="st12" d="M47.2,26.9L47.2,26.9l6.5-6.9c-0.9,0-2.2,1.3-3.4,2.4c-13,11.6-25.1,24.3-37,36.8
				c-4.3,4.5-8.5,9.1-12.8,13.6c0.1,0.5,0.1,1,0.2,1.5C16.1,58.5,31.4,42.5,47.2,26.9z"/>
			<path class="st12" d="M47.2,26.9L47.2,26.9l6.5-6.9C53.8,20,47.2,26.9,47.2,26.9z"/>
			<path class="st12" d="M10.9,60.5c1.6-1.7,3.3-3.4,4.9-5C25.9,45.1,36.3,34.9,46,24.3c-1.8,0.6-3.7,2.5-5.6,4.4L40,29
				C28.7,40,18,51.6,6.8,62.8l-2,2l-4.7,4.8c0.1,0.7,0.1,1.3,0.2,2c2.8-2.8,5.5-5.7,8.2-8.6C9.4,62.1,10.2,61.3,10.9,60.5z"/>
			<path class="st12" d="M15.8,55.4c-1.6,1.7-3.3,3.3-4.9,5C12.6,58.8,14.2,57.1,15.8,55.4z"/>
			<path class="st12" d="M51.3,16.5C56.5,11.2,61.8,5.9,67,0.6l0.5-0.5L66.1,0c-16,16.2-32,32.5-47.9,48.8c-6,6.1-12.1,11.9-18.1,18
				c0,0.5,0,1,0.1,1.6l4.1-4.2C20,48.4,35.6,32.4,51.3,16.5z"/>
			<path class="st5" d="M41.8,33.3L41.8,33.3c0.1-0.1,0.3-0.2,0.4-0.3c0.2-0.1,0.4-0.3,0.6-0.4l3-3l0,0l1.7-2.3l-0.1-0.1l-0.3-0.2
				c-15.7,15.6-31,31.5-46.4,47.4c0.1,0.4,0.1,0.7,0.2,1.1c13.4-13.6,26.7-27.2,39.9-40.9C41.1,34.1,41.4,33.6,41.8,33.3z"/>
			<path class="st5" d="M47.5,27.1l-0.3-0.2l0,0L47.5,27.1z"/>
			<path class="st5" d="M4.2,64.2l-4.1,4.2c0,0.4,0.1,0.7,0.1,1.1l4.7-4.8L4.2,64.2z"/>
			<path class="st5" d="M4.2,64.2l-4.1,4.2l0,0L4.2,64.2z"/>
			<path class="st8" d="M94.4,15.4L47.9,61.2c-4.7,4.7-9.4,9.4-14.1,14L15.4,93.1l-5.6,5.5l1,1.6C31.4,80.1,52,59.9,72.6,39.7
				c9.6-9.4,19.1-18.8,28.5-28.3c-0.6-0.4-1.2-0.8-1.8-1.2C97.8,12.1,96.2,13.8,94.4,15.4z"/>
			<path class="st8" d="M9.3,97.9c6.1-6.1,12.2-12.1,18.4-18c19.7-18.9,39-38.5,58.5-57.8c0.7-1.4,1.6-2.7,2.7-3.9
				c0.3-0.3,0.6-0.6,0.9-0.9c1.2-1,2.5-1.9,3.9-2.6l0,0c1.6-1.4,3-3.3,4.9-4.5c0.2-0.1,0.3-0.2,0.5-0.3c-0.5-0.3-1-0.6-1.5-0.9
				C67.5,37.8,38.6,68,8.6,96.7C8.8,97.1,9.1,97.5,9.3,97.9z"/>
			<path class="st8" d="M98.6,10.3c-1.9,1.2-3.3,3.1-4.9,4.5l0,0C95.2,13.3,96.7,11.4,98.6,10.3z"/>
			<path class="st5" d="M51.5,50c1.9-1.7,3.5-3.7,4.6-6c0.6-1.3,2-3.5,3.5-3.8c2.9-0.5,5.5-3.9,8.2-6.5c1.3-1.2,3.3-3.1,2.9-3.8
				s-2.3,1.4-3.6,2.5s-2.7,2.7-3,1.9s1.4-2.2,2.5-3.3c0.3-0.3,0.7-0.6,1-1l0.9-0.9c2.1-1.9,4.1-3.9,5.3-6.1
				c-1.8,0.5-3.5,2.3-5.2,4.1l-0.4,0.4l-0.8,0.8C46.8,48.9,26.1,69.6,5.4,90.2l-0.1,0.1c0.5,1.2,1.1,2.4,1.7,3.6l4.7-4.7
				C24.8,76,37.8,62.5,51.5,50z"/>
			<path class="st5" d="M96.2,8.3l-0.3-0.2L83.2,20.9C87.6,16.7,91.9,12.5,96.2,8.3z"/>
			<path class="st5" d="M16.4,86.7L95.3,7.8c-0.2-0.1-0.4-0.2-0.6-0.3L15.9,86.3L16.4,86.7z"/>
			<path class="st5" d="M94.7,7.5L94.7,7.5L15.9,86.3L94.7,7.5z"/>
			<path class="st7" d="M17.6,77.4c-4.2,4.1-8.3,8.2-12.5,12.3c0.1,0.2,0.2,0.4,0.2,0.6l0.1-0.1C26.2,69.6,46.9,49,67.5,28.3
				l0.8-0.8l0.4-0.4c1.7-1.8,3.5-3.6,5.2-4.1l0,0c0.6-0.6,1.2-1.2,1.8-1.8c1.6-2.8,4.3-5.5,7.1-8.2l7.6-7.6l-0.6-0.3
				C65.9,29.4,41.9,53.5,17.6,77.4z"/>
			<path class="st7" d="M73.9,23L73.9,23c-1.8,0.5-3.5,2.3-5.2,4.1C70.4,25.3,72.2,23.5,73.9,23z"/>
			<path class="st5" d="M81.8,23.1c-8.1,5.8-14,13.2-21,19.6c4-3,7.5-7.7,12-10.9c-1.7,2.2-3.6,4.3-5.7,6.2
				c-17.7,18.1-36.3,35.2-54,53.4l-0.7,0.8c-1.4,1.3-2.8,2.7-4,4.2c0,0.1,0.1,0.1,0.1,0.2c30.1-28.7,59-58.9,89-87.6l-0.8-0.5
				C91.7,13.7,86.4,19.9,81.8,23.1z"/>
			<path class="st5" d="M75.7,21.2c1.9-0.7,3.6-1.9,4.9-3.5c1.3-1.4,2.7-2.8,4.1-4.2s2.9-2.8,4.3-4.2l2.4-2.3l0.5-0.4l0.4-0.4
				C91.6,6,91,5.7,90.4,5.4L82.7,13C80,15.7,77.3,18.4,75.7,21.2z"/>
			<path class="st5" d="M89.2,11l3.8-3.5l0.2,0.2c-1.2,1.3-2.3,2.5-3.5,3.8l0.3,0.2l4.3-4.3c-0.4-0.2-0.8-0.4-1.2-0.6l-4,4L89.2,11z
				"/>
			<path class="st5" d="M94.2,7.2L94.2,7.2l-4.3,4.3L94.2,7.2z"/>
			<path class="st5" d="M55,48.8l-0.1-0.2C46.1,57.4,37.4,66.2,28.6,75l0.1,0.2L55,48.8z"/>
			<path class="st10" d="M60.2,0.1c-1.8,0.1-3.5,0.3-5.2,0.5c-2,1.7-4,3.4-6,5.3C37.6,16.7,28.9,28.6,17.8,39.5
				c-3.3,3.2-6.5,6.7-9.8,9.9l-0.5-0.3l21.2-21.2l-0.5-0.5c-3.8,3.8-7.6,7.6-11.4,11.4L2,53.8c-0.2,1.2-0.7,2.3-1.6,3.1
				c-0.1,0.7-0.1,1.3-0.2,2c3.9-3.7,7.8-7.4,11.8-11C8.1,52,4.1,56.1,0.1,60.2c0,0.4,0,0.8-0.1,1.1c1-1,2-1.9,2.9-2.9
				C22.3,39.2,41.1,19.6,60.2,0.1z"/>
			<path class="st10" d="M51.3,16.5C35.6,32.4,20,48.4,4.2,64.2l0,0l0.6,0.5l2-2C18,51.6,28.7,40,40,29l0.4-0.4
				c1.9-1.9,3.8-3.8,5.6-4.4l0,0c0.1-0.1,0.3-0.3,0.4-0.4l0,0l0.4-0.4c0.2-0.8,0.6-1.6,1.2-2.2l0.3-0.4l0.4-0.5
				c0.3-0.4,0.7-0.7,1.1-1.1C56.1,13,62.4,6.6,68.7,0.1l-1.2-0.1L67,0.6C61.8,5.9,56.5,11.2,51.3,16.5z"/>
			<path class="st10" d="M18.2,48.8C34.2,32.6,50.1,16.3,66.1,0h-1.3C54.7,10.4,44.5,20.7,34.3,31l-3.7,3.7l-4,3.9
				c-3,3-6.1,5.9-9.2,8.9C32.6,31.5,48.2,15.8,63.8,0c-0.5,0-0.9,0-1.4,0C45.8,16.8,29.2,33.7,12.6,50.5L0,63.3c0,0.4,0,0.8,0,1.2
				c0,0.8,0,1.6,0.1,2.4C6.1,60.7,12.2,54.9,18.2,48.8z"/>
			<path class="st10" d="M46.8,23.5L46.8,23.5l-0.4,0.4L46.8,23.5z"/>
			<path class="st10" d="M40.4,28.7c1.9-1.9,3.8-3.8,5.6-4.4l0,0C44.2,24.9,42.3,26.8,40.4,28.7z"/>
			<path class="st10" d="M51.3,16.5C35.6,32.4,20,48.4,4.2,64.2l0,0C20,48.4,35.6,32.4,51.3,16.5z"/>
			<path class="st12" d="M46.9,2.4C36.5,13,26.2,23.6,15.9,34.2C11.3,39,6.7,43.8,2,48.6c-0.1,0.6-0.3,1.2-0.4,1.8
				C17.2,34.2,32.9,18.1,48.5,2C48,2.1,47.4,2.3,46.9,2.4z"/>
			<path class="st12" d="M8.3,39.2l15.8-15.7l0.3,0.1c-1.5,1.6-3,3.2-4.5,4.8C28.4,20,36.7,11.5,44.9,3l-1,0.3
				c-4.4,4.4-8.9,8.7-13.3,13.1c3.9-4.2,7.8-8.4,11.8-12.5c-2.4,0.9-4.7,1.9-7,3l-0.8,0.8l-2,2.1c-4.7,4.9-9.2,9.9-13.9,14.8l-0.3,1
				l-0.8,0.3l-2.6,2.6c-0.2,0.9-0.6,1.7-1.2,2.3l-0.1,0.1l-0.3,0.3c-0.1,0.2-0.3,0.3-0.5,0.5l-8.3,8.6c-0.8,2.1-1.6,4.2-2.2,6.4
				l10.1-10.1C11.6,36,9.6,38.8,8.3,39.2z"/>
			<path class="st5" d="M11.4,43.7c0.5-0.5,1-1,1.4-1.5c0.8-0.8,1.6-1.6,2.5-2.3c0.5-0.4,1-0.8,1.5-1.1c3.8-3.8,7.6-7.6,11.4-11.4
				l0.5,0.5L7.5,49.1L8,49.4c3.3-3.2,6.5-6.7,9.8-9.9C28.9,28.6,37.6,16.7,49,6c2-1.9,4-3.5,6-5.2c-1.1,0.2-2.2,0.4-3.3,0.6
				c-11.8,12-23.7,24-35.5,36.1C11.1,42.6,6.1,47.8,1,53c-0.1,0.4-0.1,0.8-0.2,1.2c3.1-3.1,6.2-6.2,9.3-9.3
				C10.6,44.5,11,44.1,11.4,43.7z"/>
			<path class="st5" d="M15.3,39.9c-0.9,0.7-1.7,1.5-2.5,2.3C13.6,41.4,14.4,40.6,15.3,39.9z"/>
			<path class="st5" d="M12.8,42.2c-0.5,0.5-1,1-1.4,1.5C11.9,43.2,12.3,42.7,12.8,42.2z"/>
			<path class="st5" d="M49.8,1.7L48.5,2c-15.6,16.2-31.3,32.2-47,48.3L1.2,52c2.2-2.3,4.4-4.6,6.7-6.9
				C21.8,30.6,35.8,16.1,49.8,1.7z"/>
			<path class="st5" d="M0.7,55c-0.1,0.7-0.2,1.3-0.2,1.9C1.3,56.1,1.8,55,2,53.8L0.7,55z"/>
			<path class="st12" d="M113,22.3C107.4,28,101.6,33.5,95.9,39c-5.2,5-10.3,9.9-15.3,15.1c-1,2.2-2.5,4.2-4.5,5.6
				c-0.3,0.2-0.6,0.4-0.9,0.6c-0.6,0.3-1.1,0.6-1.7,0.9l-29,29.1c-1.6,2.9-3.7,5.7-6,8.1c-0.6,0.6-1.2,1.3-1.8,1.9
				c-2.4,2.4-6.1,4.8-5.2,6.8c0.1,0.3-1,1.5-1.5,1.7c-2.3,1-4.2,3.1-6.3,5.4l-0.1,0.1c1.6,1.3,3.2,2.6,4.9,3.7
				c9.1-9.2,18.2-18.5,27.5-27.6c1.7-1.6,3.3-3.3,5-4.9l5-5c5.5-5.5,11-11.1,16.5-16.6l0,0l11.8-12.1c-4,1-4.3,0.2,2.1-6.4
				c5.4-5.6,9.4-11.8,15.7-17.9c1.1-1,2.1-2.1,2.8-3.4c-0.5-0.6-1-1.2-1.5-1.8L113,22.3L113,22.3z"/>
			<path class="st10" d="M88,45.3l-8.3,8.2L59.8,73.3l0,0l-4.3,4.4l-0.1,0.1l-4.6,4.6l-4.3,4.3c-1.1,1-2.2,2-3.3,3
				c-4.7,4.3-9.1,9-13.8,13.5l-8.6,8.7L22,113c7.1-7.9,14.8-15.3,22.5-22.8l29-29.1l7.1-7.1c5-5.2,10.2-10.2,15.3-15.1
				c5.8-5.5,11.5-11,17.1-16.6l0.2-0.2c-0.2-0.3-0.4-0.5-0.7-0.8l-19.7,19L88,45.3z"/>
			<path class="st10" d="M113,22.3L113,22.3C107.4,28,101.6,33.5,95.9,39C101.6,33.5,107.4,28,113,22.3z"/>
			<path class="st3" d="M93.7,14.7c-1.4,0.7-2.7,1.5-3.9,2.6c-0.3,0.3-0.6,0.6-0.9,0.9c-1.1,1.2-2,2.5-2.7,3.9L93.7,14.7z"/>
			<path class="st3" d="M86.2,22.2l7.5-7.4l0,0L86.2,22.2z"/>
			<path class="st3" d="M51.4,19c1.5-1,2.9-2.2,4.1-3.5l0.6-0.6l0.3-0.3l1.1-1.1l2.1-2c1.4-1.3,2.7-2.7,4.1-4l0,0
				c2.3-2.4,4.6-4.8,6.9-7.2c-0.6-0.1-1.3-0.1-1.9-0.1C62.4,6.6,56.1,13,49.7,19.4L51.4,19z"/>
			<path class="st12" d="M49.7,19.4c-0.4,0.4-0.8,0.8-1.1,1.1l-0.4,0.5L48,21.3c-0.6,0.6-0.9,1.4-1.1,2.2l4.5-4.5L49.7,19.4z"/>
			<path class="st4" d="M47.6,41.3C32.8,56.1,18.4,71.2,3.7,86.2l0.4,1.2c4.8-4.7,9.7-9.4,14.5-14.2c0.6-1.7,1.8-3.2,3.3-4.3
				l0.1-0.1c0.5-0.4,1.1-0.7,1.6-1l0.5-0.2L47.1,45l17.2-17.3C72.2,20,79.8,12.1,87.5,4.2c-0.8-0.3-1.7-0.6-2.6-0.9
				C72.4,15.9,60.1,28.7,47.6,41.3z"/>
			<path class="st4" d="M47.7,45.5C33.4,59.9,19.1,74.3,4.6,88.5c0.2,0.4,0.3,0.8,0.5,1.2c4.2-4.1,8.3-8.2,12.5-12.3
				c24.2-23.9,48.2-48,72.1-72.2l-1.2-0.5L64.9,28.3L47.7,45.5z"/>
			<path class="st10" d="M47.7,45.5l17.2-17.2l-0.6-0.6L47.1,45L47.7,45.5z"/>
			<path class="st10" d="M47.7,45.5l17.2-17.2L47.7,45.5z"/>
			<path class="st10" d="M8.1,75.7c-1.9,2-3.8,3.9-5.8,5.9c0.1,0.4,0.2,0.9,0.4,1.3c5.8-5.7,11.6-11.5,17.3-17.2
				c18.8-19,37.8-38,56.3-57.3c1.9-2,3.8-4,5.8-6c-0.3-0.1-0.7-0.2-1.1-0.3L64.8,18.3C46.3,37.8,27,56.5,8.1,75.7z"/>
			<path class="st7" d="M3.3,85c0.1,0.4,0.2,0.7,0.4,1.1c14.6-15,29.1-30.1,43.9-44.9C60.1,28.7,72.4,15.9,85,3.3L84.1,3
				C69.7,17.5,55.5,32,41.3,46.6C28.8,59.5,16.3,72.5,3.3,85z"/>
			<path class="st5" d="M62.8,14.5l-8.8,8.8l-3,3l-0.1,0.1L9.1,69.5c-2.6,2.7-5.2,5.3-7.8,8c0.1,0.3,0.1,0.5,0.2,0.8l4-4
				C29,50.3,52.3,26.3,76,2.6l1.3-1.3L76,1C71.5,5.4,67.1,9.9,62.8,14.5z"/>
			<path class="st3" d="M62.8,14.5C67.1,9.9,71.5,5.4,76,1c-0.6-0.1-1.2-0.2-1.8-0.3L61.6,13.5L62.8,14.5z"/>
			<path class="st3" d="M62.8,14.5L62.8,14.5C67.1,9.9,71.5,5.4,76,1l0,0C71.5,5.4,67.1,9.9,62.8,14.5z"/>
			<path class="st12" d="M53.9,23.3c3-2.9,5.9-5.9,8.8-8.8l0,0l-1.1-1l0,0l-8.8,8.7L53.9,23.3L53.9,23.3z"/>
			<path class="st12" d="M61.6,13.5l-8.8,8.7C52.9,22.1,61.6,13.5,61.6,13.5z"/>
			<path class="st12" d="M53.9,23.3L53.9,23.3l8.8-8.8l0,0C59.8,17.4,56.9,20.4,53.9,23.3z"/>
			<path class="st3" d="M45.9,29.5c0.4-0.2,0.8-0.5,1.1-0.8l0.7-0.5L48,28l0.5-0.4l0.3-0.2c0.8-0.6,1.5-1,2-0.9l0.1-0.1l3-3
				l-1.1-1.2l-5.3,5.1L45.9,29.5z"/>
			<path class="st3" d="M45.9,29.5L45.9,29.5l1.7-2.3L45.9,29.5z"/>
			<path class="st3" d="M51,26.3l3-3l0,0L51,26.3z"/>
			<path class="st4" d="M19.9,65.7C14.3,71.5,8.5,77.2,2.7,82.9c0.2,0.7,0.4,1.4,0.7,2.1c12.9-12.6,25.4-25.6,38-38.4
				C55.5,32,69.8,17.5,84.1,3c-0.7-0.2-1.3-0.4-2-0.6c-1.9,2-3.9,4-5.8,6C57.7,27.7,38.7,46.7,19.9,65.7z"/>
			<path class="st4" d="M5.4,74.2l-4,4c0.1,0.5,0.2,0.9,0.3,1.4C2.4,78.7,3.2,77.8,4,77l0.6-0.6l0.7-0.7
				C27.9,53.1,50.2,30.3,72.7,7.7l6-6.1l-1.4-0.3L76,2.6C52.3,26.3,29,50.3,5.4,74.2z"/>
			<path class="st5" d="M5.3,75.8l-0.7,0.7l-0.6,0.6c-0.8,0.8-1.6,1.7-2.3,2.6c0,0.2,0.1,0.4,0.2,0.7c11.2-11.9,22.9-23.4,34.5-35
				c9.2-9.2,18.4-18.5,27.3-28c5.5-5,10.7-10.3,16-15.6c-0.3-0.1-0.7-0.2-1-0.2l-6,6.1C50.2,30.3,27.9,53.1,5.3,75.8z"/>
			<path class="st5" d="M4.1,77.1c-0.8,0.8-1.6,1.7-2.3,2.6l0,0C2.5,78.7,3.2,77.9,4.1,77.1z"/>
			<path class="st9" d="M61.5,119.7c0.3-0.3,0.7-0.6,1-0.9l11.1-11.2l0,0c-0.2-0.3-0.5-0.5-0.8-0.6h-0.2h-0.2
				c-0.6,0-1.2,0.1-1.8,0.4l-0.2,0.1c-0.3,0.2-0.7,0.4-1,0.6l-0.6,0.4L68,109l-0.7,0.5l-0.2,0.2l-0.5,0.4l-0.2,0.2l-1,0.8l-0.5,0.4
				l-0.7,0.6l-0.5,0.4c-1.2,1-2.3,2-3.4,2.8c-0.2,0.2-0.5,0.4-0.7,0.6l-0.3,0.3c-1.7,1.5-3.4,3.2-4.3,2.6c-2.7,2.6-5.3,5.2-8,7.8
				c1.3,0.4,2.6,0.7,3.9,1c1.8-1.8,3.7-3.7,5.5-5.7C59.7,118.2,60.5,119.1,61.5,119.7z"/>
			<path class="st4" d="M75,127.3l1-1.4l0.9-1.4l0.6-0.9c2.1-3.3,4-6.5,6.3-9.9c-2,1.2-4.1,3.8-5,3.5c-1-0.4,1.4-2.8,2.4-4.3
				s3-4,2.1-4c-3.9,0.3,0-3.8,3.4-7.7c1-1.2,2.3-2.7,1.9-3.1s-2,1.2-3.1,2c-0.7,0.5-1.5,1.1-2.3,1.6l-0.7,0.5l-0.3,0.2l-0.4,0.3
				c-2.2,1.6-4.3,2.8-5.2,1.9l-2.7,2.7l-0.3,0.3l0,0l-11.1,11.2c1.2-0.2,1.9,0.6,4.1-1.3c5.4-4.6,5.4-2.2,5.3-0.3
				c-0.3,2.9-1,5.8-2.1,8.4c-0.2,0.6-0.4,1.2-0.6,1.8s-0.3,0.9-0.4,1.4c1.8-0.1,3.7-0.3,5.5-0.6l0.3-0.4L75,127.3z"/>
			<path class="st4" d="M76,125.9l-1,1.4L76,125.9z"/>
			<path class="st4" d="M76.9,124.5l-0.9,1.4L76.9,124.5z"/>
			<path class="st4" d="M73.6,107.5L73.6,107.5l-11.1,11.2L73.6,107.5z"/>
			<path class="st3" d="M61.5,119.7c-1-0.5-1.8-1.4-5.1,2.2c-1.8,2-3.6,3.8-5.5,5.7c0.8,0.2,1.6,0.3,2.3,0.5
				C56,125.2,58.7,122.4,61.5,119.7z"/>
			<path class="st4" d="M111.1,84.8c3.8-2.1,2.2,0.3,0.1,3c-0.4,0.6-0.9,1.2-1.3,1.7c-0.3,0.3-0.5,0.6-0.7,0.9
				c-1.2,1.6-1.9,3-0.9,3.4c6.2-6.8,11.3-13.7,17.8-20.4c0.9-0.9,1.8-1.8,2.7-2.8c0.2-2,0.3-4.1,0.3-6.2c0-0.6,0-1.3,0-1.9
				c-5.9,6.6-11.6,13.3-17.5,19.9C110,84.1,107.9,86.5,111.1,84.8z"/>
			<path class="st4" d="M128.1,53.5c0-0.3-0.1-0.5-0.1-0.8l-0.6,0.4C127.5,53.4,127.8,53.5,128.1,53.5z"/>
			<path class="st7" d="M124.5,56c-1.3,1.3-2.7,2.8-4.1,4l-0.6,0.5c-0.5,0.4-1.1,0.9-1.7,1.2c-11.4,10.8-22.9,21.4-34.5,31.8
				c-1.4,1.3-3,2.4-4.6,3.3l-0.8,0.8l-0.7,0.7c-1.5,1.6-3.1,3-4.9,4.3c-1.1,1.2-2.3,2.2-3.5,3.1c-0.3,0.2-0.5,0.3-0.8,0.5
				c-4.5,4.2-9.2,8-13.5,12.5c0.9,0.7,2.6-1.1,4.3-2.6l0.3-0.3c0.2-0.2,0.5-0.4,0.7-0.6c1.1-0.8,2.2-1.8,3.4-2.8l0.5-0.4l0.7-0.6
				l0.5-0.4l1-0.8l0.2-0.2l0.5-0.4l0.2-0.2l0.7-0.5l0.9-0.7l0.6-0.4c0.3-0.2,0.7-0.4,1-0.6l0.2-0.1c0.5-0.3,1.2-0.4,1.8-0.4h0.2h0.2
				c0.3,0.1,0.6,0.3,0.8,0.6l0.3-0.3l2.7-2.7c0-0.7,0.2-1.5,1.7-2.6c7-5.6,13.9-12.3,20.9-17.1c1.3-0.9,3.2-3.1,3.8-2.6
				s-1.3,2.8-2.5,4.4c-1.9,2.6-5.2,5.2-7,8.4c7.2-6.3,13.7-13.4,19.5-21c4.7-6.3,9.9-12.1,15.6-17.5c-0.1-1-0.3-2-0.4-3
				c-0.3,0-0.5-0.1-0.7-0.3L124.5,56z"/>
			<path class="st7" d="M70.5,107.3l0.2-0.1L70.5,107.3z"/>
			<path class="st7" d="M73.6,107.5L73.6,107.5c-0.2-0.3-0.5-0.5-0.8-0.6C73.1,107,73.4,107.2,73.6,107.5z"/>
			<path class="st7" d="M73.9,107.2l-0.3,0.3l0,0L73.9,107.2z"/>
			<polygon class="st7" points="73.6,107.5 73.6,107.5 73.6,107.5 73.6,107.5 			"/>
			<path class="st13" d="M41.2,83.9C33.2,92,25.1,100,17,108.1c1.1,1.1,2.1,2.2,3.2,3.3c0.3-0.3,0.5-0.7,0.8-1l0.6-0.8
				c0.4-0.5,0.9-1,1.4-1.4s1-0.9,1.5-1.3s1-0.9,1.5-1.3c1.1-0.8,2.2-1.6,3.3-2.3l0,0c4.6-4.4,9.1-9.2,13.8-13.5c1.1-1,2.2-2,3.3-3
				c-0.1-0.7-0.1-1.5,1.7-3.2c1.4-1.3,2.1-1.2,2.7-1.1l0,0l4.6-4.6l0.1-0.1c0-0.5,0.1-0.9,0.2-1.4c0.1-0.2,0.2-0.5,0.3-0.7
				c0.1-0.2,0.3-0.4,0.5-0.6l0.3-0.3c0.2-0.2,0.4-0.3,0.6-0.4c0.4-0.2,0.7-0.4,1.1-0.6c0.4-0.2,0.8-0.3,1.3-0.4l0,0l19.8-19.7
				c1.4-3.1,6-7,6.5-10.3c2.2-0.2-0.1,2.9,1.8,2.1l0,0l4.9-4.8c0.6-2.3,3.7-5.5,5.8-7.3c4.6-4,8.7-8.4,12.8-12.8
				c-0.7-0.7-1.3-1.3-2-2C98.3,28.6,87.1,39.1,76,49.6C64.2,60.8,52.7,72.4,41.2,83.9z"/>
			<path class="st13" d="M79.7,53.5L59.8,73.3l0,0L79.7,53.5z"/>
			<path class="st13" d="M92.8,40.4L88,45.3l0,0L92.8,40.4z"/>
			<path class="st13" d="M43.1,89.7c-4.7,4.3-9.1,9.1-13.8,13.5l0,0C34,98.8,38.4,94,43.1,89.7z"/>
			<path class="st13" d="M55.4,77.8l-4.6,4.6l0,0L55.4,77.8z"/>
			<path class="st4" d="M102.6,21.9c0.4-0.3,0.8-0.6,1.2-0.9s0.8-0.7,1.2-1s0.8-0.7,1.1-1l0.1-0.1c0.5-0.5,1-0.9,1.4-1.4l0.4-0.5
				l-0.9-0.8C105.3,17.8,103.7,19.7,102.6,21.9z"/>
			<path class="st4" d="M108.1,17L108.1,17l-0.4,0.5L108.1,17z"/>
			<path class="st4" d="M6.8,36.6L6.8,36.6l-0.3-0.3c-0.2,0.4-0.4,0.9-0.6,1.3L6.8,36.6L6.8,36.6z"/>
			<path class="st8" d="M29.5,10.3l-8.9,9.3c-3.9,4-7.8,8.1-11.7,12.1c-0.8,1.3-1.5,2.6-2.1,3.9c9-9.3,18.1-18.6,27.1-27.8
				C32.5,8.5,31,9.4,29.5,10.3z"/>
			<path class="st3" d="M29.5,10.3c-1.6,1-3.1,2.1-4.5,3.2l-8.6,8.6l0,0c-0.5,0.7-1.1,1.4-1.6,2.1s-1.1,1.3-1.7,2s-1.2,1.3-1.9,2
				c-0.8,1.1-1.5,2.3-2.2,3.5c3.9-4,7.8-8,11.7-12.1L29.5,10.3z"/>
			<path class="st8" d="M13.1,26.2c0.6-0.7,1.2-1.3,1.7-2s1.1-1.4,1.6-2.1l-0.3-0.3c-1.8,2-3.4,4.1-4.9,6.3
				C11.8,27.5,12.5,26.9,13.1,26.2z"/>
			<path class="st8" d="M16.4,22.1L16.4,22.1c-0.5,0.7-1.1,1.4-1.6,2.1C15.4,23.5,15.9,22.8,16.4,22.1z"/>
			<path class="st2" d="M25,13.5c-3.2,2.5-6.2,5.3-8.9,8.4l0.3,0.3L25,13.5z"/>
			<path class="st2" d="M25,13.5L25,13.5l-8.6,8.6L25,13.5z"/>
			<path class="st9" d="M113.4,105.3c-3.3,3.6-6.6,7.1-10,10.7c4.6-3.5,8.7-7.5,12.2-12.1C114.9,104.3,114.2,104.8,113.4,105.3
				L113.4,105.3z"/>
			<path class="st9" d="M113.4,105.3L113.4,105.3c-3.3,3.6-6.6,7.1-10,10.7l0,0C106.8,112.4,110.2,108.8,113.4,105.3z"/>
			<path class="st4" d="M116.7,94.4c0.4,0.9,2.8-1.3,4.5-2.8c1-0.9,2-1.9,3-2.8c0.7-1.6,1.2-3.2,1.7-4.8c-1.9,2.1-3.9,4.1-5.8,6.2
				C118.9,91.6,116.4,93.6,116.7,94.4z"/>
			<path class="st4" d="M115.6,103.8c1.4-1.9,2.8-3.8,4-5.8c-2.2,2.3-4.2,4.8-6.2,7.3C114.2,104.8,114.9,104.3,115.6,103.8z"/>
			<path class="st4" d="M113.4,105.3c2-2.4,4-4.9,6.2-7.3l0,0C117.4,100.3,115.4,102.8,113.4,105.3L113.4,105.3z"/>
			<path class="st12" d="M50.9,26.5c-0.5-0.1-1.2,0.3-2,0.9l-0.3,0.2L48,28l-0.3,0.3L47,28.8c-0.4,0.3-0.7,0.5-1.1,0.8l-3,3
				c-0.4,0.9-1.1,1.6-2,2C27.6,48.2,14.3,61.9,0.9,75.4c0.1,0.7,0.2,1.4,0.4,2.1c2.6-2.7,5.2-5.3,7.8-8L50.9,26.5z"/>
			<path class="st3" d="M41.8,33.3L41.8,33.3c-0.4,0.4-0.7,0.8-1,1.3c0.9-0.4,1.6-1.1,2-2c-0.2,0.1-0.4,0.2-0.6,0.4
				C42.1,33,42,33.1,41.8,33.3z"/>
			<path class="st4" d="M62.4,0c-0.8,0-1.5,0.1-2.2,0.1C41.1,19.6,22.3,39.2,3,58.4c-1,1-2,2-2.9,2.9c0,0.6,0,1.3-0.1,1.9l12.6-12.8
				L62.4,0z"/>
			<path class="st4" d="M62.4,0L62.4,0C45.8,16.8,29.2,33.7,12.6,50.5L62.4,0z"/>
			<path class="st1" d="M46.9,2.4c-0.7,0.2-1.3,0.4-2,0.6c-8.2,8.5-16.5,17-25,25.3c1.5-1.6,3-3.2,4.5-4.8l-0.3-0.1L8.3,39.2
				c1.2-0.3,3.3-3.2,4.2-2.5L2.5,46.8C2.3,47.4,2.1,48,2,48.6c4.7-4.8,9.3-9.6,14-14.4C26.2,23.6,36.5,13,46.9,2.4z"/>
			<path class="st5" d="M43.9,3.4c-0.5,0.2-1,0.3-1.5,0.5c-4,4.1-7.8,8.4-11.8,12.5C35.1,12,39.5,7.7,43.9,3.4z"/>
			<path class="st4" d="M0.2,58.9c0,0.4-0.1,0.9-0.1,1.3c4-4.1,8-8.2,11.9-12.4C8,51.5,4.1,55.2,0.2,58.9z"/>
			<path class="st4" d="M26.5,38.6l4-3.9l3.7-3.7C44.5,20.7,54.7,10.4,64.8,0h-1.1C48.2,15.8,32.6,31.5,17.3,47.5
				C20.4,44.6,23.5,41.6,26.5,38.6z"/>
			<path class="st4" d="M34.3,31C44.5,20.7,54.7,10.4,64.8,0l0,0C54.7,10.4,44.5,20.7,34.3,31z"/>
			<path class="st3" d="M15.1,28.5L15.1,28.5l2.6-2.6c0.4-0.4,0.7-0.8,1.1-1.2l0,0c4.6-4.9,9.2-9.9,13.9-14.8l2-2.1l0.8-0.8
				c-0.5,0.2-1,0.5-1.5,0.8c-9,9.3-18,18.5-27,27.8c-0.1,0.3-0.3,0.5-0.4,0.8l0.3,0.3L15.1,28.5z"/>
			<path class="st3" d="M18.7,24.6L18.7,24.6c4.6-4.9,9.2-9.9,13.9-14.8C27.9,14.7,23.4,19.7,18.7,24.6z"/>
			<path class="st3" d="M15.1,28.5l2.6-2.6C17.7,25.9,15.1,28.5,15.1,28.5z"/>
			<path class="st2" d="M13.4,31.3l0.3-0.3l0.1-0.1c0.6-0.7,1-1.5,1.2-2.3l-8.2,8.1l-1,1c-0.4,0.9-0.8,1.8-1.2,2.8l8.4-8.6
				C13.1,31.6,13.3,31.5,13.4,31.3z"/>
			<path class="st2" d="M6.8,36.6l-1,1l0,0L6.8,36.6z"/>
			<path class="st2" d="M17.7,25.9l0.8-0.3l0.3-1C18.4,25,18,25.4,17.7,25.9z"/>
			<path class="st2" d="M18.5,25.6l0.3-1l0,0L18.5,25.6z"/>
			<path class="st9" d="M33.2,117.1l2.9-2.8c-0.1-0.8,0.2-1.6,0.8-2.2c0.1-0.1,0.1-0.1,0.2-0.2l0.2-0.2c0.2-0.2,0.3-0.4,0.5-0.6
				c1.5-1.4,2-1,2.5-0.9c0.3-0.3,0.6-0.6,1-0.9s0.5-0.6,0.8-0.8c1.4-3.4,6.4-8.6,11.7-12.4l1.5-1c0.8-0.5,1.6-1,2.4-1.5c2-2,4-4,6-6
				c0.4-0.8,1-1.5,1.7-2.1c0.4-0.4,0.9-0.7,1.3-1l7.7-8.3l4-4.1c-0.7-1.6,2.9-5.1,4.5-7.7l-0.6-0.6c-5.5,5.5-11,11.1-16.5,16.6l-5,5
				c-1.7,1.7-3.3,3.3-5,4.9c-9.2,9.1-18.4,18.3-27.5,27.6c0.5,0.4,1.1,0.7,1.6,1.1C30.7,117.9,31.9,117.2,33.2,117.1z"/>
			<path class="st9" d="M55.8,90.3c1.7-1.6,3.3-3.3,5-4.9C59.2,87.1,57.5,88.7,55.8,90.3z"/>
			<path class="st9" d="M82.2,63.8L82.2,63.8c-5.5,5.5-11,11.1-16.5,16.6C71.3,74.9,76.8,69.4,82.2,63.8z"/>
			<path class="st4" d="M113.3,22.3l-0.1-0.1l-0.2,0.2L113.3,22.3z"/>
			<path class="st4" d="M111.9,27.5c-6.3,6-10.3,12.3-15.7,17.9c-6.4,6.6-6.1,7.4-2.1,6.4l23.7-23.5c-1-1.4-2-2.8-3-4.1
				C114,25.4,113,26.5,111.9,27.5z"/>
			<path class="st4" d="M113,22.3l0.2-0.2l0,0L113,22.3z"/>
			<path class="st7" d="M82.2,63.8L82.2,63.8l0.6,0.6c2.2-2.1,4.4-4.3,6.6-6.5c9.7-9.6,19.2-19.4,28.9-29c-0.2-0.3-0.3-0.5-0.5-0.8
				L94.1,51.7L82.2,63.8z"/>
			<path class="st7" d="M82.2,63.8l11.8-12.1L82.2,63.8z"/>
			<polygon class="st7" points="82.2,63.8 82.2,63.8 82.2,63.8 			"/>
			<path class="st3" d="M29.9,108.7c0.6-0.2,1.7-1.4,1.5-1.7c-0.9-2,2.7-4.4,5.2-6.8c0.6-0.6,1.3-1.2,1.8-1.9c2.3-2.4,4.4-5.1,6-8.1
				C36.9,97.7,29.1,105.1,22,113c0.5,0.4,1,0.8,1.4,1.2l0.1-0.1C25.7,111.9,27.6,109.7,29.9,108.7z"/>
			<path class="st3" d="M76.1,59.7c2-1.4,3.5-3.4,4.5-5.6l-7.1,7.1c0.6-0.3,1.2-0.6,1.7-0.9C75.5,60.1,75.8,59.9,76.1,59.7z"/>
			<path class="st3" d="M98.6,33.1c-2.1,1.8-5.2,5-5.8,7.3l19.7-19c-0.3-0.4-0.7-0.8-1-1.1C107.3,24.7,103.2,29,98.6,33.1z"/>
			<path class="st3" d="M86.2,43.2c-0.5,3.3-5.1,7.2-6.5,10.3l8.3-8.2C86.1,46.1,88.4,43,86.2,43.2z"/>
			<path class="st3" d="M88,45.3l-8.3,8.2L88,45.3z"/>
			<path class="st3" d="M26,105.6c-0.5,0.4-1,0.8-1.5,1.3s-1,0.9-1.5,1.3s-0.9,1-1.4,1.4l-0.6,0.8c-0.3,0.3-0.5,0.7-0.8,1l0.5,0.5
				l8.6-8.7C28.2,103.9,27.1,104.7,26,105.6z"/>
			<path class="st3" d="M29.3,103.2l-8.6,8.7l0,0L29.3,103.2z"/>
			<path class="st3" d="M23,108.2c0.5-0.5,1-0.9,1.5-1.3C24,107.3,23.5,107.7,23,108.2z"/>
			<path class="st3" d="M48.1,83.5c-1.8,1.7-1.7,2.4-1.7,3.2l4.3-4.3C50.2,82.3,49.5,82.2,48.1,83.5z"/>
			<path class="st3" d="M50.8,82.4l-4.3,4.3L50.8,82.4z"/>
			<path class="st3" d="M59.8,73.3c-0.4,0.1-0.8,0.3-1.3,0.4c-0.4,0.2-0.8,0.3-1.1,0.6c-0.2,0.1-0.4,0.3-0.6,0.4L56.5,75
				c-0.2,0.2-0.3,0.4-0.5,0.6c-0.1,0.2-0.2,0.4-0.3,0.7c-0.2,0.5-0.2,0.9-0.2,1.4C57,76.2,58.4,74.8,59.8,73.3z"/>
			<path class="st3" d="M59.8,73.3L59.8,73.3c-1.4,1.4-2.9,2.9-4.3,4.4L59.8,73.3z"/>
			<path class="st8" d="M46.1,114.5c-1.8-0.4-0.2-2.4,2.6-5.1c4.1-3.9,5.7-8.3,12.2-13.2c-3.1,1.2-4.6,1.5-6.5,2.5s-4.5,3.2-3.6,4.2
				c0.6,0.7,1,0.8-1.1,2.9c-1.9,1.9-3.8,3.9-5.2,3.8c-1.1-0.1-2.1-0.3-3.2-0.5c-0.3,0.3-0.7,0.6-1,0.9l-1,1.1
				c-0.2,1.2-0.9,2.2-2,2.7c-0.4,0.2-0.8,0.3-1.2,0.4v-0.1l-2.9,2.8l-2.4,2.4c2.4,1.4,4.8,2.7,7.4,3.9c1.8-1.8,3.8-3.5,5.8-5.1
				C46.1,116.9,47.1,114.7,46.1,114.5z"/>
			<path class="st7" d="M47.7,45.5L47.7,45.5L47.1,45l0,0L24.2,67.6l-5.5,5.6C13.9,77.9,9,82.6,4.2,87.4c0.2,0.4,0.3,0.8,0.5,1.2
				C19.1,74.3,33.4,59.9,47.7,45.5z"/>
			<path class="st7" d="M47.7,45.5L47.7,45.5C33.4,59.9,19.1,74.3,4.6,88.5l0,0C19.1,74.3,33.4,59.9,47.7,45.5z"/>
			<path class="st7" d="M47.1,45l0.6,0.4L47.1,45z"/>
			<path class="st10" d="M18.7,73.1l5.5-5.6l-0.5,0.2c-0.6,0.3-1.1,0.6-1.6,1L22,68.9C20.5,70,19.4,71.4,18.7,73.1z"/>
			<path class="st13" d="M64.8,18.3l-1-0.9l0,0c-8.9,9.5-18.1,18.8-27.3,28C24.9,56.9,13.2,68.4,2,80.3c0.1,0.4,0.2,0.9,0.3,1.3
				c1.9-2,3.8-3.9,5.8-5.9C27,56.5,46.3,37.8,64.8,18.3z"/>
			<path class="st13" d="M63.8,17.4L63.8,17.4c-8.9,9.5-18.1,18.8-27.3,28C45.7,36.1,54.9,26.9,63.8,17.4z"/>
			<path class="st4" d="M63.8,17.4l1.1,0.9L81,2.1l-1.2-0.3C74.5,7.1,69.3,12.4,63.8,17.4z"/>
			<path class="st4" d="M63.8,17.4L63.8,17.4c5.5-5,10.7-10.3,16-15.6l0,0C74.5,7.1,69.3,12.4,63.8,17.4z"/>
			<path class="st11" d="M57.7,112.2l0.8-0.7c3.6-3.6,5.3-6.2,5.2-8c0-2.5,1.4-5.2,3.8-7.7l0.1-0.1c0.3-0.3,0.6-0.6,1-0.9
				c0.8-0.7,1.5-1.3,2.4-1.9c0.3-0.3,0.6-0.6,0.8-0.8c0.7-0.8,1.3-1.6,1.9-2.5c-0.4-0.6,0-1.5,1.1-2.8c0.2-0.2,0.4-0.4,0.6-0.7
				l0.7-0.7c5.2-5.4,10.1-11,15.6-16.2l6-6c0.2-0.4,0.4-0.9,0.6-1.3l0,0c-0.2-0.4-0.1-1.3-0.6-1.3l0,0h-0.2c-0.1,0-0.2,0.1-0.3,0.1
				c-0.1,0.1-0.3,0.2-0.4,0.3c-0.6,0.5-1.1,1-1.6,1.6c-5.7,6.4-10.9,9.6-16.5,13.2c-3.3,2.1-5.2,3.4-4.3,0.4l-7.7,8.3
				c-0.7,1.3-1.7,2.4-3,3.1c-2,2-4,4-6,6c-4.8,5.7-10.4,9.9-15.6,14.9c-0.3,0.3-0.5,0.5-0.8,0.8c1,0.3,2.1,0.5,3.2,0.5
				c1.4,0,3.4-2,5.2-3.8c2.1-2.1,1.7-2.2,1.1-2.9c-0.9-1,1.8-3.2,3.6-4.2s3.4-1.4,6.5-2.5c-6.5,4.9-8,9.2-12.2,13.2
				c-2.8,2.7-4.5,4.7-2.6,5.1c1.1,0.2,0,2.4-1.9,3.8c-2.1,1.6-4,3.3-5.8,5.1c1.7,0.8,3.4,1.4,5.2,2c3.8-3.8,7.8-7.3,11.7-10.9
				C56.1,113.8,57,113,57.7,112.2z"/>
			<path class="st11" d="M66.6,84.5l7.7-8.3l0,0L66.6,84.5z"/>
			<path class="st8" d="M68.4,106.3c1.4-2.4,2.8-4.6,4.3-3.6c1.7-1.3,3.4-2.7,4.9-4.3l0.7-0.7l0.8-0.8c-0.4-1.5,0.6-3.2,4.1-6.3
				c1.5-1.3,2.7-2.4,3.6-3.3c2.8-2.8,3.5-4.2,3.4-6.3c0-0.4-0.1-0.8-0.2-1.3l-10.3,9.5l0,0c-0.6,0.8-1.4,1.4-2.3,1.7
				c-0.1,0-0.3,0.1-0.4,0.1l-5.3,4.6l-2.7,3.3c-0.3,0.6-0.8,1.1-1.4,1.5l-0.1,0.1l-0.2,0.1c-0.1,0-0.2,0-0.2,0.1h-0.2h-0.2l-2.9,2.9
				l0,0c0.1,1.8-1.6,4.4-5.2,8l-0.8,0.7c-0.8,0.7-1.6,1.5-2.5,2.3c-3.9,3.6-7.9,7.1-11.7,10.9c1.1,0.4,2.3,0.8,3.4,1.1
				c2.6-2.6,5.3-5.2,8-7.8C59.2,114.3,63.9,110.5,68.4,106.3z"/>
			<path class="st8" d="M58.5,111.5c3.6-3.6,5.3-6.2,5.2-8l0,0C63.8,105.3,62.1,107.9,58.5,111.5z"/>
			<path class="st11" d="M122.4,49.1l-0.7,0.6c-1.3,1.1-2.7,2.2-4.2,3.1L97,72.6c-0.5,0.9-1.2,1.7-2,2.3c-0.4,0.3-0.9,0.5-1.3,0.6
				L90,79.6c0.1,0.5,0.1,0.9,0.2,1.3c0.1,2.1-0.6,3.6-3.4,6.3c-0.9,0.9-2.1,2-3.6,3.3c-3.5,3.1-4.5,4.9-4.1,6.3
				c1.6-1,3.2-2.1,4.6-3.3c11.6-10.4,23.1-21,34.5-31.9c0.3-0.5,0.7-1,1-1.5c0.2-0.3,0.5-0.6,0.7-0.9c0.4-0.4,0.7-0.9,1.1-1.2
				c0.9-1,2.1-1.7,3.4-2.1l0,0l2.8-2.8l0.6-0.4c-0.5-2.5-1.1-4.9-1.8-7.4C124.9,46.7,123.7,47.9,122.4,49.1z"/>
			<path class="st11" d="M90,79.6c0.1,0.5,0.1,0.9,0.2,1.3C90.2,80.5,90.1,80.1,90,79.6z"/>
			<path class="st4" d="M120.4,60c1.4-1.2,2.7-2.7,4.1-4c-1.3,0.4-2.5,1.1-3.4,2.1c-0.4,0.4-0.8,0.8-1.1,1.2
				c-0.2,0.3-0.5,0.6-0.7,0.9c-0.3,0.5-0.7,1-1,1.5c0.6-0.4,1.1-0.8,1.7-1.2L120.4,60z"/>
			<path class="st4" d="M124.5,56c-1.3,0.4-2.5,1.1-3.4,2.1C122,57.1,123.2,56.4,124.5,56z"/>
			<path class="st11" d="M72.7,102.7c-1.5-1-3,1.2-4.3,3.6c0.3-0.1,0.6-0.3,0.8-0.5C70.5,104.9,71.6,103.8,72.7,102.7z"/>
			<path class="st3" d="M89.4,57.9c-2.2,2.2-4.4,4.3-6.6,6.5c-1.6,2.6-5.2,6.2-4.5,7.7c3-3,6.1-6,9-9c1.3-1.3,2.5-2.6,3.8-3.9
				c0.8-0.8,1.5-1.5,2.3-2.3l0,0c5.7-5.8,12-11,18.8-15.4l1.9-1.6l2.3-2c-0.2-0.6-1.2-0.8-0.5-2c0.1-0.1,0.1-0.2,0.2-0.3
				c0.1-0.1,0.1-0.2,0.2-0.3c0.3-0.4,0.6-0.8,1-1.2c1.5-1.6,2.3-2,2.9-2c-0.6-1-1.2-2-1.9-3C108.6,38.6,99.1,48.3,89.4,57.9z"/>
			<path class="st4" d="M78.6,75.7c5.7-3.6,10.8-6.8,16.5-13.2c0.5-0.6,1-1.1,1.6-1.6c0.1-0.1,0.2-0.2,0.4-0.3
				c0.1-0.1,0.2-0.1,0.3-0.1h0.2l0,0c0.5,0,0.4,0.9,0.6,1.3l5.9-5.7l0.4-0.4l0,0l2.7-2.8l4.2-4.3c-4.1,1-0.1-4.2,0.9-7.1
				c-6.8,4.4-13.1,9.6-18.7,15.4l0,0c-0.8,0.7-1.5,1.5-2.3,2.3c-1.3,1.3-2.5,2.6-3.8,3.9c-2.9,3.1-6,6-9,9l-4,4.1
				C73.4,79.1,75.3,77.8,78.6,75.7z"/>
			<path class="st4" d="M74.4,76.2l4-4.1L74.4,76.2z"/>
			<path class="st4" d="M97.6,60.5c0.5,0,0.4,0.9,0.6,1.3l0,0C98,61.4,98.1,60.6,97.6,60.5z"/>
			<path class="st4" d="M112.2,41.5c-6.8,4.4-13.1,9.6-18.8,15.4C99.2,51.1,105.5,45.9,112.2,41.5z"/>
			<path class="st4" d="M53.7,96c-5.2,3.8-10.3,9-11.7,12.4c5.2-5,10.9-9.2,15.6-14.9C56.8,94,56,94.5,55.2,95L53.7,96z"/>
			<path class="st4" d="M30,119l0.9,0.6l2.3-2.4C32,117.2,30.8,117.9,30,119z"/>
			<path class="st4" d="M37.8,111.1c-0.2,0.2-0.4,0.4-0.5,0.6l-0.2,0.2c-0.1,0.1-0.1,0.1-0.2,0.2c-0.6,0.6-0.9,1.4-0.8,2.2v0.1
				l3.1-3.1l1-1.1C39.7,110,39.3,109.7,37.8,111.1z"/>
			<path class="st4" d="M63.6,87.5c1.3-0.7,2.3-1.7,3-3.1c-0.5,0.3-0.9,0.6-1.3,1C64.6,86,64.1,86.7,63.6,87.5z"/>
			<path class="st11" d="M39.3,111.3l-3.1,3.1c0.4-0.1,0.8-0.2,1.2-0.4C38.4,113.5,39.1,112.5,39.3,111.3z"/>
			<path class="st10" d="M107.2,52.9L107.2,52.9l-2.7,2.7c-0.2,0.8-0.5,1.6-0.9,2.3c-0.1,0.1-0.1,0.2-0.2,0.3s-0.3,0.4-0.5,0.6
				l-0.2,0.2c-0.4,0.4-0.7,0.8-1.1,1.1c-1.2,1.1-2.6,2-4,2.8l-6,6c0,1.2-1.2,2.9-2.9,4.7c-5.2,5.2-9.6,10.8-15,15.8
				c-0.5,0.9-1.1,1.7-1.9,2.5c-0.2,0.3-0.5,0.6-0.8,0.8c-0.3,0.9-0.1,1.9,0.6,2.6l5.3-4.6c0.5-0.6,1.2-1.1,1.9-1.4
				c0.1-0.1,0.2-0.1,0.3-0.2c0.2-0.1,0.4-0.2,0.6-0.2l0,0L90,79.6l0,0l3.7-4.1c0.9-1.2,2.1-2.1,3.3-2.9l0,0l20.4-19.8l8.4-8.4
				c-0.7-2.2-1.6-4.3-2.5-6.4l-2.3,2.3C116.8,45.5,112.3,50,107.2,52.9z"/>
			<path class="st10" d="M79.6,89.1L79.6,89.1L90,79.6l0,0L79.6,89.1L79.6,89.1z"/>
			<path class="st10" d="M117.4,52.8L97,72.6l0,0L117.4,52.8z"/>
			<path class="st10" d="M93.6,75.5L90,79.6l0,0L93.6,75.5z"/>
			<polygon class="st10" points="89.9,79.6 89.9,79.6 89.9,79.6 89.9,79.6 89.9,79.6 			"/>
			<path class="st10" d="M104.5,55.6l2.7-2.7l0,0L104.5,55.6z"/>
			<path class="st3" d="M76,85.3l-0.7,0.7c-0.2,0.2-0.4,0.5-0.6,0.7c-1,1.3-1.5,2.2-1.1,2.8c5.4-5,9.8-10.6,15-15.8
				c1.8-1.8,2.9-3.5,2.9-4.7C86.1,74.3,81.1,79.9,76,85.3z"/>
			<path class="st3" d="M67.6,95.6l-0.1,0.1c-2.5,2.5-3.8,5.2-3.8,7.7l2.9-2.9l2.4-1.8l2.7-3.3c-0.7-0.7-0.9-1.7-0.6-2.6
				c-0.8,0.6-1.6,1.2-2.4,1.8C68.3,95,67.9,95.3,67.6,95.6z"/>
			<path class="st3" d="M63.7,103.5L63.7,103.5c0-2.5,1.4-5.2,3.8-7.7C65,98.3,63.6,101,63.7,103.5z"/>
			<path class="st3" d="M67.6,95.6c0.3-0.3,0.6-0.6,1-0.9C68.3,95,67.9,95.3,67.6,95.6z"/>
			<path class="st3" d="M104.1,56.1l-5.9,5.7c-0.2,0.4-0.4,0.9-0.6,1.3l0,0c1.4-0.8,2.8-1.7,4-2.8c0.4-0.4,0.8-0.7,1.1-1.1l0.2-0.2
				c0.2-0.2,0.3-0.4,0.5-0.6s0.1-0.2,0.2-0.3c0.5-0.7,0.8-1.5,0.9-2.3L104.1,56.1z"/>
			<path class="st3" d="M98.2,61.8c-0.2,0.4-0.4,0.9-0.6,1.3l0,0C97.8,62.7,98,62.2,98.2,61.8z"/>
			<path class="st3" d="M104.5,55.6l-0.4,0.4L104.5,55.6z"/>
			<path class="st3" d="M79.6,89.1c-0.2,0-0.4,0.1-0.6,0.2c-0.1,0-0.2,0.1-0.3,0.2c-0.7,0.4-1.3,0.9-1.9,1.4c0.1,0,0.3,0,0.4-0.1
				C78.2,90.5,79,89.9,79.6,89.1z"/>
			<path class="st3" d="M77.3,90.9c0.9-0.4,1.7-1,2.3-1.7l0,0C79,89.9,78.2,90.5,77.3,90.9z"/>
			<path class="st3" d="M79.6,89.1c-0.2,0-0.4,0.1-0.6,0.2C79.2,89.2,79.4,89.2,79.6,89.1z"/>
			<polygon class="st3" points="79.6,89.1 79.6,89.1 79.6,89.1 79.6,89.1 			"/>
			<path class="st11" d="M68.9,98.8l-2.4,1.8h0.2H67c0.1,0,0.2,0,0.2-0.1l0.2-0.1l0.1-0.1C68.1,100,68.6,99.4,68.9,98.8z"/>
			<path class="st4" d="M121.7,49.8l0.7-0.6c1.3-1.2,2.6-2.4,3.7-3.8l-0.3-1l-8.4,8.4C118.9,51.9,120.3,50.9,121.7,49.8z"/>
			<path class="st4" d="M122.4,49.1c1.3-1.2,2.6-2.4,3.7-3.8l0,0C124.9,46.7,123.7,47.9,122.4,49.1z"/>
			<path class="st3" d="M97,72.6c-1.3,0.8-2.4,1.8-3.3,2.9c0.5-0.1,0.9-0.3,1.3-0.6C95.8,74.3,96.5,73.5,97,72.6z"/>
			<path class="st3" d="M95,74.9c0.8-0.6,1.5-1.4,2-2.3l0,0C96.5,73.5,95.8,74.3,95,74.9z"/>
			<path class="st13" d="M114.1,39.9l-1.9,1.6l0,0c-0.9,2.9-4.9,8.1-0.9,7.1c0.7-0.8,1.4-1.6,2-2.4c2.1-2.3,4.3-4.6,6.6-6.9l2.7-2.7
				c-0.5-1.1-1.1-2.3-1.7-3.4l-4.6,4.5L114.1,39.9z"/>
			<path class="st13" d="M112.2,41.5l1.9-1.6L112.2,41.5z"/>
			<path class="st4" d="M117.3,34c-0.4,0.4-0.7,0.8-1,1.2c-0.1,0.1-0.2,0.2-0.2,0.3c-0.1,0.1-0.1,0.2-0.2,0.3
				c-0.7,1.2,0.3,1.4,0.6,2l4.5-4.5c-0.2-0.5-0.5-0.9-0.8-1.4C119.7,32,118.8,32.4,117.3,34z"/>
			<path class="st3" d="M121,40.3l-1-0.9l0,0c-2.3,2.2-4.5,4.5-6.6,6.9c-0.7,0.8-1.4,1.6-2,2.4l-4.2,4.3
				C112.3,50,116.8,45.5,121,40.3z"/>
			<path class="st3" d="M107.2,52.9l4.2-4.3L107.2,52.9z"/>
			<path class="st3" d="M120,39.4L120,39.4c-2.3,2.2-4.5,4.5-6.6,6.9C115.5,43.9,117.7,41.6,120,39.4z"/>
			<path class="st4" d="M121,40.3l2.3-2.3c-0.2-0.4-0.4-0.8-0.6-1.2l-2.7,2.6L121,40.3z"/>
			<path class="st4" d="M120,39.4l2.7-2.7l0,0L120,39.4z"/>
			<path class="st14" d="M129,62.6c-0.1-2-0.2-4.1-0.5-6c-0.1-1-0.3-2-0.4-3l0,0c0-0.3-0.1-0.5-0.1-0.8c-0.5-2.5-1.1-4.9-1.8-7.4
				l0,0l-0.3-1c-0.7-2.2-1.6-4.4-2.5-6.5c-0.2-0.4-0.4-0.8-0.6-1.2l0,0c-0.5-1.1-1.1-2.3-1.7-3.4c-0.2-0.5-0.5-0.9-0.8-1.4
				c-0.6-1-1.2-2-1.9-3l0,0c-0.2-0.3-0.3-0.5-0.5-0.8c-1-1.4-2-2.8-3-4.1c-0.5-0.6-1-1.2-1.5-1.8l-0.1-0.1l0,0
				c-0.2-0.3-0.4-0.5-0.7-0.8l0,0c-0.3-0.4-0.7-0.8-1-1.1c-0.7-0.7-1.3-1.3-2-2c-0.5-0.5-0.9-0.9-1.4-1.3l0,0l-0.9-0.8
				c-0.8-0.7-1.7-1.4-2.6-2.1c-0.4-0.4-0.9-0.7-1.4-1l-1.4-1l0,0l-0.8-0.6c-0.6-0.4-1.2-0.8-1.8-1.2L99.1,10c-0.5-0.3-1-0.6-1.5-0.9
				l-0.8-0.5l-0.5-0.3l-0.3-0.2l-0.6-0.3c-0.2-0.1-0.4-0.2-0.6-0.3l0,0l-0.5-0.2l0,0C93.8,7,93.4,6.8,93,6.6l-0.7-0.4
				c-0.6-0.3-1.3-0.6-1.9-0.9l-0.6-0.3l-1.2-0.5c-0.3-0.1-0.7-0.3-1-0.4l0,0c-0.8-0.3-1.7-0.6-2.6-0.9L84.1,3
				c-0.7-0.2-1.3-0.4-2-0.6c-0.3-0.1-0.7-0.2-1.1-0.3l0,0l-1.2-0.3l0,0c-0.3-0.1-0.7-0.2-1-0.2l-1.5-0.3L76,1l0,0
				c-0.6-0.1-1.2-0.2-1.8-0.3l-1-0.1c-0.9-0.1-1.7-0.2-2.6-0.3l0,0c-0.6-0.1-1.3-0.1-1.9-0.1l-1.2-0.1L66.1,0h-1.3h-1.1
				c-0.5,0-0.9,0-1.4,0l0,0c-0.8,0-1.5,0.1-2.2,0.1c-1.7,0.2-3.5,0.3-5.1,0.6c-1.1,0.2-2.2,0.4-3.3,0.6c-0.6,0.1-1.2,0.2-1.8,0.4
				L48.5,2c-0.6,0.1-1.1,0.3-1.7,0.5s-1.3,0.4-2,0.6l-1,0.3c-0.5,0.2-1,0.3-1.5,0.5c-2.4,0.9-4.7,1.9-7,3c-0.5,0.2-1,0.5-1.5,0.8
				c-1.5,0.8-2.9,1.7-4.4,2.6c-1.6,1-3.1,2.1-4.5,3.2l0,0c-3.2,2.5-6.2,5.3-8.9,8.4l0,0c-1.8,2-3.4,4.1-4.9,6.3
				c-0.8,1.1-1.5,2.3-2.2,3.5c-0.7,1.2-1.5,2.6-2.1,3.9c-0.1,0.3-0.3,0.5-0.4,0.8c-0.2,0.4-0.4,0.9-0.6,1.3
				c-0.4,0.9-0.8,1.8-1.2,2.8c-0.8,2.1-1.6,4.2-2.2,6.4C2.3,47.4,2.1,48,2,48.6s-0.3,1.2-0.4,1.8L1.2,52L1,53
				c-0.1,0.4-0.1,0.8-0.2,1.2S0.7,54.7,0.7,55c-0.1,0.6-0.2,1.3-0.2,1.9s-0.1,1.3-0.2,2c0,0.4-0.1,0.9-0.1,1.3s0,0.8-0.1,1.1
				c0,0.6,0,1.3-0.1,1.9c0,0.4,0,0.8,0,1.2c0,0.8,0,1.6,0.1,2.4c0,0.5,0,1,0.1,1.6l0,0c0,0.4,0,0.7,0.1,1.1c0.1,0.7,0.1,1.3,0.2,2
				c0,0.4,0.1,0.9,0.2,1.3s0.1,1,0.2,1.5s0.1,0.7,0.2,1.1l0,0c0.1,0.7,0.2,1.4,0.4,2.1c0.1,0.3,0.1,0.5,0.2,0.8
				c0.1,0.5,0.2,0.9,0.3,1.4l0,0c0,0.2,0.1,0.4,0.2,0.7h0c0.1,0.4,0.2,0.9,0.3,1.3s0.2,0.9,0.4,1.3c0.2,0.7,0.4,1.4,0.7,2.1
				c0.1,0.4,0.2,0.7,0.4,1.1l0.4,1.2l0,0c0.2,0.4,0.3,0.8,0.5,1.2l0,0C4.8,89,5,89.4,5.2,89.7c0.1,0.2,0.2,0.4,0.2,0.6
				c0.5,1.2,1.1,2.4,1.7,3.6c0.5,0.9,0.9,1.8,1.4,2.6l0,0c0,0.1,0.1,0.1,0.1,0.2c0.2,0.4,0.5,0.8,0.7,1.2l0.5,0.8l1,1.6
				c0.1,0.2,0.3,0.4,0.4,0.6c0.5,0.7,1,1.4,1.5,2l0,0l0.5,0.6l0.8,1l0,0c0.6,0.8,1.3,1.6,1.9,2.3l0.2,0.2c0.3,0.3,0.6,0.7,0.9,1
				c1.1,1.1,2.1,2.2,3.2,3.3l0.5,0.5l0,0L22,113c0.5,0.4,1,0.8,1.4,1.2c1.6,1.3,3.2,2.6,4.9,3.7c0.5,0.4,1.1,0.7,1.6,1.1l0.9,0.6
				c2.4,1.4,4.8,2.7,7.4,3.9c1.7,0.8,3.4,1.4,5.2,2c1.1,0.4,2.3,0.8,3.4,1.1l0,0c1.3,0.4,2.6,0.7,3.9,1c0.8,0.2,1.6,0.3,2.3,0.5l0,0
				c3.7,0.7,7.5,1,11.3,1c1.4,0,2.8-0.1,4.2-0.1l0,0c1.8-0.1,3.7-0.3,5.5-0.6c1.4-0.2,2.7-0.5,4.1-0.8c9.1-2,17.7-5.9,25.1-11.6l0,0
				c4.6-3.5,8.7-7.5,12.2-12.1c1.4-1.9,2.8-3.8,4-5.8l0,0c1.8-2.9,3.3-6,4.6-9.2c0.7-1.6,1.2-3.2,1.7-4.8c1.4-4.3,2.3-8.8,2.7-13.3
				c0.2-2,0.3-4.1,0.3-6.2C129,63.8,129,63.2,129,62.6z"/>
		</g>
	</g>
	<g>
		<path class="st15" d="M18.4,68.5c0.4,2.6,1.7,8.5,1.7,12.2c-0.3,0.3-1,0.7-1.6,0.4C18,80.4,16.2,70.9,16,68.9
			c-0.8,0-2.5,0.4-3.5,0.5c-1,0.2-1.6,0.1-1.9-1c0.3-0.5,1.6-0.8,2.6-1c1.7-0.4,7.9-1.6,10.3-1.4c0.5,0.3,0.4,1,0.2,1.5
			C22.1,67.8,20.1,68.2,18.4,68.5z"/>
		<path class="st15" d="M36.7,78.2c-3.9,0.6-7.7-2-8.1-6.2l0-0.4c-0.4-3.9,1.9-7.6,5.9-8.2c3.9-0.6,7.4,2.2,8,6.3
			C43.1,74,40.6,77.6,36.7,78.2z M34.6,65.1c-3,0.5-4.5,3.4-4,6.4c0.5,2.8,2.8,5.6,5.8,5.1c2.7-0.4,4.4-3.4,3.8-6.7
			C39.8,67.3,37.8,64.6,34.6,65.1z"/>
		<path class="st15" d="M54.6,69.3c-1.2,1.3-3,2.1-5.3,2.4c0.1,1,0.7,3.4,0.7,4.5c-0.7,0.5-1.7,0.1-2.1-0.3
			c-0.5-3.6-2.3-10.6-1.5-13.8c1.9-0.1,3.8-1.5,5.6-1.2c1.5,0.3,3.2,1.8,3.6,3.7C56.2,66.5,55.8,68.1,54.6,69.3z M52.1,62.7
			c-1.2-0.3-2.7,0.2-4,1.1c0.3,1.8,0.5,4.5,1,6.3c2.5-0.1,4.5-1.5,5-3.6C54,64.3,53.2,63,52.1,62.7z"/>
		<path class="st15" d="M76.4,70.4c-3.7-1.9-6.9-4.9-9.8-7.6c-1.1,1.6-1.9,3.5-2.9,5.2c-0.3,0.5-0.5,1.3-1.3,1.4
			c-0.4-0.1-1-1.3-1.1-1.9c2.1-1.7,3.2-4.1,4.4-6.3c0.3-0.2,1-0.3,1.3-0.2c2.6,3.2,6.1,5.4,9.5,7.4c0.8,0.5,1.4,0.6,0.9,1.6
			L76.4,70.4z"/>
		<path class="st15" d="M96.7,59.9c-0.1,0.5-0.5,1.3-1.1,1.3c-0.4,0-0.6-0.5-0.6-0.5c-1.8,0-6,0.5-8.3,1.8L86,62.4
			c-0.5,1.5-1.3,4-2.5,5.5c-0.6,0.9-1.4,1.5-2.3,1.9c1.4-2.7,2.6-6.6,3.5-11.6c-0.5,0.2-1,0.3-1.4,0.4c-0.7,0.1-1.2,0.1-1.6-0.6
			c0.1-0.4,0.5-0.7,1.2-0.9c1.1-0.4,2.5-0.8,3.7-1.1c0.8-1,1.4-2.3,2.2-3.5c0.9-0.1,1.9,0.2,2.3,0.7c-0.5,1.1-2.7,2.5-2.7,2.5
			c1.9-0.4,5.6-1,7-0.8c0.6,0.1,1,0.3,1.4,0.7C96.9,56.9,96.8,58.7,96.7,59.9z M86.1,57.9l0.6,0.5c0.1,0.6-0.2,1.6-0.3,2.3
			c2.8-0.8,5.5-1.5,8.4-1.5c0.1-0.6,0-1.5,0-2.8C92.6,56.2,87.5,57.4,86.1,57.9z M99.9,69.7c-0.2,0.3-0.5,1.1-0.8,1.3
			c-2.1-0.4-4.6-2.1-5.9-4.5c-0.5,2.3-1.7,4.1-3.7,5.4c-0.6,0.4-2.5,1.1-2.5,1.1c2.6-2.3,4.1-4.8,4.3-7.5c-1.1,0.3-2.5,0.7-3.3,1
			c-0.8,0.3-1.3-0.1-1.6-0.8c0.3-0.4,0.9-0.6,1.7-0.8c0.8-0.3,2.2-0.6,3.2-0.8c0-0.4,0-1.3,0-2.2c0.4-0.6,1.2-0.4,1.7,0
			c0.2,0.5,0.3,1.1,0.3,1.8c0.7-0.1,2-0.3,3.2-0.4c0.7,0,1.3,0,1.6,0.2c0.6,0.5,0.3,1.1,0.1,1.3c-1.6-0.2-3.5,0.1-4.9,0.3l-0.1,0.5
			c1.6,2.1,4.4,3,7.4,3.5C100.8,69.4,100.3,69.6,99.9,69.7z"/>
		<path class="st15" d="M115.6,66.2c-1.4,1-4.2,1.6-5.8,0.8c-0.9-0.5-1.3-1.6-0.6-2.6c1.2-1.7,4.5-1.4,6.4-0.5
			c0.4-0.4,0.6-1.4,0.4-2.1c-0.2-1.4-1.3-2.9-2.6-2.9c-1.9-0.1-4,0.9-5.4,3c-0.3,0.5-0.8,1.5-1,1.7c-0.4,0.4-1.2-0.1-1.2-0.5
			c0-0.8,0.7-2.2,1-2.7c1.2-2.6,2.5-5.1,3.6-7.7c-1.3,0.4-2.7,0.8-3.9,1.2c-0.5-0.3-0.7-1.1-0.8-1.5c1.6-0.2,4.5-0.8,5.8-1.2
			c0.4,0.2,0.8,0.8,1,1.2c-1.2,2.1-2.6,4.5-3.5,6.7c1.8-1.1,4.6-1.9,6.5-0.8c0.8,0.6,1.8,1.7,2,3.1C118,63.5,117.2,65.1,115.6,66.2z
			 M110.8,64.6c-0.3,0.6-0.2,1.1,0.1,1.3c0.4,0.3,1.1,0.3,1.7,0.3c0.9-0.1,1.9-0.7,2.2-1.2C113.9,64.3,112,64.2,110.8,64.6z"/>
	</g>
</g>
</svg>
