<svg xmlns="http://www.w3.org/2000/svg" width="94.368" height="21.774" viewBox="0 0 94.368 21.774">
  <path id="tourism-h2-title" d="M11.64-13.08a23.1,23.1,0,0,0-4.056-.1A17.515,17.515,0,0,0,8.592-15.72a9.3,9.3,0,0,0,3.072-.336c-.12-.792-.72-1.176-1.824-1.176-1.176,0-2.544.288-3.72.168.408-.576.912-1.032.864-1.7-.048-.72-1.2-.96-1.776-.72-.936,2.064-1.632,3.6-2.112,4.608-.168.24-.72.888-.72,1.3A8.068,8.068,0,0,0,5.664-16.32a1.807,1.807,0,0,0,.912.528A26.123,26.123,0,0,1,5.52-13.08a15.591,15.591,0,0,0-4.272.792c-.36.6.264,1.224.888,1.2a17.279,17.279,0,0,1,2.832-.648C3.288-8.9,1.992-6.816,1.056-5.472c.192-.1.456-.24.744-.408A9.237,9.237,0,0,0,4.608-8.016c.024,2.664.12,5.448.312,8.376A2.6,2.6,0,0,0,5.976.672c.384,0,.6-.36.576-.816a17.7,17.7,0,0,1,5.16.024,1.151,1.151,0,0,0,.216-.624c0-.528-.888-.816-1.8-.84a9.449,9.449,0,0,0,.1-1.848,13.555,13.555,0,0,1,1.392.072.938.938,0,0,0-.144-1.08,8.187,8.187,0,0,0-1.224-.072l-.024-1.3c.456.024,1.152.12,1.152.12a.7.7,0,0,0,0-1.176s-.768-.1-1.152-.1a7.58,7.58,0,0,0-.216-1.512c.768.024,1.44.048,1.752.048A1.077,1.077,0,0,0,11.976-9c0-.24-.144-.408-.456-.528a8.781,8.781,0,0,0-1.8-.12,3.064,3.064,0,0,0,1.056-1.536,1.457,1.457,0,0,0-1.68-.192,2.707,2.707,0,0,1-.384,1.728,12.363,12.363,0,0,0-2.424.312,1.4,1.4,0,0,0-.624-.312A10.049,10.049,0,0,0,7.08-12c1.68-.144,3.312.144,4.968.048A.727.727,0,0,0,11.64-13.08Zm9.48-4.248c-1.632-1.176-4.224-.96-6.12-.648-.144.024-.384.36-.384.36a1.672,1.672,0,0,0-1.08-.024,70.162,70.162,0,0,0-.072,10.2,1.67,1.67,0,0,0,1.008.6,1.278,1.278,0,0,0,.816-.816A19.377,19.377,0,0,1,19.2-7.7a1.064,1.064,0,0,0,.816.792A1.538,1.538,0,0,0,21-8.016,72.006,72.006,0,0,0,21.12-17.328ZM19.176-8.784a14.816,14.816,0,0,0-3.888-.1,59.806,59.806,0,0,1,.024-7.752,10.427,10.427,0,0,1,3.84-.264A53.274,53.274,0,0,1,19.176-8.784Zm-1.2-5.112c.072-.312.072-.576-.264-.744a2.7,2.7,0,0,0-1.512,0,.95.95,0,0,0,.1,1.152l.264-.12C16.872-13.608,17.76-13.56,17.976-13.9Zm-.048,3.024a1.24,1.24,0,0,0-.144-1.152c-.456-.048-1.32-.192-1.752.24a1.642,1.642,0,0,0,.144.936C16.776-10.7,17.3-10.992,17.928-10.872ZM8.568-4.416c-.264.048-1.008.072-1.416.168a.64.64,0,0,0,.336.888,2.871,2.871,0,0,0,1.1.024c.024.576-.048,1.7-.048,1.7a4.714,4.714,0,0,0-2.112.216C6.432-3.1,6.24-4.8,6.24-6.48a18.835,18.835,0,0,1,.12-2.088A3.666,3.666,0,0,0,8.4-8.4c0,.288.12,1.08.1,1.488a2.273,2.273,0,0,0-.864.048A.556.556,0,0,0,7.2-6.24a.764.764,0,0,0,.552.552,7.193,7.193,0,0,0,.768-.1C8.544-5.352,8.592-4.752,8.568-4.416Zm13.776,5.64A11.09,11.09,0,0,0,21-2.808a10.941,10.941,0,0,1-.168,2.424,3.42,3.42,0,0,1-1.416-.048,22.856,22.856,0,0,1-.072-5.256,7.461,7.461,0,0,0,0-1.08c-.6-.216-1.2-.408-1.632.024C17.5-5.664,17.4-.408,18.024.648c.48.816,1.656.912,2.5.96A2.909,2.909,0,0,0,22.344,1.224ZM15.312-6.552a10.486,10.486,0,0,0-.48,1.464,18.8,18.8,0,0,1-4.368,6.864,11.107,11.107,0,0,0,3.36-2.184,10.339,10.339,0,0,0,3.024-5.52A1.089,1.089,0,0,0,15.312-6.552Zm29.28-3.672a1.025,1.025,0,0,0-.72-1.176,45.645,45.645,0,0,0-7.3-.384c-.048-2.256.072-4.536.168-6.792a1.965,1.965,0,0,0-2.3-.888c-.312.528-.024,1.248-.024,1.824.048,2.568.072,4.512.048,5.952-2.256.144-4.68.36-6.72.648-.384.048-1.176.264-1.176.744,0,.288.24.576.744.864.912,0,2.28-.456,4.8-.624A21.206,21.206,0,0,1,26.64,1.416a8.112,8.112,0,0,0,3.144-1.7,18.194,18.194,0,0,0,4.632-8.52,1.959,1.959,0,0,0-.48-1.416,56.46,56.46,0,0,1,8.472.12A4.231,4.231,0,0,0,44.592-10.224ZM42.48-16.848a2.131,2.131,0,0,0-2.088-.648,9.344,9.344,0,0,1-.888,2.112c-.336.624-.984,1.92-.984,1.92C39.816-13.944,42.1-14.856,42.48-16.848Zm-10.1,2.208c-.12-1.08-2.256-2.976-3.36-2.544a5.919,5.919,0,0,1,.816,2.04c.168.672.528,1.824,1.416,1.824A1.219,1.219,0,0,0,32.376-14.64Zm12.7,12.72A9.58,9.58,0,0,0,44.784-4.7s-.672,3.312-1.368,3.624c-1.08.48-3.216.048-4.368-.1a45.3,45.3,0,0,1-.024-7.44,2.146,2.146,0,0,0-1.608-.84,1.27,1.27,0,0,0-.72.216c0,1.488-.048,3.1-.048,4.656,0,2.64.5,4.392,1.44,5.256a12.66,12.66,0,0,0,6.888.192C45.888.288,45.5-1.128,45.072-1.92ZM70.44-9.768c-.048-.624-.792-.888-.792-.888a41.1,41.1,0,0,0-4.8-.264,14.273,14.273,0,0,0,.1-1.632,10.682,10.682,0,0,1,1.7.168,1.022,1.022,0,0,0,.144-1.2,3.886,3.886,0,0,0-1.824-.312l.048-1.656a44.057,44.057,0,0,0,4.416.24c.048-.624-.12-1.056-.648-1.176a18.6,18.6,0,0,0-3.768-.384s-.024-.936-.024-1.368a1.353,1.353,0,0,0-1.416-1.176c-.336,0-.6.12-.624.744-.048.624,0,1.9,0,1.9a28.341,28.341,0,0,0-5.568.768,1.4,1.4,0,0,0,1.224,1.248,27.887,27.887,0,0,1,4.344-.7V-13.8a7.48,7.48,0,0,0-2.9.7c-.024.648.288,1.056.936.96a17.947,17.947,0,0,1,1.968-.288c0,.768.024,1.584.024,1.584a26.453,26.453,0,0,0-6.048.912.756.756,0,0,0,.48.888,1.633,1.633,0,0,0,1.2.192,33.966,33.966,0,0,1,11.568-.312A.842.842,0,0,0,70.44-9.768ZM54.672-18.24a1.714,1.714,0,0,0-1.8-.528c-.552,1.752-.72,14.568-.312,17.592.1.744.312,1.44.84,1.44.624,0,1.032-.744,1.008-1.3A101.034,101.034,0,0,1,54.672-18.24Zm-4.08,9.768a4.749,4.749,0,0,0,.96-3.024A1.991,1.991,0,0,0,50.88-13.1a6.988,6.988,0,0,1-.888,1.68,4.786,4.786,0,0,0-.768,1.416A1.666,1.666,0,0,0,49.848-8.4,1.559,1.559,0,0,0,50.592-8.472Zm4.9-1.3c1.1-.168,1.2-1.176.936-2.04a2.2,2.2,0,0,0-1.848-.72s.12,1.032.168,1.56C54.864-10.32,55.1-9.912,55.488-9.768ZM67.776-5.616c-.1-1.176-.336-1.872-.96-2.16-1.416-.7-4.3-.336-5.568-.024l-.216.7a1.44,1.44,0,0,0-1.08-.12,26.887,26.887,0,0,0-.12,6.936c.144,1.08.6,2.04,1.656,1.752.432-.432.216-1.152.168-1.68A32.494,32.494,0,0,1,61.68-6.7a9.435,9.435,0,0,1,4.1,0,30.44,30.44,0,0,1-.1,6.936c-.864.072-1.824.072-1.824.072s1.224.864,1.344,1.776A2.152,2.152,0,0,0,67.416.576,31.667,31.667,0,0,0,67.776-5.616Zm-2.76,1.632a1.057,1.057,0,0,0-.072-.864,4.161,4.161,0,0,0-2.3-.072c-.1.648,0,1.032.312,1.2A14.262,14.262,0,0,0,65.016-3.984Zm-.408,1.512c-.576-.192-1.872-.216-1.968.408a.787.787,0,0,0,.384.744,4,4,0,0,1,1.512,0C65.064-1.536,64.944-2.136,64.608-2.472ZM84.288-10.1c.168-.48.264-1.032-.336-1.32a13.878,13.878,0,0,0-3.5-.432l.072-2.352a20.41,20.41,0,0,1,2.5.168,1.227,1.227,0,0,0,.456-.744c-.312-.7-2.088-.84-2.928-.816.048-.888.192-1.7.192-2.208,0-1.032-1.68-1.344-2.208-.912a31.164,31.164,0,0,0-.1,3.216c-.576.024-1.44.144-2.16.216A1.532,1.532,0,0,0,74.9-14.5a1.442,1.442,0,0,0,1.248.72,15.167,15.167,0,0,0,2.3-.336c0,.72.048,2.328.048,2.328a23.618,23.618,0,0,0-5.088.792,1.572,1.572,0,0,0-.192,1.248,1.158,1.158,0,0,0,.792.288,25.288,25.288,0,0,1,2.5-.672l.168,1.464c.048.456.12,1.176.768,1.176a1.344,1.344,0,0,0,1.152-1.1,5.591,5.591,0,0,1-1.008-1.728A21.072,21.072,0,0,1,84.288-10.1ZM95.424.024A16.3,16.3,0,0,1,91.7-3.144a21.113,21.113,0,0,0,2.112-5.28c-1.392-1.344-5.3-1.128-7.1-.768,0-3.864.048-6.264.024-8.16a2.156,2.156,0,0,0,.984.288,15,15,0,0,1,3.1-.168,19.475,19.475,0,0,1-.1,4.752l-2.5.12A3.021,3.021,0,0,1,90.6-10.488a2.317,2.317,0,0,0,1.9-1.152c.576-1.608,1.008-5.232-.072-6.816-2.04-.36-4.512-.48-6.072.312a1.73,1.73,0,0,0-1.632-.168c.048,3.72.048,13.3.024,19.344a1.312,1.312,0,0,0,1.872.312c.1-1.992.072-6.384.072-9.24a25.853,25.853,0,0,1,4.776-.072,16.4,16.4,0,0,1-1.176,3.576C89.472-5.208,87.6-7.176,87.6-7.176a10.208,10.208,0,0,0,2.016,4.32A20.987,20.987,0,0,1,87.24.936,8.749,8.749,0,0,0,90.7-1.584,12.727,12.727,0,0,0,93.864,1.56C94.2.84,94.584.144,95.424.024ZM83.3-5.856c.312-.384.072-.936-.168-1.3-1.488-.072-2.52-.1-2.52-.1s2.4-1.224,2.28-2.064c-.048-.5-.84-.792-1.752-.72a25.731,25.731,0,0,1-1.176,2.784c-1.392.048-2.856.192-4.248.36-.312.12-.7.336-.7.72a.97.97,0,0,0,.864.816,27.207,27.207,0,0,1,2.736-.48l-.072,2.256a20.436,20.436,0,0,0-3.312.624,1.183,1.183,0,0,0,1.368,1.2s1.224-.288,1.992-.384c0,1.176.072,2.184.192,3.888a1.1,1.1,0,0,0,1.8-.048c-.048-1.44-.1-3-.072-4.008.96.024,1.68.192,2.256-.144.216-.192.12-.648.12-.648a3.54,3.54,0,0,0-2.4-.672,14.324,14.324,0,0,1,.1-1.656,1.376,1.376,0,0,0-.528-.552C81.36-6.072,82.44-5.784,83.3-5.856Z" transform="translate(-1.056 19.578)" fill="#518c03"/>
</svg>
