<svg xmlns="http://www.w3.org/2000/svg" width="64.005" height="46" viewBox="0 0 64.005 46">
  <g id="tree02" transform="translate(-3924.553 -1933.875)">
    <g id="グループ_42" data-name="グループ 42" transform="translate(3924.553 1940.667)">
      <path id="パス_97" data-name="パス 97" d="M3995.266,2142.283s1.669-10.364,1.252-13.7-.417-9.389-.417-9.389h4.8s-.418,9.6-.418,10.85.626,7.094.626,7.094l.417,5.008Z" transform="translate(-3986.302 -2103.075)" fill="#a56d35"/>
      <path id="パス_98" data-name="パス 98" d="M3952.474,2147.044H3970s-1.252-3.338-2.5-4.381l-1.252-1.043s-1.7-4.615-4.59-4.381S3952.683,2144.54,3952.474,2147.044Z" transform="translate(-3948.935 -2118.612)" fill="#526e00"/>
      <path id="パス_99" data-name="パス 99" d="M3924.553,2067.069h24.6s-1.758-4.687-3.515-6.151l-1.757-1.465s-2.386-6.479-6.444-6.151S3924.846,2063.554,3924.553,2067.069Z" transform="translate(-3924.553 -2045.132)" fill="#739703"/>
      <path id="パス_100" data-name="パス 100" d="M3924.553,2001.234h24.6s-1.758-4.687-3.515-6.151l-1.757-1.465s-2.386-6.479-6.444-6.151S3924.846,1997.719,3924.553,2001.234Z" transform="translate(-3924.553 -1987.455)" fill="#628200"/>
    </g>
    <g id="グループ_43" data-name="グループ 43" transform="translate(3963.953 1940.667)">
      <path id="パス_101" data-name="パス 101" d="M4306.066,2142.283s1.669-10.364,1.251-13.7-.417-9.389-.417-9.389h4.8s-.417,9.6-.417,10.85.626,7.094.626,7.094l.417,5.008Z" transform="translate(-4297.103 -2103.075)" fill="#a56d35"/>
      <path id="パス_102" data-name="パス 102" d="M4263.273,2147.044H4280.8s-1.251-3.338-2.5-4.381l-1.252-1.043s-1.7-4.615-4.591-4.381S4263.482,2144.54,4263.273,2147.044Z" transform="translate(-4259.734 -2118.612)" fill="#526e00"/>
      <path id="パス_103" data-name="パス 103" d="M4235.354,2067.069h24.6s-1.758-4.687-3.515-6.151l-1.758-1.465s-2.386-6.479-6.444-6.151S4235.647,2063.554,4235.354,2067.069Z" transform="translate(-4235.354 -2045.132)" fill="#739703"/>
      <path id="パス_104" data-name="パス 104" d="M4235.354,2001.234h24.6s-1.758-4.687-3.515-6.151l-1.758-1.465s-2.386-6.479-6.444-6.151S4235.647,1997.719,4235.354,2001.234Z" transform="translate(-4235.354 -1987.455)" fill="#628200"/>
    </g>
    <g id="グループ_44" data-name="グループ 44" transform="translate(3944.479 1933.875)">
      <path id="パス_105" data-name="パス 105" d="M4152.452,2115.134s1.669-12.133,1.252-16.041-.417-10.992-.417-10.992h4.8s-.417,11.236-.417,12.7.626,8.3.626,8.3l.417,5.862Z" transform="translate(-4143.488 -2069.134)" fill="#a56d35"/>
      <path id="パス_106" data-name="パス 106" d="M4109.66,2120.706h17.526s-1.252-3.908-2.5-5.129l-1.252-1.221s-1.7-5.4-4.59-5.13S4109.869,2117.775,4109.66,2120.706Z" transform="translate(-4106.121 -2087.358)" fill="#739703"/>
      <path id="パス_107" data-name="パス 107" d="M4081.74,2027.08h24.605s-1.758-5.487-3.515-7.2l-1.757-1.714s-2.386-7.585-6.444-7.2S4082.033,2022.965,4081.74,2027.08Z" transform="translate(-4081.74 -2001.366)" fill="#81aa06"/>
      <path id="パス_108" data-name="パス 108" d="M4081.74,1950.006h24.605s-1.758-5.487-3.515-7.2l-1.757-1.714s-2.386-7.585-6.444-7.2S4082.033,1945.891,4081.74,1950.006Z" transform="translate(-4081.74 -1933.875)" fill="#8cb808"/>
    </g>
  </g>
</svg>
