<svg xmlns="http://www.w3.org/2000/svg" xmlns:xlink="http://www.w3.org/1999/xlink" width="386.543" height="105.397" viewBox="0 0 386.543 105.397">
  <defs>
    <clipPath id="clip-path">
      <path id="パス_131" data-name="パス 131" d="M3228.534,1989.592s-17.606,3.025-19-4.45-9.284-10.963-10.212-15.946-1.392-17.441-.928-21.428,0-13.953,2.785-17.441,20.888-21.428,33.886-20.431,18.1,3.986,23.209,6.976,5.107,17.441,6.963,22.425,5.106,6.976,5.106,13.454-4.178,18.936-6.5,22.424S3251.286,2001.242,3228.534,1989.592Z" transform="translate(-3198.213 -1909.856)" fill="none"/>
    </clipPath>
  </defs>
  <g id="tree-icon" transform="translate(-2935.449 -1894.638)">
    <path id="パス_109" data-name="パス 109" d="M3583.3,1956.087s-4.744,25.841,19.133,25.841c34.839,0,20.307-25.359,20.307-25.359s17.589-7.735,15.925-29.43c-1.652-21.54-16.654-16.494-16.654-16.494s-3.368-21.346-25.463-14.737c-16.112,4.819-11.789,23.72-11.789,23.72s-13.7-7.512-15.022,13.7S3583.3,1956.087,3583.3,1956.087Z" transform="translate(-470.115)" fill="#bdcb00"/>
    <path id="パス_110" data-name="パス 110" d="M3607.482,1988.713s-3.787,20.63,15.275,20.63c27.814,0,16.213-20.246,16.213-20.246s14.041-6.175,12.713-23.5c-1.319-17.2-13.3-13.168-13.3-13.168s-2.689-17.042-20.329-11.765c-12.863,3.848-9.412,18.937-9.412,18.937s-10.935-6-11.993,10.935S3607.482,1988.713,3607.482,1988.713Z" transform="translate(-490.081 -33.37)" fill="#89b60b"/>
    <path id="パス_111" data-name="パス 111" d="M3632.349,2019.344s-2.869,15.628,11.571,15.628c21.069,0,12.281-15.336,12.281-15.336a17.76,17.76,0,0,0,9.631-17.8c-1-13.027-10.072-9.975-10.072-9.975s-2.036-12.909-15.4-8.912c-9.743,2.915-7.129,14.345-7.129,14.345s-8.284-4.543-9.085,8.283S3632.349,2019.344,3632.349,2019.344Z" transform="translate(-510.473 -64.894)" fill="#c5ce00"/>
    <path id="パス_112" data-name="パス 112" d="M3228.534,1989.592s-17.606,3.025-19-4.45-9.284-10.963-10.212-15.946-1.392-17.441-.928-21.428,0-13.953,2.785-17.441,20.888-21.428,33.886-20.431,18.1,3.986,23.209,6.976,5.107,17.441,6.963,22.425,5.106,6.976,5.106,13.454-4.178,18.936-6.5,22.424S3251.286,2001.242,3228.534,1989.592Z" transform="translate(-194.779 -11.281)" fill="#699d6e"/>
    <path id="パス_113" data-name="パス 113" d="M2955.023,2007.6s-17.039-9.664-16.531-21.617-5.726-20.534-1.656-30.2,7.252-25.245,14.118-24.482,19.571,10.024,21.86,26.046-4.464,30.408-5.735,37.021S2958.192,2007.424,2955.023,2007.6Z" transform="translate(0 -27.159)" fill="#739703"/>
    <path id="パス_114" data-name="パス 114" d="M2981.9,2118.219s.763-14.242,2.289-23.4,2.034-36.368,3.052-32.044,2.543,19.328,3.306,31.281-1.272,22.889-1.017,26.2S2982.628,2127.084,2981.9,2118.219Z" transform="translate(-34.431 -124.294)" fill="#32190e"/>
    <path id="パス_115" data-name="パス 115" d="M3646.956,2093.389s6.727-16.627,6.209-25.942,1.035-18.042-.517-21.147-14.72-16.2-12.419-15.007c5.434,2.823,13.318,12.767,14.489,8.8,3.009-10.2-3.622-21.733-.518-19.146s6.209,22.251,6.209,22.251a8.08,8.08,0,0,0,3.623-2.587c1.308-2.105,1.2-5.116,2.07-5.692,1.552-1.035,1.035,6.727,0,9.832s-3.622,7.762-3.622,11.9,1.035,15.524,1.035,19.664,1.035,10.349,2.587,13.454,1.552,3.622,1.552,3.622Z" transform="translate(-522.232 -93.354)" fill="#693b1e"/>
    <path id="パス_116" data-name="パス 116" d="M3718.855,2019.449s-1.531,5.392-5.692,8.538l-4.162,3.146-.668,4.443s6.665-4.929,8.8-8.279C3720.752,2021.605,3719.656,2017.36,3718.855,2019.449Z" transform="translate(-572.915 -92.118)" fill="#693b1e"/>
    <g id="グループ_46" data-name="グループ 46" transform="translate(3191.36 1918.652)">
      <path id="パス_117" data-name="パス 117" d="M3995.266,2166.321s3.407-21.153,2.555-27.966-.852-19.163-.852-19.163h9.794s-.852,19.589-.852,22.144,1.278,14.479,1.278,14.479l.852,10.22Z" transform="translate(-3976.97 -2085.107)" fill="#a56d35"/>
      <path id="パス_118" data-name="パス 118" d="M3952.474,2157.261h35.771s-2.555-6.813-5.11-8.942l-2.555-2.13s-3.469-9.42-9.369-8.942S3952.9,2152.151,3952.474,2157.261Z" transform="translate(-3945.25 -2098.478)" fill="#526e00"/>
      <path id="パス_119" data-name="パス 119" d="M3924.553,2081.413h50.218s-3.587-9.565-7.174-12.554l-3.587-2.989s-4.87-13.224-13.152-12.555S3925.151,2074.239,3924.553,2081.413Z" transform="translate(-3924.553 -2036.256)" fill="#739703"/>
      <path id="パス_120" data-name="パス 120" d="M3924.553,2015.577h50.218s-3.587-9.565-7.174-12.554l-3.587-2.99s-4.87-13.224-13.152-12.554S3925.151,2008.4,3924.553,2015.577Z" transform="translate(-3924.553 -1987.455)" fill="#628200"/>
    </g>
    <g id="グループ_47" data-name="グループ 47" transform="translate(3271.774 1918.652)">
      <path id="パス_121" data-name="パス 121" d="M4306.066,2166.321s3.407-21.153,2.555-27.966-.852-19.163-.852-19.163h9.794s-.852,19.589-.852,22.144,1.277,14.479,1.277,14.479l.852,10.22Z" transform="translate(-4287.771 -2085.107)" fill="#a56d35"/>
      <path id="パス_122" data-name="パス 122" d="M4263.273,2157.261h35.77s-2.555-6.813-5.109-8.942l-2.555-2.13s-3.469-9.42-9.369-8.942S4263.7,2152.151,4263.273,2157.261Z" transform="translate(-4256.049 -2098.478)" fill="#526e00"/>
      <path id="パス_123" data-name="パス 123" d="M4235.354,2081.413h50.218s-3.586-9.565-7.173-12.554l-3.587-2.989s-4.87-13.224-13.153-12.555S4235.952,2074.239,4235.354,2081.413Z" transform="translate(-4235.354 -2036.256)" fill="#739703"/>
      <path id="パス_124" data-name="パス 124" d="M4235.354,2015.577h50.218s-3.586-9.565-7.173-12.554l-3.587-2.99s-4.87-13.224-13.153-12.554S4235.952,2008.4,4235.354,2015.577Z" transform="translate(-4235.354 -1987.455)" fill="#628200"/>
    </g>
    <g id="グループ_48" data-name="グループ 48" transform="translate(3232.03 1904.79)">
      <path id="パス_125" data-name="パス 125" d="M4152.452,2143.274s3.407-24.763,2.555-32.74-.852-22.434-.852-22.434h9.794s-.852,22.932-.852,25.923,1.277,16.95,1.277,16.95l.852,11.965Z" transform="translate(-4134.157 -2048.198)" fill="#a56d35"/>
      <path id="パス_126" data-name="パス 126" d="M4109.66,2132.667h35.771s-2.555-7.976-5.11-10.469l-2.555-2.493s-3.469-11.027-9.368-10.469S4110.086,2126.684,4109.66,2132.667Z" transform="translate(-4102.436 -2063.85)" fill="#739703"/>
      <path id="パス_127" data-name="パス 127" d="M4081.74,2043.872h50.218s-3.587-11.2-7.174-14.7l-3.587-3.5s-4.87-15.481-13.152-14.7S4082.338,2035.473,4081.74,2043.872Z" transform="translate(-4081.74 -1991.008)" fill="#81aa06"/>
      <path id="パス_128" data-name="パス 128" d="M4081.74,1966.8h50.218s-3.587-11.2-7.174-14.7l-3.587-3.5s-4.87-15.481-13.152-14.7S4082.338,1958.4,4081.74,1966.8Z" transform="translate(-4081.74 -1933.875)" fill="#8cb808"/>
    </g>
    <g id="グループ_50" data-name="グループ 50" transform="translate(3003.434 1898.575)">
      <g id="グループ_49" data-name="グループ 49" clip-path="url(#clip-path)">
        <path id="パス_129" data-name="パス 129" d="M3109.681,1925.07l88.486-25.873-85.9,37.257,105.044-18.629s-120.051,32.083-118.5,32.083,114.359,1.552,114.359,1.552l-104.527,18.628,83.312,3.622" transform="translate(-3124.521 -1901.955)" fill="none" stroke="#aecaae" stroke-miterlimit="10" stroke-width="2.126"/>
        <path id="パス_130" data-name="パス 130" d="M3135.653,1958.913l88.486-25.873-85.9,37.257,105.045-18.629s-120.051,32.083-118.5,32.083,114.359,1.552,114.359,1.552l-104.527,18.629,83.311,3.622" transform="translate(-3143.773 -1927.042)" fill="none" stroke="#aecaae" stroke-miterlimit="10" stroke-width="2.126"/>
      </g>
    </g>
    <path id="パス_132" data-name="パス 132" d="M3319.11,2118.488s-1.013-14.511.512-23.667,2.034-36.368,3.052-32.044,2.543,19.328,3.306,31.281.5,23.158.759,26.464S3319.84,2127.353,3319.11,2118.488Z" transform="translate(-284.152 -124.294)" fill="#6d3c17"/>
    <path id="パス_133" data-name="パス 133" d="M3286.245,2067.237l-.481-.439a129.07,129.07,0,0,0-13.394-10.188c-8.762-5.912-6.591-22.759-6.494-23.473a.55.55,0,0,1,1.09.147c-.023.168-2.176,16.883,6.02,22.413a137.818,137.818,0,0,1,13.036,9.86c1.6-2.443,8.2-12.26,12.422-15.075,4.342-2.895,2.391-13.933,2.371-14.044a.55.55,0,0,1,1.083-.2c.087.483,2.093,11.865-2.844,15.156-4.544,3.03-12.378,15.17-12.457,15.292Z" transform="translate(-244.708 -102.312)" fill="#6d3c17"/>
    <path id="パス_134" data-name="パス 134" d="M3268.939,2147.748l-.108-.045c-.062-.026-6.273-2.59-10.356-4.121-4.343-1.628-7.447-11.573-7.577-12a.55.55,0,0,1,1.052-.323c.03.1,3.072,9.85,6.912,11.29,3.8,1.425,9.426,3.737,10.28,4.089,1.067-.04,9.26-.419,12.493-2.728,2.049-1.464,5.2-5.618,7.5-8.651,2.416-3.186,3.244-4.229,3.814-4.371a.55.55,0,0,1,.307,1.056,34.006,34.006,0,0,0-3.244,3.979c-2.472,3.262-5.549,7.321-7.735,8.882-3.716,2.655-12.831,2.926-13.217,2.937Z" transform="translate(-233.815 -175.115)" fill="#6d3c17"/>
    <path id="パス_135" data-name="パス 135" d="M3252.5,2066.9l-.147,0c-5.847-.173-7.407-7.973-7.47-8.305a.55.55,0,0,1,1.081-.207c.014.073,1.458,7.266,6.422,7.413a2.729,2.729,0,0,0,2.222-.906c2.142-2.362,1.4-8.343,1.4-8.4a.55.55,0,0,1,1.091-.14c.034.266.807,6.548-1.672,9.282A3.786,3.786,0,0,1,3252.5,2066.9Z" transform="translate(-229.367 -119.52)" fill="#6d3c17"/>
    <path id="パス_136" data-name="パス 136" d="M3372.949,2093.881a8.489,8.489,0,0,1-2.463-.336,2.8,2.8,0,0,1-1.9-1.695c-1.077-2.733,1.656-7.5,1.773-7.7a.55.55,0,0,1,.952.551c-.722,1.247-2.435,4.89-1.7,6.749a1.725,1.725,0,0,0,1.192,1.045c3.819,1.158,9.3-1.548,9.36-1.575a.55.55,0,1,1,.492.984A19.875,19.875,0,0,1,3372.949,2093.881Z" transform="translate(-320.888 -140.274)" fill="#6d3c17"/>
    <path id="パス_137" data-name="パス 137" d="M3269.855,2166.238a18.126,18.126,0,0,1-6.674-1.818.55.55,0,0,1,.487-.986c.052.025,5.153,2.515,7.724,1.448a2.028,2.028,0,0,0,1.2-1.293c1.29-3.8-2.718-6.687-2.758-6.716a.55.55,0,1,1,.635-.9c.193.136,4.716,3.394,3.166,7.968a3.112,3.112,0,0,1-1.822,1.956A5.131,5.131,0,0,1,3269.855,2166.238Z" transform="translate(-242.71 -193.646)" fill="#6d3c17"/>
    <g id="グループ_51" data-name="グループ 51" transform="translate(3015.506 1930.349)">
      <path id="パス_138" data-name="パス 138" d="M3319.11,2118.488s-1.013-14.511.512-23.667,2.034-36.368,3.052-32.044,2.543,19.328,3.306,31.281.5,23.158.759,26.464S3319.84,2127.353,3319.11,2118.488Z" transform="translate(-3299.658 -2054.642)" fill="#6d3c17"/>
      <path id="パス_139" data-name="パス 139" d="M3286.245,2067.237l-.481-.439a129.07,129.07,0,0,0-13.394-10.188c-8.762-5.912-6.591-22.759-6.494-23.473a.55.55,0,0,1,1.09.147c-.023.168-2.176,16.883,6.02,22.413a137.818,137.818,0,0,1,13.036,9.86c1.6-2.443,8.2-12.26,12.422-15.075,4.342-2.895,2.391-13.933,2.371-14.044a.55.55,0,0,1,1.083-.2c.087.483,2.093,11.865-2.844,15.156-4.544,3.03-12.378,15.17-12.457,15.292Z" transform="translate(-3260.214 -2032.661)" fill="#6d3c17"/>
      <path id="パス_140" data-name="パス 140" d="M3268.939,2147.748l-.108-.045c-.062-.026-6.273-2.59-10.356-4.121-4.343-1.628-7.447-11.573-7.577-12a.55.55,0,0,1,1.052-.323c.03.1,3.072,9.85,6.912,11.29,3.8,1.425,9.426,3.737,10.28,4.089,1.067-.04,9.26-.419,12.493-2.728,2.049-1.464,5.2-5.618,7.5-8.651,2.416-3.186,3.244-4.229,3.814-4.371a.55.55,0,0,1,.307,1.056,34.006,34.006,0,0,0-3.244,3.979c-2.472,3.262-5.549,7.321-7.735,8.882-3.716,2.655-12.831,2.926-13.217,2.937Z" transform="translate(-3249.321 -2105.463)" fill="#6d3c17"/>
      <path id="パス_141" data-name="パス 141" d="M3252.5,2066.9l-.147,0c-5.847-.173-7.407-7.973-7.47-8.305a.55.55,0,0,1,1.081-.207c.014.073,1.458,7.266,6.422,7.413a2.729,2.729,0,0,0,2.222-.906c2.142-2.362,1.4-8.343,1.4-8.4a.55.55,0,0,1,1.091-.14c.034.266.807,6.548-1.672,9.282A3.786,3.786,0,0,1,3252.5,2066.9Z" transform="translate(-3244.874 -2049.868)" fill="#6d3c17"/>
      <path id="パス_142" data-name="パス 142" d="M3372.949,2093.881a8.489,8.489,0,0,1-2.463-.336,2.8,2.8,0,0,1-1.9-1.695c-1.077-2.733,1.656-7.5,1.773-7.7a.55.55,0,0,1,.952.551c-.722,1.247-2.435,4.89-1.7,6.749a1.725,1.725,0,0,0,1.192,1.045c3.819,1.158,9.3-1.548,9.36-1.575a.55.55,0,1,1,.492.984A19.875,19.875,0,0,1,3372.949,2093.881Z" transform="translate(-3336.394 -2070.623)" fill="#6d3c17"/>
      <path id="パス_143" data-name="パス 143" d="M3269.855,2166.238a18.126,18.126,0,0,1-6.674-1.818.55.55,0,0,1,.487-.986c.052.025,5.153,2.515,7.724,1.448a2.028,2.028,0,0,0,1.2-1.293c1.29-3.8-2.718-6.687-2.758-6.716a.55.55,0,1,1,.635-.9c.193.136,4.716,3.394,3.166,7.968a3.112,3.112,0,0,1-1.822,1.956A5.131,5.131,0,0,1,3269.855,2166.238Z" transform="translate(-3258.217 -2123.995)" fill="#6d3c17"/>
    </g>
    <path id="パス_144" data-name="パス 144" d="M3028.648,2004.189s.124-3.712,2.722-4.207S3032.608,2002.828,3028.648,2004.189Z" transform="translate(-69.086 -78.052)" fill="#87b107"/>
    <path id="パス_145" data-name="パス 145" d="M3027.268,2067.544s2.156-3.025,4.595-2S3031.32,2068.6,3027.268,2067.544Z" transform="translate(-68.063 -126.531)" fill="#87b107"/>
    <path id="パス_146" data-name="パス 146" d="M3025.154,2106.374s.124-3.712,2.722-4.207S3029.114,2105.013,3025.154,2106.374Z" transform="translate(-66.496 -153.798)" fill="#87b107"/>
    <path id="パス_147" data-name="パス 147" d="M3002.7,2043.623s.124-3.712,2.723-4.207S3006.663,2042.262,3002.7,2043.623Z" transform="translate(-49.853 -107.283)" fill="#87b107"/>
    <path id="パス_148" data-name="パス 148" d="M3050.954,2115.282s.124-3.712,2.723-4.207S3054.914,2113.921,3050.954,2115.282Z" transform="translate(-85.621 -160.402)" fill="#87b107"/>
    <path id="パス_149" data-name="パス 149" d="M3052.345,2035.869s2.156-3.024,4.595-2S3056.4,2036.925,3052.345,2035.869Z" transform="translate(-86.652 -103.051)" fill="#87b107"/>
    <path id="パス_150" data-name="パス 150" d="M3025.806,2184.283s.124-3.712,2.722-4.207S3029.766,2182.922,3025.806,2184.283Z" transform="translate(-66.979 -211.55)" fill="#87b107"/>
    <path id="パス_151" data-name="パス 151" d="M3025.009,2154.715s.124-3.712,2.722-4.207S3028.969,2153.354,3025.009,2154.715Z" transform="translate(-66.388 -189.632)" fill="#87b107"/>
    <path id="パス_152" data-name="パス 152" d="M2978.074,1990.948s-.093-3.714-2.687-4.23S2974.126,1989.553,2978.074,1990.948Z" transform="translate(-28.614 -68.216)" fill="#87b107"/>
    <path id="パス_153" data-name="パス 153" d="M2974.842,2054.3s-2.13-3.042-4.578-2.038S2970.781,2055.326,2974.842,2054.3Z" transform="translate(-25.149 -116.694)" fill="#87b107"/>
    <path id="パス_154" data-name="パス 154" d="M2970.639,2084.063s-.093-3.713-2.687-4.23S2966.691,2082.669,2970.639,2084.063Z" transform="translate(-23.103 -137.24)" fill="#87b107"/>
    <path id="パス_155" data-name="パス 155" d="M3005.673,1970.967s-.092-3.713-2.687-4.229S3001.725,1969.573,3005.673,1970.967Z" transform="translate(-49.072 -53.406)" fill="#87b107"/>
    <path id="パス_156" data-name="パス 156" d="M2954.838,2101.849s-.092-3.713-2.687-4.23S2950.889,2100.455,2954.838,2101.849Z" transform="translate(-11.389 -150.424)" fill="#87b107"/>
    <path id="パス_157" data-name="パス 157" d="M2950.03,2022.419s-2.13-3.042-4.578-2.038S2945.97,2023.442,2950.03,2022.419Z" transform="translate(-6.757 -93.059)" fill="#87b107"/>
    <path id="パス_158" data-name="パス 158" d="M2964.412,2165.643s-.092-3.713-2.687-4.23S2960.464,2164.249,2964.412,2165.643Z" transform="translate(-18.487 -197.713)" fill="#87b107"/>
    <path id="パス_159" data-name="パス 159" d="M2973.411,2140.144s-.093-3.713-2.687-4.23S2969.463,2138.75,2973.411,2140.144Z" transform="translate(-25.157 -178.811)" fill="#87b107"/>
  </g>
</svg>
