<svg xmlns="http://www.w3.org/2000/svg" width="64" height="52" viewBox="0 0 64 52">
  <g id="tree01" transform="translate(-3936.651 -1489.818)">
    <path id="パス_88" data-name="パス 88" d="M3946.183,1532.48s-9.809,1.28-9.525-5.4.568-14.5,2.844-19.9.569-17.772,4.407-17.345,7.677,2.559,8.956,11.516,3.129,23.032,2.417,26.729S3947.955,1532.382,3946.183,1532.48Z" transform="translate(0 0)" fill="#739703"/>
    <path id="パス_89" data-name="パス 89" d="M3969.225,1598.025s-6.4.834-6.211-3.523.371-9.455,1.854-12.978.371-11.587,2.874-11.309,5.006,1.668,5.84,7.509,2.04,15.017,1.576,17.428S3970.38,1597.962,3969.225,1598.025Z" transform="translate(-22.545 -69.053)" fill="#547000"/>
    <path id="パス_90" data-name="パス 90" d="M3986.824,1647.143s.426-7.962,1.28-13.08,1.138-20.331,1.706-17.914a169.317,169.317,0,0,1,1.848,17.487c.427,6.682-.711,12.8-.569,14.644S3987.233,1652.1,3986.824,1647.143Z" transform="translate(-42.916 -108.455)" fill="#32190e"/>
    <path id="パス_91" data-name="パス 91" d="M4102.474,1532.48s-9.81,1.28-9.526-5.4.569-14.5,2.843-19.9.569-17.772,4.408-17.345,7.677,2.559,8.957,11.516,3.127,23.032,2.417,26.729S4104.246,1532.382,4102.474,1532.48Z" transform="translate(-133.685 0)" fill="#739703"/>
    <path id="パス_92" data-name="パス 92" d="M4125.515,1598.025s-6.4.834-6.21-3.523.371-9.455,1.854-12.978.371-11.587,2.874-11.309,5.005,1.668,5.84,7.509,2.039,15.017,1.576,17.428S4126.67,1597.962,4125.515,1598.025Z" transform="translate(-156.231 -69.053)" fill="#547000"/>
    <path id="パス_93" data-name="パス 93" d="M4143.115,1647.143s.427-7.962,1.28-13.08,1.137-20.331,1.706-17.914a169.2,169.2,0,0,1,1.849,17.487c.426,6.682-.711,12.8-.569,14.644S4143.523,1652.1,4143.115,1647.143Z" transform="translate(-176.601 -108.455)" fill="#32190e"/>
    <path id="パス_94" data-name="パス 94" d="M4258.764,1532.48s-9.811,1.28-9.526-5.4.569-14.5,2.844-19.9.568-17.772,4.407-17.345,7.677,2.559,8.957,11.516,3.128,23.032,2.417,26.729S4260.536,1532.382,4258.764,1532.48Z" transform="translate(-267.37 0)" fill="#739703"/>
    <path id="パス_95" data-name="パス 95" d="M4281.805,1598.025s-6.4.834-6.21-3.523.371-9.455,1.854-12.978.371-11.587,2.874-11.309,5.006,1.668,5.84,7.509,2.039,15.017,1.576,17.428S4282.96,1597.962,4281.805,1598.025Z" transform="translate(-289.916 -69.053)" fill="#547000"/>
    <path id="パス_96" data-name="パス 96" d="M4299.406,1647.143s.426-7.962,1.279-13.08,1.137-20.331,1.706-17.914a169.3,169.3,0,0,1,1.848,17.487c.427,6.682-.71,12.8-.568,14.644S4299.813,1652.1,4299.406,1647.143Z" transform="translate(-310.286 -108.455)" fill="#32190e"/>
  </g>
</svg>
