<svg xmlns="http://www.w3.org/2000/svg" width="32" height="32"><circle data-name="楕円形 16" cx="16" cy="16" r="16"/><path data-name="パス 42199" d="M23.137 12.657a2.094 2.094 0 01.035.457 10.35 10.35 0 01-.7 3.709 11.694 11.694 0 01-1.986 3.375 9.474 9.474 0 01-3.326 2.478 10.532 10.532 0 01-4.5.949A10.242 10.242 0 017 21.973q.387.035.879.035a7.319 7.319 0 004.605-1.582 3.434 3.434 0 01-2.162-.721 3.671 3.671 0 01-1.283-1.81q.352.035.668.035a4.686 4.686 0 00.984-.105 3.586 3.586 0 01-1.512-.7 3.852 3.852 0 01-1.054-1.287 3.537 3.537 0 01-.387-1.634v-.07a3.475 3.475 0 001.652.492 3.548 3.548 0 01-1.652-3.094 3.564 3.564 0 01.527-1.863 10.179 10.179 0 003.357 2.742 10.219 10.219 0 004.237 1.125 5.124 5.124 0 01-.07-.844 3.58 3.58 0 011.072-2.6 3.494 3.494 0 012.584-1.09 3.563 3.563 0 012.707 1.16 7.51 7.51 0 002.355-.879 3.663 3.663 0 01-1.617 2.039 7.93 7.93 0 002.11-.599 8.115 8.115 0 01-1.863 1.934z" fill="#fff"/></svg>