<svg id="twitter" xmlns="http://www.w3.org/2000/svg" width="32" height="32" viewBox="0 0 32 32">
  <circle id="楕円形_16" data-name="楕円形 16" cx="16" cy="16" r="16"/>
  <path id="パス_42199" data-name="パス 42199" d="M16.137-10.406a2.094,2.094,0,0,1,.035.457,10.35,10.35,0,0,1-.7,3.709,11.694,11.694,0,0,1-1.986,3.375A9.474,9.474,0,0,1,10.16-.387a10.532,10.532,0,0,1-4.5.949A10.242,10.242,0,0,1,0-1.09q.387.035.879.035A7.319,7.319,0,0,0,5.484-2.637a3.434,3.434,0,0,1-2.162-.721A3.671,3.671,0,0,1,2.039-5.168q.352.035.668.035a4.686,4.686,0,0,0,.984-.105,3.586,3.586,0,0,1-1.512-.7A3.852,3.852,0,0,1,1.125-7.225,3.537,3.537,0,0,1,.738-8.859v-.07a3.475,3.475,0,0,0,1.652.492A3.548,3.548,0,0,1,.738-11.531a3.564,3.564,0,0,1,.527-1.863,10.179,10.179,0,0,0,3.357,2.742A10.219,10.219,0,0,0,8.859-9.527a5.124,5.124,0,0,1-.07-.844,3.58,3.58,0,0,1,1.072-2.6,3.494,3.494,0,0,1,2.584-1.09,3.563,3.563,0,0,1,2.707,1.16,7.51,7.51,0,0,0,2.355-.879,3.663,3.663,0,0,1-1.617,2.039A7.93,7.93,0,0,0,18-12.34,8.115,8.115,0,0,1,16.137-10.406Z" transform="translate(7 23.063)" fill="#fff"/>
</svg>
