<svg xmlns="http://www.w3.org/2000/svg" width="32" height="32" viewBox="0 0 32 32">
  <g id="youtube" transform="translate(-514 -91)">
    <g id="レイヤー_1" data-name="レイヤー 1" transform="translate(514 91)">
      <circle id="楕円形_3" data-name="楕円形 3" cx="16" cy="16" r="16"/>
      <path id="パス_72" data-name="パス 72" d="M174.621,218.909a9.546,9.546,0,0,1,.179.986q.082.591.115,1.165t.049,1.067q.016.493.017.821v.3a19.178,19.178,0,0,1-.361,4.366,2.331,2.331,0,0,1-1.607,1.574,13.529,13.529,0,0,1-2.364.246q-1.739.082-3.182.115h-1.446a38.613,38.613,0,0,1-6.992-.361,2.146,2.146,0,0,1-1.608-1.576,9.937,9.937,0,0,1-.247-1.723q-.082-1.1-.115-1.855v-.788a18.978,18.978,0,0,1,.361-4.333,2.3,2.3,0,0,1,1.608-1.608,13.569,13.569,0,0,1,2.364-.246q1.741-.082,3.182-.115h1.446a38.566,38.566,0,0,1,6.992.361,2.3,2.3,0,0,1,1.608,1.609Zm-10.438,7.025,4.694-2.692-4.694-2.659Z" transform="translate(-150.021 -207.217)" fill="#fff"/>
    </g>
  </g>
</svg>
